<svg width="98" height="98" viewBox="0 0 98 98" fill="none" xmlns="http://www.w3.org/2000/svg">
<path d="M12.9316 98H11.7317C5.97252 96.8383 1.14651 91.8769 0 85.9726V84.7425L20.0506 64.2412C25.9031 63.4758 32.3156 59.4575 32.4889 52.8014L34.7952 50.3686L35.1552 50.4096L39.8079 53.3071L75.1364 17.2385L76.6295 11.8944L88.7612 3.17455L92.4007 6.90579L83.9485 19.4253L79.2825 20.6553L43.5407 57.134L46.487 62.3277C46.4203 62.4644 44.4073 64.5008 44.2739 64.5692C43.7274 64.8562 42.4209 64.8289 41.661 65.0339C36.675 66.3733 33.4621 72.51 32.9555 77.4304L12.9449 97.9863L12.9316 98Z" fill="#CBCDD2"/>
<path d="M97.9866 77.362L97.4534 78.4554L84.7884 71.1296C84.2685 70.9656 83.4686 71.608 83.0153 71.9223C78.6826 74.8882 76.4829 80.0545 76.5496 85.3302L89.4545 92.9977L88.1213 95.4578C81.0156 95.4168 71.057 94.7198 67.3908 87.3257C66.3509 85.2345 65.7377 82.2003 65.5911 79.8768C65.5111 78.5648 65.751 77.239 65.4177 75.9543C64.7645 73.4121 59.8185 67.9724 57.9254 65.8676C54.8592 62.4644 51.5396 59.2798 48.4067 55.945L58.1787 45.9267C62.4182 49.9312 66.3776 54.4962 70.8703 58.2138C72.0302 59.1705 74.5765 61.2206 75.963 61.4667C78.296 61.8767 80.589 61.6853 83.0687 62.2457C90.7743 64.0225 95.5203 69.6125 98 77.075V77.3483L97.9866 77.362Z" fill="#CBCDD2"/>
<path d="M15.3313 0.0173595C24.7034 0.468389 33.2489 2.88754 34.6487 13.7669C34.8753 15.53 34.702 17.7032 34.9686 19.3159C35.1953 20.7237 37.5949 23.7579 38.5415 24.947C42.3143 29.7033 46.727 33.8855 50.8065 38.3412L41.0078 48.3868C38.0349 45.3936 35.1553 42.2638 32.009 39.4346C30.3559 37.9448 26.3298 34.3229 24.2768 33.9676C23.4102 33.8172 22.5303 33.9675 21.6771 33.8992C13.3049 33.1612 7.33242 29.5529 3.75958 21.6531C3.43962 20.9424 2.43976 18.6599 2.55974 18.0175C2.58641 17.8535 3.03968 16.9651 3.133 16.9651L15.9312 24.4686C21.1572 21.7214 24.1301 15.9947 23.8368 10.022L11.0652 2.61419L12.2651 0.0173595C13.2783 0.0583621 14.3181 -0.0373107 15.3313 0.0173595Z" fill="#CBCDD2"/>
</svg>
