<svg width="225" height="250" viewBox="0 0 225 250" fill="none" xmlns="http://www.w3.org/2000/svg">
<g id="Frame 2087327171">
<path id="Vector" d="M142.902 185.678C148.722 183.358 154.472 185.578 160.912 187.298C166.892 188.988 173.022 190.778 179.042 192.148C190.842 194.798 194.232 193.348 192.912 183.948C192.182 178.538 189.382 168.868 187.272 161.378C185.952 156.768 184.642 152.368 184.592 148.748C184.112 139.738 192.022 135.388 199.452 131.388C204.662 128.478 210.102 125.488 215.122 122.368C227.592 114.598 227.692 111.188 215.262 103.388C212.942 101.938 210.622 100.568 208.162 99.1577C205.402 97.5777 202.542 95.9777 199.762 94.4277C193.772 90.9977 187.272 88.0377 185.222 81.6377C183.482 76.2477 185.602 70.3677 187.162 64.6077C188.492 59.9477 189.892 55.0177 191.082 50.3677C194.642 36.2077 195.622 29.2077 178.542 33.6277C172.812 34.9477 166.952 36.6377 161.252 38.2577C152.212 40.9777 143.172 43.6077 136.832 35.1177C131.582 27.8577 127.232 18.0977 122.232 10.4077C114.462 -2.06228 111.062 -2.16228 103.252 10.2677C101.802 12.5877 100.432 14.9077 99.0224 17.3677C97.4424 20.1277 95.8424 22.9877 94.2924 25.7677C89.9024 33.9377 85.3624 42.2377 75.0724 40.8477C66.1724 39.5077 56.0624 35.5777 47.0124 33.6677C32.6924 30.3477 30.2224 32.6777 33.4924 46.9877C34.1024 49.6477 34.7824 52.2677 35.5224 54.9977C36.3524 58.0677 37.2424 61.2177 38.1124 64.2777C40.0524 71.3577 42.6624 78.3977 38.8224 84.5477C35.8724 89.0277 31.4724 91.1277 25.9424 94.2677C20.7324 97.1777 15.2924 100.168 10.2724 103.288C-4.62762 111.968 0.0923767 116.348 12.7024 123.838C16.8824 126.338 21.3424 128.828 25.6324 131.218C30.8924 134.248 36.4724 136.788 39.2424 141.818C41.5024 145.528 40.9824 151.288 39.6524 155.938C38.4624 160.418 37.1024 164.908 35.8824 169.398C35.0224 172.498 34.2424 175.478 33.5324 178.498C30.2124 192.818 32.5424 195.288 46.8524 192.018C52.5824 190.698 58.4424 189.008 64.1424 187.388C72.2024 185.028 81.0024 182.198 87.2424 189.008C89.7124 191.548 91.8724 195.458 94.1424 199.558C97.8724 206.228 102.572 214.768 105.852 219.268C111.222 226.848 115.142 226.748 121.712 216.058C125.012 210.858 128.072 205.278 131.102 199.878C134.462 194.068 136.992 188.238 142.812 185.698L142.912 185.658L142.902 185.678Z" fill="#FC7B65" stroke="#A34646" stroke-width="0.91" stroke-miterlimit="10"/>
<path id="Vector_2" d="M155.352 189.988L134.872 186.058C131.132 181.398 125.092 177.858 114.492 177.518C114.232 177.518 113.962 177.518 113.702 177.528C113.442 177.528 113.172 177.518 112.912 177.518C112.572 177.518 112.232 177.518 111.892 177.528C111.562 177.528 111.222 177.518 110.872 177.518C110.602 177.518 110.342 177.518 110.082 177.528C109.822 177.528 109.552 177.508 109.292 177.518C98.6521 177.858 92.6121 181.428 88.8721 186.108L68.6521 189.988C67.9921 190.118 67.5621 190.758 67.6921 191.408L69.4021 200.338C69.5321 200.998 70.1721 201.428 70.8221 201.298L82.9921 198.958C82.4821 200.708 82.0221 202.388 81.5221 203.908C79.9521 208.648 77.9321 220.838 90.6421 226.718C91.5821 227.178 92.6421 227.588 93.8421 227.958C94.9921 228.328 96.2421 228.648 97.5721 228.918V241.498H110.172V229.988C110.402 229.988 110.632 229.988 110.862 229.988C111.202 229.988 111.542 229.988 111.882 229.988C112.222 229.988 112.552 229.988 112.902 229.988C113.172 229.988 113.432 229.988 113.692 229.988C113.732 229.988 113.772 229.988 113.812 229.988V241.498H126.412V228.878C127.672 228.608 128.842 228.308 129.932 227.958C131.132 227.588 132.192 227.178 133.132 226.718C145.842 220.838 143.822 208.648 142.252 203.908C141.742 202.378 141.282 200.678 140.762 198.908L153.162 201.288C153.822 201.418 154.452 200.978 154.582 200.328L156.292 191.398C156.422 190.738 155.982 190.108 155.332 189.978L155.352 189.988Z" fill="#FECF2B" stroke="#D1904A" stroke-miterlimit="10"/>
<path id="Vector_3" d="M112.972 186.178C151.141 186.178 182.082 155.236 182.082 117.068C182.082 78.8993 151.141 47.9577 112.972 47.9577C74.8039 47.9577 43.8623 78.8993 43.8623 117.068C43.8623 155.236 74.8039 186.178 112.972 186.178Z" fill="#FECF2B"/>
<path id="Vector_4" d="M112.752 187.448C151.622 187.448 183.132 155.938 183.132 117.068C183.132 78.1979 151.622 46.6877 112.752 46.6877C73.8823 46.6877 42.3721 78.1979 42.3721 117.068C42.3721 155.938 73.8823 187.448 112.752 187.448Z" stroke="#FC7B65" stroke-width="6.72" stroke-miterlimit="10"/>
<path id="Vector_5" d="M116.532 131.318C115.872 131.088 115.092 130.948 114.262 130.918C113.432 130.948 112.662 131.088 111.992 131.318C111.252 131.588 109.412 132.618 109.412 133.868C109.412 135.308 110.862 136.478 112.642 136.478C112.932 136.478 113.152 136.398 113.382 136.318C113.952 136.108 114.582 136.108 115.152 136.318C115.382 136.398 115.612 136.478 115.892 136.478C117.672 136.478 119.122 135.308 119.122 133.868C119.122 132.608 117.282 131.578 116.542 131.318H116.532Z" fill="#FC7B65"/>
<path id="Vector_6" d="M104.322 115.698V122.648C104.322 130.218 98.2221 136.358 90.7021 136.358H80.5121C72.9821 136.358 66.8821 130.208 66.8721 122.628C66.8621 111.418 72.1921 102.208 82.1021 100.108C82.2221 100.088 82.3421 100.058 82.4621 100.048C90.7121 98.9177 95.3621 101.558 99.6821 105.398C102.622 108.008 104.322 111.758 104.322 115.708V115.698Z" fill="white"/>
<path id="Vector_7" d="M103.262 123.898L103.222 126.228C103.122 131.498 98.7724 135.688 93.5124 135.588L89.9523 135.518C84.3123 135.408 79.9323 130.448 80.6523 124.848C81.3923 119.128 84.6223 114.678 89.9823 113.658C90.0523 113.648 90.1323 113.638 90.2023 113.628C94.9123 113.078 97.6523 114.488 100.102 116.618C102.202 118.438 103.322 121.128 103.272 123.908L103.262 123.898Z" fill="#250F00"/>
<path id="Vector_8" d="M88.2823 122.148C89.3206 122.148 90.1623 121.306 90.1623 120.268C90.1623 119.229 89.3206 118.388 88.2823 118.388C87.244 118.388 86.4023 119.229 86.4023 120.268C86.4023 121.306 87.244 122.148 88.2823 122.148Z" fill="white"/>
<path id="Vector_9" d="M103.782 115.618C101.602 104.668 88.2922 100.768 78.8523 104.598C72.6023 106.638 68.6622 111.748 66.8022 118.188C66.6922 118.608 66.0222 118.498 66.0522 118.068C66.1022 115.768 66.5522 113.458 67.4122 111.228C72.9122 97.0177 95.9023 95.0977 103.332 108.598C104.492 110.748 105.112 113.198 104.912 115.578C104.882 115.888 104.602 116.128 104.292 116.098C104.032 116.078 103.822 115.878 103.782 115.628V115.618Z" fill="#250F00"/>
<path id="Vector_10" d="M123.072 115.698V122.648C123.072 130.218 129.172 136.358 136.692 136.358H146.882C154.412 136.358 160.512 130.208 160.522 122.628C160.532 111.418 155.202 102.208 145.292 100.108C145.172 100.088 145.052 100.058 144.932 100.048C136.682 98.9177 132.032 101.558 127.712 105.398C124.772 108.008 123.072 111.758 123.072 115.708V115.698Z" fill="white"/>
<path id="Vector_11" d="M124.132 123.898L124.172 126.228C124.272 131.498 128.622 135.688 133.882 135.588L137.442 135.518C143.082 135.408 147.462 130.448 146.742 124.848C146.002 119.128 142.772 114.678 137.412 113.658C137.342 113.648 137.262 113.638 137.192 113.628C132.482 113.078 129.742 114.488 127.292 116.618C125.192 118.438 124.072 121.128 124.122 123.908L124.132 123.898Z" fill="#250F00"/>
<path id="Vector_12" d="M129.622 122.698C130.66 122.698 131.502 121.856 131.502 120.818C131.502 119.779 130.66 118.938 129.622 118.938C128.584 118.938 127.742 119.779 127.742 120.818C127.742 121.856 128.584 122.698 129.622 122.698Z" fill="white"/>
<path id="Vector_13" d="M122.482 115.578C121.912 108.018 128.592 101.768 135.542 100.068C144.832 97.6677 156.402 101.918 159.982 111.238C160.842 113.468 161.282 115.778 161.342 118.078C161.342 118.288 161.182 118.468 160.972 118.468C160.802 118.468 160.642 118.358 160.592 118.198C159.282 113.928 157.192 110.028 153.942 107.518C150.752 105.028 146.482 103.618 142.512 103.228C134.412 102.478 125.232 107.018 123.622 115.628C123.542 116.278 122.522 116.228 122.492 115.578H122.482Z" fill="#250F00"/>
<path id="Vector_14" d="M78.9622 145.768C92.5926 145.768 103.642 142.768 103.642 139.068C103.642 135.367 92.5926 132.368 78.9622 132.368C65.3318 132.368 54.2822 135.367 54.2822 139.068C54.2822 142.768 65.3318 145.768 78.9622 145.768Z" fill="#FECF2B"/>
<path id="Vector_15" d="M146.962 145.768C159.582 145.768 169.812 142.768 169.812 139.068C169.812 135.367 159.582 132.368 146.962 132.368C134.343 132.368 124.112 135.367 124.112 139.068C124.112 142.768 134.343 145.768 146.962 145.768Z" fill="#FECF2B"/>
<path id="Vector_16" d="M126.592 90.2378C131.182 86.2778 137.102 84.9877 144.142 89.8377" stroke="#E89128" stroke-width="3.28" stroke-miterlimit="10" stroke-linecap="round"/>
<path id="Vector_17" d="M101.242 90.2378C96.6524 86.2778 90.7324 84.9877 83.6924 89.8377" stroke="#E89128" stroke-width="3.28" stroke-miterlimit="10" stroke-linecap="round"/>
<path id="Vector_18" d="M127.222 142.678C125.322 156.508 103.552 156.428 101.672 142.678C101.502 141.438 102.492 140.338 103.742 140.338C108.622 140.338 120.342 140.198 125.192 140.308C126.432 140.338 127.382 141.438 127.212 142.678H127.222Z" fill="#FC7B65"/>
<path id="Vector_19" opacity="0.5" d="M124.452 148.858C119.492 154.418 109.462 154.388 104.502 148.858C107.292 147.738 110.742 147.078 114.472 147.078C118.202 147.078 121.652 147.738 124.452 148.858Z" fill="white"/>
<path id="Vector_20" d="M168.092 190.948L166.412 190.628C167.232 189.678 167.272 188.238 166.432 187.258C165.512 186.168 163.862 186.038 162.772 186.958L159.922 189.378L149.842 187.448C149.352 187.358 148.882 187.678 148.782 188.168L146.482 200.148C146.392 200.638 146.712 201.108 147.202 201.208L165.442 204.708C169.222 205.438 172.912 202.928 173.642 199.148C174.372 195.368 171.862 191.678 168.082 190.948H168.092Z" fill="#FC7B65" stroke="#A34646" stroke-width="1.1" stroke-miterlimit="10"/>
<g id="Group" opacity="0.5">
<path id="Vector_21" d="M148.962 190.268L154.072 191.248" stroke="white" stroke-width="0.88" stroke-miterlimit="10"/>
<path id="Vector_22" d="M148.452 192.908L153.572 193.888" stroke="white" stroke-width="0.88" stroke-miterlimit="10"/>
<path id="Vector_23" d="M147.952 195.508L153.072 196.488" stroke="white" stroke-width="0.88" stroke-miterlimit="10"/>
<path id="Vector_24" d="M147.452 198.148L152.562 199.118" stroke="white" stroke-width="0.88" stroke-miterlimit="10"/>
</g>
<path id="Vector_25" d="M56.5123 190.948L58.1923 190.628C57.3723 189.678 57.3323 188.238 58.1723 187.258C59.0923 186.168 60.7423 186.038 61.8323 186.958L64.6823 189.378L74.7623 187.448C75.2523 187.358 75.7223 187.678 75.8223 188.168L78.1223 200.148C78.2123 200.638 77.8923 201.108 77.4023 201.208L59.1623 204.708C55.3823 205.438 51.6923 202.928 50.9623 199.148C50.2323 195.368 52.7423 191.678 56.5223 190.948H56.5123Z" fill="#FC7B65" stroke="#A34646" stroke-width="1.1" stroke-miterlimit="10"/>
<g id="Group_2" opacity="0.5">
<path id="Vector_26" d="M75.6422 190.268L70.5322 191.248" stroke="white" stroke-width="0.88" stroke-miterlimit="10"/>
<path id="Vector_27" d="M76.1522 192.908L71.0322 193.888" stroke="white" stroke-width="0.88" stroke-miterlimit="10"/>
<path id="Vector_28" d="M76.6422 195.508L71.5322 196.488" stroke="white" stroke-width="0.88" stroke-miterlimit="10"/>
<path id="Vector_29" d="M77.1522 198.148L72.0322 199.118" stroke="white" stroke-width="0.88" stroke-miterlimit="10"/>
</g>
<path id="Vector_30" d="M115.552 234.228L124.942 234.258C125.872 233.988 127.082 235.028 127.282 236.448V238.708H129.062C131.892 238.708 134.192 241.008 134.192 243.838V243.968C134.192 246.798 131.892 249.098 129.062 249.098H115.592C114.332 249.098 113.322 248.078 113.322 246.828V244.808V240.978V236.448C113.322 235.218 114.312 234.228 115.542 234.228H115.552Z" fill="#D7D7D8" stroke="#A8A8A8" stroke-linecap="round" stroke-linejoin="round"/>
<path id="Vector_31" d="M126.802 232.968H113.862C112.829 232.968 111.992 233.805 111.992 234.838C111.992 235.87 112.829 236.708 113.862 236.708H126.802C127.835 236.708 128.672 235.87 128.672 234.838C128.672 233.805 127.835 232.968 126.802 232.968Z" fill="#A5A5A5"/>
<path id="Vector_32" d="M108.202 234.228L98.812 234.258C97.882 233.988 96.672 235.028 96.472 236.448V238.708H94.692C91.862 238.708 89.562 241.008 89.562 243.838V243.968C89.562 246.798 91.862 249.098 94.692 249.098H108.162C109.422 249.098 110.432 248.078 110.432 246.828V236.448C110.432 235.218 109.442 234.228 108.212 234.228H108.202Z" fill="#D7D7D8" stroke="#A8A8A8" stroke-linecap="round" stroke-linejoin="round"/>
<path id="Vector_33" d="M96.9522 236.718H109.892C110.925 236.718 111.762 235.88 111.762 234.848C111.762 233.815 110.925 232.978 109.892 232.978H96.9522C95.9194 232.978 95.0822 233.815 95.0822 234.848C95.0822 235.88 95.9194 236.718 96.9522 236.718Z" fill="#A5A5A5"/>
<path id="Vector_34" d="M134.512 199.338L127.252 198.328C122.342 197.638 118.192 194.458 116.222 189.998C115.242 190.038 114.262 190.078 113.272 190.078C112.072 190.078 110.882 190.048 109.692 189.978C107.712 194.408 103.572 197.568 98.6922 198.248L91.4322 199.258C90.2822 199.418 89.4322 198.218 89.9522 197.188L92.5722 192.078C93.4022 190.458 94.4722 189.018 95.7222 187.788C94.4222 187.448 93.1422 187.058 91.8722 186.638H134.622C133.192 187.118 131.742 187.548 130.272 187.928C131.502 189.148 132.552 190.568 133.372 192.148L135.972 197.258C136.512 198.298 135.652 199.498 134.502 199.338H134.512Z" fill="#FC7B65"/>
<path id="Vector_35" d="M121.602 186.968L124.382 187.558C126.632 188.038 128.552 189.468 129.602 191.478L130.812 193.788C131.052 194.258 130.662 194.798 130.132 194.728L126.772 194.268C124.232 193.918 122.122 192.168 121.372 189.778L120.862 188.148L121.602 186.968Z" fill="#E86352"/>
<path id="Vector_36" d="M105.552 187.898L104.172 190.388C103.052 192.408 101.122 193.818 98.902 194.228L96.332 194.708C95.812 194.808 95.412 194.268 95.632 193.778L97.052 190.698C98.122 188.368 100.412 186.868 102.922 186.848H104.632L105.542 187.888L105.552 187.898Z" fill="#E86352"/>
<path id="Vector_37" d="M114.092 179.238H110.312C106.225 179.238 102.912 182.551 102.912 186.638V186.648C102.912 190.735 106.225 194.048 110.312 194.048H114.092C118.179 194.048 121.492 190.735 121.492 186.648V186.638C121.492 182.551 118.179 179.238 114.092 179.238Z" fill="#FC7B65" stroke="#A34646" stroke-width="0.95" stroke-miterlimit="10"/>
<path id="Vector_38" d="M120.982 186.648C120.982 188.548 120.212 190.268 118.962 191.518C117.712 192.768 115.982 193.538 114.092 193.538H110.582C109.352 193.538 108.202 193.218 107.202 192.638C107.582 192.708 107.972 192.748 108.372 192.748H111.892C113.782 192.748 115.502 191.978 116.762 190.728C118.012 189.478 118.782 187.748 118.782 185.858C118.782 183.298 117.372 181.058 115.292 179.868C118.512 180.438 120.982 183.268 120.982 186.658V186.648Z" fill="#E86352"/>
</g>
</svg>
