<svg width="164" height="30" viewBox="0 0 164 30" fill="none" xmlns="http://www.w3.org/2000/svg">
<path d="M30 0H0V30H30V0Z" fill="#F9E000"/>
<path d="M14.9705 5.50153C9.01932 5.50153 4.19531 9.31434 4.19531 14.0203C4.19531 17.0824 6.23804 19.766 9.3062 21.2675C9.08036 22.1078 8.49033 24.3154 8.37232 24.7874C8.22583 25.3733 8.58595 25.3652 8.824 25.2085C9.00915 25.0844 11.7762 23.2024 12.9705 22.3906C13.6195 22.4863 14.2869 22.5371 14.9705 22.5371C20.9217 22.5371 25.7457 18.7243 25.7457 14.0203C25.7457 9.31638 20.9217 5.50153 14.9705 5.50153Z" fill="#311819"/>
<path d="M7.45263 12.4517H8.56148C8.56148 12.4517 8.56758 15.4975 8.56148 16.2075C8.56148 16.7264 9.71509 16.7325 9.71305 16.2157L9.71712 12.4924C9.71712 12.4924 10.0895 12.4944 10.8199 12.4944C11.5096 12.4944 11.5096 11.41 10.8199 11.41C10.0427 11.41 7.44652 11.3876 7.44652 11.3876C6.79545 11.3876 6.79749 12.4517 7.44652 12.4517" fill="#F9E000"/>
<mask id="mask0_948_336" style="mask-type:luminance" maskUnits="userSpaceOnUse" x="6" y="11" width="6" height="6">
<path d="M7.45263 12.4517H8.56148C8.56148 12.4517 8.56758 15.4975 8.56148 16.2075C8.56148 16.7264 9.71509 16.7325 9.71305 16.2157L9.71712 12.4924C9.71712 12.4924 10.0895 12.4944 10.8199 12.4944C11.5096 12.4944 11.5096 11.41 10.8199 11.41C10.0427 11.41 7.44652 11.3876 7.44652 11.3876C6.79545 11.3876 6.79749 12.4517 7.44652 12.4517" fill="white"/>
</mask>
<g mask="url(#mask0_948_336)">
<path d="M11.5139 11.3876H6.80176V16.7325H11.5139V11.3876Z" fill="#F9E000"/>
</g>
<path d="M12.7611 12.647L13.3776 14.5799H12.0917L12.7611 12.647ZM12.0694 11.7416C11.7967 12.3418 10.81 15.1801 10.4844 15.9329C10.2484 16.4761 11.2677 16.9196 11.5038 16.3764L11.7255 15.6012H13.754C13.754 15.6012 13.6848 15.6338 13.9534 16.3438C14.1711 16.9196 15.225 16.5208 15.0073 15.9451C14.696 15.1231 13.6177 12.1607 13.4203 11.7416C13.3308 11.5483 13.0053 11.4079 12.6899 11.4079C12.4295 11.4079 12.1752 11.5036 12.0673 11.7416" fill="#F9E000"/>
<mask id="mask1_948_336" style="mask-type:luminance" maskUnits="userSpaceOnUse" x="10" y="11" width="6" height="6">
<path d="M12.7611 12.647L13.3776 14.5799H12.0917L12.7611 12.647ZM12.0694 11.7416C11.7967 12.3418 10.81 15.1801 10.4844 15.9329C10.2484 16.4761 11.2677 16.9196 11.5038 16.3764L11.7255 15.6012H13.754C13.754 15.6012 13.6848 15.6338 13.9534 16.3438C14.1711 16.9196 15.225 16.5208 15.0073 15.9451C14.696 15.1231 13.6177 12.1607 13.4203 11.7416C13.3308 11.5483 13.0053 11.4079 12.6899 11.4079C12.4295 11.4079 12.1752 11.5036 12.0673 11.7416" fill="white"/>
</mask>
<g mask="url(#mask1_948_336)">
<path d="M15.2268 11.4098H10.2461V16.9236H15.2268V11.4098Z" fill="#F9E000"/>
</g>
<path d="M15.3975 11.9186C15.3975 12.883 15.4036 15.9919 15.4036 15.9919C15.4036 15.9919 15.3141 16.6104 15.8451 16.6104C16.3761 16.6104 17.5501 16.6043 18.0709 16.6043C18.5918 16.6043 18.5897 15.4954 18.0689 15.4954C17.548 15.4954 16.5958 15.4893 16.5958 15.4893C16.5958 15.4893 16.5999 12.6144 16.5979 11.9145C16.5979 11.5768 16.2968 11.4079 15.9977 11.4079C15.6986 11.4079 15.3954 11.5788 15.3975 11.9166" fill="#F9E000"/>
<mask id="mask2_948_336" style="mask-type:luminance" maskUnits="userSpaceOnUse" x="15" y="11" width="4" height="6">
<path d="M15.3975 11.9186C15.3975 12.883 15.4036 15.9919 15.4036 15.9919C15.4036 15.9919 15.3141 16.6104 15.8451 16.6104C16.3761 16.6104 17.5501 16.6043 18.0709 16.6043C18.5918 16.6043 18.5897 15.4954 18.0689 15.4954C17.548 15.4954 16.5958 15.4893 16.5958 15.4893C16.5958 15.4893 16.5999 12.6144 16.5979 11.9145C16.5979 11.5768 16.2968 11.4079 15.9977 11.4079C15.6986 11.4079 15.3954 11.5788 15.3975 11.9166" fill="white"/>
</mask>
<g mask="url(#mask2_948_336)">
<path d="M18.5922 11.4098H15.3145V16.6102H18.5922V11.4098Z" fill="#F9E000"/>
</g>
<path d="M18.7301 11.766C18.7423 12.1892 18.7158 16.0142 18.7158 16.297C18.7158 16.7446 19.8552 16.7426 19.8552 16.297C19.8552 15.7782 19.8552 14.7914 19.8552 14.7914L20.1889 14.5229L21.6517 16.5168C21.9467 16.9074 22.8766 16.2014 22.5815 15.8128L21.0291 13.768C21.0291 13.768 22.0831 12.6287 22.4981 12.2156C22.7402 11.9756 21.9895 11.2187 21.7474 11.4608C21.5134 11.6928 19.8613 13.3469 19.8613 13.3469C19.8613 13.3469 19.8755 12.3092 19.8613 11.7355C19.8552 11.5178 19.5887 11.412 19.314 11.412C19.021 11.412 18.7219 11.532 18.728 11.766" fill="#F9E000"/>
<mask id="mask3_948_336" style="mask-type:luminance" maskUnits="userSpaceOnUse" x="18" y="11" width="5" height="6">
<path d="M18.7301 11.766C18.7423 12.1892 18.7158 16.0142 18.7158 16.297C18.7158 16.7446 19.8552 16.7426 19.8552 16.297C19.8552 15.7782 19.8552 14.7914 19.8552 14.7914L20.1889 14.5229L21.6517 16.5168C21.9467 16.9074 22.8766 16.2014 22.5815 15.8128L21.0291 13.768C21.0291 13.768 22.0831 12.6287 22.4981 12.2156C22.7402 11.9756 21.9895 11.2187 21.7474 11.4608C21.5134 11.6928 19.8613 13.3469 19.8613 13.3469C19.8613 13.3469 19.8755 12.3092 19.8613 11.7355C19.8552 11.5178 19.5887 11.412 19.314 11.412C19.021 11.412 18.7219 11.532 18.728 11.766" fill="white"/>
</mask>
<g mask="url(#mask3_948_336)">
<path d="M22.8766 11.2208H18.7158V16.9095H22.8766V11.2208Z" fill="#F9E000"/>
</g>
<path d="M59.3018 8.65039C59.2842 13.5898 58.0889 17.7031 52.1123 20.6914L50.8818 19.0039C53.5537 17.6768 55.1445 16.1914 56.0498 14.416L51.3213 14.8555L51.04 12.9395L56.7354 12.5879C56.8936 11.9199 57.0078 11.1992 57.0693 10.4434H51.8838V8.65039H59.3018ZM63.5732 7.12109V13.2559H65.8408V15.1016H63.5732V23.082H61.3232V7.12109H63.5732ZM74.8584 8.65039C74.8408 13.5898 73.6455 17.7031 67.6689 20.6914L66.4385 19.0039C69.1104 17.6768 70.7012 16.1914 71.6064 14.416L66.8779 14.8555L66.5967 12.9395L72.292 12.5879C72.4502 11.9199 72.5645 11.1992 72.626 10.4434H67.4404V8.65039H74.8584ZM79.1299 7.12109V13.2559H81.3975V15.1016H79.1299V23.082H76.8799V7.12109H79.1299ZM89.3604 7.94727C92.8057 7.94727 95.3721 9.6875 95.3896 12.3242C95.3721 14.7324 93.3418 16.3584 90.4678 16.6836V19.4082H96.708V21.2539H82.0654V19.4082H88.2354V16.666C85.3701 16.3584 83.3486 14.7236 83.3486 12.3242C83.3486 9.6875 85.915 7.94727 89.3604 7.94727ZM89.3604 9.74023C87.1279 9.74023 85.5635 10.7246 85.5635 12.3242C85.5635 14.0117 87.1279 14.9609 89.3604 14.9609C91.6104 14.9609 93.1572 14.0117 93.1748 12.3242C93.1572 10.7246 91.6104 9.74023 89.3604 9.74023ZM112.212 15.6113V17.3691H97.5869V15.6113H103.774V14.4336H99.415V7.47266H110.507V9.21289H101.665V10.1094H110.138V11.7617H101.665V12.7285H110.647V14.4336H106.024V15.6113H112.212ZM110.419 18.3535V23.1172H108.151V20.1113H99.2393V18.3535H110.419ZM131.97 19.4961V21.3418H117.327V19.4961H123.497V17.0879H119.015V11.709H128.067V9.95117H118.997V8.1582H130.282V13.4668H121.265V15.2598H130.651V17.0879H125.729V19.4961H131.97ZM145.681 8.59766V10.5137C145.681 12.7109 145.681 14.8906 145.101 18.1953L142.833 18.002C143.431 14.9258 143.431 12.6406 143.448 10.5137V10.3906H134.396V8.59766H145.681ZM147.474 19.1797V21.0254H132.884V19.1797H147.474ZM161.835 7.13867V18.6348H159.585V7.13867H161.835ZM162.257 21.043V22.8359H151.112V17.4746H153.38V21.043H162.257ZM153.063 8.1582C155.524 8.1582 157.44 9.8457 157.44 12.1836C157.44 14.5742 155.524 16.2441 153.063 16.2441C150.603 16.2441 148.687 14.5742 148.687 12.1836C148.687 9.8457 150.603 8.1582 153.063 8.1582ZM153.063 10.1094C151.815 10.0918 150.866 10.8828 150.884 12.1836C150.866 13.5195 151.815 14.293 153.063 14.293C154.276 14.293 155.226 13.5195 155.226 12.1836C155.226 10.8828 154.276 10.0918 153.063 10.1094Z" fill="#121212"/>
</svg>
