<svg width="225" height="252" viewBox="0 0 225 252" fill="none" xmlns="http://www.w3.org/2000/svg">
<path d="M144.046 188.793L161.568 201.897C163.138 203.07 163.451 205.29 162.283 206.852L158.918 211.352C157.744 212.922 155.524 213.235 153.963 212.067L136.44 198.964C133.629 196.862 133.054 192.872 135.156 190.061C137.258 187.25 141.247 186.675 144.058 188.777L144.046 188.793Z" fill="#FECF2B" stroke="#D1904A" stroke-miterlimit="10"/>
<path d="M167.962 205.728L166.622 204.678C167.782 204.208 168.482 202.948 168.182 201.698C167.862 200.308 166.462 199.438 165.072 199.758L161.422 200.608L153.352 194.268C152.962 193.958 152.392 194.028 152.082 194.418L144.552 204.018C144.242 204.408 144.312 204.978 144.702 205.288L159.312 216.758C162.342 219.138 166.772 218.598 169.142 215.568C171.522 212.538 170.982 208.108 167.952 205.738L167.962 205.728Z" fill="#FC7B65" stroke="#A34646" stroke-width="1.1" stroke-miterlimit="10"/>
<g opacity="0.5">
<path d="M151.272 196.368L155.372 199.578" stroke="white" stroke-width="0.88" stroke-miterlimit="10"/>
<path d="M149.612 198.478L153.712 201.688" stroke="white" stroke-width="0.88" stroke-miterlimit="10"/>
<path d="M147.982 200.568L152.082 203.778" stroke="white" stroke-width="0.88" stroke-miterlimit="10"/>
<path d="M146.332 202.678L150.422 205.888" stroke="white" stroke-width="0.88" stroke-miterlimit="10"/>
</g>
<path d="M127.442 218.448V240.328C127.442 242.288 125.852 243.868 123.902 243.868H118.282C116.322 243.868 114.742 242.278 114.742 240.328V218.448C114.742 214.938 117.592 212.088 121.102 212.088C124.612 212.088 127.462 214.938 127.462 218.448H127.442Z" fill="#FECF2B" stroke="#D1904A" stroke-miterlimit="10"/>
<path d="M110.562 218.448V240.328C110.562 242.288 108.972 243.868 107.022 243.868H101.402C99.442 243.868 97.862 242.278 97.862 240.328V218.448C97.862 214.938 100.712 212.088 104.222 212.088C107.732 212.088 110.582 214.938 110.582 218.448H110.562Z" fill="#FECF2B" stroke="#D1904A" stroke-miterlimit="10"/>
<path d="M116.333 235.678L125.723 235.708C126.653 235.438 127.863 236.478 128.063 237.898V240.158H129.843C132.673 240.158 134.973 242.458 134.973 245.288V245.418C134.973 248.248 132.673 250.548 129.843 250.548H116.373C115.113 250.548 114.103 249.528 114.103 248.278V246.258V242.428V237.898C114.103 236.668 115.093 235.678 116.323 235.678H116.333Z" fill="#D7D7D8" stroke="#A8A8A8" stroke-linecap="round" stroke-linejoin="round"/>
<path d="M127.582 234.418H114.642C113.61 234.418 112.772 235.255 112.772 236.288C112.772 237.321 113.61 238.158 114.642 238.158H127.582C128.615 238.158 129.452 237.321 129.452 236.288C129.452 235.255 128.615 234.418 127.582 234.418Z" fill="#A5A5A5"/>
<path d="M108.972 235.678L99.582 235.708C98.652 235.438 97.442 236.478 97.242 237.898V240.158H95.462C92.632 240.158 90.332 242.458 90.332 245.288V245.418C90.332 248.248 92.632 250.548 95.462 250.548H108.932C110.192 250.548 111.202 249.528 111.202 248.278V237.898C111.202 236.668 110.212 235.678 108.982 235.678H108.972Z" fill="#D7D7D8" stroke="#A8A8A8" stroke-linecap="round" stroke-linejoin="round"/>
<path d="M97.7222 238.158H110.662C111.695 238.158 112.532 237.32 112.532 236.288C112.532 235.255 111.695 234.418 110.662 234.418H97.7222C96.6895 234.418 95.8522 235.255 95.8522 236.288C95.8522 237.32 96.6895 238.158 97.7222 238.158Z" fill="#A5A5A5"/>
<path d="M142.902 185.678C148.722 183.358 154.472 185.578 160.912 187.298C166.892 188.988 173.022 190.778 179.042 192.148C190.842 194.798 194.232 193.348 192.912 183.948C192.182 178.538 189.382 168.868 187.272 161.378C185.952 156.768 184.642 152.368 184.592 148.748C184.112 139.738 192.022 135.388 199.452 131.388C204.662 128.478 210.102 125.488 215.122 122.368C227.592 114.598 227.692 111.188 215.262 103.388C212.942 101.938 210.622 100.568 208.162 99.1577C205.402 97.5777 202.542 95.9777 199.762 94.4277C193.772 90.9977 187.272 88.0377 185.222 81.6377C183.482 76.2477 185.602 70.3677 187.162 64.6077C188.492 59.9477 189.892 55.0177 191.082 50.3677C194.642 36.2077 195.622 29.2077 178.542 33.6277C172.812 34.9477 166.952 36.6377 161.252 38.2577C152.212 40.9777 143.172 43.6077 136.832 35.1177C131.582 27.8577 127.232 18.0977 122.232 10.4077C114.462 -2.06228 111.062 -2.16228 103.252 10.2677C101.802 12.5877 100.432 14.9077 99.0224 17.3677C97.4424 20.1277 95.8424 22.9877 94.2924 25.7677C89.9024 33.9377 85.3624 42.2377 75.0724 40.8477C66.1724 39.5077 56.0624 35.5777 47.0124 33.6677C32.6924 30.3477 30.2224 32.6777 33.4924 46.9877C34.1024 49.6477 34.7824 52.2677 35.5224 54.9977C36.3524 58.0677 37.2424 61.2177 38.1124 64.2777C40.0524 71.3577 42.6624 78.3977 38.8224 84.5477C35.8724 89.0277 31.4724 91.1277 25.9424 94.2677C20.7324 97.1777 15.2924 100.168 10.2724 103.288C-4.62762 111.968 0.0923767 116.348 12.7024 123.838C16.8824 126.338 21.3424 128.828 25.6324 131.218C30.8924 134.248 36.4724 136.788 39.2424 141.818C41.5024 145.528 40.9824 151.288 39.6524 155.938C38.4624 160.418 37.1024 164.908 35.8824 169.398C35.0224 172.498 34.2424 175.478 33.5324 178.498C30.2124 192.818 32.5424 195.288 46.8524 192.018C52.5824 190.698 58.4424 189.008 64.1424 187.388C72.2024 185.028 81.0024 182.198 87.2424 189.008C89.7124 191.548 91.8724 195.458 94.1424 199.558C97.8724 206.228 102.572 214.768 105.852 219.268C111.222 226.848 115.142 226.748 121.712 216.058C125.012 210.858 128.072 205.278 131.102 199.878C134.462 194.068 136.992 188.238 142.812 185.698L142.912 185.658L142.902 185.678Z" fill="#FC7B65" stroke="#A34646" stroke-width="0.91" stroke-miterlimit="10"/>
<path d="M97.6123 228.678H127.902C146.382 224.308 147.672 212.938 142.102 198.788C136.852 182.278 126.952 176.278 113.702 177.838C96.9623 177.578 86.4123 185.448 83.2123 202.968C80.5223 217.768 86.0223 225.758 97.6123 228.688V228.678Z" fill="#FECF2B" stroke="#D1904A" stroke-miterlimit="10"/>
<path d="M112.972 186.178C151.141 186.178 182.082 155.236 182.082 117.068C182.082 78.8993 151.141 47.9577 112.972 47.9577C74.8039 47.9577 43.8623 78.8993 43.8623 117.068C43.8623 155.236 74.8039 186.178 112.972 186.178Z" fill="#FECF2B"/>
<path d="M116.292 131.318C115.632 131.088 114.852 130.948 114.022 130.918C113.192 130.948 112.422 131.088 111.752 131.318C111.012 131.588 109.172 132.618 109.172 133.868C109.172 135.308 110.622 136.478 112.402 136.478C112.692 136.478 112.912 136.398 113.142 136.318C113.712 136.108 114.342 136.108 114.912 136.318C115.142 136.398 115.372 136.478 115.652 136.478C117.432 136.478 118.882 135.308 118.882 133.868C118.882 132.608 117.042 131.578 116.302 131.318H116.292Z" fill="#FC7B65"/>
<path d="M104.322 115.698V122.648C104.322 130.218 98.2221 136.358 90.7021 136.358H80.5121C72.9821 136.358 66.8821 130.208 66.8721 122.628C66.8621 111.418 72.1921 102.208 82.1021 100.108C82.2221 100.088 82.3421 100.058 82.4621 100.048C90.7121 98.9177 95.3621 101.558 99.6821 105.398C102.622 108.008 104.322 111.758 104.322 115.708V115.698Z" fill="white"/>
<path d="M88.5626 114.068L88.5226 116.398C88.4226 121.668 84.0726 125.858 78.8126 125.758L75.2526 125.688C69.6126 125.578 65.2326 120.618 65.9526 115.018C66.6926 109.298 69.9226 104.848 75.2826 103.828C75.3526 103.818 75.4326 103.808 75.5026 103.798C80.2126 103.248 82.9526 104.658 85.4026 106.788C87.5026 108.608 88.6226 111.298 88.5726 114.078L88.5626 114.068Z" fill="#250F00"/>
<path d="M73.5919 112.318C74.6302 112.318 75.4719 111.476 75.4719 110.438C75.4719 109.399 74.6302 108.558 73.5919 108.558C72.5536 108.558 71.7119 109.399 71.7119 110.438C71.7119 111.476 72.5536 112.318 73.5919 112.318Z" fill="white"/>
<path d="M103.782 115.618C101.602 104.668 88.2918 100.768 78.8518 104.598C72.6018 106.638 68.6618 111.748 66.8018 118.188C66.6918 118.608 66.0218 118.498 66.0518 118.058C66.1018 115.758 66.5518 113.448 67.4118 111.218C72.9118 97.0077 95.9018 95.0877 103.332 108.588C104.492 110.738 105.112 113.188 104.912 115.568C104.882 115.878 104.602 116.118 104.292 116.088C104.032 116.068 103.822 115.868 103.782 115.618Z" fill="#250F00"/>
<path d="M123.072 115.698V122.648C123.072 130.218 129.172 136.358 136.692 136.358H146.882C154.412 136.358 160.512 130.208 160.522 122.628C160.532 111.418 155.202 102.208 145.292 100.108C145.172 100.088 145.052 100.058 144.932 100.048C136.682 98.9177 132.032 101.558 127.712 105.398C124.772 108.008 123.072 111.758 123.072 115.708V115.698Z" fill="white"/>
<path d="M122.343 114.758L122.383 117.088C122.483 122.358 126.833 126.548 132.093 126.448L135.653 126.378C141.293 126.268 145.673 121.308 144.953 115.708C144.213 109.988 140.983 105.538 135.623 104.518C135.553 104.508 135.473 104.498 135.403 104.488C130.693 103.938 127.953 105.348 125.503 107.478C123.403 109.298 122.283 111.988 122.333 114.768L122.343 114.758Z" fill="#250F00"/>
<path d="M127.832 113.558C128.87 113.558 129.712 112.716 129.712 111.678C129.712 110.639 128.87 109.798 127.832 109.798C126.794 109.798 125.952 110.639 125.952 111.678C125.952 112.716 126.794 113.558 127.832 113.558Z" fill="white"/>
<path d="M122.473 115.578C121.903 108.018 128.583 101.768 135.533 100.068C144.823 97.6677 156.393 101.918 159.973 111.238C160.833 113.468 161.273 115.778 161.333 118.078C161.333 118.288 161.173 118.468 160.963 118.468C160.793 118.468 160.633 118.358 160.583 118.198C159.273 113.928 157.183 110.028 153.933 107.518C150.743 105.028 146.473 103.618 142.503 103.228C134.403 102.478 125.223 107.018 123.613 115.628C123.533 116.278 122.513 116.228 122.483 115.578H122.473Z" fill="#250F00"/>
<path d="M78.9622 145.768C92.5926 145.768 103.642 142.768 103.642 139.068C103.642 135.367 92.5926 132.368 78.9622 132.368C65.3318 132.368 54.2822 135.367 54.2822 139.068C54.2822 142.768 65.3318 145.768 78.9622 145.768Z" fill="#FECF2B"/>
<path d="M146.962 145.768C159.582 145.768 169.812 142.768 169.812 139.068C169.812 135.367 159.582 132.368 146.962 132.368C134.343 132.368 124.112 135.367 124.112 139.068C124.112 142.768 134.343 145.768 146.962 145.768Z" fill="#FECF2B"/>
<path d="M126.442 88.7677C131.632 85.6277 137.682 85.3577 143.812 91.3177" stroke="#E89128" stroke-width="3.28" stroke-miterlimit="10" stroke-linecap="round"/>
<path d="M101.102 88.4877C95.8418 85.4677 89.7818 85.3377 83.8018 91.4377" stroke="#E89128" stroke-width="3.28" stroke-miterlimit="10" stroke-linecap="round"/>
<path d="M120.583 146.828V148.938C120.583 149.748 120.403 150.528 120.093 151.218C119.223 153.118 117.313 154.438 115.083 154.438H112.973C110.743 154.438 108.833 153.118 107.963 151.218C107.653 150.528 107.473 149.758 107.473 148.938V146.828C107.473 143.788 109.943 141.328 112.973 141.328H115.083C118.123 141.328 120.583 143.798 120.583 146.828Z" fill="#FC7B65"/>
<path opacity="0.5" d="M120.092 151.218C119.222 153.118 117.312 154.438 115.082 154.438H112.972C110.742 154.438 108.832 153.118 107.962 151.218C108.832 149.308 110.742 147.988 112.972 147.988H115.082C117.312 147.988 119.232 149.318 120.092 151.218Z" fill="white"/>
<path d="M112.752 187.448C151.622 187.448 183.132 155.938 183.132 117.068C183.132 78.1979 151.622 46.6877 112.752 46.6877C73.8823 46.6877 42.3721 78.1979 42.3721 117.068C42.3721 155.938 73.8823 187.448 112.752 187.448Z" stroke="#FC7B65" stroke-width="6.72" stroke-miterlimit="10"/>
<path d="M134.512 199.338L127.252 198.328C122.342 197.638 118.192 194.458 116.222 189.998C115.242 190.038 114.262 190.078 113.272 190.078C112.072 190.078 110.882 190.048 109.692 189.978C107.712 194.408 103.572 197.568 98.6922 198.248L91.4322 199.258C90.2822 199.418 89.4322 198.218 89.9522 197.188L92.5722 192.078C93.4022 190.458 94.4722 189.018 95.7222 187.788C94.4222 187.448 93.1422 187.058 91.8722 186.638H134.622C133.192 187.118 131.742 187.548 130.272 187.928C131.502 189.148 132.552 190.568 133.372 192.148L135.972 197.258C136.512 198.298 135.652 199.498 134.502 199.338H134.512Z" fill="#FC7B65"/>
<path d="M121.602 186.968L124.382 187.558C126.632 188.038 128.552 189.468 129.602 191.478L130.812 193.788C131.052 194.258 130.662 194.798 130.132 194.728L126.772 194.268C124.232 193.918 122.122 192.168 121.372 189.778L120.862 188.148L121.602 186.968Z" fill="#E86352"/>
<path d="M105.552 187.898L104.172 190.388C103.052 192.408 101.122 193.818 98.902 194.228L96.332 194.708C95.812 194.808 95.412 194.268 95.632 193.778L97.052 190.698C98.122 188.368 100.412 186.868 102.922 186.848H104.632L105.542 187.888L105.552 187.898Z" fill="#E86352"/>
<path d="M114.092 179.238H110.312C106.225 179.238 102.912 182.551 102.912 186.638V186.648C102.912 190.735 106.225 194.048 110.312 194.048H114.092C118.179 194.048 121.492 190.735 121.492 186.648V186.638C121.492 182.551 118.179 179.238 114.092 179.238Z" fill="#FC7B65" stroke="#A34646" stroke-width="0.95" stroke-miterlimit="10"/>
<path d="M120.982 186.648C120.982 188.548 120.212 190.268 118.962 191.518C117.712 192.768 115.982 193.538 114.092 193.538H110.582C109.352 193.538 108.202 193.218 107.202 192.638C107.582 192.708 107.972 192.748 108.372 192.748H111.892C113.782 192.748 115.502 191.978 116.762 190.728C118.012 189.478 118.782 187.748 118.782 185.858C118.782 183.298 117.372 181.058 115.292 179.868C118.512 180.438 120.982 183.268 120.982 186.658V186.648Z" fill="#E86352"/>
<path d="M77.1988 184.442L94.2818 170.771C95.8121 169.546 98.0392 169.8 99.2576 171.323L102.769 175.71C103.994 177.241 103.74 179.468 102.217 180.686L85.1342 194.358C82.3938 196.551 78.3878 196.106 76.1946 193.366C74.0015 190.625 74.4459 186.62 77.1863 184.426L77.1988 184.442Z" fill="#FECF2B" stroke="#D1904A" stroke-miterlimit="10"/>
<path d="M112.242 164.648C111.932 164.218 111.582 163.848 111.202 163.508L114.672 160.248C115.922 159.068 115.992 157.078 114.812 155.828C113.632 154.578 111.642 154.508 110.392 155.688L102.612 162.998C102.612 162.998 102.512 163.058 102.462 163.098L101.082 164.098C100.952 162.848 99.9324 161.838 98.6424 161.778C97.2224 161.708 95.9924 162.818 95.9224 164.238L95.7424 167.978L87.4424 174.008C87.0424 174.298 86.9524 174.868 87.2424 175.268L94.4124 185.138C94.7024 185.538 95.2724 185.628 95.6724 185.338L110.702 174.418C113.822 172.158 114.512 167.748 112.252 164.638L112.242 164.648Z" fill="#FC7B65" stroke="#A34646" stroke-width="1.1" stroke-miterlimit="10"/>
<g opacity="0.5">
<path d="M89.002 176.588L93.242 173.568" stroke="white" stroke-width="0.88" stroke-miterlimit="10"/>
<path d="M90.562 178.768L94.802 175.748" stroke="white" stroke-width="0.88" stroke-miterlimit="10"/>
<path d="M92.1021 180.928L96.342 177.908" stroke="white" stroke-width="0.88" stroke-miterlimit="10"/>
<path d="M93.6519 183.118L97.8919 180.088" stroke="white" stroke-width="0.88" stroke-miterlimit="10"/>
</g>
</svg>
