<svg width="165" height="195" viewBox="0 0 165 195" fill="none" xmlns="http://www.w3.org/2000/svg">
<g clip-path="url(#clip0_1802_2765)">
<mask id="mask0_1802_2765" style="mask-type:luminance" maskUnits="userSpaceOnUse" x="0" y="0" width="165" height="195">
<path d="M164.717 0H0V194.489H164.717V0Z" fill="white"/>
</mask>
<g mask="url(#mask0_1802_2765)">
<path d="M91.1973 4.7356L98.916 16.3892C102.932 22.4481 110.21 25.466 117.337 24.0267L131.045 21.2642C138.462 19.7669 144.996 26.3133 143.499 33.7303L140.725 47.4383C139.286 54.5651 142.292 61.8428 148.351 65.8704L159.993 73.6008C166.295 77.7794 166.284 87.0419 159.993 91.2204L148.339 98.9392C142.28 102.955 139.262 110.233 140.702 117.36L143.464 131.068C144.962 138.485 138.415 145.02 130.998 143.522L117.29 140.748C110.163 139.309 102.886 142.315 98.858 148.374L91.1276 160.016C86.9491 166.319 77.6866 166.307 73.508 160.016L65.7892 148.362C61.7732 142.303 54.4955 139.286 47.3687 140.725L33.6607 143.487C26.2437 144.985 19.7089 138.438 21.2062 131.021L23.9803 117.313C25.4196 110.187 22.4133 102.909 16.3544 98.8812L4.7124 91.1508C-1.59028 86.9722 -1.57867 77.7097 4.7124 73.5312L16.366 65.8124C22.4249 61.7963 25.4428 54.5187 24.0035 47.3919L21.241 33.6838C19.7437 26.2669 26.2901 19.732 33.7071 21.2294L47.4151 24.0035C54.5419 25.4428 61.8196 22.4365 65.8473 16.3776L73.5776 4.7356C77.7562 -1.56708 87.0187 -1.55547 91.1973 4.7356Z" fill="#F55F61"/>
<path d="M103.582 145.101L102.247 140.946C99.0669 136.988 93.9481 133.981 84.941 133.679C84.7204 133.679 84.4883 133.679 84.2678 133.679C84.0472 133.679 83.8151 133.679 83.5945 133.679C83.3044 133.679 83.0142 133.679 82.7356 133.679C82.4571 133.679 82.1669 133.679 81.8767 133.679C81.6562 133.679 81.424 133.679 81.2035 133.679C80.9829 133.679 80.7508 133.668 80.5303 133.679C71.4999 133.97 64.9767 135.432 62.3999 139.889L59.3472 143.081C61.5062 144.88 59.974 145.101 58.4419 144.196L55.6213 144.904C59.4749 151.949 56.3642 149.059 56.9213 148.954L58.7901 152.808C58.1517 152.309 57.3508 154.793 56.9213 156.093C55.5865 160.121 53.8687 170.474 64.6517 175.465C65.4526 175.86 66.3463 176.208 67.3678 176.521C68.3428 176.835 69.399 177.102 70.5365 177.346V188.024H81.2383V178.251C81.4356 178.251 81.6329 178.251 81.8303 178.251C82.1204 178.251 82.4106 178.251 82.6892 178.251C82.9794 178.251 83.2579 178.251 83.5481 178.251C83.7803 178.251 84.0008 178.251 84.2213 178.251C84.2562 178.251 84.291 178.251 84.3142 178.251V188.024H95.016V177.311C96.0838 177.09 97.0821 176.823 98.0106 176.533C99.0321 176.22 99.9258 175.871 100.727 175.488C111.521 170.497 109.815 160.144 108.48 156.116C108.051 154.816 107.691 154.503 107.47 154.143L105.416 149.129L103.547 145.089L103.582 145.101Z" fill="#FFDB00"/>
<path d="M82.2365 139.611C111.045 139.611 134.399 116.257 134.399 87.4481C134.399 58.6396 111.045 35.2856 82.2365 35.2856C53.428 35.2856 30.074 58.6396 30.074 87.4481C30.074 116.257 53.428 139.611 82.2365 139.611Z" fill="#FFDB00"/>
<path d="M84.9874 98.475C84.4767 98.3009 83.8731 98.1848 83.2347 98.1616C82.5963 98.1848 81.9927 98.2893 81.482 98.4634C80.9133 98.6723 79.4856 99.4616 79.4856 100.437C79.4856 101.551 80.5999 102.456 81.9811 102.456C82.2017 102.456 82.3758 102.398 82.5499 102.329C82.991 102.166 83.4785 102.166 83.9195 102.329C84.0936 102.398 84.2677 102.456 84.4883 102.456C85.8695 102.456 86.9838 101.551 86.9838 100.437C86.9838 99.4616 85.5561 98.6723 84.9874 98.4634V98.475Z" fill="#F55F61"/>
<path d="M75.5509 86.3919V91.766C75.5509 97.616 70.8268 102.363 65.0116 102.363H57.1304C51.3036 102.363 46.5911 97.5928 46.5911 91.7312C46.5911 83.0607 50.7116 75.9339 58.3723 74.3205C58.4652 74.2973 58.558 74.2857 58.6509 74.2741C65.0348 73.4035 68.6214 75.4464 71.9643 78.4178C74.2393 80.4374 75.5509 83.3392 75.5509 86.3919Z" fill="white"/>
<path d="M74.7268 92.7294L74.692 94.5285C74.6107 98.6026 71.2446 101.841 67.1705 101.76L64.4196 101.702C60.0553 101.62 56.6661 97.7785 57.2348 93.449C57.8036 89.0267 60.3107 85.591 64.4545 84.8017C64.5125 84.8017 64.5705 84.7785 64.6286 84.7785C68.2732 84.3606 70.3857 85.4517 72.2777 87.0883C73.9027 88.4928 74.7732 90.5821 74.7268 92.7294Z" fill="#241004"/>
<path d="M69.2367 93.9482C70.2816 93.9482 71.1287 93.1013 71.1287 92.0563C71.1287 91.0114 70.2816 90.1643 69.2367 90.1643C68.1918 90.1643 67.3447 91.0114 67.3447 92.0563C67.3447 93.1013 68.1918 93.9482 69.2367 93.9482Z" fill="white"/>
<path d="M95.2831 93.9597C96.3279 93.9597 97.175 93.1127 97.175 92.0677C97.175 91.0229 96.3279 90.1758 95.2831 90.1758C94.2381 90.1758 93.3911 91.0229 93.3911 92.0677C93.3911 93.1127 94.2381 93.9597 95.2831 93.9597Z" fill="white"/>
<path d="M75.133 86.334C72.9857 76.0152 59.0571 74.1581 51.6982 80.0545C49.191 82.0045 47.5544 84.9992 46.5446 88.3072C45.1401 89.7001 46.6839 83.3974 47.0205 82.9215C51.2803 71.9411 69.0508 70.4438 74.7964 80.9019C75.6901 82.5617 76.1776 84.4652 76.0151 86.2992C75.9919 86.5429 75.783 86.7286 75.5392 86.7054C75.3303 86.6822 75.1794 86.5313 75.1446 86.334H75.133Z" fill="#241004"/>
<path d="M90.0483 86.3919V91.766C90.0483 97.616 94.7608 102.363 100.576 102.375H108.457C114.284 102.375 118.997 97.6276 119.008 91.766C119.02 83.0955 114.899 75.9687 107.239 74.3437C107.146 74.3205 107.053 74.3089 106.96 74.2973C100.576 73.4268 96.9894 75.458 93.6349 78.4294C91.3599 80.4491 90.0483 83.3509 90.0483 86.4035V86.3919Z" fill="white"/>
<path d="M90.8722 92.7409L90.9071 94.54C90.9767 98.6142 94.3428 101.853 98.4169 101.783L101.168 101.736C105.532 101.655 108.921 97.8133 108.364 93.4838C107.807 89.1543 105.3 85.6142 101.156 84.8249C101.098 84.8249 101.04 84.8017 100.982 84.8017C97.3374 84.3722 95.2249 85.4633 93.3213 87.1115C91.6963 88.5159 90.8258 90.6052 90.8606 92.7409H90.8722Z" fill="#241004"/>
<path d="M89.5957 86.2992C89.2823 82.5269 91.5457 78.8474 94.5751 76.7001C102.189 71.059 115.05 73.9144 118.59 82.9447C119.252 84.6626 119.6 86.4617 119.635 88.2376C119.635 88.4001 119.519 88.5394 119.356 88.5394C119.217 88.5394 119.101 88.4581 119.066 88.3304C118.056 85.0224 116.42 82.0277 113.924 80.0777C106.577 74.1697 92.6367 76.0152 90.4778 86.334C90.4082 86.8331 89.6305 86.7983 89.5957 86.2992Z" fill="#241004"/>
<path d="M55.9232 109.641C66.462 109.641 75.0054 107.318 75.0054 104.453C75.0054 101.587 66.462 99.2644 55.9232 99.2644C45.3844 99.2644 36.8411 101.587 36.8411 104.453C36.8411 107.318 45.3844 109.641 55.9232 109.641Z" fill="#FFDB00"/>
<path d="M108.515 109.664C118.278 109.664 126.193 107.342 126.193 104.476C126.193 101.611 118.278 99.2876 108.515 99.2876C98.752 99.2876 90.8374 101.611 90.8374 104.476C90.8374 107.342 98.752 109.664 108.515 109.664Z" fill="#FFDB00"/>
<path d="M105.486 65.6036C101.11 67.2982 96.4669 66.7062 92.5901 61.3438" stroke="#CC7229" stroke-width="2.18214" stroke-miterlimit="10" stroke-linecap="round"/>
<path d="M60.0786 66.4278C64.5474 67.8439 69.1438 66.9501 72.6724 61.3555" stroke="#CC7229" stroke-width="2.18214" stroke-miterlimit="10" stroke-linecap="round"/>
<path d="M85.8232 181.849L93.7974 181.884C94.5866 181.652 95.6197 182.545 95.7822 183.741V185.656H97.2911C99.6938 185.656 101.644 187.606 101.644 190.02V190.137C101.644 192.539 99.6938 194.489 97.2795 194.489H85.8465C84.7786 194.489 83.9197 193.619 83.9197 192.551V190.833V187.583V183.729C83.9197 182.685 84.767 181.837 85.8116 181.837L85.8232 181.849Z" fill="#F55F61"/>
<path d="M95.3761 180.781H84.3841C83.5058 180.781 82.7939 181.493 82.7939 182.371C82.7939 183.25 83.5058 183.962 84.3841 183.962H95.3761C96.2543 183.962 96.9663 183.25 96.9663 182.371C96.9663 181.493 96.2543 180.781 95.3761 180.781Z" fill="#FF7551"/>
<path d="M79.5784 181.837L71.6043 181.861C70.815 181.628 69.7819 182.522 69.6194 183.718V185.633H68.0989C65.6962 185.633 63.7462 187.583 63.7346 189.986V190.102C63.7346 192.504 65.6846 194.454 68.0873 194.466H79.5203C80.5882 194.466 81.4471 193.607 81.4471 192.539V190.821V187.571V183.718C81.4471 182.673 80.5998 181.826 79.5668 181.826L79.5784 181.837Z" fill="#F55F61"/>
<path d="M70.0276 183.955L81.0196 183.96C81.8978 183.96 82.6101 183.249 82.6106 182.37C82.611 181.493 81.8995 180.78 81.0212 180.78L70.0292 180.774C69.151 180.773 68.4387 181.485 68.4382 182.363C68.4378 183.241 69.1494 183.953 70.0276 183.955Z" fill="#FF7551"/>
<path d="M88.3538 109.734V111.371C88.3538 111.997 88.2145 112.601 87.9707 113.135C87.2975 114.609 85.8118 115.63 84.0939 115.619H82.4573C80.7395 115.619 79.2538 114.597 78.5805 113.123C78.3368 112.589 78.1975 111.986 78.1975 111.359V109.722C78.1975 107.378 80.1127 105.474 82.4573 105.474H84.0939C86.4502 105.474 88.3421 107.389 88.3421 109.734H88.3538Z" fill="#EC7762"/>
<path opacity="0.5" d="M87.9705 113.135C87.2973 114.609 85.8116 115.63 84.0937 115.619H82.4571C80.7393 115.619 79.2535 114.597 78.5803 113.123C79.2535 111.649 80.7393 110.628 82.4571 110.628H84.0937C85.8232 110.628 87.2973 111.661 87.9705 113.135Z" fill="white"/>
<path d="M62.0984 135.734C75.9225 140.214 88.5626 140.481 101.4 136.117L105.66 142.373C91.3251 148.92 73.3573 145.89 57.5251 141.642L62.11 135.734H62.0984Z" fill="#F55F61"/>
<path d="M101.609 154.282L95.4455 153.423C91.2785 152.843 87.75 150.138 86.0785 146.343C85.2544 146.378 84.4071 146.401 83.5714 146.401C82.5499 146.401 81.5401 146.378 80.5303 146.32C78.8473 150.08 75.3303 152.762 71.1866 153.33L65.0232 154.178C64.0482 154.317 63.3169 153.296 63.7696 152.425L65.9982 148.084C66.6946 146.714 67.6116 145.496 68.6794 144.439C67.5767 144.149 66.4857 143.824 65.4062 143.464L101.713 143.488C100.506 143.894 99.2642 144.265 98.0223 144.579C99.0669 145.612 99.9607 146.819 100.657 148.165L102.862 152.506C103.315 153.388 102.584 154.41 101.609 154.271V154.282Z" fill="#F55F61"/>
<path d="M90.6403 143.766L93.0082 144.265C94.9234 144.672 96.5484 145.89 97.4421 147.597L98.4752 149.558C98.6841 149.953 98.3475 150.417 97.8948 150.359L95.0394 149.964C92.8805 149.674 91.093 148.177 90.4546 146.146L90.0251 144.764L90.6519 143.755L90.6403 143.766Z" fill="#BC4C4D"/>
<path d="M77.0136 144.544L75.8413 146.656C74.8895 148.362 73.2529 149.57 71.3609 149.918L69.1788 150.324C68.7377 150.405 68.4011 149.953 68.5868 149.535L69.794 146.912C70.7109 144.938 72.6493 143.662 74.785 143.65H76.2359L77.0136 144.532V144.544Z" fill="#BC4C4D"/>
<path d="M84.2562 137.196H81.0643C77.5899 137.196 74.7732 140.01 74.7732 143.482C74.7732 146.953 77.5899 149.767 81.0643 149.767H84.2562C87.7307 149.767 90.5473 146.953 90.5473 143.482C90.5473 140.01 87.7307 137.196 84.2562 137.196Z" fill="#F55F61"/>
<path d="M90.5125 143.488C90.5125 145.217 89.8044 146.772 88.6786 147.898C87.5411 149.036 85.9741 149.732 84.2678 149.732H81.0875C79.9732 149.732 78.9286 149.442 78.0232 148.92C78.3714 148.989 78.7196 149.013 79.091 149.013H82.283C84.0009 149.013 85.5678 148.316 86.6937 147.179C87.8312 146.041 88.5277 144.486 88.5277 142.768C88.5277 140.447 87.2509 138.415 85.3589 137.324C88.2839 137.847 90.5241 140.412 90.5241 143.476L90.5125 143.488Z" fill="#BC4C4D"/>
<path d="M95.1439 93.5537C96.1888 93.5537 97.0359 92.7066 97.0359 91.6617C97.0359 90.6169 96.1888 89.7698 95.1439 89.7698C94.0989 89.7698 93.252 90.6169 93.252 91.6617C93.252 92.7066 94.0989 93.5537 95.1439 93.5537Z" fill="white"/>
<path d="M116.733 121.341C114.354 123.744 110.361 123.291 108.573 120.436C107.227 118.277 107.935 116.315 108.875 114.191C109.943 111.765 111.115 109.2 112.288 106.832C112.427 106.554 112.497 106.298 112.833 106.194C113.1 106.112 113.414 106.24 113.541 106.472C114.714 109.072 116.014 111.637 117.163 114.249C118.312 116.861 118.881 119.159 116.722 121.33L116.733 121.341Z" fill="#00C4DD"/>
<path d="M98.6375 93.4144C99.1119 93.4144 99.4964 93.0298 99.4964 92.5555C99.4964 92.0811 99.1119 91.6965 98.6375 91.6965C98.1631 91.6965 97.7786 92.0811 97.7786 92.5555C97.7786 93.0298 98.1631 93.4144 98.6375 93.4144Z" fill="white"/>
<path d="M72.3357 94.7491C72.81 94.7491 73.1947 94.3646 73.1947 93.8902C73.1947 93.4158 72.81 93.0312 72.3357 93.0312C71.8613 93.0312 71.4768 93.4158 71.4768 93.8902C71.4768 94.3646 71.8613 94.7491 72.3357 94.7491Z" fill="white"/>
<path d="M111.532 144.644L98.9386 127.008C97.2361 124.624 93.9233 124.071 91.5392 125.773C89.1551 127.476 88.6025 130.788 90.3049 133.172L102.898 150.808C104.601 153.192 107.914 153.745 110.298 152.042C112.682 150.34 113.234 147.028 111.532 144.644Z" fill="#FFDB00"/>
<path d="M94.7956 119.623L95.6197 120.819C96.0724 119.855 97.1751 119.333 98.2313 119.646C99.392 119.995 100.065 121.225 99.717 122.386L98.8117 125.438L103.78 132.6C104.023 132.948 103.93 133.424 103.582 133.668L95.0742 139.576C94.726 139.82 94.2501 139.727 94.0063 139.379L85.0108 126.413C83.142 123.721 83.8153 120.006 86.5081 118.137C89.201 116.269 92.9153 116.942 94.784 119.635L94.7956 119.623Z" fill="#F55F61"/>
<g opacity="0.5">
<path d="M101.899 134.237L99.3804 130.604" stroke="white" stroke-width="0.742857" stroke-miterlimit="10"/>
<path d="M100.019 135.537L97.5 131.904" stroke="white" stroke-width="0.742857" stroke-miterlimit="10"/>
<path d="M98.1733 136.825L95.6545 133.18" stroke="white" stroke-width="0.742857" stroke-miterlimit="10"/>
<path d="M96.3046 138.114L93.7859 134.48" stroke="white" stroke-width="0.742857" stroke-miterlimit="10"/>
</g>
<path d="M63.8871 150.815L76.4805 133.179C78.1829 130.795 77.6303 127.482 75.2462 125.779C72.8621 124.078 69.5493 124.63 67.8468 127.014L55.2535 144.649C53.5509 147.033 54.1036 150.347 56.4877 152.049C58.8718 153.751 62.1847 153.199 63.8871 150.815Z" fill="#FFDB00"/>
<path d="M71.9991 119.623L71.175 120.819C70.7223 119.855 69.6196 119.333 68.5634 119.646C67.4027 119.995 66.7295 121.225 67.0777 122.386L67.983 125.438L63.0152 132.6C62.7714 132.948 62.8643 133.424 63.2125 133.668L71.7205 139.576C72.0687 139.82 72.5446 139.727 72.7884 139.379L81.7839 126.413C83.6527 123.721 82.9795 120.006 80.2866 118.137C77.5937 116.269 73.8795 116.942 72.0107 119.635L71.9991 119.623Z" fill="#F55F61"/>
<g opacity="0.5">
<path d="M64.907 134.237L67.4141 130.604" stroke="white" stroke-width="0.742857" stroke-miterlimit="10"/>
<path d="M66.7759 135.537L69.2946 131.904" stroke="white" stroke-width="0.742857" stroke-miterlimit="10"/>
<path d="M68.6213 136.825L71.1401 133.18" stroke="white" stroke-width="0.742857" stroke-miterlimit="10"/>
<path d="M70.5017 138.114L73.0089 134.48" stroke="white" stroke-width="0.742857" stroke-miterlimit="10"/>
</g>
</g>
</g>
<defs>
<clipPath id="clip0_1802_2765">
<rect width="164.821" height="195" fill="white"/>
</clipPath>
</defs>
</svg>
