<svg width="358" height="100" viewBox="0 0 358 100" fill="none" xmlns="http://www.w3.org/2000/svg">
<rect width="358" height="100" rx="12" fill="#83D8FF"/>
<path d="M14.192 32.328L18.16 21.368H19.824L23.76 32.328H22.032L20.976 29.352H16.784L15.744 32.328H14.192ZM18.832 23.448L17.232 28.04H20.496L18.88 23.448H18.832ZM25.2655 32.328V21.368H26.9295V32.328H25.2655ZM40.362 28.76H35.962V31.144H41.61V32.456H28.73V31.144H34.33V28.76H30.378V24.152H38.314V22.312H30.33V21H39.946V25.48H32.026V27.432H40.362V28.76ZM57.8489 20.008V24.136H59.9449V25.512H57.8489V30.344H56.2009V20.008H57.8489ZM58.2649 33.832H48.7289V29.304H50.3769V32.504H58.2649V33.832ZM53.8489 27.8H47.2249V21.144H53.8489V27.8ZM52.2009 26.504V22.44H48.8729V26.504H52.2009ZM73.5006 28.568H60.6206V27.24H73.5006V28.568ZM71.9966 33.864H62.2686V29.752H63.9166V32.552H71.9966V33.864ZM71.9966 25.688H62.3166V20.568H71.8526V21.88H63.9646V24.36H71.9966V25.688ZM91.9315 26.872H89.7235V34.264H88.0915V20.008H89.7235V25.512H91.9315V26.872ZM87.0355 29.976C85.3715 30.3813 83.2648 30.5947 80.7155 30.616L79.2435 30.632V21.464H80.8595V29.24C83.3128 29.24 85.2968 29.0373 86.8115 28.632L87.0355 29.976ZM103.583 20.008V24.136H105.679V25.512H103.583V30.344H101.935V20.008H103.583ZM103.999 33.832H94.4633V29.304H96.1113V32.504H103.999V33.832ZM99.5833 27.8H92.9593V21.144H99.5833V27.8ZM97.9353 26.504V22.44H94.6073V26.504H97.9353ZM114.579 24.536C114.579 25.5067 114.222 26.2907 113.507 26.888C112.803 27.4853 111.918 27.784 110.851 27.784C109.795 27.784 108.92 27.4853 108.227 26.888C107.544 26.28 107.203 25.496 107.203 24.536C107.203 23.5547 107.55 22.744 108.243 22.104C108.947 21.4533 109.816 21.128 110.851 21.128C111.918 21.128 112.803 21.448 113.507 22.088C114.222 22.728 114.579 23.544 114.579 24.536ZM112.931 24.52C112.931 23.9227 112.734 23.4427 112.339 23.08C111.944 22.7173 111.448 22.536 110.851 22.536C110.286 22.536 109.8 22.7227 109.395 23.096C109 23.4693 108.803 23.944 108.803 24.52C108.803 25.0747 109 25.528 109.395 25.88C109.8 26.2213 110.286 26.392 110.851 26.392C111.427 26.392 111.918 26.2213 112.323 25.88C112.728 25.528 112.931 25.0747 112.931 24.52ZM118.275 20.008V34.264H116.643V20.008H118.275ZM115.843 29.304L115.971 30.616C113.112 30.9253 109.955 31.0907 106.499 31.112L106.243 29.704C108.131 29.7253 109.71 29.6987 110.979 29.624C112.899 29.5493 114.52 29.4427 115.843 29.304ZM127.378 23.144L127.586 27.208L128.722 27.176H129.17L129.41 23.144L130.994 23.272L130.61 27.096C131.431 27.064 132.162 26.9947 132.802 26.888L132.93 28.152C132.109 28.2907 130.685 28.4187 128.658 28.536C126.823 28.6 125.453 28.632 124.546 28.632L124.274 27.24H126.114L125.778 23.288L127.378 23.144ZM132.53 23.8V22.472H134.498V20.008H136.146V30.344H134.498V26.408H132.53V25.096H134.498V23.8H132.53ZM136.45 33.848H126.834V29.592H128.498V32.536H136.45V33.848ZM132.21 22.408H124.722V21.096H132.21V22.408ZM146.47 24.536C146.47 25.5067 146.112 26.2907 145.398 26.888C144.694 27.4853 143.808 27.784 142.742 27.784C141.686 27.784 140.811 27.4853 140.118 26.888C139.435 26.28 139.094 25.496 139.094 24.536C139.094 23.5547 139.44 22.744 140.134 22.104C140.838 21.4533 141.707 21.128 142.742 21.128C143.808 21.128 144.694 21.448 145.398 22.088C146.112 22.728 146.47 23.544 146.47 24.536ZM144.822 24.52C144.822 23.9227 144.624 23.4427 144.23 23.08C143.835 22.7173 143.339 22.536 142.742 22.536C142.176 22.536 141.691 22.7227 141.286 23.096C140.891 23.4693 140.694 23.944 140.694 24.52C140.694 25.0747 140.891 25.528 141.286 25.88C141.691 26.2213 142.176 26.392 142.742 26.392C143.318 26.392 143.808 26.2213 144.214 25.88C144.619 25.528 144.822 25.0747 144.822 24.52ZM150.166 20.008V34.264H148.534V20.008H150.166ZM147.734 29.304L147.862 30.616C145.003 30.9253 141.846 31.0907 138.39 31.112L138.134 29.704C140.022 29.7253 141.6 29.6987 142.87 29.624C144.79 29.5493 146.411 29.4427 147.734 29.304ZM163.849 34.088H154.569V28.824H163.849V34.088ZM152.585 22.216V20.856H160.089V22.216H157.241V22.328C157.241 23.3307 157.556 24.2107 158.185 24.968C158.825 25.7147 159.593 26.232 160.489 26.52L159.577 27.832C158.948 27.576 158.329 27.1813 157.721 26.648C157.124 26.1147 156.681 25.528 156.393 24.888C156.191 25.5707 155.759 26.232 155.097 26.872C154.447 27.5013 153.753 27.9547 153.017 28.232L152.025 26.952C153.06 26.5573 153.903 25.9547 154.553 25.144C155.215 24.3333 155.545 23.4107 155.545 22.376V22.216H152.585ZM163.833 28.088H162.201V24.872H159.881V23.512H162.201V20.008H163.833V28.088ZM162.217 32.776V30.088H156.217V32.776H162.217ZM26.208 52.344H24.576V47.672H21.776V46.328H24.576V42.008H26.208V52.344ZM21.76 43.112C21.696 45.032 21.104 46.632 19.984 47.912C18.864 49.1813 17.328 50.1147 15.376 50.712L14.528 49.4C15.9147 49.1013 17.12 48.52 18.144 47.656C19.168 46.7813 19.7813 45.7253 19.984 44.488H15.2V43.112H21.76ZM26.544 55.896H16.88V51.4H18.528V54.584H26.544V55.896ZM41.4918 46.824H39.3958V50.44H37.7478V42.008H39.3958V45.464H41.4918V46.824ZM35.4278 43.032C35.3958 44.888 34.8091 46.44 33.6678 47.688C32.5264 48.936 30.9797 49.848 29.0278 50.424L28.1798 49.096C29.5238 48.808 30.7131 48.248 31.7478 47.416C32.7931 46.5733 33.4118 45.5653 33.6038 44.392H28.8838V43.032H35.4278ZM39.5878 53.416C39.5878 54.28 39.1558 54.968 38.2918 55.48C37.4384 55.992 36.2544 56.248 34.7398 56.248C33.2358 56.248 32.0571 55.992 31.2038 55.48C30.3504 54.968 29.9238 54.28 29.9238 53.416C29.9238 52.5413 30.3504 51.8533 31.2038 51.352C32.0571 50.84 33.2358 50.584 34.7398 50.584C36.2544 50.584 37.4384 50.84 38.2918 51.352C39.1558 51.8533 39.5878 52.5413 39.5878 53.416ZM37.9078 53.416C37.9078 52.936 37.6251 52.5627 37.0598 52.296C36.5051 52.0293 35.7318 51.896 34.7398 51.896C33.7478 51.896 32.9744 52.0293 32.4198 52.296C31.8758 52.5627 31.6038 52.936 31.6038 53.416C31.6038 53.8853 31.8758 54.2587 32.4198 54.536C32.9744 54.8027 33.7478 54.936 34.7398 54.936C35.7318 54.936 36.5051 54.8027 37.0598 54.536C37.6251 54.2587 37.9078 53.8853 37.9078 53.416ZM54.1835 56.264H52.5995V42.008H54.1835V56.264ZM51.3675 55.576H49.8315V48.616H48.2795V47.272H49.8315V42.312H51.3675V55.576ZM48.6155 51.144L48.8235 52.44C47.7568 52.696 46.1142 52.8347 43.8955 52.856H42.6955V47.336H46.0715V44.872H42.6475V43.576H47.7195V48.632H44.3275V51.512C45.9488 51.512 47.3782 51.3893 48.6155 51.144ZM67.7553 56.264H66.1233V42.008H67.7553V56.264ZM64.6993 51.736L63.7233 52.968C63.0833 52.552 62.4433 51.9547 61.8033 51.176C61.1633 50.3867 60.7153 49.6133 60.4593 48.856C60.2246 49.6987 59.7819 50.5307 59.1313 51.352C58.4913 52.1627 57.7766 52.808 56.9873 53.288L55.9793 52.088C57.0993 51.352 57.9793 50.4187 58.6193 49.288C59.2699 48.1467 59.5953 46.9093 59.5953 45.576V43.24H61.2913V45.48C61.2913 46.824 61.5899 48.0347 62.1873 49.112C62.7953 50.1893 63.6326 51.064 64.6993 51.736ZM78.751 51.064L78.863 52.344C77.7643 52.5253 76.2443 52.664 74.303 52.76C72.9483 52.8347 71.5137 52.872 69.999 52.872L69.743 51.496C70.6817 51.496 71.375 51.4907 71.823 51.48L71.359 45.8L72.943 45.608L73.279 51.448C73.9617 51.4267 74.463 51.4053 74.783 51.384H74.991L75.343 45.592L76.959 45.752L76.479 51.304C77.439 51.2187 78.1963 51.1387 78.751 51.064ZM81.583 56.264H79.951V42.008H81.583V56.264ZM78.191 44.632H70.207V43.32H78.191V44.632ZM96.5788 49.784H83.6988V48.552H96.5788V49.784ZM95.3148 56.152H85.3468V52.856H93.2988V51.896H85.2988V50.712H94.9308V54.008H86.9788V54.984H95.3148V56.152ZM95.1548 47.688H85.3948V44.488H93.2028V43.576H85.3628V42.376H94.8508V45.592H87.0428V46.488H95.1548V47.688ZM111.73 51.592C112.594 52.072 113.026 52.728 113.026 53.56C113.026 54.392 112.594 55.048 111.73 55.528C110.866 56.008 109.65 56.248 108.082 56.248C106.514 56.248 105.292 56.0027 104.418 55.512C103.543 55.032 103.106 54.3813 103.106 53.56C103.106 52.728 103.543 52.072 104.418 51.592C105.292 51.1013 106.514 50.856 108.082 50.856C109.65 50.856 110.866 51.1013 111.73 51.592ZM114.626 49.624H101.746V48.328H106.754V45.784H108.402V48.328H114.626V49.624ZM112.962 42.568C113.015 44.4347 112.871 46.104 112.53 47.576L110.946 47.352C111.223 46.2427 111.346 45.0853 111.314 43.88H103.266V42.568H112.962ZM108.082 52.184C107.058 52.184 106.252 52.3067 105.666 52.552C105.09 52.7867 104.802 53.1227 104.802 53.56C104.802 54.008 105.09 54.3493 105.666 54.584C106.252 54.8187 107.058 54.936 108.082 54.936C109.106 54.936 109.906 54.8187 110.482 54.584C111.058 54.3493 111.346 54.008 111.346 53.56C111.346 53.1227 111.052 52.7867 110.466 52.552C109.89 52.3067 109.095 52.184 108.082 52.184ZM127.013 45.64C127.013 46.5893 126.56 47.352 125.653 47.928C124.757 48.4933 123.541 48.776 122.005 48.776C120.48 48.776 119.264 48.4933 118.357 47.928C117.451 47.352 116.997 46.5893 116.997 45.64C116.997 44.712 117.451 43.9653 118.357 43.4C119.264 42.824 120.48 42.536 122.005 42.536C123.531 42.536 124.747 42.824 125.653 43.4C126.56 43.9653 127.013 44.712 127.013 45.64ZM120.373 56.248H118.741V51.4H115.589V50.088H128.469V51.4H125.269V56.248H123.637V51.4H120.373V56.248ZM124.421 46.92C125.019 46.5893 125.317 46.1627 125.317 45.64C125.317 45.1173 125.013 44.6907 124.405 44.36C123.808 44.0293 123.008 43.864 122.005 43.864C121.003 43.864 120.197 44.0293 119.589 44.36C118.992 44.6907 118.693 45.1173 118.693 45.64C118.693 46.1627 118.992 46.5893 119.589 46.92C120.187 47.2507 120.992 47.416 122.005 47.416C123.019 47.416 123.824 47.2507 124.421 46.92ZM141.449 56.264H139.881V49.176H138.473V55.592H136.921V42.296H138.473V47.816H139.881V42.008H141.449V56.264ZM135.993 50.264C135.993 51.096 135.71 51.768 135.145 52.28C134.58 52.7813 133.838 53.032 132.921 53.032C132.014 53.032 131.273 52.7707 130.697 52.248C130.132 51.7147 129.849 51.0533 129.849 50.264C129.849 49.4107 130.132 48.7333 130.697 48.232C131.262 47.72 132.004 47.464 132.921 47.464C133.838 47.464 134.58 47.72 135.145 48.232C135.71 48.744 135.993 49.4213 135.993 50.264ZM129.305 46.76V45.4H136.393V46.76H129.305ZM134.489 50.264C134.489 49.816 134.34 49.4587 134.041 49.192C133.753 48.9147 133.38 48.776 132.921 48.776C132.462 48.776 132.084 48.9147 131.785 49.192C131.497 49.4587 131.353 49.816 131.353 50.264C131.353 50.6907 131.497 51.0427 131.785 51.32C132.084 51.5867 132.462 51.72 132.921 51.72C133.38 51.72 133.753 51.5813 134.041 51.304C134.34 51.0267 134.489 50.68 134.489 50.264ZM130.985 44.44V43.064H134.841V44.44H130.985ZM154.893 46.632C154.893 47.72 154.418 48.6053 153.469 49.288C152.52 49.96 151.266 50.296 149.709 50.296C148.173 50.296 146.93 49.96 145.981 49.288C145.032 48.6053 144.557 47.72 144.557 46.632C144.557 45.5547 145.032 44.6747 145.981 43.992C146.93 43.3093 148.173 42.968 149.709 42.968C151.266 42.968 152.52 43.3093 153.469 43.992C154.418 44.6747 154.893 45.5547 154.893 46.632ZM152.253 48.312C152.893 47.8853 153.213 47.3253 153.213 46.632C153.213 45.9387 152.893 45.384 152.253 44.968C151.613 44.5413 150.765 44.328 149.709 44.328C148.664 44.328 147.821 44.5413 147.181 44.968C146.541 45.384 146.221 45.9387 146.221 46.632C146.221 47.3253 146.541 47.8853 147.181 48.312C147.821 48.728 148.664 48.936 149.709 48.936C150.765 48.936 151.613 48.728 152.253 48.312ZM156.157 54.456H143.277V53.144H146.253V50.664L147.917 50.648V53.144H151.469V50.648L153.117 50.664V53.144H156.157V54.456ZM158.145 51.16L157.937 43H159.777L159.569 51.16H158.145ZM157.985 54.504V52.776H159.745V54.504H157.985Z" fill="#121212"/>
<g clip-path="url(#clip0_1802_2478)">
<mask id="mask0_1802_2478" style="mask-type:luminance" maskUnits="userSpaceOnUse" x="217" y="9" width="122" height="106">
<path d="M338.77 9.82617H217V114.905H338.77V9.82617Z" fill="white"/>
</mask>
<g mask="url(#mask0_1802_2478)">
<path d="M263.985 18.5136L267.804 24.4957C269.79 27.6076 273.462 29.2048 277.086 28.5388L284.071 27.254C287.848 26.5585 291.108 29.9415 290.282 33.6899L288.75 40.6209C287.954 44.222 289.422 47.9468 292.457 50.045L298.304 54.0763C301.463 56.257 301.38 60.9543 298.145 63.0171L292.163 66.8362C289.051 68.8223 287.453 72.4941 288.119 76.1187L289.404 83.1028C290.1 86.8807 286.717 90.1399 282.968 89.3148L276.037 87.7824C272.436 86.9868 268.711 88.4543 266.613 91.4896L262.582 97.3361C260.401 100.495 255.704 100.413 253.641 97.177L249.822 91.1949C247.836 88.083 244.164 86.4858 240.539 87.1518L233.555 88.4366C229.778 89.1321 226.518 85.7491 227.343 82.0007L228.876 75.0697C229.671 71.4686 228.204 67.7438 225.169 65.6457L219.322 61.6144C216.163 59.4337 216.246 54.7364 219.481 52.6736L225.463 48.8545C228.575 46.8683 230.172 43.1965 229.506 39.5718L228.222 32.5878C227.526 28.8099 230.909 25.5507 234.658 26.3758L241.589 27.9082C245.19 28.7038 248.914 27.2363 251.013 24.201L255.044 18.3544C257.225 15.1954 261.922 15.2779 263.985 18.5136Z" fill="#F55F61"/>
<path d="M278.041 93.2162L268.393 87.7645C266.814 85.7253 264.238 84.1576 259.671 83.9277C259.559 83.9277 259.441 83.9277 259.329 83.9277C259.217 83.9277 259.099 83.9218 258.987 83.9159C258.84 83.9159 258.692 83.9159 258.551 83.9159C258.409 83.9159 258.262 83.9041 258.115 83.9041C258.003 83.9041 257.885 83.9041 257.773 83.9041C257.661 83.9041 257.543 83.8923 257.431 83.8923C252.84 83.9572 249.522 84.6467 248.172 86.8863L239.638 93.34C239.054 93.1396 238.86 93.4107 238.913 93.6936L239.585 97.554C239.632 97.8369 239.909 98.0314 240.192 97.9783L246.245 93.4048C245.926 93.1455 245.496 94.4008 245.266 95.055C244.553 97.0884 243.587 102.328 249.026 104.956C249.427 105.163 249.881 105.345 250.394 105.516C250.883 105.681 251.419 105.829 251.997 105.958L251.903 111.381L257.337 111.475L257.425 106.512C257.525 106.512 257.62 106.512 257.726 106.518C257.873 106.518 258.02 106.518 258.162 106.518C258.309 106.518 258.451 106.524 258.598 106.53C258.716 106.53 258.828 106.53 258.94 106.53C258.957 106.53 258.975 106.53 258.987 106.53L258.898 111.493L264.332 111.587L264.427 106.147C264.969 106.041 265.482 105.917 265.953 105.776C266.472 105.628 266.932 105.457 267.344 105.269C272.872 102.835 272.094 97.5599 271.452 95.503C271.246 94.837 271.063 94.6778 270.957 94.4951L277.028 98.0608L278.053 93.1985L278.041 93.2162Z" fill="#FFDB00"/>
<path d="M258.71 86.9159C273.338 86.9159 285.196 75.0578 285.196 60.4295C285.196 45.8015 273.338 33.9431 258.71 33.9431C244.082 33.9431 232.224 45.8015 232.224 60.4295C232.224 75.0578 244.082 86.9159 258.71 86.9159Z" fill="#FFDB00"/>
<path d="M260.006 66.0523C259.747 65.958 259.441 65.899 259.117 65.8813C258.792 65.8813 258.486 65.9344 258.221 66.0228C257.932 66.123 257.201 66.512 257.189 67.0071C257.177 67.5728 257.737 68.0384 258.439 68.0502C258.551 68.0502 258.639 68.0267 258.733 67.9913C258.957 67.9147 259.205 67.9206 259.429 68.0031C259.517 68.0384 259.606 68.0679 259.718 68.0738C260.419 68.0856 260.991 67.6377 261.003 67.0719C261.008 66.5768 260.295 66.1584 260.006 66.0523Z" fill="#F55F61"/>
<path d="M255.321 59.8343L255.274 62.5631C255.221 65.5335 252.781 67.9028 249.828 67.8497L245.826 67.779C242.868 67.726 240.522 65.2683 240.569 62.292C240.64 57.8894 242.803 54.3119 246.704 53.5575C246.752 53.5457 246.799 53.5398 246.846 53.5339C250.093 53.1508 251.897 54.2176 253.571 55.7558C254.708 56.799 255.35 58.2842 255.321 59.8343Z" fill="white"/>
<path d="M254.844 63.0464L254.808 63.9599C254.732 66.0286 252.993 67.6435 250.93 67.5669L249.533 67.5138C247.317 67.4313 245.632 65.451 245.956 63.2586C246.286 61.019 247.588 59.2921 249.698 58.9326C249.728 58.9326 249.757 58.9267 249.787 58.9208C251.637 58.7381 252.704 59.3098 253.653 60.1644C254.46 60.8952 254.885 61.9561 254.849 63.0464H254.844Z" fill="#241004"/>
<path d="M252.068 63.6181C252.598 63.6181 253.028 63.188 253.028 62.6575C253.028 62.1269 252.598 61.6968 252.068 61.6968C251.537 61.6968 251.107 62.1269 251.107 62.6575C251.107 63.188 251.537 63.6181 252.068 63.6181Z" fill="white"/>
<path d="M265.287 63.8537C265.818 63.8537 266.248 63.4236 266.248 62.8931C266.248 62.3625 265.818 61.9324 265.287 61.9324C264.757 61.9324 264.327 62.3625 264.327 62.8931C264.327 63.4236 264.757 63.8537 265.287 63.8537Z" fill="white"/>
<path d="M255.109 59.7991C254.107 54.5419 247.052 53.481 243.262 56.4102C241.978 57.3768 241.111 58.8797 240.575 60.5535C239.85 61.2371 240.693 58.0663 240.864 57.8247C243.127 52.2905 252.156 51.6834 254.985 57.0408C255.427 57.8895 255.651 58.862 255.557 59.7932C255.545 59.917 255.433 60.0054 255.309 59.9936C255.203 59.9818 255.126 59.9052 255.109 59.805V59.7991Z" fill="#241004"/>
<path d="M262.682 59.9637L262.635 62.6925C262.582 65.663 264.934 68.1148 267.886 68.1678L271.888 68.2385C274.847 68.2916 277.281 65.9164 277.34 62.9401C277.422 58.5375 275.395 54.8834 271.517 53.9934C271.47 53.9816 271.423 53.9757 271.375 53.9639C268.14 53.463 266.301 54.4649 264.574 55.9442C263.401 56.9462 262.706 58.4078 262.682 59.9579V59.9637Z" fill="white"/>
<path d="M263.042 63.1936V64.1072C263.042 66.1759 264.721 67.8497 266.79 67.8497H268.187C270.403 67.8497 272.159 65.9283 271.912 63.7241C271.664 61.5198 270.421 59.7045 268.328 59.2625C268.299 59.2625 268.269 59.2507 268.24 59.2507C266.395 59.0032 265.311 59.5395 264.332 60.3529C263.496 61.0542 263.036 62.1033 263.036 63.1936H263.042Z" fill="#241004"/>
<path d="M262.452 59.9109C262.323 57.9954 263.507 56.1448 265.069 55.0839C268.983 52.2844 275.489 53.8462 277.204 58.4669C277.528 59.3451 277.688 60.2586 277.693 61.1604C277.693 61.2429 277.629 61.3136 277.546 61.3136C277.475 61.3136 277.416 61.2664 277.399 61.2075C276.916 59.516 276.108 57.9836 274.859 56.9699C271.175 53.9052 264.085 54.7244 262.9 59.9404C262.865 60.1938 262.464 60.1702 262.458 59.9109H262.452Z" fill="#241004"/>
<path d="M254.893 69.0061C254.919 67.5516 250.602 66.2951 245.252 66.1998C239.901 66.1045 235.543 67.2067 235.517 68.6614C235.491 70.1159 239.808 71.3725 245.158 71.4679C250.508 71.5634 254.867 70.4613 254.893 69.0061Z" fill="#FFDB00"/>
<path d="M280.876 69.4656C280.902 68.011 276.905 66.7601 271.948 66.6719C266.992 66.5837 262.953 67.6915 262.927 69.1462C262.901 70.6007 266.898 71.852 271.854 71.9404C276.811 72.0282 280.85 70.9208 280.876 69.4656Z" fill="#FFDB00"/>
<path d="M263.808 49.7443C265.535 48.1059 267.833 47.4871 270.686 49.2552" stroke="#CC7229" stroke-width="1.10802" stroke-miterlimit="10" stroke-linecap="round"/>
<path d="M254.49 49.7737C252.816 48.0763 250.547 47.3868 247.636 49.0547" stroke="#CC7229" stroke-width="1.10802" stroke-miterlimit="10" stroke-linecap="round"/>
<path d="M280.576 93.906L279.939 93.5347C280.411 93.2695 280.629 92.686 280.434 92.1674C280.216 91.5898 279.568 91.301 278.99 91.5191L277.481 92.0967L273.662 89.8629C273.48 89.7569 273.238 89.8158 273.132 90.0044L270.474 94.5426C270.368 94.7253 270.427 94.9669 270.615 95.073L277.528 99.122C278.961 99.9589 280.823 99.4756 281.66 98.0434C282.497 96.6112 282.014 94.7488 280.581 93.9119L280.576 93.906Z" fill="#F55F61"/>
<g opacity="0.5">
<path d="M272.896 90.8826L274.829 92.0142" stroke="white" stroke-width="0.377198" stroke-miterlimit="10"/>
<path d="M272.312 91.8784L274.252 93.0159" stroke="white" stroke-width="0.377198" stroke-miterlimit="10"/>
<path d="M271.735 92.8687L273.674 94.0003" stroke="white" stroke-width="0.377198" stroke-miterlimit="10"/>
<path d="M271.151 93.8647L273.091 95.0022" stroke="white" stroke-width="0.377198" stroke-miterlimit="10"/>
</g>
<path d="M236.308 94.3655L236.897 93.9235C236.402 93.7113 236.113 93.1573 236.255 92.621C236.408 92.0257 237.021 91.6662 237.616 91.8194L239.178 92.2261L242.732 89.5857C242.903 89.4561 243.15 89.4914 243.28 89.6682L246.421 93.8881C246.551 94.059 246.516 94.3066 246.339 94.4362L239.909 99.2161C238.577 100.206 236.673 99.9292 235.683 98.5972C234.693 97.2652 234.97 95.3616 236.302 94.3714L236.308 94.3655Z" fill="#F55F61"/>
<g opacity="0.5">
<path d="M243.61 90.5171L241.807 91.855" stroke="white" stroke-width="0.377198" stroke-miterlimit="10"/>
<path d="M244.3 91.4482L242.496 92.7861" stroke="white" stroke-width="0.377198" stroke-miterlimit="10"/>
<path d="M244.983 92.3618L243.18 93.6997" stroke="white" stroke-width="0.377198" stroke-miterlimit="10"/>
<path d="M245.673 93.293L243.87 94.6308" stroke="white" stroke-width="0.377198" stroke-miterlimit="10"/>
</g>
<path d="M261.615 71.7985L261.598 72.6295C261.598 72.9478 261.515 73.2542 261.391 73.5195C261.038 74.2621 260.278 74.763 259.399 74.7513L258.568 74.7336C257.696 74.7159 256.954 74.1855 256.623 73.4311C256.506 73.1599 256.441 72.8535 256.447 72.5352L256.464 71.7042C256.488 70.5137 257.472 69.5589 258.663 69.5825L259.494 69.6001C260.69 69.6237 261.639 70.608 261.615 71.7985Z" fill="#EC7762"/>
<path opacity="0.5" d="M261.391 73.5196C261.038 74.2622 260.278 74.7632 259.399 74.7514L258.568 74.7337C257.696 74.716 256.954 74.1856 256.623 73.4312C256.977 72.6886 257.737 72.1817 258.616 72.1994L259.447 72.2171C260.325 72.2348 261.067 72.7652 261.391 73.5196Z" fill="white"/>
<path d="M248.06 84.7705C255.038 87.1634 261.456 87.4109 268.01 85.3069L270.114 88.5189C262.777 91.7192 253.688 90.0218 245.679 87.7233L248.06 84.7646V84.7705Z" fill="#F55F61"/>
<path d="M267.951 94.5307L264.828 94.0415C262.718 93.7056 260.949 92.3029 260.136 90.3638C259.718 90.3756 259.287 90.3815 258.863 90.3756C258.344 90.3638 257.832 90.3462 257.319 90.3049C256.429 92.1968 254.62 93.5288 252.516 93.7822L249.38 94.1594C248.885 94.2183 248.526 93.6938 248.755 93.2576L249.922 91.0711C250.288 90.3815 250.765 89.7686 251.313 89.244C250.759 89.0849 250.205 88.9081 249.663 88.7195L268.093 89.0495C267.474 89.244 266.843 89.4208 266.207 89.5682C266.731 90.1045 267.173 90.7233 267.509 91.4129L268.594 93.6348C268.818 94.0887 268.44 94.5955 267.945 94.5189L267.951 94.5307Z" fill="#F55F61"/>
<path d="M262.482 89.0906L263.678 89.3676C264.645 89.5915 265.464 90.2222 265.9 91.0944L266.407 92.1023C266.507 92.3085 266.336 92.5384 266.106 92.503L264.657 92.2791C263.566 92.1082 262.67 91.342 262.364 90.3047L262.158 89.5974L262.488 89.0906H262.482Z" fill="#BC4C4D"/>
<path d="M255.551 89.3738L254.938 90.4347C254.443 91.2951 253.594 91.8904 252.633 92.0495L251.525 92.2381C251.301 92.2735 251.131 92.0436 251.231 91.8315L251.867 90.5113C252.351 89.5152 253.347 88.8846 254.431 88.8964H255.168L255.551 89.3679V89.3738Z" fill="#BC4C4D"/>
<path d="M259.298 85.7054L257.677 85.6766C255.913 85.6447 254.458 87.048 254.426 88.8102C254.395 90.5725 255.8 92.027 257.563 92.0583L259.184 92.0872C260.948 92.1184 262.403 90.7151 262.435 88.9529C262.466 87.1906 261.062 85.7367 259.298 85.7054Z" fill="#F55F61"/>
<path d="M262.417 88.955C262.399 89.8332 262.034 90.617 261.445 91.1769C260.855 91.7427 260.06 92.0846 259.187 92.0669L257.572 92.0374C257.007 92.0256 256.476 91.8724 256.022 91.5954C256.199 91.6308 256.376 91.6484 256.559 91.6543L258.179 91.6838C259.052 91.7015 259.853 91.3596 260.437 90.7938C261.026 90.228 261.392 89.4383 261.409 88.5719C261.433 87.3932 260.796 86.35 259.853 85.7842C261.333 86.073 262.446 87.3991 262.417 88.955Z" fill="#BC4C4D"/>
<path d="M265.222 63.6416C265.753 63.6416 266.183 63.2115 266.183 62.6809C266.183 62.1503 265.753 61.7202 265.222 61.7202C264.692 61.7202 264.262 62.1503 264.262 62.6809C264.262 63.2115 264.692 63.6416 265.222 63.6416Z" fill="white"/>
<path d="M319.126 48.589L319.722 49.4201L320.718 49.1784C327.837 47.4692 334.391 53.5752 333.189 60.795L333.024 61.8028L333.896 62.3391C340.137 66.1582 340.456 75.1167 334.503 79.3719L333.672 79.9672L333.914 80.9632C335.623 88.0829 329.517 94.6367 322.297 93.4344L321.289 93.2693L320.753 94.1416C316.934 100.383 307.975 100.701 303.72 94.7487L303.125 93.9176L302.129 94.1593C295.009 95.8685 288.455 89.7626 289.658 82.5428L289.823 81.5349L288.951 80.9986C282.709 77.1795 282.391 68.2211 288.343 63.9658L289.174 63.3706L288.933 62.3745C287.224 55.2549 293.33 48.7011 300.549 49.9034L301.557 50.0684L302.094 49.1962C305.913 42.9547 314.871 42.6364 319.126 48.589Z" fill="#FF7551"/>
<path d="M324.183 94.6838L318.478 93.7997C317.4 92.5503 315.696 91.6309 312.755 91.6367C312.685 91.6367 312.608 91.6426 312.537 91.6485C312.466 91.6485 312.39 91.6485 312.319 91.6485C312.225 91.6485 312.131 91.6544 312.036 91.6603C311.942 91.6603 311.848 91.6603 311.753 91.6662C311.683 91.6662 311.606 91.6721 311.535 91.678C311.465 91.678 311.388 91.678 311.317 91.678C308.376 91.8784 306.744 92.9216 305.754 94.2536L300.196 95.5266C300.013 95.5679 299.901 95.7506 299.942 95.9274L300.502 98.3792C300.543 98.5619 300.726 98.6738 300.903 98.6326L304.245 97.8664C304.121 98.3556 304.009 98.8271 303.885 99.2514C303.496 100.578 303.06 103.972 306.632 105.469C306.897 105.587 307.192 105.693 307.528 105.782C307.846 105.87 308.199 105.947 308.571 106.012L308.694 109.489L312.184 109.365L312.072 106.182C312.136 106.182 312.195 106.182 312.26 106.182C312.354 106.182 312.449 106.177 312.543 106.171C312.637 106.171 312.732 106.171 312.826 106.165C312.903 106.165 312.973 106.159 313.044 106.153C313.056 106.153 313.068 106.153 313.074 106.153L313.186 109.336L316.675 109.212L316.551 105.723C316.893 105.634 317.217 105.54 317.517 105.434C317.847 105.322 318.136 105.198 318.39 105.063C321.849 103.312 321.171 99.9587 320.688 98.6621C320.535 98.2436 320.388 97.778 320.229 97.2947L323.682 97.8311C323.865 97.8605 324.036 97.7309 324.065 97.5481L324.454 95.061C324.484 94.8783 324.354 94.7074 324.171 94.6779L324.183 94.6838Z" fill="#FEDE57"/>
<path d="M311.435 92.6917C321.815 92.6917 330.23 84.2766 330.23 73.8966C330.23 63.5164 321.815 55.1016 311.435 55.1016C301.055 55.1016 292.64 63.5164 292.64 73.8966C292.64 84.2766 301.055 92.6917 311.435 92.6917Z" fill="#FEDE57"/>
<path d="M312.702 78.1049C312.561 78.0636 312.39 78.0342 312.213 78.0401C312.036 78.0518 311.871 78.0872 311.73 78.1403C311.577 78.2051 311.188 78.4349 311.199 78.7061C311.211 79.0125 311.529 79.2542 311.907 79.2365C311.966 79.2365 312.013 79.2188 312.066 79.1952C312.184 79.1481 312.319 79.1422 312.443 79.1834C312.496 79.2011 312.543 79.2129 312.602 79.2129C312.985 79.2011 313.286 78.9359 313.274 78.6294C313.262 78.3583 312.861 78.152 312.702 78.1049Z" fill="#EC7762"/>
<path d="M314.571 73.2012L314.641 75.1225C314.718 77.2148 316.462 78.8533 318.543 78.7825L321.36 78.6823C323.446 78.6057 325.067 76.8494 324.996 74.7512C324.89 71.6511 323.323 69.1522 320.564 68.6689C320.529 68.6689 320.5 68.6571 320.464 68.6571C318.172 68.4272 316.91 69.1994 315.755 70.3074C314.965 71.0559 314.535 72.1108 314.571 73.2012Z" fill="white"/>
<path d="M314.647 74.8871L314.688 75.665C314.783 77.4155 316.28 78.7651 318.036 78.6649L319.221 78.6001C321.101 78.4999 322.498 76.7907 322.191 74.9342C321.879 73.0364 320.747 71.5925 318.95 71.3155C318.926 71.3155 318.902 71.3096 318.879 71.3096C317.305 71.1799 316.409 71.6868 315.62 72.4235C314.942 73.0541 314.6 73.9676 314.647 74.8871Z" fill="#241004"/>
<path d="M316.657 74.5214C317.002 74.5214 317.282 74.2415 317.282 73.8967C317.282 73.5513 317.002 73.272 316.657 73.272C316.312 73.272 316.032 73.5513 316.032 73.8967C316.032 74.2415 316.312 74.5214 316.657 74.5214Z" fill="white"/>
<path d="M305.742 75.6707C305.904 75.6707 306.036 75.5387 306.036 75.376C306.036 75.2133 305.904 75.0813 305.742 75.0813C305.579 75.0813 305.447 75.2133 305.447 75.376C305.447 75.5387 305.579 75.6707 305.742 75.6707Z" fill="white"/>
<path d="M305.63 75.7353C305.825 75.7353 305.983 75.5768 305.983 75.3817C305.983 75.1866 305.825 75.0281 305.63 75.0281C305.435 75.0281 305.276 75.1866 305.276 75.3817C305.276 75.5768 305.435 75.7353 305.63 75.7353Z" fill="white"/>
<path d="M314.405 73.1717C314.264 67.6846 322.786 66.9597 324.731 71.604C324.867 71.8162 325.486 73.985 324.973 73.5253C324.401 71.7631 323.246 70.3899 321.507 69.883C318.867 68.9165 315.207 70.1247 314.724 73.1776C314.706 73.3603 314.423 73.3544 314.411 73.1776L314.405 73.1717Z" fill="#241004"/>
<path d="M315.189 65.8046C316.421 64.6612 318.042 64.2486 320.04 65.5217" stroke="#CC7229" stroke-width="0.954783" stroke-miterlimit="10" stroke-linecap="round"/>
<path d="M308.176 66.0582C306.867 65.0091 305.217 64.7085 303.319 66.1171" stroke="#CC7229" stroke-width="0.954783" stroke-miterlimit="10" stroke-linecap="round"/>
<path d="M327.714 94.8192L327.248 94.7485C327.466 94.4773 327.46 94.0825 327.218 93.8173C326.953 93.5226 326.494 93.5049 326.205 93.7701L325.439 94.4656L322.633 94.0294C322.498 94.0059 322.368 94.1002 322.35 94.2357L321.832 97.5716C321.808 97.7071 321.902 97.8368 322.038 97.8545L327.118 98.6442C328.173 98.8092 329.169 98.0784 329.328 97.0234C329.493 95.9685 328.763 94.9724 327.708 94.8074L327.714 94.8192Z" fill="#FF7551"/>
<g opacity="0.5">
<path d="M322.415 94.8252L323.841 95.0433" stroke="white" stroke-width="0.241643" stroke-miterlimit="10"/>
<path d="M322.303 95.5562L323.723 95.7742" stroke="white" stroke-width="0.241643" stroke-miterlimit="10"/>
<path d="M322.191 96.2812L323.611 96.5052" stroke="white" stroke-width="0.241643" stroke-miterlimit="10"/>
<path d="M322.079 97.0178L323.499 97.2359" stroke="white" stroke-width="0.241643" stroke-miterlimit="10"/>
</g>
<path d="M296.854 95.9156L297.314 95.8095C297.078 95.556 297.054 95.1553 297.272 94.8783C297.52 94.5659 297.974 94.5129 298.28 94.7604L299.094 95.4028L301.864 94.7663C301.999 94.7368 302.135 94.8193 302.164 94.9549L302.919 98.2436C302.948 98.3791 302.866 98.5147 302.73 98.5442L297.72 99.6934C296.683 99.9292 295.634 99.275 295.398 98.2377C295.162 97.2004 295.817 96.1513 296.854 95.9156Z" fill="#FF7551"/>
<g opacity="0.5">
<path d="M302.135 95.5444L300.732 95.8627" stroke="white" stroke-width="0.241643" stroke-miterlimit="10"/>
<path d="M302.3 96.2695L300.897 96.5878" stroke="white" stroke-width="0.241643" stroke-miterlimit="10"/>
<path d="M302.465 96.9822L301.062 97.3004" stroke="white" stroke-width="0.241643" stroke-miterlimit="10"/>
<path d="M302.63 97.7073L301.227 98.0255" stroke="white" stroke-width="0.241643" stroke-miterlimit="10"/>
</g>
<path d="M308.96 73.4014L309.03 75.3228C309.107 77.415 307.48 79.1714 305.394 79.248L302.577 79.3482C300.49 79.4248 298.746 77.7804 298.669 75.6823C298.557 72.5822 299.942 69.983 302.659 69.3053C302.695 69.2994 302.724 69.2876 302.759 69.2817C305.034 68.8868 306.343 69.5705 307.575 70.5901C308.412 71.2856 308.918 72.3052 308.96 73.3955V73.4014Z" fill="white"/>
<path d="M309.001 75.0873L309.013 75.8652C309.042 77.6216 307.645 79.0655 305.889 79.095L304.704 79.1127C302.824 79.1421 301.304 77.5391 301.481 75.6707C301.657 73.7553 302.683 72.2347 304.457 71.8339C304.48 71.8339 304.504 71.8221 304.528 71.8221C306.089 71.5805 307.021 72.0225 307.858 72.7003C308.577 73.2838 308.983 74.1678 309.001 75.0873Z" fill="#241004"/>
<path d="M306.803 74.8986C307.147 74.8986 307.427 74.6187 307.427 74.2739C307.427 73.9291 307.147 73.6492 306.803 73.6492C306.458 73.6492 306.178 73.9291 306.178 74.2739C306.178 74.6187 306.458 74.8986 306.803 74.8986Z" fill="white"/>
<path d="M308.812 73.384C307.917 69.724 302.901 69.2408 300.349 71.4391C299.483 72.1699 298.917 73.2544 298.61 74.4567C298.587 74.5746 298.398 74.551 298.404 74.4272C298.168 69.1347 305.907 67.0601 308.624 71.4391C308.954 72.0285 309.166 72.6945 309.131 73.3546C309.131 73.443 309.054 73.5078 308.966 73.5078C308.895 73.5078 308.83 73.4489 308.818 73.384H308.812Z" fill="#241004"/>
<path d="M302.882 81.8681C306.652 81.7349 309.679 80.7955 309.643 79.7711C309.607 78.7462 306.521 78.0242 302.751 78.1574C298.98 78.2912 295.953 79.2301 295.99 80.255C296.026 81.2793 299.112 82.0019 302.882 81.8681Z" fill="#FEDE57"/>
<path d="M322.201 81.1842C325.971 81.0504 328.998 80.1115 328.962 79.0866C328.925 78.0623 325.839 77.3397 322.07 77.4735C318.299 77.6073 315.272 78.5461 315.308 79.5705C315.345 80.5954 318.431 81.3179 322.201 81.1842Z" fill="#FEDE57"/>
<path d="M315.101 80.6334C314.783 83.7925 309.832 83.9516 309.296 80.8397C309.248 80.5568 309.461 80.3034 309.749 80.2916C310.857 80.2503 313.521 80.1266 314.624 80.1089C314.906 80.1089 315.13 80.3505 315.101 80.6334Z" fill="#EC7762"/>
<path opacity="0.5" d="M314.523 82.0594C313.439 83.3619 311.158 83.4385 309.991 82.2185C310.616 81.9415 311.394 81.7647 312.242 81.7353C313.091 81.7058 313.881 81.8295 314.523 82.0594Z" fill="white"/>
<path d="M306.131 91.9317C310.227 93.0986 313.934 93.0456 317.647 91.6311L318.961 93.4169C314.83 95.4856 309.537 94.7842 304.852 93.7116L306.131 91.9317Z" fill="#FF7551"/>
<path d="M317.895 96.9469L316.079 96.7583C314.853 96.6287 313.793 95.8743 313.262 94.7839C313.021 94.8016 312.773 94.8193 312.531 94.8311C312.231 94.8429 311.936 94.8429 311.641 94.837C311.188 95.9568 310.186 96.7819 308.977 96.9882L307.18 97.3006C306.897 97.3536 306.673 97.0589 306.791 96.7996L307.398 95.503C307.586 95.0904 307.846 94.725 308.146 94.4067C307.822 94.3301 307.498 94.2476 307.18 94.1533L317.812 93.7761C317.464 93.9058 317.105 94.0296 316.739 94.1356C317.058 94.4303 317.329 94.7722 317.547 95.1611L318.242 96.4106C318.384 96.664 318.183 96.9705 317.895 96.941V96.9469Z" fill="#FF7551"/>
<path d="M314.258 93.9709L314.954 94.0947C315.519 94.1949 316.009 94.5367 316.286 95.0259L316.61 95.5917C316.675 95.7037 316.58 95.8451 316.451 95.8334L315.608 95.7508C314.971 95.686 314.435 95.2735 314.223 94.6841L314.081 94.2833L314.258 93.9827V93.9709Z" fill="#C65E43"/>
<path d="M310.592 94.3535L310.274 94.9842C310.015 95.4969 309.543 95.8623 308.995 95.9861L308.359 96.1275C308.229 96.157 308.123 96.0273 308.176 95.9036L308.5 95.1256C308.748 94.5362 309.302 94.1414 309.926 94.1178L310.351 94.1001L310.586 94.3535H310.592Z" fill="#C65E43"/>
<path d="M312.476 92.1369L311.539 92.1705C310.522 92.2065 309.725 93.0599 309.761 94.0765C309.797 95.0932 310.652 95.8877 311.67 95.8517L312.606 95.8187C313.625 95.7822 314.421 94.9288 314.385 93.9127C314.349 92.896 313.494 92.101 312.476 92.1369Z" fill="#FF7551"/>
<path d="M314.376 93.9118C314.394 94.4187 314.205 94.8843 313.887 95.2261C313.569 95.5679 313.115 95.7919 312.614 95.8096L311.683 95.845C311.358 95.8567 311.046 95.7801 310.775 95.6387C310.875 95.6564 310.981 95.6623 311.087 95.6564L312.024 95.621C312.525 95.6033 312.979 95.3794 313.297 95.0375C313.616 94.6957 313.81 94.2301 313.787 93.7232C313.763 93.0454 313.368 92.462 312.802 92.1614C313.663 92.2793 314.347 93.0101 314.382 93.9118H314.376Z" fill="#C65E43"/>
<path d="M227.326 24.9788L226.919 24.2833L227.031 24.2185L238.624 17.37L238.742 17.3052L239.149 17.9947L248.738 29.4345L246.634 30.678L234.811 37.6562L232.713 38.8998L227.326 24.9788Z" fill="white"/>
<path d="M231.222 36.2122L247.129 26.8235L246.946 26.6173C246.586 26.2165 246.003 26.1104 245.555 26.3933L231.628 34.7211C231.198 34.9746 230.992 35.5168 231.157 36.0001L231.222 36.2181V36.2122Z" fill="#C3C2BE"/>
<path d="M232.247 39.4244L249.321 29.3462L247.683 27.4661L231.481 37.0316L232.247 39.4244Z" fill="#C3C2BE"/>
<path d="M232.53 40.2317C232.819 40.7504 233.502 40.9449 234.039 40.6325L249.48 31.5149C250.011 31.2026 250.17 30.5248 249.857 30.0002L232.53 40.2317Z" fill="#C3C2BE"/>
<path d="M230.503 22.6686C233.552 22.6686 236.025 20.1962 236.025 17.1462C236.025 14.0962 233.552 11.6238 230.503 11.6238C227.453 11.6238 224.98 14.0962 224.98 17.1462C224.98 20.1962 227.453 22.6686 230.503 22.6686Z" fill="white"/>
<path d="M238.612 21.1362C241.662 21.1362 244.135 18.6637 244.135 15.6137C244.135 12.5638 241.662 10.0913 238.612 10.0913C235.562 10.0913 233.09 12.5638 233.09 15.6137C233.09 18.6637 235.562 21.1362 238.612 21.1362Z" fill="white"/>
<path d="M225.44 28.9096C228.49 28.9096 230.962 26.4371 230.962 23.3872C230.962 20.3372 228.49 17.8647 225.44 17.8647C222.39 17.8647 219.917 20.3372 219.917 23.3872C219.917 26.4371 222.39 28.9096 225.44 28.9096Z" fill="white"/>
<path d="M231.481 37.0314L247.683 27.4659L247.123 26.8235L231.222 36.2122L231.481 37.0314Z" fill="#999999"/>
<path d="M232.53 40.2319L249.857 30.0004C249.822 29.9474 249.793 29.8884 249.745 29.8413L249.315 29.3462L232.241 39.4245L232.43 40.0197C232.459 40.0904 232.489 40.1671 232.524 40.2319H232.53Z" fill="#999999"/>
<path d="M232.418 26.4168L233.662 29.2458C233.868 29.7173 233.691 30.2654 233.249 30.5247L233.108 30.6072C232.577 30.9196 231.888 30.6897 231.652 30.1239L230.467 27.2596C230.273 26.794 230.455 26.2577 230.891 25.9983L230.974 25.9512C231.499 25.6447 232.176 25.8628 232.418 26.4168Z" fill="#DFE0DB"/>
<path d="M237.504 23.4115L239.384 25.8691C239.697 26.2758 240.263 26.3878 240.705 26.1285L240.846 26.0459C241.376 25.7336 241.506 25.0204 241.123 24.5372L239.184 22.1148C238.866 21.72 238.312 21.6198 237.876 21.8732L237.793 21.9203C237.269 22.2268 237.133 22.9282 237.504 23.4115Z" fill="#DFE0DB"/>
<path d="M235.671 27.8899C235.956 28.3721 236.577 28.5321 237.06 28.2475C237.542 27.9628 237.702 27.3412 237.417 26.8591L235.856 24.215C235.571 23.7329 234.95 23.5729 234.467 23.8575C233.985 24.1422 233.825 24.7637 234.11 25.2458L235.671 27.8899Z" fill="#DFE0DB"/>
<path d="M307.068 39.7427L306.932 39.1592L306.832 39.1769L297.031 41.4577L296.931 41.4813L297.066 42.0648L297.779 53.198L299.559 52.7855L309.555 50.4633L311.335 50.0508L307.068 39.7427Z" fill="white"/>
<path d="M310.757 47.8289L297.308 50.9525V50.7462C297.284 50.3455 297.549 49.986 297.938 49.9034L309.767 47.2218C310.133 47.1393 310.522 47.322 310.681 47.6697L310.757 47.823V47.8289Z" fill="#C3C2BE"/>
<path d="M311.854 50.0977L297.42 53.4513L297.337 51.5889L311.04 48.4062L311.854 50.0977Z" fill="#C3C2BE"/>
<path d="M312.119 50.6814C312.231 51.1116 311.96 51.5713 311.506 51.6774L298.451 54.7127C298.003 54.8188 297.567 54.53 297.467 54.088L312.119 50.6873V50.6814Z" fill="#C3C2BE"/>
<path d="M301.304 41.2752C303.586 41.2752 305.435 39.4255 305.435 37.1437C305.435 34.862 303.586 33.0122 301.304 33.0122C299.022 33.0122 297.172 34.862 297.172 37.1437C297.172 39.4255 299.022 41.2752 301.304 41.2752Z" fill="white"/>
<path d="M296.129 44.6285C298.411 44.6285 300.261 42.7787 300.261 40.497C300.261 38.2152 298.411 36.3655 296.129 36.3655C293.847 36.3655 291.998 38.2152 291.998 40.497C291.998 42.7787 293.847 44.6285 296.129 44.6285Z" fill="white"/>
<path d="M307.262 42.0411C309.544 42.0411 311.394 40.1913 311.394 37.9096C311.394 35.6278 309.544 33.7781 307.262 33.7781C304.98 33.7781 303.131 35.6278 303.131 37.9096C303.131 40.1913 304.98 42.0411 307.262 42.0411Z" fill="white"/>
<path d="M311.04 48.4064L297.337 51.589L297.308 50.9525L310.757 47.8289L311.04 48.4064Z" fill="#999999"/>
<path d="M312.119 50.6814L297.467 54.0821C297.455 54.0349 297.443 53.9878 297.443 53.9406L297.42 53.4514L311.854 50.0979L312.06 50.5164C312.083 50.5694 312.107 50.6224 312.119 50.6814Z" fill="#999999"/>
<path d="M305.052 43.1493L305.842 45.3241C305.972 45.6836 306.355 45.8899 306.726 45.8015L306.85 45.772C307.298 45.6659 307.551 45.1885 307.386 44.7583L306.549 42.5953C306.414 42.2417 306.036 42.0472 305.671 42.1297L305.6 42.1474C305.158 42.2476 304.905 42.7191 305.058 43.1434L305.052 43.1493Z" fill="#DFE0DB"/>
<path d="M300.75 44.1452L300.997 46.4437C301.039 46.8268 300.791 47.1745 300.414 47.2629L300.29 47.2924C299.842 47.3985 299.406 47.0802 299.365 46.6205L299.164 44.3102C299.129 43.933 299.382 43.5912 299.748 43.5086L299.819 43.491C300.261 43.3908 300.697 43.6972 300.744 44.1452H300.75Z" fill="#DFE0DB"/>
<path d="M303.538 43.3911C303.443 42.9822 303.036 42.7273 302.628 42.822C302.221 42.9166 301.967 43.325 302.063 43.734L302.58 45.9614C302.675 46.3704 303.082 46.6252 303.49 46.5306C303.898 46.4359 304.15 46.0276 304.056 45.6186L303.538 43.3911Z" fill="#DFE0DB"/>
</g>
</g>
<defs>
<clipPath id="clip0_1802_2478">
<rect width="122" height="90.1739" fill="white" transform="translate(217 9.82617)"/>
</clipPath>
</defs>
</svg>
