<svg width="20" height="20" viewBox="0 0 20 20" fill="none" xmlns="http://www.w3.org/2000/svg">
<mask id="mask0_139_954" style="mask-type:alpha" maskUnits="userSpaceOnUse" x="0" y="0" width="20" height="20">
<rect width="20" height="20" fill="#D9D9D9"/>
</mask>
<g mask="url(#mask0_139_954)">
<path d="M5.03176 14.5835L3.36342 16.2516C3.12634 16.4888 2.85363 16.5426 2.5453 16.4129C2.23711 16.283 2.08301 16.0493 2.08301 15.7116V3.58995C2.08301 3.16898 2.22884 2.81266 2.52051 2.521C2.81217 2.22933 3.16849 2.0835 3.58947 2.0835H16.4099C16.8309 2.0835 17.1872 2.22933 17.4788 2.521C17.7705 2.81266 17.9163 3.16898 17.9163 3.58995V13.077C17.9163 13.498 17.7705 13.8543 17.4788 14.146C17.1872 14.4377 16.8309 14.5835 16.4099 14.5835H5.03176ZM4.49967 13.3335H16.4099C16.4741 13.3335 16.5328 13.3068 16.5861 13.2533C16.6396 13.2 16.6663 13.1412 16.6663 13.077V3.58995C16.6663 3.52579 16.6396 3.46704 16.5861 3.4137C16.5328 3.36023 16.4741 3.3335 16.4099 3.3335H3.58947C3.5253 3.3335 3.46655 3.36023 3.41322 3.4137C3.35974 3.46704 3.33301 3.52579 3.33301 3.58995V14.4875L4.49967 13.3335ZM5.83301 11.4585H10.833C11.0104 11.4585 11.1588 11.3986 11.2784 11.2789C11.3981 11.1593 11.458 11.0109 11.458 10.8335C11.458 10.6561 11.3981 10.5077 11.2784 10.3881C11.1588 10.2684 11.0104 10.2085 10.833 10.2085H5.83301C5.65565 10.2085 5.50717 10.2684 5.38759 10.3881C5.26787 10.5077 5.20801 10.6561 5.20801 10.8335C5.20801 11.0109 5.26787 11.1593 5.38759 11.2789C5.50717 11.3986 5.65565 11.4585 5.83301 11.4585ZM5.83301 8.9585H14.1663C14.3437 8.9585 14.4922 8.89863 14.6118 8.77891C14.7315 8.65933 14.7913 8.51086 14.7913 8.3335C14.7913 8.15613 14.7315 8.00766 14.6118 7.88808C14.4922 7.76836 14.3437 7.7085 14.1663 7.7085H5.83301C5.65565 7.7085 5.50717 7.76836 5.38759 7.88808C5.26787 8.00766 5.20801 8.15613 5.20801 8.3335C5.20801 8.51086 5.26787 8.65933 5.38759 8.77891C5.50717 8.89863 5.65565 8.9585 5.83301 8.9585ZM5.83301 6.4585H14.1663C14.3437 6.4585 14.4922 6.39863 14.6118 6.27891C14.7315 6.15933 14.7913 6.01086 14.7913 5.8335C14.7913 5.65613 14.7315 5.50766 14.6118 5.38808C14.4922 5.26836 14.3437 5.2085 14.1663 5.2085H5.83301C5.65565 5.2085 5.50717 5.26836 5.38759 5.38808C5.26787 5.50766 5.20801 5.65613 5.20801 5.8335C5.20801 6.01086 5.26787 6.15933 5.38759 6.27891C5.50717 6.39863 5.65565 6.4585 5.83301 6.4585Z" fill="#74787E"/>
</g>
</svg>
