<svg width="390" height="101" viewBox="0 0 390 101" fill="none" xmlns="http://www.w3.org/2000/svg">
<rect width="391" height="100" fill="#CEC3FF"/>
<path fill-rule="evenodd" clip-rule="evenodd" d="M0 88.0762V69.7092C0.771493 69.6474 2.3886 68.797 4.91347 67.4693C21.7769 58.6015 79.1338 28.4397 195.5 69.7092C302.531 107.668 382.936 82.0458 391 64.4899L391 88.0762C391 89.117 390.867 90.1268 390.618 91.0898H391V100.001H380.353C379.909 100.051 379.458 100.076 379 100.076H12C11.5425 100.076 11.0909 100.051 10.6467 100.001H0V91.0898H0.381558C0.132502 90.1268 0 89.117 0 88.0762Z" fill="#B7A3FF"/>
<path d="M22.216 28.244L26.68 15.914H28.552L32.98 28.244H31.036L29.848 24.896H25.132L23.962 28.244H22.216ZM27.436 18.254L25.636 23.42H29.308L27.49 18.254H27.436ZM34.6737 28.244V15.914H36.5457V28.244H34.6737ZM51.6573 24.23H46.7073V26.912H53.0613V28.388H38.5713V26.912H44.8713V24.23H40.4253V19.046H49.3533V16.976H40.3713V15.5H51.1893V20.54H42.2793V22.736H51.6573V24.23ZM71.33 14.384V19.028H73.688V20.576H71.33V26.012H69.476V14.384H71.33ZM71.798 29.936H61.07V24.842H62.924V28.442H71.798V29.936ZM66.83 23.15H59.378V15.662H66.83V23.15ZM64.976 21.692V17.12H61.232V21.692H64.976ZM88.9382 24.014H74.4482V22.52H88.9382V24.014ZM87.2462 29.972H76.3022V25.346H78.1562V28.496H87.2462V29.972ZM87.2462 20.774H76.3562V15.014H87.0842V16.49H78.2102V19.28H87.2462V20.774ZM109.673 22.106H107.189V30.422H105.353V14.384H107.189V20.576H109.673V22.106ZM104.165 25.598C102.293 26.054 99.9229 26.294 97.0549 26.318L95.3989 26.336V16.022H97.2169V24.77C99.9769 24.77 102.209 24.542 103.913 24.086L104.165 25.598ZM122.781 14.384V19.028H125.139V20.576H122.781V26.012H120.927V14.384H122.781ZM123.249 29.936H112.521V24.842H114.375V28.442H123.249V29.936ZM118.281 23.15H110.829V15.662H118.281V23.15ZM116.427 21.692V17.12H112.683V21.692H116.427ZM135.151 19.478C135.151 20.57 134.749 21.452 133.945 22.124C133.153 22.796 132.157 23.132 130.957 23.132C129.769 23.132 128.785 22.796 128.005 22.124C127.237 21.44 126.853 20.558 126.853 19.478C126.853 18.374 127.243 17.462 128.023 16.742C128.815 16.01 129.793 15.644 130.957 15.644C132.157 15.644 133.153 16.004 133.945 16.724C134.749 17.444 135.151 18.362 135.151 19.478ZM133.297 19.46C133.297 18.788 133.075 18.248 132.631 17.84C132.187 17.432 131.629 17.228 130.957 17.228C130.321 17.228 129.775 17.438 129.319 17.858C128.875 18.278 128.653 18.812 128.653 19.46C128.653 20.084 128.875 20.594 129.319 20.99C129.775 21.374 130.321 21.566 130.957 21.566C131.605 21.566 132.157 21.374 132.613 20.99C133.069 20.594 133.297 20.084 133.297 19.46ZM139.309 14.384V30.422H137.473V14.384H139.309ZM136.573 24.842L136.717 26.318C133.501 26.666 129.949 26.852 126.061 26.876L125.773 25.292C127.897 25.316 129.673 25.286 131.101 25.202C133.261 25.118 135.085 24.998 136.573 24.842ZM149.55 17.912L149.784 22.484L151.062 22.448H151.566L151.836 17.912L153.618 18.056L153.186 22.358C154.11 22.322 154.932 22.244 155.652 22.124L155.796 23.546C154.872 23.702 153.27 23.846 150.99 23.978C148.926 24.05 147.384 24.086 146.364 24.086L146.058 22.52H148.128L147.75 18.074L149.55 17.912ZM155.346 18.65V17.156H157.56V14.384H159.414V26.012H157.56V21.584H155.346V20.108H157.56V18.65H155.346ZM159.756 29.954H148.938V25.166H150.81V28.478H159.756V29.954ZM154.986 17.084H146.562V15.608H154.986V17.084ZM171.028 19.478C171.028 20.57 170.626 21.452 169.822 22.124C169.03 22.796 168.034 23.132 166.834 23.132C165.646 23.132 164.662 22.796 163.882 22.124C163.114 21.44 162.73 20.558 162.73 19.478C162.73 18.374 163.12 17.462 163.9 16.742C164.692 16.01 165.67 15.644 166.834 15.644C168.034 15.644 169.03 16.004 169.822 16.724C170.626 17.444 171.028 18.362 171.028 19.478ZM169.174 19.46C169.174 18.788 168.952 18.248 168.508 17.84C168.064 17.432 167.506 17.228 166.834 17.228C166.198 17.228 165.652 17.438 165.196 17.858C164.752 18.278 164.53 18.812 164.53 19.46C164.53 20.084 164.752 20.594 165.196 20.99C165.652 21.374 166.198 21.566 166.834 21.566C167.482 21.566 168.034 21.374 168.49 20.99C168.946 20.594 169.174 20.084 169.174 19.46ZM175.186 14.384V30.422H173.35V14.384H175.186ZM172.45 24.842L172.594 26.318C169.378 26.666 165.826 26.852 161.938 26.876L161.65 25.292C163.774 25.316 165.55 25.286 166.978 25.202C169.138 25.118 170.962 24.998 172.45 24.842ZM190.581 30.224H180.141V24.302H190.581V30.224ZM177.909 16.868V15.338H186.351V16.868H183.147V16.994C183.147 18.122 183.501 19.112 184.209 19.964C184.929 20.804 185.793 21.386 186.801 21.71L185.775 23.186C185.067 22.898 184.371 22.454 183.687 21.854C183.015 21.254 182.517 20.594 182.193 19.874C181.965 20.642 181.479 21.386 180.735 22.106C180.003 22.814 179.223 23.324 178.395 23.636L177.279 22.196C178.443 21.752 179.391 21.074 180.123 20.162C180.867 19.25 181.239 18.212 181.239 17.048V16.868H177.909ZM190.563 23.474H188.727V19.856H186.117V18.326H188.727V14.384H190.563V23.474ZM188.745 28.748V25.724H181.995V28.748H188.745ZM35.734 51.012H33.898V45.756H30.748V44.244H33.898V39.384H35.734V51.012ZM30.73 40.626C30.658 42.786 29.992 44.586 28.732 46.026C27.472 47.454 25.744 48.504 23.548 49.176L22.594 47.7C24.154 47.364 25.51 46.71 26.662 45.738C27.814 44.754 28.504 43.566 28.732 42.174H23.35V40.626H30.73ZM36.112 55.008H25.24V49.95H27.094V53.532H36.112V55.008ZM52.9282 44.802H50.5702V48.87H48.7162V39.384H50.5702V43.272H52.9282V44.802ZM46.1062 40.536C46.0702 42.624 45.4102 44.37 44.1262 45.774C42.8422 47.178 41.1022 48.204 38.9062 48.852L37.9522 47.358C39.4642 47.034 40.8022 46.404 41.9662 45.468C43.1422 44.52 43.8382 43.386 44.0542 42.066H38.7442V40.536H46.1062ZM50.7862 52.218C50.7862 53.19 50.3002 53.964 49.3282 54.54C48.3682 55.116 47.0362 55.404 45.3322 55.404C43.6402 55.404 42.3142 55.116 41.3542 54.54C40.3942 53.964 39.9142 53.19 39.9142 52.218C39.9142 51.234 40.3942 50.46 41.3542 49.896C42.3142 49.32 43.6402 49.032 45.3322 49.032C47.0362 49.032 48.3682 49.32 49.3282 49.896C50.3002 50.46 50.7862 51.234 50.7862 52.218ZM48.8962 52.218C48.8962 51.678 48.5782 51.258 47.9422 50.958C47.3182 50.658 46.4482 50.508 45.3322 50.508C44.2162 50.508 43.3462 50.658 42.7222 50.958C42.1102 51.258 41.8042 51.678 41.8042 52.218C41.8042 52.746 42.1102 53.166 42.7222 53.478C43.3462 53.778 44.2162 53.928 45.3322 53.928C46.4482 53.928 47.3182 53.778 47.9422 53.478C48.5782 53.166 48.8962 52.746 48.8962 52.218ZM67.2064 55.422H65.4244V39.384H67.2064V55.422ZM64.0384 54.648H62.3104V46.818H60.5644V45.306H62.3104V39.726H64.0384V54.648ZM60.9424 49.662L61.1764 51.12C59.9764 51.408 58.1284 51.564 55.6324 51.588H54.2824V45.378H58.0804V42.606H54.2284V41.148H59.9344V46.836H56.1184V50.076C57.9424 50.076 59.5504 49.938 60.9424 49.662ZM82.4747 55.422H80.6387V39.384H82.4747V55.422ZM79.0367 50.328L77.9387 51.714C77.2187 51.246 76.4987 50.574 75.7787 49.698C75.0587 48.81 74.5547 47.94 74.2667 47.088C74.0027 48.036 73.5047 48.972 72.7727 49.896C72.0527 50.808 71.2487 51.534 70.3607 52.074L69.2267 50.724C70.4867 49.896 71.4767 48.846 72.1967 47.574C72.9287 46.29 73.2947 44.898 73.2947 43.398V40.77H75.2027V43.29C75.2027 44.802 75.5387 46.164 76.2107 47.376C76.8947 48.588 77.8367 49.572 79.0367 50.328ZM94.8449 49.572L94.9709 51.012C93.7349 51.216 92.0249 51.372 89.8409 51.48C88.3169 51.564 86.7029 51.606 84.9989 51.606L84.7109 50.058C85.7669 50.058 86.5469 50.052 87.0509 50.04L86.5289 43.65L88.3109 43.434L88.6889 50.004C89.4569 49.98 90.0209 49.956 90.3809 49.932H90.6149L91.0109 43.416L92.8289 43.596L92.2889 49.842C93.3689 49.746 94.2209 49.656 94.8449 49.572ZM98.0309 55.422H96.1949V39.384H98.0309V55.422ZM94.2149 42.336H85.2329V40.86H94.2149V42.336ZM114.901 48.132H100.411V46.746H114.901V48.132ZM113.479 55.296H102.265V51.588H111.211V50.508H102.211V49.176H113.047V52.884H104.101V53.982H113.479V55.296ZM113.299 45.774H102.319V42.174H111.103V41.148H102.283V39.798H112.957V43.416H104.173V44.424H113.299V45.774ZM131.946 50.166C132.918 50.706 133.404 51.444 133.404 52.38C133.404 53.316 132.918 54.054 131.946 54.594C130.974 55.134 129.606 55.404 127.842 55.404C126.078 55.404 124.704 55.128 123.72 54.576C122.736 54.036 122.244 53.304 122.244 52.38C122.244 51.444 122.736 50.706 123.72 50.166C124.704 49.614 126.078 49.338 127.842 49.338C129.606 49.338 130.974 49.614 131.946 50.166ZM135.204 47.952H120.714V46.494H126.348V43.632H128.202V46.494H135.204V47.952ZM133.332 40.014C133.392 42.114 133.23 43.992 132.846 45.648L131.064 45.396C131.376 44.148 131.514 42.846 131.478 41.49H122.424V40.014H133.332ZM127.842 50.832C126.69 50.832 125.784 50.97 125.124 51.246C124.476 51.51 124.152 51.888 124.152 52.38C124.152 52.884 124.476 53.268 125.124 53.532C125.784 53.796 126.69 53.928 127.842 53.928C128.994 53.928 129.894 53.796 130.542 53.532C131.19 53.268 131.514 52.884 131.514 52.38C131.514 51.888 131.184 51.51 130.524 51.246C129.876 50.97 128.982 50.832 127.842 50.832ZM149.14 43.47C149.14 44.538 148.63 45.396 147.61 46.044C146.602 46.68 145.234 46.998 143.506 46.998C141.79 46.998 140.422 46.68 139.402 46.044C138.382 45.396 137.872 44.538 137.872 43.47C137.872 42.426 138.382 41.586 139.402 40.95C140.422 40.302 141.79 39.978 143.506 39.978C145.222 39.978 146.59 40.302 147.61 40.95C148.63 41.586 149.14 42.426 149.14 43.47ZM141.67 55.404H139.834V49.95H136.288V48.474H150.778V49.95H147.178V55.404H145.342V49.95H141.67V55.404ZM146.224 44.91C146.896 44.538 147.232 44.058 147.232 43.47C147.232 42.882 146.89 42.402 146.206 42.03C145.534 41.658 144.634 41.472 143.506 41.472C142.378 41.472 141.472 41.658 140.788 42.03C140.116 42.402 139.78 42.882 139.78 43.47C139.78 44.058 140.116 44.538 140.788 44.91C141.46 45.282 142.366 45.468 143.506 45.468C144.646 45.468 145.552 45.282 146.224 44.91ZM165.38 55.422H163.616V47.448H162.032V54.666H160.286V39.708H162.032V45.918H163.616V39.384H165.38V55.422ZM159.242 48.672C159.242 49.608 158.924 50.364 158.288 50.94C157.652 51.504 156.818 51.786 155.786 51.786C154.766 51.786 153.932 51.492 153.284 50.904C152.648 50.304 152.33 49.56 152.33 48.672C152.33 47.712 152.648 46.95 153.284 46.386C153.92 45.81 154.754 45.522 155.786 45.522C156.818 45.522 157.652 45.81 158.288 46.386C158.924 46.962 159.242 47.724 159.242 48.672ZM151.718 44.73V43.2H159.692V44.73H151.718ZM157.55 48.672C157.55 48.168 157.382 47.766 157.046 47.466C156.722 47.154 156.302 46.998 155.786 46.998C155.27 46.998 154.844 47.154 154.508 47.466C154.184 47.766 154.022 48.168 154.022 48.672C154.022 49.152 154.184 49.548 154.508 49.86C154.844 50.16 155.27 50.31 155.786 50.31C156.302 50.31 156.722 50.154 157.046 49.842C157.382 49.53 157.55 49.14 157.55 48.672ZM153.608 42.12V40.572H157.946V42.12H153.608ZM177.246 50.256L177.39 51.678C174.678 52.05 171.318 52.248 167.31 52.272L167.058 50.724C169.182 50.724 170.562 50.712 171.198 50.688V47.988H168.318V40.608H170.154V43.074H174.384V40.572H176.238V47.988H173.034V50.616C174.906 50.496 176.31 50.376 177.246 50.256ZM180.018 39.384V46.08H182.376V47.628H180.018V55.422H178.182V39.384H180.018ZM174.384 46.512V44.496H170.154V46.512H174.384ZM196.079 44.586C196.079 45.81 195.545 46.806 194.477 47.574C193.409 48.33 191.999 48.708 190.247 48.708C188.519 48.708 187.121 48.33 186.053 47.574C184.985 46.806 184.451 45.81 184.451 44.586C184.451 43.374 184.985 42.384 186.053 41.616C187.121 40.848 188.519 40.464 190.247 40.464C191.999 40.464 193.409 40.848 194.477 41.616C195.545 42.384 196.079 43.374 196.079 44.586ZM193.109 46.476C193.829 45.996 194.189 45.366 194.189 44.586C194.189 43.806 193.829 43.182 193.109 42.714C192.389 42.234 191.435 41.994 190.247 41.994C189.071 41.994 188.123 42.234 187.403 42.714C186.683 43.182 186.323 43.806 186.323 44.586C186.323 45.366 186.683 45.996 187.403 46.476C188.123 46.944 189.071 47.178 190.247 47.178C191.435 47.178 192.389 46.944 193.109 46.476ZM197.501 53.388H183.011V51.912H186.359V49.122L188.231 49.104V51.912H192.227V49.104L194.081 49.122V51.912H197.501V53.388ZM199.737 49.68L199.503 40.5H201.573L201.339 49.68H199.737ZM199.557 53.442V51.498H201.537V53.442H199.557Z" fill="#121212"/>
<path d="M343.152 67.5464C341.128 68.8017 338.939 70.0088 336.843 71.1796C333.854 72.789 330.675 74.5392 330.868 78.1644C330.888 79.6209 331.415 81.3912 331.946 83.246C332.795 86.2596 333.922 90.1503 334.216 92.3311C334.747 96.1131 333.383 96.6966 328.635 95.6263C327.034 95.2602 325.416 94.8216 323.807 94.371C323.127 94.1819 322.455 93.9887 321.783 93.7996C321.634 93.7594 321.489 93.7152 321.341 93.6749C318.753 92.9789 316.436 92.0856 314.094 93.0191L314.054 93.0352C313.696 93.1921 313.374 93.3772 313.072 93.5944C312.066 94.3026 311.338 95.3044 310.67 96.4189C310.296 97.0385 309.942 97.6984 309.568 98.3583C309.495 98.487 309.419 98.6158 309.347 98.7445C309.113 99.1589 308.88 99.5774 308.646 99.9998H295.248C294.983 99.5251 294.725 99.0583 294.476 98.6158C294.427 98.5272 294.379 98.4387 294.331 98.3542C293.997 97.7507 293.667 97.1593 293.333 96.608C292.81 95.739 292.275 94.9624 291.7 94.371C291.382 94.025 291.048 93.7393 290.698 93.51C288.3 91.9167 285.242 92.8903 282.405 93.7192C282.228 93.7675 282.051 93.8198 281.874 93.8721C281.178 94.0652 280.474 94.2664 279.774 94.4595C278.329 94.8618 276.877 95.2481 275.449 95.582C269.691 96.8977 268.754 95.9039 270.089 90.1423C270.371 88.9272 270.689 87.7282 271.035 86.4809C271.526 84.6703 272.069 82.8678 272.552 81.0653C273.087 79.1944 273.292 76.8769 272.387 75.3841C271.272 73.3603 269.027 72.3384 266.911 71.1192C265.185 70.1576 263.39 69.1558 261.708 68.1499C256.635 65.1323 254.736 63.374 260.731 59.8776C262.755 58.6223 264.939 57.4193 267.036 56.2484C269.265 54.9851 271.031 54.1361 272.218 52.3376C273.767 49.8632 272.717 47.0306 271.936 44.178C271.586 42.9468 271.224 41.6794 270.89 40.4442C270.592 39.3458 270.319 38.2956 270.073 37.2214C268.758 31.4638 269.751 30.5263 275.513 31.8621C279.15 32.6265 283.222 34.2078 286.799 34.7509C290.943 35.3102 292.77 31.9707 294.536 28.6835C295.16 27.565 295.803 26.4143 296.439 25.3038C297.002 24.318 297.558 23.3806 298.137 22.4471C301.279 17.4459 302.647 17.4862 305.774 22.5034C307.789 25.6015 309.536 29.5285 311.652 32.4455C314.199 35.8614 317.84 34.8032 321.473 33.7089C323.767 33.0611 326.124 32.3811 328.43 31.846C335.302 30.0676 334.908 32.884 333.475 38.5813C332.997 40.4522 332.433 42.4358 331.898 44.3107C331.271 46.6283 330.418 48.9981 331.118 51.1627C331.946 53.7378 334.558 54.9287 336.972 56.3088C338.09 56.9324 339.241 57.5762 340.347 58.2119C341.337 58.7752 342.275 59.3304 343.204 59.9138C348.209 63.0521 348.169 64.4201 343.152 67.5464Z" fill="#FC7B65" stroke="#A34646" stroke-width="0.366137" stroke-miterlimit="10"/>
<path d="M319.494 95.3285L318.806 98.9215C318.753 99.183 318.496 99.356 318.23 99.3077L315.547 98.7927L313.241 98.3501C313.406 98.9255 313.563 99.4807 313.724 99.9998H289.515C289.68 99.4847 289.832 98.9335 289.997 98.3662L288.018 98.7485L285.097 99.3077C284.835 99.356 284.578 99.183 284.525 98.9215L283.837 95.3285C283.785 95.0629 283.958 94.8054 284.224 94.7531L287.141 94.1939L290.697 93.5099L292.359 93.192C292.601 92.8943 292.862 92.6046 293.152 92.331C293.301 92.1902 293.462 92.0493 293.627 91.9166C295.147 90.6934 297.328 89.8445 300.575 89.7358C300.68 89.7358 300.788 89.7399 300.893 89.7399C300.998 89.7399 301.106 89.7358 301.211 89.7358C301.352 89.7358 301.488 89.7399 301.621 89.7399C301.754 89.7399 301.891 89.7358 302.032 89.7358C302.136 89.7358 302.245 89.7399 302.35 89.7399C302.454 89.7399 302.563 89.7358 302.667 89.7358C306.083 89.8485 308.32 90.786 309.849 92.1137C309.994 92.2385 310.131 92.3632 310.264 92.496C310.481 92.7132 310.682 92.9385 310.867 93.1719L313.072 93.5944L316.424 94.2381L319.107 94.7531C319.369 94.8054 319.542 95.0629 319.494 95.3285Z" fill="#FECF2B" stroke="#D1904A" stroke-width="0.402349" stroke-miterlimit="10"/>
<path d="M302.056 93.2201C317.413 93.2201 329.863 80.7708 329.863 65.4137C329.863 50.0567 317.413 37.6074 302.056 37.6074C286.699 37.6074 274.25 50.0567 274.25 65.4137C274.25 80.7708 286.699 93.2201 302.056 93.2201Z" fill="#FECF2B"/>
<path d="M301.968 93.7313C317.607 93.7313 330.285 81.0532 330.285 65.414C330.285 49.7748 317.607 37.0967 301.968 37.0967C286.328 37.0967 273.65 49.7748 273.65 65.414C273.65 81.0532 286.328 93.7313 301.968 93.7313Z" stroke="#FC7B65" stroke-width="2.70378" stroke-miterlimit="10"/>
<path d="M303.488 71.1517C303.222 71.0591 302.908 71.0028 302.574 70.9907C302.24 71.0028 301.931 71.0591 301.661 71.1517C301.363 71.2603 300.623 71.6747 300.623 72.1777C300.623 72.757 301.206 73.2278 301.923 73.2278C302.039 73.2278 302.128 73.1956 302.22 73.1634C302.45 73.0789 302.703 73.0789 302.933 73.1634C303.025 73.1956 303.118 73.2278 303.23 73.2278C303.946 73.2278 304.53 72.757 304.53 72.1777C304.53 71.6707 303.79 71.2563 303.492 71.1517H303.488Z" fill="#FC7B65"/>
<path d="M298.576 64.8627V67.659C298.576 70.7048 296.121 73.1752 293.096 73.1752H288.996C285.966 73.1752 283.512 70.7008 283.508 67.651C283.504 63.1407 285.648 59.435 289.636 58.5901C289.684 58.582 289.732 58.57 289.78 58.5659C293.1 58.1113 294.971 59.1735 296.709 60.7185C297.892 61.7686 298.576 63.2775 298.576 64.8667V64.8627Z" fill="white"/>
<path d="M298.15 68.1621L298.134 69.0996C298.094 71.22 296.343 72.9058 294.227 72.8656L292.795 72.8374C290.525 72.7931 288.763 70.7975 289.053 68.5443C289.35 66.2429 290.65 64.4525 292.807 64.0421C292.835 64.038 292.867 64.034 292.895 64.03C294.79 63.8087 295.893 64.376 296.878 65.233C297.723 65.9653 298.174 67.0476 298.154 68.1661L298.15 68.1621Z" fill="#250F00"/>
<path d="M292.122 67.462C292.539 67.462 292.878 67.1234 292.878 66.7056C292.878 66.2879 292.539 65.9492 292.122 65.9492C291.704 65.9492 291.365 66.2879 291.365 66.7056C291.365 67.1234 291.704 67.462 292.122 67.462Z" fill="white"/>
<path d="M298.358 64.8346C297.481 60.4289 292.125 58.8597 288.327 60.4007C285.813 61.2215 284.227 63.2775 283.479 65.8686C283.435 66.0376 283.165 65.9934 283.177 65.8163C283.197 64.8909 283.378 63.9615 283.724 63.0643C285.937 57.3469 295.187 56.5744 298.177 62.0061C298.643 62.8711 298.893 63.8569 298.812 64.8145C298.8 64.9392 298.688 65.0358 298.563 65.0237C298.458 65.0157 298.374 64.9352 298.358 64.8346Z" fill="#250F00"/>
<path d="M306.12 64.8627V67.659C306.12 70.7048 308.574 73.1752 311.6 73.1752H315.7C318.73 73.1752 321.184 70.7008 321.188 67.651C321.192 63.1407 319.048 59.435 315.06 58.5901C315.012 58.582 314.964 58.57 314.915 58.5659C311.596 58.1113 309.725 59.1735 307.987 60.7185C306.804 61.7686 306.12 63.2775 306.12 64.8667V64.8627Z" fill="white"/>
<path d="M306.547 68.1621L306.563 69.0996C306.603 71.22 308.353 72.9058 310.47 72.8656L311.902 72.8374C314.171 72.7931 315.933 70.7975 315.644 68.5443C315.346 66.2429 314.046 64.4525 311.89 64.0421C311.862 64.038 311.83 64.034 311.801 64.03C309.906 63.8087 308.804 64.376 307.818 65.233C306.973 65.9653 306.523 67.0476 306.543 68.1661L306.547 68.1621Z" fill="#250F00"/>
<path d="M308.755 67.6832C309.173 67.6832 309.512 67.3446 309.512 66.9268C309.512 66.5091 309.173 66.1704 308.755 66.1704C308.338 66.1704 307.999 66.5091 307.999 66.9268C307.999 67.3446 308.338 67.6832 308.755 67.6832Z" fill="white"/>
<path d="M305.879 64.8147C305.65 61.773 308.337 59.2583 311.134 58.5743C314.871 57.6087 319.527 59.3187 320.967 63.0686C321.313 63.9658 321.49 64.8952 321.514 65.8206C321.514 65.9051 321.45 65.9775 321.365 65.9775C321.297 65.9775 321.233 65.9333 321.212 65.8689C320.685 64.1509 319.844 62.5817 318.537 61.5718C317.253 60.57 315.535 60.0027 313.938 59.8457C310.679 59.544 306.985 61.3706 306.338 64.8349C306.305 65.0964 305.895 65.0763 305.883 64.8147H305.879Z" fill="#250F00"/>
<path d="M288.372 76.9618C293.857 76.9618 298.302 75.7549 298.302 74.266C298.302 72.7772 293.857 71.5703 288.372 71.5703C282.888 71.5703 278.442 72.7772 278.442 74.266C278.442 75.7549 282.888 76.9618 288.372 76.9618Z" fill="#FECF2B"/>
<path d="M315.731 76.9618C320.808 76.9618 324.924 75.7549 324.924 74.266C324.924 72.7772 320.808 71.5703 315.731 71.5703C310.653 71.5703 306.537 72.7772 306.537 74.266C306.537 75.7549 310.653 76.9618 315.731 76.9618Z" fill="#FECF2B"/>
<path d="M307.536 50.7846C309.383 49.1913 311.765 48.6723 314.597 50.6237" stroke="#E89128" stroke-width="1.3197" stroke-miterlimit="10" stroke-linecap="round"/>
<path d="M297.333 51.183C295.486 49.5897 293.104 49.0707 290.271 51.0221" stroke="#E89128" stroke-width="1.3197" stroke-miterlimit="10" stroke-linecap="round"/>
<path d="M326.466 98.4386C326.345 99.0663 326.024 99.6054 325.577 99.9997H319.642L315.828 99.2674C315.631 99.2272 315.502 99.0381 315.538 98.841L315.546 98.7927L316.423 94.2381L316.464 94.0208C316.5 93.8237 316.693 93.6949 316.89 93.7311L320.946 94.5117L321.783 93.7995L322.093 93.534C322.531 93.1638 323.195 93.2161 323.565 93.6547C323.742 93.8639 323.823 94.1174 323.807 94.3709C323.799 94.6002 323.714 94.8295 323.557 95.0106L324.229 95.1394C325.754 95.4331 326.76 96.9177 326.466 98.4386Z" fill="#FC7B65" stroke="#A34646" stroke-width="0.442584" stroke-miterlimit="10"/>
<g opacity="0.5">
<path d="M316.532 94.8701L318.592 95.2644" stroke="white" stroke-width="0.354067" stroke-miterlimit="10"/>
<path d="M316.331 95.9282L318.387 96.3225" stroke="white" stroke-width="0.354067" stroke-miterlimit="10"/>
<path d="M316.13 96.9785L318.19 97.3728" stroke="white" stroke-width="0.354067" stroke-miterlimit="10"/>
<path d="M315.929 98.0366L317.985 98.4309" stroke="white" stroke-width="0.354067" stroke-miterlimit="10"/>
</g>
<path d="M288.034 98.841C288.07 99.0381 287.942 99.2272 287.745 99.2674L283.926 99.9997H277.992C277.545 99.6054 277.223 99.0663 277.102 98.4386C276.813 96.9177 277.819 95.4331 279.34 95.1394L280.015 95.0106C279.879 94.8537 279.794 94.6565 279.774 94.4594C279.734 94.1777 279.81 93.888 280.007 93.6547C280.378 93.2161 281.041 93.1638 281.476 93.534L281.874 93.872L282.627 94.5117L286.682 93.7311C286.88 93.6949 287.069 93.8237 287.109 94.0208L287.141 94.1938L288.018 98.7484L288.034 98.841Z" fill="#FC7B65" stroke="#A34646" stroke-width="0.442584" stroke-miterlimit="10"/>
<g opacity="0.5">
<path d="M287.036 94.8701L284.98 95.2644" stroke="white" stroke-width="0.354067" stroke-miterlimit="10"/>
<path d="M287.242 95.9282L285.182 96.3225" stroke="white" stroke-width="0.354067" stroke-miterlimit="10"/>
<path d="M287.439 96.9785L285.383 97.3728" stroke="white" stroke-width="0.354067" stroke-miterlimit="10"/>
<path d="M287.644 98.0366L285.584 98.4309" stroke="white" stroke-width="0.354067" stroke-miterlimit="10"/>
</g>
<path d="M310.722 98.519L307.801 98.1126C305.825 97.835 304.156 96.5555 303.363 94.7611C302.969 94.7772 302.574 94.7933 302.176 94.7933C301.693 94.7933 301.215 94.7812 300.736 94.753C299.939 96.5354 298.273 97.8069 296.31 98.0804L293.389 98.4868C292.926 98.5512 292.584 98.0684 292.793 97.654L293.848 95.598C294.181 94.9462 294.612 94.3668 295.115 93.8719C294.592 93.7351 294.077 93.5782 293.566 93.4092H310.766C310.191 93.6023 309.608 93.7753 309.016 93.9282C309.511 94.4191 309.933 94.9904 310.263 95.6261L311.309 97.6821C311.527 98.1006 311.181 98.5834 310.718 98.519H310.722Z" fill="#FC7B65"/>
<path d="M305.528 93.5386L306.647 93.776C307.552 93.9691 308.325 94.5444 308.747 95.3532L309.234 96.2826C309.33 96.4717 309.173 96.689 308.96 96.6608L307.608 96.4757C306.586 96.3349 305.737 95.6308 305.436 94.6692L305.23 94.0133L305.528 93.5386Z" fill="#E86352"/>
<path d="M299.07 93.9122L298.515 94.9141C298.064 95.7268 297.287 96.2941 296.394 96.4591L295.36 96.6522C295.151 96.6924 294.99 96.4752 295.079 96.278L295.65 95.0388C296.08 94.1013 297.002 93.4978 298.012 93.4897H298.7L299.066 93.9082L299.07 93.9122Z" fill="#E86352"/>
<path d="M302.506 90.4282H300.985C299.341 90.4282 298.008 91.7612 298.008 93.4056V93.4096C298.008 95.054 299.341 96.387 300.985 96.387H302.506C304.15 96.387 305.483 95.054 305.483 93.4096V93.4056C305.483 91.7612 304.15 90.4282 302.506 90.4282Z" fill="#FC7B65" stroke="#A34646" stroke-width="0.382231" stroke-miterlimit="10"/>
<path d="M305.28 93.4091C305.28 94.1735 304.97 94.8656 304.467 95.3685C303.964 95.8714 303.268 96.1813 302.508 96.1813H301.095C300.6 96.1813 300.138 96.0525 299.735 95.8191C299.888 95.8473 300.045 95.8634 300.206 95.8634H301.622C302.383 95.8634 303.075 95.5536 303.582 95.0507C304.085 94.5477 304.395 93.8517 304.395 93.0912C304.395 92.0612 303.827 91.1599 302.99 90.6812C304.286 90.9105 305.28 92.0491 305.28 93.4131V93.4091Z" fill="#E86352"/>
<path d="M298.049 75.1426C299.888 77.8866 304.378 78.5786 307.009 75.2633" stroke="#E89128" stroke-width="1.3197" stroke-miterlimit="10" stroke-linecap="round"/>
<path d="M326.751 26.7404L327.105 26.0564L326.993 25.9961L315.514 20.0534L315.397 19.9971L315.043 20.6811L306.461 32.1641L308.545 33.2424L320.253 39.3018L322.334 40.376L326.751 26.7404Z" fill="white"/>
<path d="M323.622 37.7204L307.87 29.5688L308.035 29.3596C308.357 28.9532 308.912 28.8244 309.359 29.0658L323.155 36.3041C323.586 36.5254 323.811 37.0323 323.674 37.5071L323.622 37.7163V37.7204Z" fill="#C3C2BE"/>
<path d="M322.81 40.8544L305.903 32.1073L307.372 30.2163L323.418 38.5208L322.81 40.8544Z" fill="#C3C2BE"/>
<path d="M322.58 41.6434C322.331 42.1544 321.683 42.3797 321.156 42.1061L305.867 34.1959C305.34 33.9223 305.155 33.2826 305.42 32.7676L322.58 41.6474V41.6434Z" fill="#C3C2BE"/>
<path d="M323.288 24.7085C326.217 24.7085 328.591 22.3342 328.591 19.4055C328.591 16.4768 326.217 14.1025 323.288 14.1025C320.36 14.1025 317.985 16.4768 317.985 19.4055C317.985 22.3342 320.36 24.7085 323.288 24.7085Z" fill="white"/>
<path d="M315.434 23.6748C318.363 23.6748 320.737 21.3005 320.737 18.3718C320.737 15.4431 318.363 13.0688 315.434 13.0688C312.505 13.0688 310.131 15.4431 310.131 18.3718C310.131 21.3005 312.505 23.6748 315.434 23.6748Z" fill="white"/>
<path d="M328.474 30.4223C331.403 30.4223 333.777 28.0481 333.777 25.1194C333.777 22.1906 331.403 19.8164 328.474 19.8164C325.545 19.8164 323.171 22.1906 323.171 25.1194C323.171 28.0481 325.545 30.4223 328.474 30.4223Z" fill="white"/>
<path d="M323.417 38.5211L307.371 30.2166L307.87 29.5688L323.622 37.7204L323.417 38.5211Z" fill="#999999"/>
<path d="M322.58 41.6437L305.42 32.7639C305.448 32.7075 305.476 32.6552 305.516 32.6029L305.899 32.104L322.805 40.8511L322.661 41.4304C322.636 41.5029 322.612 41.5753 322.58 41.6397V41.6437Z" fill="#999999"/>
<path d="M321.948 28.3938L320.91 31.174C320.737 31.6367 320.938 32.1517 321.372 32.3811L321.513 32.4535C322.04 32.7271 322.684 32.4696 322.881 31.9103L323.863 29.1019C324.024 28.6433 323.823 28.1403 323.392 27.915L323.308 27.8707C322.788 27.6012 322.153 27.8466 321.948 28.3938Z" fill="#DFE0DB"/>
<path d="M316.911 25.7827L315.242 28.237C314.964 28.6434 314.425 28.7802 313.99 28.5548L313.849 28.4824C313.322 28.2088 313.161 27.5369 313.503 27.0541L315.23 24.6319C315.511 24.2376 316.038 24.1089 316.469 24.3342L316.553 24.3785C317.072 24.648 317.237 25.3079 316.911 25.7907V25.7827Z" fill="#DFE0DB"/>
<path d="M320.269 27.3618C320.516 26.8842 320.33 26.2967 319.852 26.0495C319.374 25.8024 318.787 25.9892 318.54 26.4668L317.186 29.0825C316.939 29.5601 317.126 30.1477 317.604 30.3948C318.081 30.6419 318.669 30.4551 318.916 29.9775L320.269 27.3618Z" fill="#DFE0DB"/>
<path d="M333.065 27.4925C334.413 24.8893 333.395 21.6906 330.791 20.3428C330.043 19.9565 329.246 19.7714 328.458 19.7553C328.619 17.6953 327.561 15.6393 325.605 14.6294C323.65 13.6195 321.296 13.9535 319.703 15.3255C319.224 14.6174 318.564 14.0138 317.751 13.5954C315.148 12.2475 311.949 13.2655 310.602 15.8687C309.254 18.4719 310.272 21.6705 312.875 23.0184C312.939 23.0506 313.004 23.0747 313.068 23.1069L308.747 28.8887C308.433 28.8887 308.127 29.0375 307.918 29.2991L307.753 29.5083L307.25 30.1561L305.785 32.0471L305.403 32.546C305.363 32.5943 305.335 32.6506 305.307 32.707C305.041 33.222 305.222 33.8617 305.753 34.1353L321.042 42.0455C321.57 42.3191 322.217 42.0937 322.467 41.5828C322.499 41.5184 322.523 41.446 322.547 41.3735L322.692 40.7942L323.3 38.4605L323.505 37.6599L323.557 37.4506C323.642 37.1529 323.585 36.8431 323.424 36.5977L325.682 29.629C325.762 29.6773 325.838 29.7255 325.919 29.7658C328.522 31.1137 331.721 30.0957 333.069 27.4925H333.065Z" stroke="#868687" stroke-width="0.366137" stroke-miterlimit="10"/>
<path d="M357.054 58.7191C366.4 58.7191 373.976 51.1425 373.976 41.7963C373.976 32.4501 366.4 24.8735 357.054 24.8735C347.707 24.8735 340.131 32.4501 340.131 41.7963C340.131 51.1425 347.707 58.7191 357.054 58.7191Z" fill="#9F84FF"/>
<path d="M357.222 54.7679C364.491 54.7679 370.383 48.8756 370.383 41.6071C370.383 34.3386 364.491 28.4463 357.222 28.4463C349.954 28.4463 344.062 34.3386 344.062 41.6071C344.062 48.8756 349.954 54.7679 357.222 54.7679Z" fill="white"/>
<path d="M357.56 51.1265C362.895 51.1265 367.22 46.8013 367.22 41.4661C367.22 36.1308 362.895 31.8057 357.56 31.8057C352.225 31.8057 347.899 36.1308 347.899 41.4661C347.899 46.8013 352.225 51.1265 357.56 51.1265Z" stroke="#9F84FF" stroke-width="1.01003" stroke-miterlimit="10"/>
<path d="M357.838 40.4405C358.2 40.2997 358.381 39.9939 358.538 39.6157L358.687 39.2576C358.836 38.8995 358.727 38.7024 358.522 38.6179C358.297 38.5213 358.1 38.5938 357.939 38.984L357.766 39.3944C357.524 39.9658 357.138 40.1106 356.37 39.7887L355.786 39.5433C355.03 39.2254 354.998 38.7547 355.223 38.2156C355.899 36.6062 357.166 35.8779 359.275 36.6987C361.218 37.4873 361.874 38.9559 361.182 40.6095C360.594 42.0137 359.339 42.3155 358.723 42.4161C358.446 42.4402 358.385 42.6454 358.301 42.8506C358.124 43.2731 357.73 43.426 357.082 43.1524L356.466 42.8949C355.73 42.5891 355.666 42.1385 355.81 41.7924C355.979 41.3539 356.185 41.0843 356.418 40.9797L357.838 40.4405ZM357.299 45.4095C357.058 45.9809 356.559 46.3309 355.822 46.0251L355.316 45.8119C354.559 45.494 354.475 44.8744 354.704 44.3232L354.909 43.8364C355.143 43.2731 355.658 42.9311 356.39 43.2369L356.909 43.4541C357.645 43.7599 357.738 44.3594 357.5 44.9227L357.295 45.4095H357.299Z" fill="#9F84FF"/>
<path d="M349.633 92.1458C355.508 92.1458 360.271 87.383 360.271 81.5077C360.271 75.6325 355.508 70.8696 349.633 70.8696C343.758 70.8696 338.995 75.6325 338.995 81.5077C338.995 87.383 343.758 92.1458 349.633 92.1458Z" fill="#8527FF"/>
<path d="M349.589 89.6276C354.157 89.6276 357.861 85.924 357.861 81.3553C357.861 76.7866 354.157 73.083 349.589 73.083C345.02 73.083 341.316 76.7866 341.316 81.3553C341.316 85.924 345.02 89.6276 349.589 89.6276Z" fill="white"/>
<path d="M349.634 87.201C352.987 87.201 355.705 84.4827 355.705 81.1295C355.705 77.7764 352.987 75.0581 349.634 75.0581C346.281 75.0581 343.562 77.7764 343.562 81.1295C343.562 84.4827 346.281 87.201 349.634 87.201Z" fill="white" stroke="#8527FF" stroke-width="0.673356" stroke-miterlimit="10"/>
<path d="M348.349 79.4795C348.253 79.5456 348.164 79.6485 348.154 79.7997C348.145 79.9359 348.205 80.0682 348.288 80.1921L348.288 80.1921L348.289 80.1934L348.446 80.4227L348.446 80.4231C348.539 80.5583 348.546 80.6387 348.528 80.6982C348.507 80.7711 348.432 80.8753 348.228 81.0164C348.228 81.0165 348.228 81.0166 348.228 81.0167L347.899 81.2411C347.899 81.2411 347.899 81.2412 347.899 81.2412C347.713 81.368 347.602 81.3737 347.535 81.3563C347.461 81.3368 347.38 81.2733 347.285 81.1365C346.994 80.7109 346.878 80.3086 346.946 79.9312C347.013 79.5535 347.272 79.1568 347.823 78.7591C348.336 78.401 348.806 78.2749 349.206 78.3273C349.603 78.3793 349.964 78.6113 350.256 79.0384C350.731 79.7372 350.503 80.4099 350.354 80.7493C350.29 80.8748 350.289 80.9953 350.328 81.1038C350.357 81.1866 350.411 81.2605 350.445 81.3078C350.448 81.3126 350.451 81.317 350.454 81.3212C350.507 81.3997 350.513 81.4611 350.496 81.5163C350.476 81.5808 350.413 81.6744 350.25 81.7836L350.25 81.7836L350.248 81.7848L349.903 82.0217C349.903 82.0218 349.903 82.0218 349.903 82.0219C349.72 82.1458 349.602 82.1618 349.535 82.1527C349.472 82.144 349.42 82.1079 349.377 82.0459L349.377 82.0459L349.375 82.0427C349.213 81.8174 349.178 81.6769 349.188 81.5954L349.388 80.6693L349.532 80.002L349.341 80.1927C349.295 80.0737 349.228 79.9654 349.161 79.8661L349.161 79.8661L349.024 79.6649L348.859 79.7768L349.024 79.6649C348.94 79.5424 348.836 79.4472 348.705 79.4118C348.568 79.3747 348.444 79.4143 348.349 79.4795ZM348.349 79.4795L348.463 79.6452L348.349 79.4796C348.349 79.4796 348.349 79.4795 348.349 79.4795ZM350.975 82.2204C351.068 82.2444 351.161 82.3096 351.244 82.4174H351.239L351.456 82.7326C351.547 82.866 351.583 82.9945 351.57 83.104C351.557 83.2078 351.496 83.3272 351.327 83.442L351.327 83.442L351.326 83.4428L351.042 83.6391C351.042 83.6392 351.041 83.6394 351.041 83.6395C350.867 83.7579 350.731 83.7694 350.629 83.7427C350.521 83.7143 350.416 83.6333 350.327 83.5034L350.143 83.2301L350.142 83.2293C350.053 83.0995 350.02 82.9731 350.035 82.8638C350.049 82.7594 350.112 82.6388 350.282 82.5235L350.283 82.523L350.576 82.3223C350.576 82.3222 350.576 82.3222 350.576 82.3221C350.746 82.207 350.877 82.195 350.975 82.2204Z" fill="#8527FF" stroke="#8527FF" stroke-width="0.402349"/>
</svg>
