<svg width="20" height="20" viewBox="0 0 20 20" fill="none" xmlns="http://www.w3.org/2000/svg">
<mask id="mask0_957_1537" style="mask-type:alpha" maskUnits="userSpaceOnUse" x="0" y="0" width="20" height="20">
<rect width="20" height="20" fill="#D9D9D9"/>
</mask>
<g mask="url(#mask0_957_1537)">
<path d="M17.2432 7.08324C17.6396 7.08324 17.9897 7.23525 18.2936 7.53928C18.5977 7.84317 18.7497 8.19331 18.7497 8.5897V9.93574C18.7497 10.0223 18.7406 10.1157 18.7224 10.2162C18.7042 10.3166 18.677 10.4101 18.6407 10.4968L16.2528 16.1314C16.1332 16.3984 15.9329 16.6239 15.652 16.8076C15.371 16.9914 15.0788 17.0832 14.7753 17.0832H8.02842C7.61287 17.0832 7.25794 16.9361 6.96363 16.6418C6.66933 16.3473 6.52217 15.9923 6.52217 15.5768V7.70657C6.52217 7.50574 6.56329 7.31268 6.64551 7.12741C6.72773 6.94199 6.83724 6.78088 6.97405 6.64407L11.3826 2.26428C11.5483 2.10734 11.7401 2.01067 11.958 1.97428C12.1759 1.93803 12.3847 1.9706 12.5845 2.07199C12.7843 2.17352 12.9286 2.32254 13.0172 2.51907C13.1059 2.71574 13.1236 2.92463 13.0701 3.14574L12.1726 7.08324H17.2432ZM3.58947 17.0832C3.17391 17.0832 2.81891 16.9361 2.52447 16.6418C2.23016 16.3473 2.08301 15.9923 2.08301 15.5768V8.5897C2.08301 8.17414 2.23016 7.81914 2.52447 7.5247C2.81891 7.23039 3.17391 7.08324 3.58947 7.08324H3.76572C4.18127 7.08324 4.53627 7.23039 4.83072 7.5247C5.12502 7.81914 5.27217 8.17414 5.27217 8.5897V15.5849C5.27217 16.0005 5.12502 16.3541 4.83072 16.6457C4.53627 16.9374 4.18127 17.0832 3.76572 17.0832H3.58947Z" fill="#FF8800"/>
</g>
</svg>
