<svg width="20" height="20" viewBox="0 0 20 20" fill="none" xmlns="http://www.w3.org/2000/svg">
<mask id="mask0_139_940" style="mask-type:alpha" maskUnits="userSpaceOnUse" x="0" y="0" width="20" height="20">
<rect width="20" height="20" fill="#D9D9D9"/>
</mask>
<g mask="url(#mask0_139_940)">
<path d="M17.2432 7.08334C17.6396 7.08334 17.9897 7.23536 18.2936 7.53939C18.5977 7.84327 18.7497 8.19341 18.7497 8.5898V9.93584C18.7497 10.0233 18.7384 10.1171 18.7159 10.2171C18.6936 10.317 18.6685 10.4102 18.6407 10.4969L16.2524 16.1323C16.1331 16.3988 15.9329 16.624 15.652 16.8077C15.371 16.9915 15.0778 17.0833 14.7724 17.0833H6.00926V7.08334L10.857 2.2773C11.0227 2.11175 11.2145 2.01293 11.4324 1.98084C11.6503 1.94876 11.8591 1.98612 12.0588 2.09293C12.2587 2.19987 12.4051 2.35161 12.498 2.54813C12.5909 2.74466 12.6107 2.9482 12.5574 3.15876L11.6599 7.08334H17.2432ZM7.25926 7.61543V15.8333H14.7753C14.834 15.8333 14.8941 15.8173 14.9555 15.7852C15.017 15.7531 15.0638 15.6997 15.0959 15.625L17.4997 10V8.5898C17.4997 8.51494 17.4756 8.45348 17.4276 8.40543C17.3795 8.35737 17.3181 8.33334 17.2432 8.33334H10.0799L11.1247 3.76605L7.25926 7.61543ZM3.58947 17.0833C3.17516 17.0833 2.82051 16.9358 2.52551 16.6408C2.23051 16.3458 2.08301 15.9912 2.08301 15.5769V8.5898C2.08301 8.1755 2.23051 7.82084 2.52551 7.52584C2.82051 7.23084 3.17516 7.08334 3.58947 7.08334H6.00926V8.33334H3.58947C3.51461 8.33334 3.45315 8.35737 3.40509 8.40543C3.35704 8.45348 3.33301 8.51494 3.33301 8.5898V15.5769C3.33301 15.6517 3.35704 15.7132 3.40509 15.7613C3.45315 15.8093 3.51461 15.8333 3.58947 15.8333H6.00926V17.0833H3.58947Z" fill="#74787E"/>
</g>
</svg>
