<?xml version="1.0" encoding="UTF-8"?><svg id="_레이어_1" xmlns="http://www.w3.org/2000/svg" xmlns:xlink="http://www.w3.org/1999/xlink" viewBox="0 0 405.36 405.48"><defs><style>.cls-1{fill:url(#_무제_그라디언트_115);}.cls-2{fill:none;stroke:#fff;stroke-miterlimit:10;stroke-width:14.04px;}</style><linearGradient id="_무제_그라디언트_115" x1="59.15" y1="346.21" x2="345.82" y2="59.55" gradientUnits="userSpaceOnUse"><stop offset="0" stop-color="#fecf2b"/><stop offset="0" stop-color="#fdcd2b"/><stop offset=".3" stop-color="#fdaa44"/><stop offset=".57" stop-color="#fc9056"/><stop offset=".81" stop-color="#fc8061"/><stop offset="1" stop-color="#fc7b65"/></linearGradient></defs><path class="cls-1" d="M257.34,334.9c10.55-4.22,20.99-.18,32.66,2.95,10.84,3.06,21.95,6.3,32.88,8.8,21.39,4.81,27.54,2.19,25.14-14.86-1.33-9.81-6.39-27.35-10.23-40.93-2.39-8.36-4.77-16.34-4.87-22.91-.87-16.33,13.47-24.22,26.94-31.48,9.45-5.28,19.31-10.71,28.42-16.37,22.62-14.1,22.8-20.27.25-34.42-4.2-2.62-8.42-5.12-12.87-7.67-5-2.87-10.19-5.77-15.23-8.58-10.86-6.22-22.65-11.58-26.37-23.19-3.16-9.77.68-20.44,3.52-30.88,2.41-8.45,4.95-17.39,7.1-25.83,6.46-25.68,8.24-38.38-22.74-30.36-10.39,2.4-21.02,5.47-31.36,8.39-16.39,4.93-32.79,9.7-44.28-5.69-9.52-13.16-17.4-30.86-26.48-44.81-14.1-22.62-20.27-22.8-34.42-.25-2.63,4.2-5.12,8.42-7.67,12.87-2.87,5-5.77,10.19-8.58,15.23-7.96,14.82-16.19,29.86-34.86,27.34-16.14-2.44-34.48-9.57-50.88-13.01-25.96-6.03-30.45-1.79-24.51,24.16,1.11,4.83,2.34,9.57,3.68,14.52,1.51,5.57,3.13,11.28,4.7,16.83,3.52,12.84,8.26,25.61,1.28,36.76-5.36,8.12-13.32,11.93-23.36,17.63-9.45,5.28-19.31,10.71-28.42,16.37-27.02,15.75-18.47,23.68,4.41,37.27,7.58,4.53,15.67,9.05,23.45,13.39,9.55,5.5,19.65,10.11,24.68,19.23,4.09,6.73,3.15,17.17.74,25.6-2.16,8.13-4.62,16.26-6.83,24.42-1.55,5.62-2.98,11.03-4.26,16.5-6.03,25.96-1.79,30.45,24.16,24.51,10.39-2.4,21.02-5.47,31.36-8.39,14.62-4.28,30.58-9.42,41.88,2.93,4.48,4.6,8.39,11.7,12.51,19.14,6.77,12.09,15.29,27.58,21.24,35.75,9.73,13.74,16.86,13.57,28.76-5.83,5.99-9.44,11.54-19.54,17.03-29.35,6.1-10.54,10.69-21.11,21.23-25.72l.18-.08Z"/><path class="cls-2" d="M157.51,206.39h43.79v43.79c0,24.17-19.62,43.79-43.79,43.79h0c-24.17,0-43.79-19.62-43.79-43.79h0c0-24.17,19.62-43.79,43.79-43.79Z"/><path class="cls-2" d="M246.77,119.36h0c24.17,0,43.79,19.62,43.79,43.79h0c0,24.17-19.62,43.79-43.79,43.79h-43.79v-43.79c0-24.17,19.62-43.79,43.79-43.79Z"/></svg>