<svg width="32" height="31" viewBox="0 0 32 31" fill="none" xmlns="http://www.w3.org/2000/svg">
<path d="M30.9655 5.67143L30.4776 5.32737C29.9694 4.9647 29.2953 5.03821 28.974 5.49094L25.3068 10.6475C25.1416 10.8789 24.8019 10.9134 24.5404 10.7299L24.4751 10.684C24.2184 10.5004 24.1402 10.1627 24.3009 9.93632L27.9681 4.77978C28.2984 4.31202 28.1267 3.62266 27.5752 3.27165C27.0586 2.9386 26.4016 3.06983 26.0897 3.51241L22.4546 8.62368C22.2893 8.85512 21.9497 8.88955 21.6882 8.7061C21.4316 8.52245 21.3534 8.18474 21.514 7.95837L25.1812 2.80184C25.5024 2.3491 25.3515 1.68807 24.8385 1.32562L24.3507 0.981559C23.8425 0.618896 23.1683 0.692397 22.8471 1.14513L17.8719 8.14287C17.8019 8.21417 17.752 8.29921 17.707 8.38404C17.707 8.38404 17.0256 9.62262 17.935 11.0203C18.4578 11.8258 18.4957 12.7988 17.9906 13.5033L15.6176 16.8388L13.4776 13.8333C12.8542 12.9543 12.6489 11.8327 12.9163 10.7098C13.3612 8.85776 12.9374 6.64435 11.5921 4.75411C9.38391 1.63957 5.52166 0.586129 2.96991 2.40403C0.41816 4.22194 0.145379 8.21555 2.35818 11.325C3.70352 13.2153 5.65354 14.3381 7.54791 14.5278C8.69337 14.6431 9.68763 15.1988 10.316 16.0777L13.2354 20.1844L8.18201 27.2879C7.59913 28.1079 7.92583 29.3314 8.92645 29.9209C9.80204 30.438 10.8691 30.2108 11.3926 29.4811L15.6196 23.5348L19.8741 29.6445C20.4248 30.4196 21.5804 30.5442 22.4546 29.9209C23.3288 29.2977 23.5909 28.1653 23.0402 27.3902L18.0014 20.1795L21.1316 15.7776C21.6321 15.0782 22.5527 14.7356 23.4707 14.9974C24.6797 15.339 25.5316 14.8726 25.9184 14.5827C25.9901 14.5503 26.0654 14.4885 26.1438 14.3876L26.1531 14.3775C26.1531 14.3775 26.1668 14.3574 26.1761 14.3472L31.2982 7.14321C31.6194 6.69047 31.4685 6.02944 30.9555 5.66699L30.9655 5.67143Z" fill="#FDD835"/>
</svg>
