<svg width="358" height="130" viewBox="0 0 358 130" fill="none" xmlns="http://www.w3.org/2000/svg">
<rect width="358" height="130" rx="12" fill="#83D8FF"/>
<path d="M30.14 34.206H19.358V27.582H21.194V29.454H28.304V27.546H30.14V34.206ZM30.104 19.014C30.104 21.21 29.942 23.106 29.618 24.702H31.994V26.196H17.504V24.702H27.836C28.112 23.454 28.25 22.05 28.25 20.49H19.394V19.014H30.104ZM28.304 32.73V30.894H21.194V32.73H28.304ZM46.3262 27.762H44.4722V18.402H46.3262V27.762ZM35.5262 28.608H46.3442V34.44H44.4902V30.066H35.5262V28.608ZM42.8162 25.404L41.7362 26.826C41.0282 26.538 40.3202 26.082 39.6122 25.458C38.9042 24.822 38.3882 24.144 38.0642 23.424C37.8242 24.216 37.3502 24.966 36.6422 25.674C35.9342 26.37 35.1482 26.898 34.2842 27.258L33.1502 25.8C34.3382 25.332 35.2922 24.636 36.0122 23.712C36.7322 22.776 37.0922 21.702 37.0922 20.49V19.05H38.9822V20.418C38.9822 21.594 39.3662 22.638 40.1342 23.55C40.9022 24.45 41.7962 25.068 42.8162 25.404ZM61.535 20.058C61.523 25.29 59.153 29.148 54.425 31.632L53.237 30.3C55.733 29.16 57.521 27.498 58.601 25.314L53.903 25.818L53.615 24.216L59.213 23.802C59.429 23.022 59.561 22.272 59.609 21.552H54.425V20.058H61.535ZM65.873 18.384V24.648H68.357V26.178H65.873V34.422H64.019V18.384H65.873ZM83.4812 30.822V32.28H68.9912V30.822H83.4812ZM81.7892 27.186H70.8452V19.824H81.6272V21.282H72.6992V25.71H81.7892V27.186ZM97.6514 28.23H92.7014V30.912H99.0554V32.388H84.5654V30.912H90.8654V28.23H86.4194V23.046H95.3474V20.976H86.3654V19.5H97.1834V24.54H88.2734V26.736H97.6514V28.23ZM119.682 24.144H117.324V28.32H115.47V18.384H117.324V22.632H119.682V24.144ZM106.866 29.166H117.342V34.44H115.488V30.642H106.866V29.166ZM114.03 22.398H104.742V20.958H114.03V22.398ZM113.166 25.692C113.166 26.472 112.806 27.114 112.086 27.618C111.378 28.11 110.484 28.356 109.404 28.356C108.324 28.356 107.418 28.11 106.686 27.618C105.966 27.114 105.606 26.472 105.606 25.692C105.606 24.888 105.966 24.24 106.686 23.748C107.406 23.244 108.312 22.992 109.404 22.992C110.484 22.992 111.378 23.244 112.086 23.748C112.806 24.24 113.166 24.888 113.166 25.692ZM111.33 25.692C111.33 25.32 111.138 25.014 110.754 24.774C110.382 24.534 109.932 24.414 109.404 24.414C108.864 24.414 108.402 24.534 108.018 24.774C107.634 25.014 107.442 25.32 107.442 25.692C107.442 26.052 107.634 26.352 108.018 26.592C108.414 26.832 108.876 26.952 109.404 26.952C109.932 26.952 110.382 26.832 110.754 26.592C111.138 26.352 111.33 26.052 111.33 25.692ZM107.064 20.04V18.564H111.762V20.04H107.064ZM133.258 21.624C133.258 22.692 132.628 23.502 131.368 24.054V26.124H134.932V27.6H120.442V26.124H123.952V24.018C122.74 23.466 122.134 22.668 122.134 21.624C122.134 20.712 122.626 19.98 123.61 19.428C124.594 18.876 125.95 18.6 127.678 18.6C129.43 18.6 130.798 18.876 131.782 19.428C132.766 19.98 133.258 20.712 133.258 21.624ZM133.258 31.47C133.258 32.394 132.766 33.114 131.782 33.63C130.81 34.146 129.448 34.404 127.696 34.404C125.944 34.404 124.576 34.146 123.592 33.63C122.62 33.114 122.134 32.394 122.134 31.47C122.134 30.558 122.62 29.844 123.592 29.328C124.576 28.812 125.938 28.554 127.678 28.554C129.442 28.554 130.81 28.812 131.782 29.328C132.766 29.844 133.258 30.558 133.258 31.47ZM130.36 22.812C131.02 22.524 131.35 22.128 131.35 21.624C131.35 21.12 131.02 20.724 130.36 20.436C129.712 20.148 128.818 20.004 127.678 20.004C126.538 20.004 125.644 20.154 124.996 20.454C124.348 20.742 124.024 21.132 124.024 21.624C124.024 22.128 124.348 22.524 124.996 22.812C125.644 23.1 126.538 23.244 127.678 23.244C128.806 23.244 129.7 23.1 130.36 22.812ZM130.378 32.568C131.026 32.316 131.35 31.956 131.35 31.488C131.35 31.02 131.02 30.66 130.36 30.408C129.7 30.144 128.806 30.012 127.678 30.012C126.55 30.012 125.656 30.144 124.996 30.408C124.348 30.66 124.024 31.02 124.024 31.488C124.024 31.956 124.348 32.316 124.996 32.568C125.644 32.808 126.538 32.928 127.678 32.928C128.83 32.928 129.73 32.808 130.378 32.568ZM127.696 24.666C126.868 24.666 126.232 24.624 125.788 24.54V26.124H129.532V24.558C129.088 24.63 128.476 24.666 127.696 24.666ZM148.635 34.224H137.871V28.95H142.317V27.492H136.017V26.016H150.507V27.492H144.153V28.95H148.635V34.224ZM149.013 24.81H137.439V23.316H139.851L139.419 20.85L141.237 20.742L141.579 23.316H144.873L145.269 20.724L147.087 20.922L146.619 23.316H149.013V24.81ZM149.031 20.238H137.403V18.744H149.031V20.238ZM146.799 32.748V30.39H139.707V32.748H146.799ZM166.081 26.628H151.591V25.152H166.081V26.628ZM164.749 34.314H153.445V30.354H162.301V29.238H153.355V27.78H164.155V31.704H155.281V32.856H164.749V34.314ZM158.863 18.474C160.615 18.474 161.983 18.738 162.967 19.266C163.951 19.782 164.443 20.472 164.443 21.336C164.443 22.2 163.951 22.89 162.967 23.406C161.983 23.922 160.615 24.18 158.863 24.18C157.123 24.18 155.761 23.922 154.777 23.406C153.805 22.89 153.319 22.2 153.319 21.336C153.319 20.472 153.805 19.782 154.777 19.266C155.761 18.738 157.123 18.474 158.863 18.474ZM161.563 20.292C160.915 20.028 160.015 19.896 158.863 19.896C157.711 19.896 156.811 20.028 156.163 20.292C155.515 20.544 155.191 20.892 155.191 21.336C155.191 21.768 155.515 22.11 156.163 22.362C156.811 22.614 157.711 22.74 158.863 22.74C160.015 22.74 160.915 22.614 161.563 22.362C162.223 22.11 162.553 21.768 162.553 21.336C162.553 20.892 162.223 20.544 161.563 20.292ZM32.354 48.262H29.996V51.52H28.142V43.384H29.996V46.768H32.354V48.262ZM30.536 59.296H19.682V55.12H28.142V53.86H19.61V52.366H29.996V56.488H21.518V57.838H30.536V59.296ZM26.828 49.918L25.802 51.304C25.07 51.016 24.356 50.578 23.66 49.99C22.964 49.39 22.448 48.718 22.112 47.974C21.884 48.778 21.41 49.516 20.69 50.188C19.97 50.86 19.172 51.37 18.296 51.718L17.216 50.332C18.38 49.9 19.322 49.234 20.042 48.334C20.762 47.434 21.122 46.384 21.122 45.184V43.906H23.03V45.112C23.03 46.276 23.408 47.29 24.164 48.154C24.932 49.018 25.82 49.606 26.828 49.918ZM45.9787 59.44H44.1427V53.608H37.8427V52.15H52.3327V53.608H45.9787V59.44ZM51.7207 49.072L50.8747 50.566C49.6627 50.362 48.4927 49.906 47.3647 49.198C46.2487 48.49 45.4927 47.698 45.0967 46.822C44.7607 47.686 44.0347 48.472 42.9187 49.18C41.8027 49.888 40.6147 50.356 39.3547 50.584L38.5447 49.072C40.0207 48.904 41.3227 48.388 42.4507 47.524C43.5787 46.66 44.1427 45.67 44.1427 44.554V43.744H46.0867V44.554C46.0867 45.286 46.3747 45.994 46.9507 46.678C47.5387 47.35 48.2587 47.896 49.1107 48.316C49.9747 48.736 50.8447 48.988 51.7207 49.072ZM69.4855 43.384H71.3395V52.348H69.4855V43.384ZM65.5795 45.346C66.3835 46.066 66.7855 46.978 66.7855 48.082C66.7855 49.186 66.3895 50.08 65.5975 50.764C64.8175 51.436 63.8395 51.772 62.6635 51.772C61.4995 51.772 60.5215 51.436 59.7295 50.764C58.9375 50.08 58.5415 49.186 58.5415 48.082C58.5415 46.99 58.9375 46.084 59.7295 45.364C60.5335 44.632 61.5115 44.266 62.6635 44.266C63.8155 44.266 64.7875 44.626 65.5795 45.346ZM64.9855 48.064C64.9855 47.416 64.7695 46.876 64.3375 46.444C63.9175 46 63.3595 45.778 62.6635 45.778C61.9795 45.778 61.4215 46 60.9895 46.444C60.5575 46.888 60.3415 47.428 60.3415 48.064C60.3415 48.736 60.5575 49.288 60.9895 49.72C61.4215 50.152 61.9795 50.368 62.6635 50.368C63.3475 50.368 63.9055 50.152 64.3375 49.72C64.7695 49.276 64.9855 48.724 64.9855 48.064ZM72.8875 58.036L71.8795 59.368C71.3155 59.116 70.7395 58.708 70.1515 58.144C69.5755 57.592 69.1915 57.034 68.9995 56.47C68.8435 57.046 68.4715 57.634 67.8835 58.234C67.2955 58.846 66.6775 59.314 66.0295 59.638L64.9855 58.396C65.9335 57.964 66.6835 57.352 67.2355 56.56C67.7995 55.768 68.0815 54.868 68.0815 53.86V53.122H69.8635V53.842C69.8635 54.826 70.1395 55.69 70.6915 56.434C71.2435 57.178 71.9755 57.712 72.8875 58.036ZM64.8055 58.054C64.4815 57.886 64.1575 57.652 63.8335 57.352C63.5095 57.04 63.2695 56.722 63.1135 56.398C62.9215 57.034 62.5375 57.634 61.9615 58.198C61.3975 58.762 60.7435 59.206 59.9995 59.53L58.9915 58.288C59.8915 57.904 60.6415 57.334 61.2415 56.578C61.8415 55.81 62.1415 54.94 62.1415 53.968V53.212H63.9415V53.878C63.9415 54.622 64.1515 55.246 64.5715 55.75C64.9915 56.254 65.4655 56.59 65.9935 56.758L64.8055 58.054ZM88.2097 51.628H73.7197V50.152H88.2097V51.628ZM86.8777 59.314H75.5737V55.354H84.4297V54.238H75.4837V52.78H86.2837V56.704H77.4097V57.856H86.8777V59.314ZM80.9917 43.474C82.7437 43.474 84.1117 43.738 85.0957 44.266C86.0797 44.782 86.5717 45.472 86.5717 46.336C86.5717 47.2 86.0797 47.89 85.0957 48.406C84.1117 48.922 82.7437 49.18 80.9917 49.18C79.2517 49.18 77.8897 48.922 76.9057 48.406C75.9337 47.89 75.4477 47.2 75.4477 46.336C75.4477 45.472 75.9337 44.782 76.9057 44.266C77.8897 43.738 79.2517 43.474 80.9917 43.474ZM83.6917 45.292C83.0437 45.028 82.1437 44.896 80.9917 44.896C79.8397 44.896 78.9397 45.028 78.2917 45.292C77.6437 45.544 77.3197 45.892 77.3197 46.336C77.3197 46.768 77.6437 47.11 78.2917 47.362C78.9397 47.614 79.8397 47.74 80.9917 47.74C82.1437 47.74 83.0437 47.614 83.6917 47.362C84.3517 47.11 84.6817 46.768 84.6817 46.336C84.6817 45.892 84.3517 45.544 83.6917 45.292ZM101.858 43.384V49.846H104.234V51.376H101.858V59.422H100.094V43.384H101.858ZM94.0999 45.094C94.0999 47.446 93.7819 49.48 93.1459 51.196C92.5219 52.912 91.5499 54.466 90.2299 55.858L88.8079 54.886C89.9119 53.866 90.7759 52.6 91.3999 51.088C92.0239 49.576 92.3419 48.076 92.3539 46.588H89.7979V45.094H94.0999ZM98.5099 45.094C98.5099 47.746 98.2399 49.954 97.6999 51.718C97.1719 53.47 96.2119 55.168 94.8199 56.812L93.3439 55.858C94.5079 54.658 95.3719 53.254 95.9359 51.646C96.4999 50.026 96.7819 48.34 96.7819 46.588H94.7839V45.094H98.5099ZM106.722 53.68V52.816C106.722 52.252 106.848 51.802 107.1 51.466C107.364 51.13 107.85 50.68 108.558 50.116C109.266 49.528 109.62 48.724 109.62 47.704C109.62 46.588 108.912 46.03 107.496 46.03C106.8 46.03 106.002 46.18 105.102 46.48V45.094C105.906 44.734 106.86 44.554 107.964 44.554C109.02 44.554 109.878 44.806 110.538 45.31C111.21 45.802 111.546 46.57 111.546 47.614C111.546 48.358 111.408 48.982 111.132 49.486C110.868 49.978 110.4 50.506 109.728 51.07C109.368 51.346 109.11 51.556 108.954 51.7C108.81 51.832 108.678 52.006 108.558 52.222C108.438 52.438 108.378 52.684 108.378 52.96V53.68H106.722ZM106.578 57.442V55.498H108.558V57.442H106.578Z" fill="#121212"/>
<path d="M18.284 72.78C18.804 72.268 19.456 72.012 20.24 72.012C21.024 72.012 21.672 72.268 22.184 72.78C22.696 73.284 22.952 73.92 22.952 74.688C22.952 75.456 22.696 76.088 22.184 76.584C21.68 77.072 21.032 77.316 20.24 77.316C19.448 77.316 18.796 77.072 18.284 76.584C17.772 76.096 17.516 75.468 17.516 74.7C17.516 73.924 17.772 73.284 18.284 72.78ZM20.24 72.936C19.76 72.936 19.364 73.104 19.052 73.44C18.748 73.768 18.596 74.184 18.596 74.688C18.596 75.184 18.748 75.592 19.052 75.912C19.364 76.232 19.76 76.392 20.24 76.392C20.736 76.392 21.132 76.236 21.428 75.924C21.724 75.604 21.872 75.192 21.872 74.688C21.872 74.176 21.724 73.756 21.428 73.428C21.132 73.1 20.736 72.936 20.24 72.936ZM24.992 73.68H23.24L23.216 72.792H24.992V71.352H26.06V78.972H24.992V76.296H23.216L23.24 75.42H24.992V73.68ZM26.276 81.516H19.256V78.288H20.312V80.664H26.276V81.516ZM36.7188 81.768H29.5788V79.116H35.2788V78.216H29.5308V77.352H36.3468V79.92H30.6348V80.892H36.7188V81.768ZM34.2948 75.432L34.3788 76.248C33.8188 76.344 32.7788 76.44 31.2588 76.536C29.7708 76.6 28.6828 76.632 27.9948 76.632L27.8388 75.732C28.4628 75.732 28.9308 75.728 29.2428 75.72L28.9788 73.464L30.0228 73.344L30.1908 75.696C30.7188 75.68 31.1148 75.664 31.3788 75.648C31.5468 75.648 31.6708 75.644 31.7508 75.636L31.9068 73.332L32.9388 73.452L32.6868 75.6C33.3268 75.552 33.8628 75.496 34.2948 75.432ZM36.3468 76.824H35.2788V71.352H36.3468V76.824ZM33.8748 72.84H28.1508V72H33.8748V72.84ZM46.6816 81.84H45.6136V71.352H46.6816V81.84ZM38.4016 75.84C38.4016 74.744 38.6296 73.856 39.0856 73.176C39.5416 72.488 40.2136 72.144 41.1016 72.144C41.9896 72.144 42.6576 72.488 43.1056 73.176C43.5616 73.856 43.7896 74.748 43.7896 75.852C43.7896 76.956 43.5616 77.852 43.1056 78.54C42.6576 79.22 41.9896 79.56 41.1016 79.56C40.2136 79.56 39.5416 79.216 39.0856 78.528C38.6296 77.84 38.4016 76.944 38.4016 75.84ZM42.3136 77.88C42.5936 77.368 42.7336 76.692 42.7336 75.852C42.7336 75.012 42.5936 74.336 42.3136 73.824C42.0336 73.312 41.6296 73.056 41.1016 73.056C40.5816 73.056 40.1816 73.312 39.9016 73.824C39.6216 74.336 39.4816 75.012 39.4816 75.852C39.4816 76.692 39.6216 77.368 39.9016 77.88C40.1816 78.384 40.5816 78.636 41.1016 78.636C41.6296 78.636 42.0336 78.384 42.3136 77.88ZM54.6404 78.648C53.5204 78.936 51.8444 79.1 49.6124 79.14C49.3884 79.148 49.0644 79.152 48.6404 79.152V72.384H49.6964V78.24C50.4244 78.24 51.2604 78.2 52.2044 78.12C53.1564 78.04 53.9164 77.924 54.4844 77.772C54.5404 78.14 54.5924 78.432 54.6404 78.648ZM56.4164 71.352V75.456H58.0844V76.356H56.4164V81.84H55.3484V71.352H56.4164ZM68.1156 78.552L67.4916 79.344C66.9556 79.032 66.4316 78.584 65.9196 78C65.4076 77.408 65.0716 76.832 64.9116 76.272C64.7596 76.888 64.4396 77.504 63.9516 78.12C63.4636 78.728 62.9076 79.216 62.2836 79.584L61.6116 78.816C62.4356 78.328 63.0996 77.672 63.6036 76.848C64.1076 76.016 64.3596 75.104 64.3596 74.112V73.272H61.9836V72.408H67.8036V73.272H65.4516V74.112C65.4516 75.088 65.6996 75.968 66.1956 76.752C66.6916 77.528 67.3316 78.128 68.1156 78.552ZM69.2436 71.352H70.3116V81.84H69.2436V71.352ZM80.3944 74.124C80.3944 74.828 80.0584 75.4 79.3864 75.84C78.7144 76.272 77.8064 76.488 76.6624 76.488C75.5184 76.488 74.6104 76.272 73.9384 75.84C73.2744 75.4 72.9424 74.828 72.9424 74.124C72.9424 73.428 73.2744 72.864 73.9384 72.432C74.6104 72 75.5184 71.784 76.6624 71.784C77.8064 71.784 78.7144 72 79.3864 72.432C80.0584 72.864 80.3944 73.428 80.3944 74.124ZM76.6624 72.684C75.8464 72.684 75.1944 72.824 74.7064 73.104C74.2264 73.376 73.9864 73.716 73.9864 74.124C73.9864 74.532 74.2264 74.88 74.7064 75.168C75.1944 75.448 75.8464 75.588 76.6624 75.588C77.4704 75.588 78.1144 75.448 78.5944 75.168C79.0824 74.88 79.3264 74.532 79.3264 74.124C79.3264 73.716 79.0824 73.376 78.5944 73.104C78.1144 72.824 77.4704 72.684 76.6624 72.684ZM77.1904 81.852H76.1224V78.228H71.9464V77.352H81.4144V78.228H77.1904V81.852ZM91.0892 81.84H90.0692V76.26H88.8332V81.324H87.8372V71.592H88.8332V75.396H90.0692V71.352H91.0892V81.84ZM86.6612 72.636C86.6452 74.18 86.3172 75.528 85.6772 76.68C85.0452 77.832 84.0852 78.84 82.7972 79.704L82.0652 78.924C83.1292 78.308 83.9612 77.528 84.5612 76.584C85.1612 75.632 85.5092 74.608 85.6052 73.512H82.5332V72.636H86.6612ZM101.988 77.016H92.52V76.2H101.988V77.016ZM101.232 81.648H93.6V79.332H99.84V78.552H93.6V77.748H100.896V80.076H94.656V80.844H101.232V81.648ZM101.052 75.456H93.708V73.236H99.78V72.504H93.72V71.712H100.836V73.956H94.776V74.664H101.052V75.456ZM115.523 74.688H113.963V76.776H112.895V71.352H113.963V73.812H115.523V74.688ZM114.335 81.768H107.243V79.092H112.895V78.192H107.219V77.316H113.963V79.896H108.311V80.892H114.335V81.768ZM111.827 75.66L111.215 76.464C110.727 76.264 110.259 75.972 109.811 75.588C109.371 75.204 109.039 74.76 108.815 74.256C108.655 74.776 108.343 75.26 107.879 75.708C107.423 76.156 106.891 76.516 106.283 76.788L105.647 75.996C106.407 75.692 107.031 75.248 107.519 74.664C108.007 74.072 108.251 73.384 108.251 72.6V71.736H109.331V72.552C109.331 73.312 109.583 73.968 110.087 74.52C110.591 75.064 111.171 75.444 111.827 75.66ZM124.45 81.852H123.382V78.084H119.206V77.232H128.674V78.084H124.45V81.852ZM128.314 75.324L127.81 76.188C127.01 76.036 126.23 75.724 125.47 75.252C124.718 74.78 124.206 74.26 123.934 73.692C123.71 74.252 123.218 74.772 122.458 75.252C121.698 75.724 120.902 76.04 120.07 76.2L119.59 75.336C120.574 75.208 121.45 74.852 122.218 74.268C122.994 73.684 123.382 73.04 123.382 72.336V71.676H124.498V72.336C124.498 72.8 124.698 73.26 125.098 73.716C125.498 74.164 125.99 74.532 126.574 74.82C127.158 75.1 127.738 75.268 128.314 75.324ZM141.153 77.352H140.085V71.352H141.153V77.352ZM133.593 72.648C134.121 72.168 134.769 71.928 135.537 71.928C136.305 71.928 136.949 72.168 137.469 72.648C137.997 73.12 138.261 73.728 138.261 74.472C138.261 75.208 138.001 75.804 137.481 76.26C136.961 76.716 136.313 76.944 135.537 76.944C134.769 76.944 134.121 76.716 133.593 76.26C133.073 75.804 132.813 75.208 132.813 74.472C132.813 73.736 133.073 73.128 133.593 72.648ZM135.537 72.84C135.057 72.84 134.661 72.996 134.349 73.308C134.037 73.612 133.881 73.992 133.881 74.448C133.881 74.92 134.037 75.308 134.349 75.612C134.661 75.916 135.057 76.068 135.537 76.068C136.025 76.068 136.421 75.92 136.725 75.624C137.037 75.32 137.193 74.936 137.193 74.472C137.193 73.992 137.041 73.6 136.737 73.296C136.441 72.992 136.041 72.84 135.537 72.84ZM141.477 81.888C141.117 81.712 140.745 81.428 140.361 81.036C139.985 80.644 139.733 80.268 139.605 79.908C139.485 80.3 139.245 80.7 138.885 81.108C138.525 81.524 138.133 81.828 137.709 82.02L137.025 81.312C137.633 81.024 138.125 80.612 138.501 80.076C138.885 79.54 139.077 78.96 139.077 78.336V77.808H140.121V78.3C140.121 78.924 140.321 79.504 140.721 80.04C141.129 80.576 141.601 80.94 142.137 81.132L141.477 81.888ZM137.721 80.244L137.001 80.952C136.769 80.832 136.537 80.656 136.305 80.424C136.073 80.192 135.901 79.952 135.789 79.704C135.669 80.104 135.409 80.52 135.009 80.952C134.609 81.384 134.189 81.7 133.749 81.9L133.125 81.156C133.709 80.892 134.201 80.496 134.601 79.968C135.001 79.44 135.201 78.868 135.201 78.252V77.808H136.245V78.192C136.245 78.68 136.385 79.104 136.665 79.464C136.945 79.824 137.297 80.084 137.721 80.244ZM152.304 77.556H142.836V76.692H152.304V77.556ZM151.308 81.612H144.096V78.504H145.152V80.736H151.308V81.612ZM151.26 75.456H144.132V71.784H145.188V74.592H151.26V75.456ZM159.579 78.552L158.955 79.344C158.419 79.032 157.895 78.584 157.383 78C156.871 77.408 156.535 76.832 156.375 76.272C156.223 76.888 155.903 77.504 155.415 78.12C154.927 78.728 154.371 79.216 153.747 79.584L153.075 78.816C153.899 78.328 154.563 77.672 155.067 76.848C155.571 76.016 155.823 75.104 155.823 74.112V73.272H153.447V72.408H159.267V73.272H156.915V74.112C156.915 75.088 157.163 75.968 157.659 76.752C158.155 77.528 158.795 78.128 159.579 78.552ZM160.707 71.352H161.775V81.84H160.707V71.352ZM172.994 77.952C172.098 78.08 170.99 78.176 169.67 78.24C168.086 78.32 166.994 78.36 166.394 78.36L166.238 77.484C167.054 77.484 168.014 77.464 169.118 77.424V76.764C168.558 76.708 168.106 76.564 167.762 76.332C167.426 76.092 167.258 75.776 167.258 75.384C167.258 74.92 167.482 74.564 167.93 74.316C168.386 74.06 168.966 73.932 169.67 73.932C170.374 73.932 170.954 74.06 171.41 74.316C171.866 74.564 172.094 74.916 172.094 75.372C172.094 75.764 171.918 76.08 171.566 76.32C171.214 76.56 170.754 76.708 170.186 76.764V77.364C171.498 77.3 172.398 77.224 172.886 77.136L172.994 77.952ZM176.174 75.66H174.614V78.348H173.57V71.352H174.614V74.784H176.174V75.66ZM167.678 78.888H174.614V81.888H173.57V79.752H167.678V78.888ZM172.658 73.656H166.622V72.828H172.658V73.656ZM171.062 75.372C171.062 75.164 170.934 75.004 170.678 74.892C170.422 74.78 170.086 74.724 169.67 74.724C169.254 74.724 168.918 74.78 168.662 74.892C168.414 75.004 168.29 75.164 168.29 75.372C168.29 75.572 168.418 75.732 168.674 75.852C168.93 75.964 169.262 76.02 169.67 76.02C170.078 76.02 170.41 75.964 170.666 75.852C170.93 75.732 171.062 75.572 171.062 75.372ZM171.11 72.312H168.182V71.484H171.11V72.312ZM185.357 78.972H184.289V71.352H185.357V78.972ZM185.597 81.516H178.457V78.252H179.525V80.664H185.597V81.516ZM177.785 72.816C178.313 72.312 178.981 72.06 179.789 72.06C180.597 72.06 181.265 72.308 181.793 72.804C182.329 73.3 182.597 73.924 182.597 74.676C182.597 75.428 182.333 76.044 181.805 76.524C181.277 76.996 180.605 77.232 179.789 77.232C178.981 77.232 178.313 76.996 177.785 76.524C177.257 76.044 176.993 75.432 176.993 74.688C176.993 73.936 177.257 73.312 177.785 72.816ZM179.789 72.972C179.301 72.972 178.897 73.132 178.577 73.452C178.265 73.772 178.109 74.176 178.109 74.664C178.109 75.144 178.265 75.544 178.577 75.864C178.897 76.184 179.301 76.344 179.789 76.344C180.301 76.344 180.709 76.188 181.013 75.876C181.317 75.564 181.469 75.164 181.469 74.676C181.469 74.172 181.317 73.764 181.013 73.452C180.709 73.132 180.301 72.972 179.789 72.972ZM195.896 81.84H194.876V76.56H193.796V81.324H192.776V71.58H193.796V75.684H194.876V71.352H195.896V81.84ZM192.044 77.34C192.044 77.972 191.832 78.476 191.408 78.852C190.984 79.22 190.428 79.404 189.74 79.404C189.06 79.404 188.504 79.212 188.072 78.828C187.64 78.436 187.424 77.94 187.424 77.34C187.424 76.716 187.636 76.22 188.06 75.852C188.492 75.476 189.052 75.288 189.74 75.288C190.428 75.288 190.984 75.476 191.408 75.852C191.832 76.22 192.044 76.716 192.044 77.34ZM190.652 78.204C190.9 77.972 191.024 77.684 191.024 77.34C191.024 76.996 190.9 76.712 190.652 76.488C190.412 76.264 190.108 76.152 189.74 76.152C189.364 76.152 189.052 76.268 188.804 76.5C188.564 76.724 188.444 77.004 188.444 77.34C188.444 77.692 188.564 77.984 188.804 78.216C189.044 78.44 189.356 78.552 189.74 78.552C190.108 78.552 190.412 78.436 190.652 78.204ZM192.26 74.808H187.064V73.932H192.26V74.808ZM191.048 73.008H188.228V72.144H191.048V73.008ZM203.867 79.416C203.211 79.512 202.007 79.612 200.255 79.716C199.199 79.772 198.211 79.8 197.291 79.8L197.123 78.912C198.323 78.912 199.263 78.896 199.943 78.864V76.968H197.831V72.192H198.887V73.788H202.115V72.18H203.171V76.968H200.999V78.816C202.295 78.736 203.215 78.656 203.759 78.576L203.867 79.416ZM207.095 76.692H205.475V81.84H204.431V71.352H205.475V75.804H207.095V76.692ZM202.115 76.116V74.652H198.887V76.116H202.115ZM215.174 72.804C215.894 73.3 216.254 73.956 216.254 74.772C216.254 75.588 215.894 76.244 215.174 76.74C214.462 77.236 213.518 77.484 212.342 77.484C211.174 77.484 210.23 77.236 209.51 76.74C208.798 76.244 208.442 75.588 208.442 74.772C208.442 73.956 208.798 73.3 209.51 72.804C210.23 72.3 211.174 72.048 212.342 72.048C213.518 72.048 214.462 72.3 215.174 72.804ZM215.162 74.772C215.162 74.22 214.902 73.776 214.382 73.44C213.87 73.096 213.19 72.924 212.342 72.924C211.494 72.924 210.814 73.096 210.302 73.44C209.79 73.776 209.534 74.22 209.534 74.772C209.534 75.316 209.79 75.76 210.302 76.104C210.822 76.44 211.502 76.608 212.342 76.608C213.19 76.608 213.87 76.44 214.382 76.104C214.902 75.76 215.162 75.316 215.162 74.772ZM217.082 80.508H207.614V79.644H209.882V77.784L210.95 77.748V79.644H213.722V77.748L214.778 77.784V79.644H217.082V80.508ZM218.608 78.588L218.476 72.048H219.64L219.508 78.588H218.608ZM218.488 80.7V79.536H219.652V80.7H218.488Z" fill="#484C52"/>
<g clip-path="url(#clip0_1802_2033)">
<mask id="mask0_1802_2033" style="mask-type:luminance" maskUnits="userSpaceOnUse" x="234" y="28" width="98" height="122">
<path d="M331.999 28.7241H234V149.038H331.999V28.7241Z" fill="white"/>
</mask>
<g mask="url(#mask0_1802_2033)">
<path d="M298.259 36.9172L299.272 38.4421L301.07 38.0779C313.917 35.4721 325.262 46.8058 322.645 59.6531L322.281 61.451L323.806 62.4638C334.73 69.701 334.73 85.7458 323.806 92.9831L322.281 93.9958L322.645 95.7938C325.251 108.641 313.917 119.986 301.07 117.369L299.272 117.005L298.259 118.53C291.022 129.454 274.977 129.454 267.74 118.53L266.727 117.005L264.929 117.369C252.082 119.975 240.737 108.641 243.354 95.7938L243.718 93.9958L242.193 92.9831C231.269 85.7458 231.269 69.701 242.193 62.4638L243.718 61.451L243.354 59.6531C240.748 46.8172 252.093 35.4721 264.94 38.0779L266.738 38.4421L267.751 36.9172C274.988 25.9931 291.033 25.9931 298.27 36.9172H298.259Z" fill="#FF7551"/>
<path d="M304.381 119.736L294.231 117.79C292.376 115.48 289.383 113.728 284.126 113.557C283.989 113.557 283.864 113.557 283.728 113.557C283.602 113.557 283.466 113.557 283.329 113.557C283.159 113.557 282.988 113.557 282.829 113.557C282.658 113.557 282.499 113.557 282.328 113.557C282.191 113.557 282.066 113.557 281.93 113.557C281.804 113.557 281.668 113.557 281.531 113.557C276.263 113.728 273.259 115.491 271.415 117.813L261.39 119.736C261.06 119.793 260.855 120.111 260.912 120.441L261.765 124.868C261.822 125.198 262.141 125.403 262.471 125.346L268.502 124.185C268.252 125.05 268.024 125.881 267.774 126.643C266.989 128.999 265.999 135.041 272.291 137.954C272.758 138.182 273.281 138.387 273.873 138.569C274.442 138.751 275.057 138.91 275.728 139.047V145.283H281.975V139.581C282.089 139.581 282.203 139.581 282.317 139.581C282.487 139.581 282.658 139.581 282.817 139.581C282.988 139.581 283.147 139.581 283.318 139.581C283.454 139.581 283.58 139.581 283.716 139.581C283.739 139.581 283.75 139.581 283.773 139.581V145.283H290.02V139.024C290.646 138.887 291.227 138.739 291.761 138.569C292.353 138.387 292.877 138.182 293.343 137.954C299.647 135.041 298.646 128.999 297.861 126.643C297.61 125.881 297.383 125.039 297.121 124.163L303.266 125.346C303.596 125.403 303.903 125.198 303.971 124.868L304.825 120.441C304.882 120.111 304.677 119.804 304.347 119.736H304.381Z" fill="#FEDE57"/>
<path d="M282.897 115.389C301.487 115.389 316.557 100.319 316.557 81.729C316.557 63.139 301.487 48.069 282.897 48.069C264.307 48.069 249.237 63.139 249.237 81.729C249.237 100.319 264.307 115.389 282.897 115.389Z" fill="#FEDE57"/>
<path d="M284.888 89.3418C284.638 89.2507 284.331 89.2052 284.024 89.1938C283.705 89.1938 283.409 89.2621 283.159 89.3418C282.874 89.4442 282.169 89.8425 282.169 90.3204C282.169 90.878 282.726 91.3218 283.409 91.3218C283.523 91.3218 283.602 91.2876 283.694 91.2649C283.91 91.1852 284.149 91.1852 284.376 91.2649C284.467 91.299 284.547 91.3218 284.661 91.3218C285.344 91.3218 285.901 90.878 285.901 90.3204C285.901 89.8425 285.196 89.4442 284.911 89.3418H284.888Z" fill="#EC7762"/>
<path d="M288.541 80.6821V84.1301C288.541 87.8852 291.568 90.9235 295.289 90.9235H300.341C304.074 90.9235 307.101 87.8739 307.101 84.1187C307.101 78.5656 304.461 73.9911 299.556 72.9555C299.499 72.9441 299.442 72.9328 299.374 72.9214C295.278 72.3639 292.979 73.6724 290.84 75.5727C289.383 76.8699 288.541 78.7249 288.541 80.6821Z" fill="white"/>
<path d="M288.575 83.7089L288.598 85.0972C288.655 88.2379 291.249 90.7413 294.401 90.6844L296.529 90.6389C299.898 90.5706 302.515 87.612 302.082 84.2665C301.65 80.921 299.716 78.2013 296.518 77.5868C296.472 77.5868 296.427 77.5755 296.393 77.5641C293.582 77.2341 291.943 78.0762 290.487 79.3506C289.235 80.4317 288.564 82.0475 288.598 83.6975L288.575 83.7089Z" fill="#241004"/>
<path d="M292.228 83.1855C292.85 83.1855 293.354 82.6811 293.354 82.0589C293.354 81.4367 292.85 80.9324 292.228 80.9324C291.606 80.9324 291.101 81.4367 291.101 82.0589C291.101 82.6811 291.606 83.1855 292.228 83.1855Z" fill="white"/>
<path d="M272.61 84.5396C272.905 84.5396 273.145 84.3002 273.145 84.0048C273.145 83.7094 272.905 83.47 272.61 83.47C272.315 83.47 272.075 83.7094 272.075 84.0048C272.075 84.3002 272.315 84.5396 272.61 84.5396Z" fill="white"/>
<path d="M272.405 84.6421C272.751 84.6421 273.031 84.3619 273.031 84.0162C273.031 83.6707 272.751 83.3904 272.405 83.3904C272.059 83.3904 271.779 83.6707 271.779 84.0162C271.779 84.3619 272.059 84.6421 272.405 84.6421Z" fill="white"/>
<path d="M288.257 80.6252C288.052 78.2356 289.486 75.8573 291.443 74.4804C297.428 69.997 307.67 74.0139 307.51 81.8656C307.51 82.0818 307.203 82.1387 307.135 81.9225C306.486 79.8059 305.439 77.8828 303.835 76.6311C299.135 72.8532 290.18 74.0366 288.814 80.648C288.769 80.9666 288.268 80.9439 288.257 80.6252Z" fill="#241004"/>
<path d="M290.123 67.4821C292.399 65.5135 295.335 64.8762 298.817 67.2887" stroke="#CC7229" stroke-width="1.7069" stroke-miterlimit="10" stroke-linecap="round"/>
<path d="M277.56 67.4821C275.284 65.5135 272.348 64.8762 268.866 67.2887" stroke="#CC7229" stroke-width="1.7069" stroke-miterlimit="10" stroke-linecap="round"/>
<path d="M310.697 120.214L309.866 120.055C310.275 119.588 310.287 118.871 309.877 118.382C309.422 117.847 308.603 117.779 308.068 118.234L306.657 119.44L301.661 118.484C301.422 118.439 301.183 118.598 301.138 118.837L300 124.777C299.954 125.016 300.114 125.255 300.353 125.3L309.399 127.041C311.277 127.406 313.098 126.165 313.462 124.288C313.826 122.41 312.585 120.589 310.708 120.225L310.697 120.214Z" fill="#FF7551"/>
<g opacity="0.5">
<path d="M301.217 119.884L303.743 120.362" stroke="white" stroke-width="0.432414" stroke-miterlimit="10"/>
<path d="M300.967 121.181L303.493 121.67" stroke="white" stroke-width="0.432414" stroke-miterlimit="10"/>
<path d="M300.717 122.478L303.254 122.956" stroke="white" stroke-width="0.432414" stroke-miterlimit="10"/>
<path d="M300.467 123.776L303.004 124.265" stroke="white" stroke-width="0.432414" stroke-miterlimit="10"/>
</g>
<path d="M255.393 120.214L256.224 120.055C255.814 119.588 255.803 118.871 256.212 118.382C256.668 117.847 257.487 117.779 258.022 118.234L259.433 119.44L264.428 118.484C264.667 118.439 264.906 118.598 264.952 118.837L266.09 124.777C266.135 125.016 265.976 125.255 265.737 125.3L256.69 127.041C254.813 127.406 252.992 126.165 252.628 124.288C252.264 122.41 253.504 120.589 255.382 120.225L255.393 120.214Z" fill="#FF7551"/>
<g opacity="0.5">
<path d="M264.872 119.884L262.334 120.362" stroke="white" stroke-width="0.432414" stroke-miterlimit="10"/>
<path d="M265.122 121.181L262.585 121.67" stroke="white" stroke-width="0.432414" stroke-miterlimit="10"/>
<path d="M265.373 122.478L262.835 122.956" stroke="white" stroke-width="0.432414" stroke-miterlimit="10"/>
<path d="M265.623 123.776L263.085 124.265" stroke="white" stroke-width="0.432414" stroke-miterlimit="10"/>
</g>
<path d="M278.493 80.6821V84.1301C278.493 87.8852 275.466 90.9235 271.745 90.9235H266.693C262.96 90.9235 259.934 87.8739 259.934 84.1187C259.934 78.5656 262.574 73.9911 267.478 72.9555C267.535 72.9441 267.592 72.9328 267.66 72.9214C271.757 72.3639 274.055 73.6724 276.195 75.5727C277.651 76.8699 278.493 78.7249 278.493 80.6821Z" fill="white"/>
<path d="M278.459 83.7089L278.436 85.0972C278.379 88.2379 275.785 90.7413 272.633 90.6844L270.505 90.6389C267.137 90.5706 264.519 87.612 264.952 84.2665C265.396 80.8527 267.319 78.2013 270.516 77.5868C270.562 77.5868 270.607 77.5755 270.642 77.5641C273.452 77.2341 275.091 78.0762 276.547 79.3506C277.799 80.4317 278.47 82.0475 278.436 83.6975L278.459 83.7089Z" fill="#241004"/>
<path d="M274.578 83.2311C275.201 83.2311 275.705 82.7268 275.705 82.1046C275.705 81.4825 275.201 80.978 274.578 80.978C273.956 80.978 273.452 81.4825 273.452 82.1046C273.452 82.7268 273.956 83.2311 274.578 83.2311Z" fill="white"/>
<path d="M278.231 80.648C276.866 74.0366 267.899 72.8532 263.211 76.6311C261.606 77.8828 260.559 79.7945 259.911 81.9225C259.854 82.1273 259.524 82.0704 259.535 81.8656C259.376 74.0139 269.617 69.997 275.603 74.4804C277.571 75.8687 278.994 78.2356 278.789 80.6252C278.766 80.9552 278.277 80.9666 278.231 80.648Z" fill="#241004"/>
<path d="M267.091 95.441C273.847 95.441 279.324 93.9534 279.324 92.1183C279.324 90.2833 273.847 88.7955 267.091 88.7955C260.335 88.7955 254.858 90.2833 254.858 92.1183C254.858 93.9534 260.335 95.441 267.091 95.441Z" fill="#FEDE57"/>
<path d="M301.695 95.441C308.451 95.441 313.928 93.9534 313.928 92.1183C313.928 90.2833 308.451 88.7955 301.695 88.7955C294.939 88.7955 289.463 90.2833 289.463 92.1183C289.463 93.9534 294.939 95.441 301.695 95.441Z" fill="#FEDE57"/>
<path d="M289.03 94.0187C288.257 99.6515 279.392 99.6173 278.63 94.0187C278.561 93.518 278.96 93.0628 279.472 93.0628C281.463 93.0628 286.231 93.0059 288.211 93.0515C288.723 93.0628 289.099 93.518 289.03 94.0187Z" fill="#EC7762"/>
<path opacity="0.5" d="M287.904 96.5335C285.878 98.7979 281.793 98.7866 279.779 96.5335C280.917 96.0783 282.317 95.8052 283.841 95.8052C285.366 95.8052 286.766 96.0783 287.904 96.5335Z" fill="white"/>
<path d="M272.246 113.671C279.506 116.015 286.14 116.151 292.877 113.864L295.107 117.141C287.585 120.578 278.152 118.996 269.833 116.766L272.235 113.671H272.246Z" fill="#FF7551"/>
<path d="M292.99 123.389L289.759 122.945C287.574 122.638 285.719 121.215 284.843 119.235C284.41 119.258 283.967 119.269 283.534 119.269C282.999 119.269 282.465 119.258 281.941 119.224C281.054 121.192 279.21 122.603 277.037 122.911L273.805 123.354C273.293 123.423 272.906 122.888 273.145 122.433L274.306 120.157C274.67 119.44 275.148 118.791 275.705 118.245C275.125 118.097 274.556 117.915 273.987 117.733H293.047C292.41 117.949 291.761 118.143 291.113 118.302C291.659 118.848 292.126 119.474 292.49 120.18L293.65 122.455C293.889 122.922 293.502 123.457 292.99 123.377V123.389Z" fill="#FF7551"/>
<path d="M286.675 117.824L287.915 118.086C288.916 118.302 289.77 118.939 290.248 119.827L290.783 120.862C290.896 121.067 290.714 121.318 290.475 121.284L288.973 121.079C287.835 120.919 286.902 120.146 286.572 119.076L286.345 118.348L286.675 117.824Z" fill="#C65E43"/>
<path d="M280.075 118.291L279.46 119.406C278.96 120.305 278.095 120.931 277.105 121.124L275.955 121.34C275.728 121.386 275.546 121.147 275.648 120.931L276.285 119.554C276.763 118.518 277.787 117.847 278.903 117.836H279.665L280.075 118.302V118.291Z" fill="#C65E43"/>
<path d="M283.602 114.433H281.918C280.096 114.433 278.618 115.911 278.618 117.733C278.618 119.556 280.096 121.033 281.918 121.033H283.602C285.425 121.033 286.902 119.556 286.902 117.733C286.902 115.911 285.425 114.433 283.602 114.433Z" fill="#FF7551"/>
<path d="M286.879 117.733C286.879 118.643 286.515 119.463 285.912 120.054C285.321 120.646 284.501 121.022 283.591 121.022H281.918C281.338 121.022 280.78 120.874 280.302 120.589C280.484 120.623 280.666 120.635 280.86 120.635H282.533C283.432 120.635 284.251 120.271 284.854 119.668C285.446 119.076 285.821 118.257 285.821 117.346C285.821 116.129 285.15 115.059 284.16 114.49C285.696 114.763 286.868 116.106 286.868 117.722L286.879 117.733Z" fill="#C65E43"/>
</g>
</g>
<defs>
<clipPath id="clip0_1802_2033">
<rect width="99" height="101.276" fill="white" transform="translate(233 28.7241)"/>
</clipPath>
</defs>
</svg>
