<svg width="358" height="133" viewBox="0 0 358 133" fill="none" xmlns="http://www.w3.org/2000/svg">
<rect width="358" height="130" rx="12" fill="#9DE0FF"/>
<path fill-rule="evenodd" clip-rule="evenodd" d="M0 100.786V120C0 126.624 5.36736 131.995 11.9903 132C11.9936 132 11.9968 132 12 132H346C346.003 132 346.006 132 346.01 132C352.633 131.995 358 126.624 358 120V95.4205C350.617 113.466 276.998 139.804 179 100.786C72.4549 58.3644 19.9389 89.3678 4.49877 98.4831C2.187 99.8479 0.70638 100.722 0 100.786Z" fill="#50C8FF"/>
<path d="M32.354 24.144H29.996V28.32H28.142V18.384H29.996V22.632H32.354V24.144ZM19.538 29.166H30.014V34.44H28.16V30.642H19.538V29.166ZM26.702 22.398H17.414V20.958H26.702V22.398ZM25.838 25.692C25.838 26.472 25.478 27.114 24.758 27.618C24.05 28.11 23.156 28.356 22.076 28.356C20.996 28.356 20.09 28.11 19.358 27.618C18.638 27.114 18.278 26.472 18.278 25.692C18.278 24.888 18.638 24.24 19.358 23.748C20.078 23.244 20.984 22.992 22.076 22.992C23.156 22.992 24.05 23.244 24.758 23.748C25.478 24.24 25.838 24.888 25.838 25.692ZM24.002 25.692C24.002 25.32 23.81 25.014 23.426 24.774C23.054 24.534 22.604 24.414 22.076 24.414C21.536 24.414 21.074 24.534 20.69 24.774C20.306 25.014 20.114 25.32 20.114 25.692C20.114 26.052 20.306 26.352 20.69 26.592C21.086 26.832 21.548 26.952 22.076 26.952C22.604 26.952 23.054 26.832 23.426 26.592C23.81 26.352 24.002 26.052 24.002 25.692ZM19.736 20.04V18.564H24.434V20.04H19.736ZM45.9302 21.624C45.9302 22.692 45.3002 23.502 44.0402 24.054V26.124H47.6042V27.6H33.1142V26.124H36.6242V24.018C35.4122 23.466 34.8062 22.668 34.8062 21.624C34.8062 20.712 35.2982 19.98 36.2822 19.428C37.2662 18.876 38.6222 18.6 40.3502 18.6C42.1022 18.6 43.4702 18.876 44.4542 19.428C45.4382 19.98 45.9302 20.712 45.9302 21.624ZM45.9302 31.47C45.9302 32.394 45.4382 33.114 44.4542 33.63C43.4822 34.146 42.1202 34.404 40.3682 34.404C38.6162 34.404 37.2482 34.146 36.2642 33.63C35.2922 33.114 34.8062 32.394 34.8062 31.47C34.8062 30.558 35.2922 29.844 36.2642 29.328C37.2482 28.812 38.6102 28.554 40.3502 28.554C42.1142 28.554 43.4822 28.812 44.4542 29.328C45.4382 29.844 45.9302 30.558 45.9302 31.47ZM43.0322 22.812C43.6922 22.524 44.0222 22.128 44.0222 21.624C44.0222 21.12 43.6922 20.724 43.0322 20.436C42.3842 20.148 41.4902 20.004 40.3502 20.004C39.2102 20.004 38.3162 20.154 37.6682 20.454C37.0202 20.742 36.6962 21.132 36.6962 21.624C36.6962 22.128 37.0202 22.524 37.6682 22.812C38.3162 23.1 39.2102 23.244 40.3502 23.244C41.4782 23.244 42.3722 23.1 43.0322 22.812ZM43.0502 32.568C43.6982 32.316 44.0222 31.956 44.0222 31.488C44.0222 31.02 43.6922 30.66 43.0322 30.408C42.3722 30.144 41.4782 30.012 40.3502 30.012C39.2222 30.012 38.3282 30.144 37.6682 30.408C37.0202 30.66 36.6962 31.02 36.6962 31.488C36.6962 31.956 37.0202 32.316 37.6682 32.568C38.3162 32.808 39.2102 32.928 40.3502 32.928C41.5022 32.928 42.4022 32.808 43.0502 32.568ZM40.3682 24.666C39.5402 24.666 38.9042 24.624 38.4602 24.54V26.124H42.2042V24.558C41.7602 24.63 41.1482 24.666 40.3682 24.666ZM61.3064 34.224H50.5424V28.95H54.9884V27.492H48.6884V26.016H63.1784V27.492H56.8244V28.95H61.3064V34.224ZM61.6844 24.81H50.1104V23.316H52.5224L52.0904 20.85L53.9084 20.742L54.2504 23.316H57.5444L57.9404 20.724L59.7584 20.922L59.2904 23.316H61.6844V24.81ZM61.7024 20.238H50.0744V18.744H61.7024V20.238ZM59.4704 32.748V30.39H52.3784V32.748H59.4704ZM78.7527 26.628H64.2627V25.152H78.7527V26.628ZM77.4207 34.314H66.1167V30.354H74.9727V29.238H66.0267V27.78H76.8267V31.704H67.9527V32.856H77.4207V34.314ZM71.5347 18.474C73.2867 18.474 74.6547 18.738 75.6387 19.266C76.6227 19.782 77.1147 20.472 77.1147 21.336C77.1147 22.2 76.6227 22.89 75.6387 23.406C74.6547 23.922 73.2867 24.18 71.5347 24.18C69.7947 24.18 68.4327 23.922 67.4487 23.406C66.4767 22.89 65.9907 22.2 65.9907 21.336C65.9907 20.472 66.4767 19.782 67.4487 19.266C68.4327 18.738 69.7947 18.474 71.5347 18.474ZM74.2347 20.292C73.5867 20.028 72.6867 19.896 71.5347 19.896C70.3827 19.896 69.4827 20.028 68.8347 20.292C68.1867 20.544 67.8627 20.892 67.8627 21.336C67.8627 21.768 68.1867 22.11 68.8347 22.362C69.4827 22.614 70.3827 22.74 71.5347 22.74C72.6867 22.74 73.5867 22.614 74.2347 22.362C74.8947 22.11 75.2247 21.768 75.2247 21.336C75.2247 20.892 74.8947 20.544 74.2347 20.292ZM97.0214 18.384V24.648H99.5054V26.178H97.0214V34.422H95.1674V18.384H97.0214ZM85.8434 29.328C85.1114 28.308 84.7454 26.946 84.7454 25.242C84.7454 23.538 85.1114 22.176 85.8434 21.156C86.5754 20.136 87.5774 19.626 88.8494 19.626C90.1214 19.626 91.1174 20.136 91.8374 21.156C92.5574 22.176 92.9174 23.544 92.9174 25.26C92.9174 26.964 92.5574 28.326 91.8374 29.346C91.1174 30.354 90.1214 30.858 88.8494 30.858C87.5774 30.858 86.5754 30.348 85.8434 29.328ZM90.5234 28.266C90.9554 27.522 91.1714 26.514 91.1714 25.242C91.1714 23.97 90.9554 22.968 90.5234 22.236C90.1034 21.504 89.5454 21.138 88.8494 21.138C88.1654 21.138 87.6134 21.504 87.1934 22.236C86.7734 22.968 86.5634 23.97 86.5634 25.242C86.5634 26.514 86.7734 27.522 87.1934 28.266C87.6134 28.998 88.1654 29.364 88.8494 29.364C89.5454 29.364 90.1034 28.998 90.5234 28.266ZM112.902 24.306H108.276V25.98H114.63V27.474H100.14V25.98H106.44V24.306H102.048V18.816H112.776V20.328H103.902V22.812H112.902V24.306ZM112.956 31.506C112.956 32.418 112.464 33.132 111.48 33.648C110.508 34.176 109.146 34.44 107.394 34.44C105.642 34.44 104.274 34.176 103.29 33.648C102.318 33.132 101.832 32.418 101.832 31.506C101.832 30.618 102.318 29.91 103.29 29.382C104.274 28.854 105.636 28.59 107.376 28.59C109.128 28.59 110.496 28.854 111.48 29.382C112.464 29.91 112.956 30.618 112.956 31.506ZM110.076 32.586C110.724 32.334 111.048 31.98 111.048 31.524C111.048 31.068 110.718 30.714 110.058 30.462C109.41 30.198 108.516 30.066 107.376 30.066C106.248 30.066 105.354 30.198 104.694 30.462C104.046 30.714 103.722 31.068 103.722 31.524C103.722 31.98 104.046 32.334 104.694 32.586C105.342 32.826 106.236 32.946 107.376 32.946C108.528 32.946 109.428 32.826 110.076 32.586ZM128.314 34.206H117.532V27.582H119.368V29.454H126.478V27.546H128.314V34.206ZM128.278 19.014C128.278 21.21 128.116 23.106 127.792 24.702H130.168V26.196H115.678V24.702H126.01C126.286 23.454 126.424 22.05 126.424 20.49H117.568V19.014H128.278ZM126.478 32.73V30.894H119.368V32.73H126.478ZM144.5 27.762H142.646V18.402H144.5V27.762ZM133.7 28.608H144.518V34.44H142.664V30.066H133.7V28.608ZM140.99 25.404L139.91 26.826C139.202 26.538 138.494 26.082 137.786 25.458C137.078 24.822 136.562 24.144 136.238 23.424C135.998 24.216 135.524 24.966 134.816 25.674C134.108 26.37 133.322 26.898 132.458 27.258L131.324 25.8C132.512 25.332 133.466 24.636 134.186 23.712C134.906 22.776 135.266 21.702 135.266 20.49V19.05H137.156V20.418C137.156 21.594 137.54 22.638 138.308 23.55C139.076 24.45 139.97 25.068 140.99 25.404ZM154.98 20.058C154.968 25.29 152.598 29.148 147.87 31.632L146.682 30.3C149.178 29.16 150.966 27.498 152.046 25.314L147.348 25.818L147.06 24.216L152.658 23.802C152.874 23.022 153.006 22.272 153.054 21.552H147.87V20.058H154.98ZM159.318 18.384V24.648H161.802V26.178H159.318V34.422H157.464V18.384H159.318ZM176.926 30.822V32.28H162.436V30.822H176.926ZM175.234 27.186H164.29V19.824H175.072V21.282H166.144V25.71H175.234V27.186ZM191.097 28.23H186.147V30.912H192.501V32.388H178.011V30.912H184.311V28.23H179.865V23.046H188.793V20.976H179.811V19.5H190.629V24.54H181.719V26.736H191.097V28.23ZM30.104 44.302C30.104 47.122 29.924 49.402 29.564 51.142H32.03V52.636H25.676V59.422H23.84V52.636H17.54V51.142H27.8C28.076 49.846 28.226 48.07 28.25 45.814H19.376V44.302H30.104ZM40.0442 45.328V55.174H33.6362V45.328H40.0442ZM46.6322 59.422H44.8502V51.304H43.3382V58.666H41.5922V43.708H43.3382V49.756H44.8502V43.384H46.6322V59.422ZM38.3162 53.734V46.786H35.3822V53.734H38.3162ZM57.8684 47.038H48.5624V45.616H57.8684V47.038ZM56.9864 50.008C56.9864 50.776 56.6324 51.382 55.9244 51.826C55.2284 52.258 54.3284 52.474 53.2244 52.474C52.1324 52.474 51.2324 52.258 50.5244 51.826C49.8164 51.382 49.4624 50.776 49.4624 50.008C49.4624 49.276 49.8104 48.688 50.5064 48.244C51.2144 47.8 52.1204 47.578 53.2244 47.578C54.3164 47.578 55.2164 47.8 55.9244 48.244C56.6324 48.688 56.9864 49.276 56.9864 50.008ZM55.2044 50.008C55.2044 49.672 55.0064 49.408 54.6104 49.216C54.2264 49.012 53.7644 48.91 53.2244 48.91C52.6724 48.91 52.1984 49.012 51.8024 49.216C51.4184 49.42 51.2264 49.684 51.2264 50.008C51.2264 50.368 51.4184 50.65 51.8024 50.854C52.1984 51.046 52.6724 51.142 53.2244 51.142C53.7764 51.142 54.2444 51.046 54.6284 50.854C55.0124 50.65 55.2044 50.368 55.2044 50.008ZM50.8844 44.788V43.366H55.5824V44.788H50.8844ZM63.5024 48.676H61.1444V52.438H59.2904V43.384H61.1444V47.128H63.5024V48.676ZM61.6844 59.368H50.8304V55.678H59.2904V54.688H50.7584V53.266H61.1444V56.992H52.6664V57.964H61.6844V59.368ZM77.1272 59.44H75.2912V53.608H68.9912V52.15H83.4812V53.608H77.1272V59.44ZM82.8692 49.072L82.0232 50.566C80.8112 50.362 79.6412 49.906 78.5132 49.198C77.3972 48.49 76.6412 47.698 76.2452 46.822C75.9092 47.686 75.1832 48.472 74.0672 49.18C72.9512 49.888 71.7632 50.356 70.5032 50.584L69.6932 49.072C71.1692 48.904 72.4712 48.388 73.5992 47.524C74.7272 46.66 75.2912 45.67 75.2912 44.554V43.744H77.2352V44.554C77.2352 45.286 77.5232 45.994 78.0992 46.678C78.6872 47.35 79.4072 47.896 80.2592 48.316C81.1232 48.736 81.9932 48.988 82.8692 49.072ZM100.634 43.384H102.488V52.348H100.634V43.384ZM96.7279 45.346C97.5319 46.066 97.9339 46.978 97.9339 48.082C97.9339 49.186 97.5379 50.08 96.7459 50.764C95.9659 51.436 94.9879 51.772 93.8119 51.772C92.6479 51.772 91.6699 51.436 90.8779 50.764C90.0859 50.08 89.6899 49.186 89.6899 48.082C89.6899 46.99 90.0859 46.084 90.8779 45.364C91.6819 44.632 92.6599 44.266 93.8119 44.266C94.9639 44.266 95.9359 44.626 96.7279 45.346ZM96.1339 48.064C96.1339 47.416 95.9179 46.876 95.4859 46.444C95.0659 46 94.5079 45.778 93.8119 45.778C93.1279 45.778 92.5699 46 92.1379 46.444C91.7059 46.888 91.4899 47.428 91.4899 48.064C91.4899 48.736 91.7059 49.288 92.1379 49.72C92.5699 50.152 93.1279 50.368 93.8119 50.368C94.4959 50.368 95.0539 50.152 95.4859 49.72C95.9179 49.276 96.1339 48.724 96.1339 48.064ZM104.036 58.036L103.028 59.368C102.464 59.116 101.888 58.708 101.3 58.144C100.724 57.592 100.34 57.034 100.148 56.47C99.9919 57.046 99.6199 57.634 99.0319 58.234C98.4439 58.846 97.8259 59.314 97.1779 59.638L96.1339 58.396C97.0819 57.964 97.8319 57.352 98.3839 56.56C98.9479 55.768 99.2299 54.868 99.2299 53.86V53.122H101.012V53.842C101.012 54.826 101.288 55.69 101.84 56.434C102.392 57.178 103.124 57.712 104.036 58.036ZM95.9539 58.054C95.6299 57.886 95.3059 57.652 94.9819 57.352C94.6579 57.04 94.4179 56.722 94.2619 56.398C94.0699 57.034 93.6859 57.634 93.1099 58.198C92.5459 58.762 91.8919 59.206 91.1479 59.53L90.1399 58.288C91.0399 57.904 91.7899 57.334 92.3899 56.578C92.9899 55.81 93.2899 54.94 93.2899 53.968V53.212H95.0899V53.878C95.0899 54.622 95.2999 55.246 95.7199 55.75C96.1399 56.254 96.6139 56.59 97.1419 56.758L95.9539 58.054ZM119.358 51.628H104.868V50.152H119.358V51.628ZM118.026 59.314H106.722V55.354H115.578V54.238H106.632V52.78H117.432V56.704H108.558V57.856H118.026V59.314ZM112.14 43.474C113.892 43.474 115.26 43.738 116.244 44.266C117.228 44.782 117.72 45.472 117.72 46.336C117.72 47.2 117.228 47.89 116.244 48.406C115.26 48.922 113.892 49.18 112.14 49.18C110.4 49.18 109.038 48.922 108.054 48.406C107.082 47.89 106.596 47.2 106.596 46.336C106.596 45.472 107.082 44.782 108.054 44.266C109.038 43.738 110.4 43.474 112.14 43.474ZM114.84 45.292C114.192 45.028 113.292 44.896 112.14 44.896C110.988 44.896 110.088 45.028 109.44 45.292C108.792 45.544 108.468 45.892 108.468 46.336C108.468 46.768 108.792 47.11 109.44 47.362C110.088 47.614 110.988 47.74 112.14 47.74C113.292 47.74 114.192 47.614 114.84 47.362C115.5 47.11 115.83 46.768 115.83 46.336C115.83 45.892 115.5 45.544 114.84 45.292ZM133.006 43.384V49.846H135.382V51.376H133.006V59.422H131.242V43.384H133.006ZM125.248 45.094C125.248 47.446 124.93 49.48 124.294 51.196C123.67 52.912 122.698 54.466 121.378 55.858L119.956 54.886C121.06 53.866 121.924 52.6 122.548 51.088C123.172 49.576 123.49 48.076 123.502 46.588H120.946V45.094H125.248ZM129.658 45.094C129.658 47.746 129.388 49.954 128.848 51.718C128.32 53.47 127.36 55.168 125.968 56.812L124.492 55.858C125.656 54.658 126.52 53.254 127.084 51.646C127.648 50.026 127.93 48.34 127.93 46.588H125.932V45.094H129.658ZM137.871 53.68V52.816C137.871 52.252 137.997 51.802 138.249 51.466C138.513 51.13 138.999 50.68 139.707 50.116C140.415 49.528 140.769 48.724 140.769 47.704C140.769 46.588 140.061 46.03 138.645 46.03C137.949 46.03 137.151 46.18 136.251 46.48V45.094C137.055 44.734 138.009 44.554 139.113 44.554C140.169 44.554 141.027 44.806 141.687 45.31C142.359 45.802 142.695 46.57 142.695 47.614C142.695 48.358 142.557 48.982 142.281 49.486C142.017 49.978 141.549 50.506 140.877 51.07C140.517 51.346 140.259 51.556 140.103 51.7C139.959 51.832 139.827 52.006 139.707 52.222C139.587 52.438 139.527 52.684 139.527 52.96V53.68H137.871ZM137.727 57.442V55.498H139.707V57.442H137.727Z" fill="#121212"/>
<path d="M27.116 73.276H25.556V75.868H24.488V69.352H25.556V72.4H27.116V73.276ZM21.944 70.396H18.896V69.532H21.944V70.396ZM23.432 71.92H17.396V71.068H23.432V71.92ZM22.832 74.116C22.832 74.628 22.6 75.048 22.136 75.376C21.68 75.696 21.104 75.856 20.408 75.856C19.704 75.856 19.124 75.696 18.668 75.376C18.212 75.056 17.984 74.636 17.984 74.116C17.984 73.588 18.208 73.164 18.656 72.844C19.112 72.524 19.696 72.364 20.408 72.364C21.112 72.364 21.692 72.524 22.148 72.844C22.604 73.164 22.832 73.588 22.832 74.116ZM21.368 74.788C21.64 74.612 21.776 74.388 21.776 74.116C21.776 73.844 21.64 73.62 21.368 73.444C21.104 73.268 20.784 73.18 20.408 73.18C20.024 73.18 19.696 73.268 19.424 73.444C19.16 73.62 19.028 73.844 19.028 74.116C19.028 74.388 19.164 74.612 19.436 74.788C19.708 74.956 20.032 75.04 20.408 75.04C20.784 75.04 21.104 74.956 21.368 74.788ZM18.74 76.42H25.556V79.852H24.5V77.284H18.74V76.42ZM36.0828 71.584C36.0828 72.304 35.6628 72.836 34.8228 73.18V74.608H37.2108V75.472H27.7428V74.608H30.0828V73.156C29.2668 72.812 28.8588 72.288 28.8588 71.584C28.8588 70.976 29.1748 70.5 29.8068 70.156C30.4468 69.804 31.3348 69.628 32.4708 69.628C33.6068 69.628 34.4908 69.804 35.1228 70.156C35.7628 70.5 36.0828 70.976 36.0828 71.584ZM35.2068 76.54C35.8708 76.868 36.2028 77.332 36.2028 77.932C36.2028 78.532 35.8708 78.996 35.2068 79.324C34.5508 79.66 33.6388 79.828 32.4708 79.828C31.3108 79.828 30.4028 79.66 29.7468 79.324C29.0908 78.996 28.7628 78.532 28.7628 77.932C28.7628 77.332 29.0908 76.868 29.7468 76.54C30.4028 76.212 31.3108 76.048 32.4708 76.048C33.6388 76.048 34.5508 76.212 35.2068 76.54ZM35.0028 71.584C35.0028 71.224 34.7788 70.948 34.3308 70.756C33.8828 70.564 33.2628 70.468 32.4708 70.468C31.6868 70.468 31.0708 70.568 30.6228 70.768C30.1748 70.96 29.9508 71.232 29.9508 71.584C29.9508 71.936 30.1748 72.212 30.6228 72.412C31.0708 72.604 31.6868 72.7 32.4708 72.7C33.2548 72.7 33.8708 72.604 34.3188 72.412C34.7748 72.212 35.0028 71.936 35.0028 71.584ZM32.4708 76.9C31.6788 76.9 31.0508 76.992 30.5868 77.176C30.1228 77.352 29.8908 77.608 29.8908 77.944C29.8908 78.272 30.1228 78.524 30.5868 78.7C31.0508 78.876 31.6788 78.964 32.4708 78.964C33.2788 78.964 33.9148 78.876 34.3788 78.7C34.8508 78.524 35.0868 78.272 35.0868 77.944C35.0868 77.608 34.8508 77.352 34.3788 77.176C33.9068 76.992 33.2708 76.9 32.4708 76.9ZM32.4708 73.552C31.9748 73.552 31.5308 73.516 31.1388 73.444V74.608H33.7668V73.456C33.3588 73.52 32.9268 73.552 32.4708 73.552ZM46.3936 79.696H39.1336V76.372H42.2056V75.316H38.0296V74.452H47.4976V75.316H43.2736V76.372H46.3936V79.696ZM46.5136 73.636H38.9656V72.772H40.5496L40.2616 71.212L41.3176 71.056L41.5576 72.772H43.9456L44.1856 71.044L45.2536 71.2L44.9296 72.772H46.5136V73.636ZM45.3376 78.856V77.212H40.1896V78.856H45.3376ZM46.5256 70.684H38.9536V69.832H46.5256V70.684ZM57.7844 78.508H48.3164V77.644H52.4924V75.184H49.4444V70.204H56.6684V71.068H50.5004V74.32H56.7284V75.184H53.5604V77.644H57.7844V78.508ZM69.9276 70.12C69.9276 71.928 69.7996 73.46 69.5436 74.716H71.1276V75.568H66.9156V79.84H65.8476V75.568H61.6596V74.716H68.4996C68.7316 73.78 68.8476 72.54 68.8476 70.996H62.7516V70.12H69.9276ZM76.4464 77.068H72.3184V70.48H76.4464V77.068ZM80.8024 79.84H79.7824V74.368H78.6304V79.324H77.6104V69.58H78.6304V73.492H79.7824V69.352H80.8024V79.84ZM75.4264 76.228V71.332H73.3264V76.228H75.4264ZM90.3332 69.352V73.648H92.0132V74.536H90.3332V79.84H89.2772V69.352H90.3332ZM87.5732 70.468C87.5412 72.1 87.1212 73.532 86.3132 74.764C85.5052 75.996 84.3652 77.012 82.8932 77.812L82.2452 77.008C83.4612 76.424 84.4372 75.624 85.1732 74.608C85.9172 73.592 86.3372 72.512 86.4332 71.368H82.7012V70.468H87.5732ZM101.988 75.04H92.52V74.188H101.988V75.04ZM100.908 77.812C100.908 78.42 100.592 78.892 99.96 79.228C99.328 79.572 98.428 79.744 97.26 79.744C96.092 79.744 95.192 79.572 94.56 79.228C93.936 78.892 93.624 78.42 93.624 77.812C93.624 77.212 93.94 76.744 94.572 76.408C95.204 76.064 96.1 75.892 97.26 75.892C98.428 75.892 99.328 76.064 99.96 76.408C100.592 76.744 100.908 77.212 100.908 77.812ZM97.26 76.756C96.468 76.756 95.844 76.848 95.388 77.032C94.94 77.216 94.716 77.48 94.716 77.824C94.716 78.16 94.94 78.424 95.388 78.616C95.844 78.8 96.468 78.892 97.26 78.892C98.06 78.892 98.688 78.8 99.144 78.616C99.6 78.424 99.828 78.16 99.828 77.824C99.828 77.48 99.6 77.216 99.144 77.032C98.688 76.848 98.06 76.756 97.26 76.756ZM100.836 73.156H93.816V69.628H94.872V72.292H100.836V73.156ZM112.479 73.768H110.907V77.08H109.851V69.352H110.907V72.868H112.479V73.768ZM111.267 79.528H104.271V76.78H105.327V78.676H111.267V79.528ZM107.295 70.54H104.247V69.676H107.295V70.54ZM108.903 72.112H102.747V71.26H108.903V72.112ZM108.315 74.488C108.315 75.056 108.083 75.512 107.619 75.856C107.155 76.192 106.559 76.36 105.831 76.36C105.111 76.36 104.519 76.192 104.055 75.856C103.591 75.512 103.359 75.056 103.359 74.488C103.359 73.904 103.587 73.444 104.043 73.108C104.507 72.772 105.103 72.604 105.831 72.604C106.559 72.604 107.155 72.772 107.619 73.108C108.083 73.444 108.315 73.904 108.315 74.488ZM107.259 74.488C107.259 74.168 107.119 73.916 106.839 73.732C106.567 73.548 106.231 73.456 105.831 73.456C105.431 73.456 105.095 73.548 104.823 73.732C104.551 73.916 104.415 74.168 104.415 74.488C104.415 74.792 104.551 75.04 104.823 75.232C105.103 75.416 105.439 75.508 105.831 75.508C106.231 75.508 106.567 75.416 106.839 75.232C107.119 75.048 107.259 74.8 107.259 74.488ZM119.55 76.552L118.926 77.344C118.39 77.032 117.866 76.584 117.354 76C116.842 75.408 116.506 74.832 116.346 74.272C116.194 74.888 115.874 75.504 115.386 76.12C114.898 76.728 114.342 77.216 113.718 77.584L113.046 76.816C113.87 76.328 114.534 75.672 115.038 74.848C115.542 74.016 115.794 73.104 115.794 72.112V71.272H113.418V70.408H119.238V71.272H116.886V72.112C116.886 73.088 117.134 73.968 117.63 74.752C118.126 75.528 118.766 76.128 119.55 76.552ZM120.678 69.352H121.746V79.84H120.678V69.352ZM136.097 72.688H134.537V74.776H133.469V69.352H134.537V71.812H136.097V72.688ZM134.909 79.768H127.817V77.092H133.469V76.192H127.793V75.316H134.537V77.896H128.885V78.892H134.909V79.768ZM132.401 73.66L131.789 74.464C131.301 74.264 130.833 73.972 130.385 73.588C129.945 73.204 129.613 72.76 129.389 72.256C129.229 72.776 128.917 73.26 128.453 73.708C127.997 74.156 127.465 74.516 126.857 74.788L126.221 73.996C126.981 73.692 127.605 73.248 128.093 72.664C128.581 72.072 128.825 71.384 128.825 70.6V69.736H129.905V70.552C129.905 71.312 130.157 71.968 130.661 72.52C131.165 73.064 131.745 73.444 132.401 73.66ZM142.808 76.096L142.904 76.936C142.048 77.072 141.112 77.164 140.096 77.212C138.92 77.276 137.8 77.308 136.736 77.308L136.58 76.396H138.044L137.684 72.088L138.74 71.944L139.004 76.372C139.468 76.356 139.812 76.34 140.036 76.324C140.18 76.324 140.288 76.32 140.36 76.312L140.636 71.932L141.668 72.052L141.296 76.264C141.832 76.232 142.336 76.176 142.808 76.096ZM145.316 79.84H144.26V75.328H142.544V74.476H144.26V72.844H142.544V71.968H144.26V69.352H145.316V79.84ZM142.592 71.2H136.892V70.348H142.592V71.2ZM155.266 73.228H152.254V74.056H156.478V74.932H147.01V74.056H151.186V73.228H148.234V69.652H149.29V70.648H154.198V69.64H155.266V73.228ZM155.674 79.684H148.198V77.248H154.222V76.492H148.15V75.64H155.29V78.04H149.266V78.808H155.674V79.684ZM154.198 72.376V71.488H149.29V72.376H154.198ZM165.529 69.352V73.66H167.089V74.548H165.529V79.84H164.473V69.352H165.529ZM160.321 70.48C160.321 73.32 159.457 75.652 157.729 77.476L156.913 76.852C157.641 76.188 158.213 75.348 158.629 74.332C159.053 73.308 159.273 72.32 159.289 71.368H157.501V70.48H160.321ZM163.189 70.48C163.181 72.104 162.997 73.516 162.637 74.716C162.277 75.908 161.645 77.044 160.741 78.124L159.877 77.524C160.645 76.748 161.217 75.792 161.593 74.656C161.977 73.52 162.169 72.424 162.169 71.368H160.729V70.48H163.189ZM175.144 70.804C175.864 71.3 176.224 71.956 176.224 72.772C176.224 73.588 175.864 74.244 175.144 74.74C174.432 75.236 173.488 75.484 172.312 75.484C171.144 75.484 170.2 75.236 169.48 74.74C168.768 74.244 168.412 73.588 168.412 72.772C168.412 71.956 168.768 71.3 169.48 70.804C170.2 70.3 171.144 70.048 172.312 70.048C173.488 70.048 174.432 70.3 175.144 70.804ZM175.132 72.772C175.132 72.22 174.872 71.776 174.352 71.44C173.84 71.096 173.16 70.924 172.312 70.924C171.464 70.924 170.784 71.096 170.272 71.44C169.76 71.776 169.504 72.22 169.504 72.772C169.504 73.316 169.76 73.76 170.272 74.104C170.792 74.44 171.472 74.608 172.312 74.608C173.16 74.608 173.84 74.44 174.352 74.104C174.872 73.76 175.132 73.316 175.132 72.772ZM177.052 78.508H167.584V77.644H169.852V75.784L170.92 75.748V77.644H173.692V75.748L174.748 75.784V77.644H177.052V78.508ZM179.191 76.816V75.808C179.191 75.544 179.243 75.308 179.347 75.1C179.459 74.884 179.575 74.716 179.695 74.596C179.823 74.476 180.055 74.28 180.391 74.008C180.639 73.808 180.835 73.548 180.979 73.228C181.123 72.908 181.195 72.576 181.195 72.232C181.195 71.832 181.059 71.536 180.787 71.344C180.515 71.144 180.147 71.044 179.683 71.044C179.203 71.044 178.671 71.144 178.087 71.344L177.979 70.528C178.523 70.288 179.175 70.168 179.935 70.168C180.607 70.168 181.167 70.34 181.615 70.684C182.071 71.028 182.299 71.536 182.299 72.208C182.299 72.696 182.195 73.128 181.987 73.504C181.787 73.88 181.463 74.252 181.015 74.62C180.623 74.948 180.383 75.18 180.295 75.316C180.191 75.484 180.139 75.672 180.139 75.88V76.816H179.191ZM179.095 78.784V77.608H180.259V78.784H179.095Z" fill="#484C52"/>
<path d="M298.553 132.153H288.808L286.255 130.245C286.18 130.189 286.104 130.128 286.038 130.062C285.511 129.591 285.191 128.964 285.087 128.3C285.049 128.05 285.045 127.796 285.073 127.542C285.125 127.019 285.313 126.501 285.652 126.053C285.925 125.686 286.269 125.399 286.651 125.201C287.013 125.008 287.414 124.89 287.824 124.862C287.899 124.857 287.974 124.852 288.05 124.852C288.671 124.852 289.303 125.045 289.84 125.45L293.537 128.215L298.092 131.621C298.289 131.767 298.44 131.95 298.553 132.153Z" fill="#FECF2B" stroke="#D1904A" stroke-width="0.471014" stroke-miterlimit="10"/>
<path d="M301.187 132.153H290.443L293.537 128.216L293.627 128.098C293.768 127.914 294.041 127.881 294.225 128.023L298.026 131.009L299.745 130.608C300.4 130.458 301.06 130.867 301.21 131.522C301.262 131.739 301.248 131.955 301.187 132.153Z" fill="#FC7B65" stroke="#A34646" stroke-width="0.518115" stroke-miterlimit="10"/>
<g opacity="0.5">
<path d="M293.24 129.016L295.171 130.528" stroke="white" stroke-width="0.414492" stroke-miterlimit="10"/>
<path d="M292.463 130.01L294.394 131.522" stroke="white" stroke-width="0.414492" stroke-miterlimit="10"/>
<path d="M291.696 130.99L293.622 132.507" stroke="white" stroke-width="0.414492" stroke-miterlimit="10"/>
</g>
<path d="M323.31 94.1612C320.945 95.6307 318.383 97.0438 315.929 98.4144C312.429 100.298 308.708 102.347 308.93 106.591C308.958 108.296 309.575 110.369 310.197 112.54C311.191 116.068 312.505 120.623 312.853 123.176C313.475 127.603 311.878 128.286 306.32 127.033C303.485 126.383 300.598 125.54 297.781 124.749C294.752 123.934 292.039 122.888 289.298 123.981L289.251 124C288.723 124.231 288.252 124.523 287.824 124.862C287.508 125.107 287.216 125.38 286.952 125.672C286.321 126.346 285.789 127.127 285.29 127.961C285.219 128.074 285.153 128.182 285.087 128.3C284.724 128.927 284.371 129.577 283.999 130.231C283.914 130.382 283.825 130.533 283.74 130.684C283.467 131.169 283.194 131.659 282.92 132.153H267.236C266.925 131.597 266.623 131.051 266.331 130.533C266.275 130.429 266.218 130.326 266.162 130.227C265.771 129.52 265.385 128.832 264.989 128.187C264.65 127.617 264.301 127.076 263.948 126.595C263.778 126.369 263.609 126.157 263.435 125.955C263.322 125.818 263.204 125.686 263.081 125.564C261.664 124.019 259.973 123.529 258.173 123.562H258.169C256.228 123.59 254.17 124.221 252.201 124.801C249.516 125.559 246.756 126.355 244.057 126.981C237.317 128.522 236.215 127.358 237.783 120.613C238.113 119.191 238.485 117.787 238.89 116.327C239.465 114.207 240.101 112.097 240.661 109.987C241.287 107.797 241.532 105.084 240.473 103.337C239.163 100.967 236.54 99.7709 234.062 98.3438C232.041 97.218 229.941 96.0452 227.972 94.8677C222.032 91.3351 219.809 89.2767 226.827 85.1836C229.197 83.7141 231.754 82.3057 234.208 80.9351C236.818 79.4561 238.885 78.4623 240.275 76.3568C242.088 73.4601 240.859 70.1442 239.94 66.8047C239.531 65.3634 239.111 63.8797 238.72 62.4337C238.372 61.1478 238.052 59.9185 237.764 58.6608C236.224 51.9206 237.388 50.8232 244.132 52.3869C248.39 53.2819 253.152 55.133 257.344 55.7688C262.196 56.4235 264.334 52.5141 266.402 48.6659C267.132 47.3565 267.881 46.0094 268.63 44.7094C269.289 43.5554 269.935 42.458 270.618 41.3652C274.296 35.5105 275.898 35.5576 279.557 41.4312C281.917 45.058 283.961 49.6551 286.434 53.0699C289.42 57.0688 293.678 55.8301 297.936 54.5489C300.621 53.7906 303.381 52.9946 306.08 52.3681C314.125 50.2862 313.663 53.5833 311.987 60.2529C311.426 62.4431 310.767 64.7652 310.14 66.9601C309.405 69.6731 308.407 72.4474 309.227 74.9815C310.192 77.996 313.254 79.3902 316.075 81.0057C317.384 81.7358 318.732 82.4894 320.032 83.2336C321.19 83.8931 322.283 84.543 323.376 85.226C329.235 88.8999 329.188 90.5014 323.31 94.1612Z" fill="#FC7B65" stroke="#A34646" stroke-width="0.428623" stroke-miterlimit="10"/>
<path d="M289.619 132.153H261.184C261.184 132.153 261.188 132.13 261.188 132.12C261.485 130.491 261.918 129.045 262.484 127.768C262.766 127.113 263.082 126.515 263.435 125.955C264.043 124.98 264.754 124.137 265.559 123.421C265.696 123.298 265.832 123.18 265.974 123.067C266.03 123.02 266.082 122.978 266.143 122.931C266.143 122.931 266.143 122.931 266.148 122.931C267.443 121.928 268.969 121.216 270.703 120.788C270.957 120.722 271.216 120.665 271.48 120.613C272.733 120.368 274.094 120.26 275.55 120.284C279.143 119.86 282.214 120.618 284.645 122.822C284.805 122.964 284.96 123.114 285.111 123.275C285.662 123.835 286.176 124.476 286.651 125.201C286.755 125.352 286.854 125.512 286.953 125.672C287.716 126.93 288.375 128.418 288.926 130.156C289.195 130.834 289.426 131.503 289.619 132.153Z" fill="#FECF2B" stroke="#D1904A" stroke-width="0.471014" stroke-miterlimit="10"/>
<path d="M275.206 124.212C293.183 124.212 307.757 109.638 307.757 91.66C307.757 73.6822 293.183 59.1083 275.206 59.1083C257.228 59.1083 242.654 73.6822 242.654 91.66C242.654 109.638 257.228 124.212 275.206 124.212Z" fill="#FECF2B"/>
<path d="M276.77 98.3766C276.459 98.2683 276.091 98.2024 275.7 98.1882C275.309 98.2024 274.947 98.2683 274.631 98.3766C274.283 98.5038 273.416 98.989 273.416 99.5777C273.416 100.256 274.099 100.807 274.937 100.807C275.074 100.807 275.178 100.769 275.286 100.732C275.554 100.633 275.851 100.633 276.12 100.732C276.228 100.769 276.336 100.807 276.468 100.807C277.307 100.807 277.99 100.256 277.99 99.5777C277.99 98.9843 277.123 98.4991 276.774 98.3766H276.77Z" fill="#FC7B65"/>
<path d="M271.131 91.0196V94.2932C271.131 97.8587 268.258 100.751 264.716 100.751H259.916C256.37 100.751 253.496 97.854 253.492 94.2837C253.487 89.0037 255.998 84.6656 260.665 83.6765C260.722 83.6671 260.778 83.653 260.835 83.6482C264.721 83.116 266.911 84.3595 268.946 86.1682C270.33 87.3975 271.131 89.1638 271.131 91.0243V91.0196Z" fill="white"/>
<path d="M263.708 90.247L263.689 91.3444C263.642 93.8267 261.593 95.8002 259.116 95.7531L257.439 95.7201C254.782 95.6683 252.719 93.3321 253.059 90.6944C253.407 88.0002 254.928 85.9042 257.453 85.4238C257.486 85.4191 257.524 85.4144 257.557 85.4096C259.775 85.1506 261.066 85.8147 262.22 86.818C263.209 87.6752 263.736 88.9422 263.713 90.2517L263.708 90.247Z" fill="#250F00"/>
<path d="M256.652 89.4274C257.141 89.4274 257.538 89.0309 257.538 88.5419C257.538 88.0528 257.141 87.6564 256.652 87.6564C256.163 87.6564 255.767 88.0528 255.767 88.5419C255.767 89.0309 256.163 89.4274 256.652 89.4274Z" fill="white"/>
<path d="M270.877 90.9817C269.85 85.8241 263.581 83.9872 259.134 85.7911C256.191 86.752 254.335 89.1589 253.459 92.1922C253.407 92.39 253.091 92.3382 253.105 92.131C253.129 91.0476 253.341 89.9596 253.746 88.9092C256.337 82.2161 267.165 81.3118 270.665 87.6705C271.211 88.6832 271.503 89.8371 271.409 90.9581C271.395 91.1042 271.263 91.2172 271.117 91.2031C270.995 91.1937 270.896 91.0995 270.877 90.9817Z" fill="#250F00"/>
<path d="M279.958 91.0196V94.2932C279.958 97.8587 282.831 100.751 286.373 100.751H291.173C294.72 100.751 297.593 97.854 297.597 94.2837C297.602 89.0037 295.092 84.6656 290.424 83.6765C290.367 83.6671 290.311 83.653 290.254 83.6482C286.369 83.116 284.178 84.3595 282.144 86.1682C280.759 87.3975 279.958 89.1638 279.958 91.0243V91.0196Z" fill="white"/>
<path d="M279.619 90.5769L279.638 91.6744C279.685 94.1566 281.734 96.1302 284.211 96.0831L285.888 96.0501C288.544 95.9983 290.607 93.6621 290.268 91.0244C289.92 88.3302 288.398 86.2342 285.874 85.7537C285.841 85.749 285.803 85.7443 285.77 85.7396C283.552 85.4805 282.261 86.1447 281.107 87.1479C280.118 88.0052 279.59 89.2722 279.614 90.5816L279.619 90.5769Z" fill="#250F00"/>
<path d="M282.205 90.0114C282.694 90.0114 283.09 89.6149 283.09 89.1259C283.09 88.6368 282.694 88.2404 282.205 88.2404C281.716 88.2404 281.319 88.6368 281.319 89.1259C281.319 89.6149 281.716 90.0114 282.205 90.0114Z" fill="white"/>
<path d="M279.68 90.9628C279.411 87.402 282.558 84.4581 285.831 83.6574C290.207 82.527 295.656 84.5288 297.343 88.9187C297.748 89.969 297.955 91.0571 297.983 92.1404C297.983 92.2393 297.908 92.3241 297.809 92.3241C297.729 92.3241 297.653 92.2723 297.63 92.1969C297.013 90.1857 296.028 88.3487 294.498 87.1665C292.995 85.9937 290.984 85.3295 289.114 85.1458C285.299 84.7926 280.975 86.931 280.217 90.9864C280.179 91.2926 279.698 91.269 279.684 90.9628H279.68Z" fill="#250F00"/>
<path d="M259.187 105.178C265.607 105.178 270.811 103.765 270.811 102.022C270.811 100.279 265.607 98.8665 259.187 98.8665C252.767 98.8665 247.562 100.279 247.562 102.022C247.562 103.765 252.767 105.178 259.187 105.178Z" fill="#FECF2B"/>
<path d="M291.215 105.178C297.159 105.178 301.978 103.765 301.978 102.022C301.978 100.279 297.159 98.8665 291.215 98.8665C285.271 98.8665 280.453 100.279 280.453 102.022C280.453 103.765 285.271 105.178 291.215 105.178Z" fill="#FECF2B"/>
<path d="M281.55 78.335C283.995 76.8561 286.844 76.7289 289.732 79.5361" stroke="#E89128" stroke-width="1.54493" stroke-miterlimit="10" stroke-linecap="round"/>
<path d="M269.614 78.2032C267.137 76.7807 264.282 76.7195 261.466 79.5927" stroke="#E89128" stroke-width="1.54493" stroke-miterlimit="10" stroke-linecap="round"/>
<path d="M278.785 105.682V106.676C278.785 107.057 278.701 107.425 278.555 107.75C278.145 108.645 277.245 109.267 276.195 109.267H275.201C274.151 109.267 273.251 108.645 272.841 107.75C272.695 107.425 272.61 107.062 272.61 106.676V105.682C272.61 104.25 273.774 103.092 275.201 103.092H276.195C277.627 103.092 278.785 104.255 278.785 105.682Z" fill="#FC7B65"/>
<path opacity="0.5" d="M278.554 107.75C278.144 108.645 277.245 109.266 276.194 109.266H275.201C274.15 109.266 273.251 108.645 272.841 107.75C273.251 106.85 274.15 106.228 275.201 106.228H276.194C277.245 106.228 278.149 106.855 278.554 107.75Z" fill="white"/>
<path d="M275.101 124.81C293.409 124.81 308.251 109.968 308.251 91.66C308.251 73.3517 293.409 58.51 275.101 58.51C256.793 58.51 241.951 73.3517 241.951 91.66C241.951 109.968 256.793 124.81 275.101 124.81Z" stroke="#FC7B65" stroke-width="3.16521" stroke-miterlimit="10"/>
<path d="M285.351 130.415L281.931 129.939C279.619 129.614 277.664 128.117 276.736 126.016C276.275 126.035 275.813 126.054 275.347 126.054C274.782 126.054 274.221 126.039 273.66 126.006C272.728 128.093 270.778 129.581 268.479 129.902L265.06 130.377C264.518 130.453 264.118 129.888 264.363 129.402L265.597 126.996C265.988 126.233 266.492 125.554 267.08 124.975C266.468 124.815 265.865 124.631 265.267 124.433H285.403C284.729 124.659 284.046 124.862 283.354 125.041C283.933 125.615 284.428 126.284 284.814 127.029L286.039 129.435C286.293 129.925 285.888 130.49 285.346 130.415H285.351Z" fill="#FC7B65"/>
<path d="M279.27 124.588L280.58 124.866C281.64 125.092 282.544 125.766 283.039 126.713L283.608 127.801C283.722 128.022 283.538 128.276 283.288 128.243L281.706 128.027C280.509 127.862 279.515 127.038 279.162 125.912L278.922 125.144L279.27 124.588Z" fill="#E86352"/>
<path d="M271.71 125.027L271.06 126.2C270.533 127.151 269.624 127.815 268.578 128.008L267.368 128.234C267.123 128.281 266.934 128.027 267.038 127.796L267.707 126.346C268.211 125.248 269.289 124.542 270.472 124.532H271.277L271.706 125.022L271.71 125.027Z" fill="#E86352"/>
<path d="M275.733 120.948H273.952C272.027 120.948 270.467 122.508 270.467 124.433V124.438C270.467 126.363 272.027 127.923 273.952 127.923H275.733C277.658 127.923 279.218 126.363 279.218 124.438V124.433C279.218 122.508 277.658 120.948 275.733 120.948Z" fill="#FC7B65" stroke="#A34646" stroke-width="0.447463" stroke-miterlimit="10"/>
<path d="M278.978 124.438C278.978 125.333 278.615 126.143 278.026 126.732C277.438 127.321 276.623 127.683 275.733 127.683H274.079C273.5 127.683 272.958 127.533 272.487 127.259C272.666 127.292 272.85 127.311 273.038 127.311H274.696C275.587 127.311 276.397 126.948 276.99 126.36C277.579 125.771 277.942 124.956 277.942 124.066C277.942 122.86 277.278 121.805 276.298 121.245C277.814 121.513 278.978 122.846 278.978 124.443V124.438Z" fill="#E86352"/>
<path d="M258.352 123.402L266.398 116.963C267.119 116.386 268.168 116.505 268.742 117.223L270.396 119.289C270.972 120.01 270.853 121.059 270.136 121.633L262.089 128.072C260.798 129.105 258.912 128.896 257.879 127.605C256.846 126.314 257.055 124.428 258.346 123.395L258.352 123.402Z" fill="#FECF2B" stroke="#D1904A" stroke-width="0.471014" stroke-miterlimit="10"/>
<path d="M274.861 114.076C274.715 113.873 274.55 113.699 274.371 113.539L276.006 112.003C276.595 111.447 276.628 110.51 276.072 109.921C275.516 109.332 274.579 109.299 273.99 109.855L270.325 113.298C270.325 113.298 270.278 113.327 270.255 113.346L269.605 113.817C269.544 113.228 269.063 112.752 268.456 112.724C267.787 112.691 267.207 113.214 267.174 113.882L267.09 115.644L263.18 118.484C262.992 118.621 262.949 118.889 263.086 119.078L266.463 123.727C266.6 123.915 266.868 123.957 267.057 123.821L274.136 118.677C275.606 117.613 275.931 115.536 274.866 114.071L274.861 114.076Z" fill="#FC7B65" stroke="#A34646" stroke-width="0.518115" stroke-miterlimit="10"/>
<g opacity="0.5">
<path d="M263.916 119.699L265.913 118.277" stroke="white" stroke-width="0.414492" stroke-miterlimit="10"/>
<path d="M264.645 120.726L266.642 119.304" stroke="white" stroke-width="0.414492" stroke-miterlimit="10"/>
<path d="M265.371 121.744L267.368 120.321" stroke="white" stroke-width="0.414492" stroke-miterlimit="10"/>
<path d="M266.106 122.77L268.103 121.348" stroke="white" stroke-width="0.414492" stroke-miterlimit="10"/>
</g>
</svg>
