<svg width="31" height="26" viewBox="0 0 31 26" fill="none" xmlns="http://www.w3.org/2000/svg">
<path d="M30.7515 8.34888C30.7515 17.7273 23.8956 25.3151 15.4084 25.3151C6.92129 25.3151 0.0654297 17.7273 0.0654297 8.34888" fill="#98E5C6"/>
<path d="M30.8183 9.0427C30.8183 14.0565 23.9184 18.1078 15.4092 18.1078C6.89995 18.1078 0 14.0565 0 9.0427C0 4.02892 6.89995 0 15.4092 0C23.3893 0 29.9586 3.55888 30.7301 8.125C30.7742 8.32644 30.7963 8.52789 30.7963 8.72934C30.8183 8.84125 30.8183 8.93078 30.8183 9.0427Z" fill="#44BC88"/>
<path d="M28.3274 8.90824C28.3274 13.1162 22.5297 16.5184 15.4093 16.5184C8.28893 16.5184 2.49121 13.1162 2.49121 8.90824C2.49121 4.70025 8.26689 1.32043 15.4093 1.32043C22.1109 1.32043 27.622 4.29736 28.2613 8.12484C28.3054 8.3039 28.3274 8.46058 28.3274 8.63965C28.3274 8.72918 28.3274 8.81871 28.3274 8.90824Z" fill="#E6563C"/>
<path d="M14.1896 6.50586L5.61572 8.17282C4.67107 8.35648 4.05098 9.278 4.23072 10.2311C4.41046 11.1842 5.32197 11.8079 6.26662 11.6242L14.8405 9.95728C15.7851 9.77362 16.4052 8.8521 16.2255 7.89902C16.0457 6.94594 15.1342 6.3222 14.1896 6.50586Z" fill="#FDBE54"/>
<path d="M21.2946 9.02271L12.7207 10.6897C11.776 10.8733 11.156 11.7948 11.3357 12.7479C11.5154 13.701 12.4269 14.3247 13.3716 14.1411L21.9455 12.4741C22.8901 12.2905 23.5102 11.3689 23.3305 10.4159C23.1507 9.46279 22.2392 8.83905 21.2946 9.02271Z" fill="#FDBE54"/>
<path d="M17.0405 2.46204H8.31086C7.34904 2.46204 6.56934 3.2487 6.56934 4.21909C6.56934 5.18949 7.34904 5.97615 8.31086 5.97615H17.0405C18.0023 5.97615 18.782 5.18949 18.782 4.21909C18.782 3.2487 18.0023 2.46204 17.0405 2.46204Z" fill="#FDBE54"/>
<path d="M25.3953 4.87964H19.7298C18.9263 4.87964 18.2749 5.54104 18.2749 6.35691V6.91648C18.2749 7.73236 18.9263 8.39376 19.7298 8.39376H25.3953C26.1988 8.39376 26.8502 7.73236 26.8502 6.91648V6.35691C26.8502 5.54104 26.1988 4.87964 25.3953 4.87964Z" fill="#FDBE54"/>
<path d="M16.908 5.86438H11.2425C10.439 5.86438 9.7876 6.52578 9.7876 7.34165V7.90123C9.7876 8.7171 10.439 9.3785 11.2425 9.3785H16.908C17.7115 9.3785 18.3629 8.7171 18.3629 7.90123V7.34165C18.3629 6.52578 17.7115 5.86438 16.908 5.86438Z" fill="#FD8A54"/>
<path d="M24.095 9.82605H18.4296C17.626 9.82605 16.9746 10.4874 16.9746 11.3033V11.8629C16.9746 12.6788 17.626 13.3402 18.4296 13.3402H24.095C24.8985 13.3402 25.5499 12.6788 25.5499 11.8629V11.3033C25.5499 10.4874 24.8985 9.82605 24.095 9.82605Z" fill="#FD8A54"/>
<path d="M13.7521 11.7869L8.42591 9.82607C7.67049 9.54796 6.83606 9.9443 6.56216 10.7113L6.3743 11.2374C6.10039 12.0044 6.49074 12.8516 7.24615 13.1297L12.5723 15.0906C13.3277 15.3687 14.1622 14.9723 14.4361 14.2053L14.6239 13.6793C14.8978 12.9123 14.5075 12.065 13.7521 11.7869Z" fill="#FFE5C5"/>
<path d="M22.8598 3.55935L18.3004 1.88082C17.648 1.64063 16.9274 1.98292 16.6908 2.64534L16.533 3.08723C16.2965 3.74965 16.6336 4.48136 17.286 4.72154L21.8453 6.40008C22.4977 6.64026 23.2184 6.29797 23.4549 5.63555L23.6127 5.19366C23.8493 4.53124 23.5122 3.79954 22.8598 3.55935Z" fill="#FD8A54"/>
<path d="M22.3695 8.3135L17.8102 6.63497C17.1578 6.39478 16.4371 6.73707 16.2006 7.39949L16.0428 7.84138C15.8062 8.5038 16.1433 9.23551 16.7958 9.47569L21.3551 11.1542C22.0075 11.3944 22.7282 11.0521 22.9647 10.3897L23.1225 9.94781C23.3591 9.28539 23.0219 8.55369 22.3695 8.3135Z" fill="#FFE5C5"/>
<path d="M16.2911 9.22172C16.8877 9.22172 17.3713 8.73069 17.3713 8.12496C17.3713 7.51924 16.8877 7.0282 16.2911 7.0282C15.6946 7.0282 15.2109 7.51924 15.2109 8.12496C15.2109 8.73069 15.6946 9.22172 16.2911 9.22172Z" fill="#2C8A54"/>
<path d="M12.8741 9.22172C13.4707 9.22172 13.9543 8.73069 13.9543 8.12496C13.9543 7.51924 13.4707 7.0282 12.8741 7.0282C12.2776 7.0282 11.7939 7.51924 11.7939 8.12496C11.7939 8.73069 12.2776 9.22172 12.8741 9.22172Z" fill="#2C8A54"/>
<path d="M15.2555 6.87138C15.852 6.87138 16.3357 6.38034 16.3357 5.77462C16.3357 5.16889 15.852 4.67786 15.2555 4.67786C14.6589 4.67786 14.1753 5.16889 14.1753 5.77462C14.1753 6.38034 14.6589 6.87138 15.2555 6.87138Z" fill="#2C8A54"/>
</svg>
