<svg width="31" height="29" viewBox="0 0 31 29" fill="none" xmlns="http://www.w3.org/2000/svg">
<path d="M25.7036 7.6604C25.7036 7.6604 30.8647 7.84328 29.422 11.8259C27.9794 15.8085 17.6978 18.6329 17.6978 18.6329" stroke="#CBCDD2" stroke-width="2.03194" stroke-miterlimit="10"/>
<path d="M13.3301 28C20.1643 28 25.7046 25.6347 25.7046 22.717C25.7046 19.7993 20.1643 17.434 13.3301 17.434C6.49582 17.434 0.955566 19.7993 0.955566 22.717C0.955566 25.6347 6.49582 28 13.3301 28Z" fill="#EDEDED" stroke="#CBCDD2" stroke-width="0.487665" stroke-miterlimit="10"/>
<path d="M13.3283 26.0698C18.4344 26.0698 22.5736 24.5687 22.5736 22.7171C22.5736 20.8654 18.4344 19.3644 13.3283 19.3644C8.22228 19.3644 4.08301 20.8654 4.08301 22.7171C4.08301 24.5687 8.22228 26.0698 13.3283 26.0698Z" fill="#CBCDD2"/>
<path d="M25.4604 13.1058C23.8755 19.3845 18.8769 23.9767 12.9843 23.9767C7.09166 23.9767 2.15406 19.4252 0.548828 13.1871C8.4937 16.8243 17.3326 16.5601 25.4604 13.1058Z" fill="#EDEDED"/>
<path d="M25.9885 8.83896C25.9885 9.22503 25.9682 9.61109 25.9478 9.97684C17.3934 13.167 8.14807 13.4718 0.0609581 10.2004C0.0203194 9.75333 0 9.3063 0 8.83896C0 8.00586 0.0609581 7.19309 0.182874 6.40063H25.8056C25.9275 7.19309 25.9885 8.00586 25.9885 8.83896Z" fill="#EDEDED"/>
<path d="M25.9469 9.97693C25.886 11.0539 25.7234 12.1105 25.4593 13.1061C17.3315 16.5604 8.4926 16.8246 0.547723 13.1874C0.303891 12.2324 0.121017 11.2367 0.0600586 10.2004C8.14717 13.4719 17.3925 13.1671 25.9469 9.97693Z" fill="#EFEFEF"/>
<path d="M13.0038 10.8912C20.1073 10.8912 25.8659 8.45311 25.8659 5.44559C25.8659 2.43807 20.1073 0 13.0038 0C5.90019 0 0.141602 2.43807 0.141602 5.44559C0.141602 8.45311 5.90019 10.8912 13.0038 10.8912Z" fill="#CBCDD2"/>
<path d="M13.004 9.55009C18.7834 9.55009 23.4685 7.71244 23.4685 5.44558C23.4685 3.17872 18.7834 1.34106 13.004 1.34106C7.22466 1.34106 2.53955 3.17872 2.53955 5.44558C2.53955 7.71244 7.22466 9.55009 13.004 9.55009Z" fill="#231918"/>
<path d="M25.9469 9.97693C25.886 11.0539 25.7234 12.1105 25.4593 13.1061C17.2502 17.8608 8.41132 17.9828 0.547723 13.1874C0.303891 12.2324 0.121017 11.2367 0.0600586 10.2004C8.14717 14.7317 17.3925 14.5894 25.9469 9.97693Z" fill="#FFBBBB"/>
<g opacity="0.46">
<path d="M13.695 3.79959C13.695 3.79959 13.756 3.79959 13.7763 3.77927C14.0811 3.51512 14.2639 3.35257 14.7516 3.25097C16.1943 2.9665 17.2102 3.88087 17.0477 4.8562C16.7835 6.33952 14.3655 7.25389 12.679 7.76187C12.4758 7.63995 12.2726 7.49772 12.0898 7.35548C10.8096 6.42079 9.14345 4.77492 10.4439 3.43385C11.3989 2.45852 13.3496 2.64139 13.7153 3.79959H13.695Z" stroke="#FFD05C" stroke-width="1.07693" stroke-linecap="round" stroke-linejoin="round"/>
</g>
</svg>
