<svg width="29" height="31" viewBox="0 0 29 31" fill="none" xmlns="http://www.w3.org/2000/svg">
<path d="M7.95271 18.6443C11.9792 18.6443 15.2433 15.3802 15.2433 11.3537C15.2433 7.32723 11.9792 4.06311 7.95271 4.06311C3.92622 4.06311 0.662109 7.32723 0.662109 11.3537C0.662109 15.3802 3.92622 18.6443 7.95271 18.6443Z" fill="#FFC82E"/>
<path d="M7.95305 16.8131C10.9682 16.8131 13.4124 14.3688 13.4124 11.3537C13.4124 8.33854 10.9682 5.89429 7.95305 5.89429C4.93791 5.89429 2.49365 8.33854 2.49365 11.3537C2.49365 14.3688 4.93791 16.8131 7.95305 16.8131Z" stroke="#C29A2A" stroke-width="0.692713" stroke-miterlimit="10"/>
<path d="M20.7032 18.6443C24.7297 18.6443 27.9938 15.3802 27.9938 11.3537C27.9938 7.32723 24.7297 4.06311 20.7032 4.06311C16.6767 4.06311 13.4126 7.32723 13.4126 11.3537C13.4126 15.3802 16.6767 18.6443 20.7032 18.6443Z" fill="#FFC82E"/>
<path d="M20.7026 16.8131C23.7177 16.8131 26.162 14.3688 26.162 11.3537C26.162 8.33854 23.7177 5.89429 20.7026 5.89429C17.6874 5.89429 15.2432 8.33854 15.2432 11.3537C15.2432 14.3688 17.6874 16.8131 20.7026 16.8131Z" stroke="#C29A2A" stroke-width="0.692713" stroke-miterlimit="10"/>
<path d="M13.9085 19.421C18.657 19.421 22.5065 15.5716 22.5065 10.8231C22.5065 6.07453 18.657 2.2251 13.9085 2.2251C9.15998 2.2251 5.31055 6.07453 5.31055 10.8231C5.31055 15.5716 9.15998 19.421 13.9085 19.421Z" fill="#FFC82E"/>
<path d="M13.9061 17.2614C17.462 17.2614 20.3445 14.3788 20.3445 10.823C20.3445 7.2672 17.462 4.38464 13.9061 4.38464C10.3503 4.38464 7.46777 7.2672 7.46777 10.823C7.46777 14.3788 10.3503 17.2614 13.9061 17.2614Z" stroke="#C29A2A" stroke-width="0.816931" stroke-miterlimit="10"/>
<path d="M13.9074 14.6979C16.0475 14.6979 17.7825 12.9629 17.7825 10.8228C17.7825 8.68259 16.0475 6.94763 13.9074 6.94763C11.7672 6.94763 10.0322 8.68259 10.0322 10.8228C10.0322 12.9629 11.7672 14.6979 13.9074 14.6979Z" stroke="#C29A2A" stroke-width="0.816931" stroke-miterlimit="10"/>
<path d="M0.508301 14.862C0.508301 14.1775 0.559643 13.4929 0.645214 12.8254H28.3016C28.4043 13.4929 28.4385 14.1775 28.4385 14.862C28.4385 22.5805 22.1919 28.8442 14.4734 28.8442C6.75494 28.8442 0.508301 22.5805 0.508301 14.862Z" fill="#1E110D"/>
<path d="M20.2067 25.0109H8.74023V30.5387H20.2067V25.0109Z" fill="#1E110D"/>
<path d="M20.2414 27.8517H8.70654" stroke="#FC7B65" stroke-width="0.692713" stroke-miterlimit="10"/>
<path d="M28.5065 15.1531H0.524902" stroke="#FC7B65" stroke-width="0.692713" stroke-miterlimit="10"/>
<path d="M3.39988 5.24386C4.3925 3.65225 6.80559 2.36869 8.53411 1.39319C11.5291 -0.301107 14.1818 0.0240607 17.074 0.862651C20.3428 1.68413 23.6801 3.01903 25.4086 6.01399C26.2643 8.01634 25.0834 9.7791 22.8244 9.57373C20.2402 9.7791 17.1938 6.20225 14.8663 7.21198C13.8908 7.50292 13.0522 8.25594 11.9227 8.68379C10.6734 9.21433 9.23579 8.80359 8.1576 8.0848C6.5831 6.8697 4.99149 6.40762 3.5368 5.79151C3.39988 5.68883 3.33143 5.55191 3.38277 5.36366L3.417 5.24386H3.39988Z" fill="#1E110D"/>
</svg>
