<svg width="34" height="28" viewBox="0 0 34 28" fill="none" xmlns="http://www.w3.org/2000/svg">
<path d="M29.3158 9.68433H5V27.3685H29.3158V9.68433Z" fill="#B0D4FF"/>
<path d="M7.41602 0.62793H13.8737V9.48501C13.8737 11.2429 12.4254 12.6796 10.6534 12.6796C8.88136 12.6796 7.43305 11.2429 7.43305 9.48501V0.62793H7.41602Z" fill="#FDD835"/>
<path d="M20.2119 0.62793H26.6696V9.48501C26.6696 11.2429 25.2213 12.6796 23.4493 12.6796C21.6773 12.6796 20.229 11.2429 20.229 9.48501V0.62793H20.2119Z" fill="#FDD835"/>
<path d="M13.8223 0.62793H20.28V9.48501C20.28 11.2429 18.8317 12.6796 17.0596 12.6796C15.2876 12.6796 13.8393 11.2429 13.8393 9.48501V0.62793H13.8223Z" fill="#67A2F9"/>
<path d="M29.8385 12.6965C28.0494 12.6965 26.6182 11.2598 26.6182 9.50191V0.62793H30.8608L33.0589 9.48501C33.0589 11.2598 31.6105 12.6796 29.8385 12.6796V12.6965Z" fill="#67A2F9"/>
<path d="M4.16175 12.6965C5.95083 12.6965 7.3821 11.2598 7.3821 9.50191V0.62793H3.13942L0.941406 9.48501C0.941406 11.2598 2.38971 12.6796 4.16175 12.6796V12.6965Z" fill="#67A2F9"/>
<path d="M21.983 27.3685H13.1057L13.1057 19.2287C13.1057 16.6412 15.0993 14.5389 17.5529 14.5389C20.0065 14.5389 22 16.6412 22 19.2287V27.3685H21.983Z" fill="#2D7EF6"/>
</svg>
