<svg width="5" height="20" viewBox="0 0 5 20" fill="none" xmlns="http://www.w3.org/2000/svg">
<path d="M2.5 5C3.88071 5 5 3.88071 5 2.5C5 1.11929 3.88071 0 2.5 0C1.11929 0 0 1.11929 0 2.5C0 3.88071 1.11929 5 2.5 5Z" fill="#CBCDD2"/>
<path d="M2.5 12.574C3.88071 12.574 5 11.4547 5 10.074C5 8.69326 3.88071 7.57397 2.5 7.57397C1.11929 7.57397 0 8.69326 0 10.074C0 11.4547 1.11929 12.574 2.5 12.574Z" fill="#CBCDD2"/>
<path d="M2.5 19.5927C3.88071 19.5927 5 18.4734 5 17.0927C5 15.7119 3.88071 14.5927 2.5 14.5927C1.11929 14.5927 0 15.7119 0 17.0927C0 18.4734 1.11929 19.5927 2.5 19.5927Z" fill="#CBCDD2"/>
</svg>
