<svg width="32" height="28" viewBox="0 0 32 28" fill="none" xmlns="http://www.w3.org/2000/svg">
<path d="M29.8537 8.44064C29.8537 4.17468 23.6053 0.736816 15.9266 0.736816C8.24789 0.736816 1.99951 4.19977 1.99951 8.44064V13.083H29.8537V8.44064Z" fill="#F0C958"/>
<path d="M12.9159 4.55087L13.2672 3.72278C13.3425 3.52203 13.192 3.32128 12.9912 3.34637L12.0878 3.47184C11.8871 3.49693 11.6863 3.6224 11.5609 3.82315C11.4354 4.0239 11.4103 4.32503 11.5107 4.57597C11.7365 5.05275 12.3137 5.15313 12.6901 4.852C12.7905 4.77672 12.8657 4.65125 12.9159 4.55087Z" fill="#D3A24F"/>
<path d="M18.6879 4.55087L18.3366 3.72278C18.2613 3.52203 18.4119 3.32128 18.6127 3.34637L19.516 3.47184C19.7168 3.49693 19.9175 3.6224 20.043 3.82315C20.1685 4.0239 20.1936 4.32503 20.0932 4.57597C19.8673 5.05275 19.2902 5.15313 18.9138 4.852C18.8134 4.77672 18.7381 4.65125 18.6879 4.55087Z" fill="#D3A24F"/>
<path d="M16.5794 4.22466L16.1528 3.42166C16.0524 3.246 15.8015 3.246 15.7011 3.42166L15.2243 4.19957C15.1239 4.37523 15.0738 4.60107 15.149 4.82692C15.2243 5.05276 15.4502 5.27861 15.7011 5.32879C16.203 5.45426 16.6547 5.07786 16.6798 4.60107C16.6798 4.4756 16.6547 4.35013 16.5794 4.22466Z" fill="#D3A24F"/>
<path d="M1.99951 24.1994C1.99951 26.2822 8.24789 27.9634 15.9266 27.9634C23.6053 27.9634 29.8286 26.2822 29.8537 24.1994V21.9409H1.99951V24.1994Z" fill="#F0C958"/>
<path d="M16.3526 10.749C14.8219 10.3224 10.9073 9.11791 9.72787 9.82054C9.15071 10.1468 8.82448 10.5984 8.32261 10.9749C6.74169 12.2295 2.6263 10.9498 0.94501 11.9284C0.1671 12.4052 0.543508 13.0075 1.49707 13.3337C3.80571 13.9861 6.59113 14.2371 8.59864 14.4629C10.832 14.6386 13.2912 13.685 15.5998 13.7854C17.9085 13.7352 20.2171 15.9183 22.4003 14.7138C24.2823 13.5846 27.0677 14.0614 28.9247 13.1078C29.552 12.7565 30.1794 12.3048 30.7063 11.8782C33.0652 10.0966 28.2471 10.0464 26.5659 11.0752C25.9887 11.3513 25.3613 11.7026 24.6838 11.8782C23.6048 12.1794 22.6763 11.1254 21.6224 10.5734C19.9913 9.79544 18.3853 11.4265 16.6538 10.7992L16.3526 10.7239V10.749Z" fill="#74C843"/>
<path d="M29.0754 13.0325H2.77706C1.73764 13.0325 0.89502 13.8751 0.89502 14.9145C0.89502 15.9539 1.73764 16.7966 2.77706 16.7966H29.0754C30.1149 16.7966 30.9575 15.9539 30.9575 14.9145C30.9575 13.8751 30.1149 13.0325 29.0754 13.0325Z" fill="#E96A6A"/>
<path d="M16.3526 20.3603C14.8219 19.9337 10.9073 18.7292 9.72787 19.4319C9.15071 19.7581 8.82448 20.2098 8.32261 20.5862C6.74169 21.8409 2.6263 20.5611 0.94501 21.5398C0.1671 22.0165 0.543508 22.6188 1.49707 22.945C3.80571 23.5974 6.59113 23.8484 8.59864 24.0742C10.832 24.2499 13.2912 23.2963 15.5998 23.3967C17.9085 23.3465 20.2171 25.5297 22.4003 24.3252C24.2823 23.1959 27.0677 23.6727 28.9247 22.7192C29.552 22.3678 30.1794 21.9162 30.7063 21.4896C33.0652 19.7079 28.2471 19.6577 26.5659 20.6866C25.9887 20.9626 25.3613 21.3139 24.6838 21.4896C23.6048 21.7907 22.6763 20.7367 21.6224 20.1847C19.9913 19.4068 18.3853 21.0379 16.6538 20.4105L16.3526 20.3352V20.3603Z" fill="#74C843"/>
<path d="M29.0754 16.7966H2.77706C1.73764 16.7966 0.89502 17.6392 0.89502 18.6787C0.89502 19.7181 1.73764 20.5607 2.77706 20.5607H29.0754C30.1149 20.5607 30.9575 19.7181 30.9575 18.6787C30.9575 17.6392 30.1149 16.7966 29.0754 16.7966Z" fill="#1E110D"/>
<path d="M29.9785 20.4856H2.14941V21.5395H29.9785V20.4856Z" fill="#FFC82E"/>
</svg>
