<svg width="358" height="132" viewBox="0 0 358 132" fill="none" xmlns="http://www.w3.org/2000/svg">
<rect width="358" height="130" rx="12" fill="#A8FECD"/>
<path fill-rule="evenodd" clip-rule="evenodd" d="M0 100.786V120C0 126.624 5.36736 131.995 11.9903 132C11.9936 132 11.9968 132 12 132H346C346.003 132 346.006 132 346.01 132C352.633 131.995 358 126.624 358 120V95.4205C350.617 113.466 276.998 139.804 179 100.786C72.4549 58.3644 19.9389 89.3678 4.49877 98.4831C2.187 99.8479 0.70638 100.722 0 100.786Z" fill="#5DF9A1"/>
<path d="M32.372 24.594H29.996V30.102H28.142V18.384H29.996V23.046H32.372V24.594ZM25.514 19.626C25.478 21.774 24.788 23.592 23.444 25.08C22.1 26.568 20.378 27.6 18.278 28.176L17.36 26.7C18.884 26.376 20.228 25.716 21.392 24.72C22.568 23.724 23.27 22.542 23.498 21.174H18.152V19.626H25.514ZM30.428 33.954H19.79V28.878H21.644V32.478H30.428V33.954ZM46.3262 27.762H44.4722V18.402H46.3262V27.762ZM35.5262 28.608H46.3442V34.44H44.4902V30.066H35.5262V28.608ZM42.8162 25.404L41.7362 26.826C41.0282 26.538 40.3202 26.082 39.6122 25.458C38.9042 24.822 38.3882 24.144 38.0642 23.424C37.8242 24.216 37.3502 24.966 36.6422 25.674C35.9342 26.37 35.1482 26.898 34.2842 27.258L33.1502 25.8C34.3382 25.332 35.2922 24.636 36.0122 23.712C36.7322 22.776 37.0922 21.702 37.0922 20.49V19.05H38.9822V20.418C38.9822 21.594 39.3662 22.638 40.1342 23.55C40.9022 24.45 41.7962 25.068 42.8162 25.404ZM63.1784 26.628H48.6884V25.152H63.1784V26.628ZM61.8464 34.314H50.5424V30.354H59.3984V29.238H50.4524V27.78H61.2524V31.704H52.3784V32.856H61.8464V34.314ZM55.9604 18.474C57.7124 18.474 59.0804 18.738 60.0644 19.266C61.0484 19.782 61.5404 20.472 61.5404 21.336C61.5404 22.2 61.0484 22.89 60.0644 23.406C59.0804 23.922 57.7124 24.18 55.9604 24.18C54.2204 24.18 52.8584 23.922 51.8744 23.406C50.9024 22.89 50.4164 22.2 50.4164 21.336C50.4164 20.472 50.9024 19.782 51.8744 19.266C52.8584 18.738 54.2204 18.474 55.9604 18.474ZM58.6604 20.292C58.0124 20.028 57.1124 19.896 55.9604 19.896C54.8084 19.896 53.9084 20.028 53.2604 20.292C52.6124 20.544 52.2884 20.892 52.2884 21.336C52.2884 21.768 52.6124 22.11 53.2604 22.362C53.9084 22.614 54.8084 22.74 55.9604 22.74C57.1124 22.74 58.0124 22.614 58.6604 22.362C59.3204 22.11 59.6504 21.768 59.6504 21.336C59.6504 20.892 59.3204 20.544 58.6604 20.292ZM81.4472 18.384V24.648H83.9312V26.178H81.4472V34.422H79.5932V18.384H81.4472ZM70.2692 29.328C69.5372 28.308 69.1712 26.946 69.1712 25.242C69.1712 23.538 69.5372 22.176 70.2692 21.156C71.0012 20.136 72.0032 19.626 73.2752 19.626C74.5472 19.626 75.5432 20.136 76.2632 21.156C76.9832 22.176 77.3432 23.544 77.3432 25.26C77.3432 26.964 76.9832 28.326 76.2632 29.346C75.5432 30.354 74.5472 30.858 73.2752 30.858C72.0032 30.858 71.0012 30.348 70.2692 29.328ZM74.9492 28.266C75.3812 27.522 75.5972 26.514 75.5972 25.242C75.5972 23.97 75.3812 22.968 74.9492 22.236C74.5292 21.504 73.9712 21.138 73.2752 21.138C72.5912 21.138 72.0392 21.504 71.6192 22.236C71.1992 22.968 70.9892 23.97 70.9892 25.242C70.9892 26.514 71.1992 27.522 71.6192 28.266C72.0392 28.998 72.5912 29.364 73.2752 29.364C73.9712 29.364 74.5292 28.998 74.9492 28.266ZM97.3274 24.306H92.7014V25.98H99.0554V27.474H84.5654V25.98H90.8654V24.306H86.4734V18.816H97.2014V20.328H88.3274V22.812H97.3274V24.306ZM97.3814 31.506C97.3814 32.418 96.8894 33.132 95.9054 33.648C94.9334 34.176 93.5714 34.44 91.8194 34.44C90.0674 34.44 88.6994 34.176 87.7154 33.648C86.7434 33.132 86.2574 32.418 86.2574 31.506C86.2574 30.618 86.7434 29.91 87.7154 29.382C88.6994 28.854 90.0614 28.59 91.8014 28.59C93.5534 28.59 94.9214 28.854 95.9054 29.382C96.8894 29.91 97.3814 30.618 97.3814 31.506ZM94.5014 32.586C95.1494 32.334 95.4734 31.98 95.4734 31.524C95.4734 31.068 95.1434 30.714 94.4834 30.462C93.8354 30.198 92.9414 30.066 91.8014 30.066C90.6734 30.066 89.7794 30.198 89.1194 30.462C88.4714 30.714 88.1474 31.068 88.1474 31.524C88.1474 31.98 88.4714 32.334 89.1194 32.586C89.7674 32.826 90.6614 32.946 91.8014 32.946C92.9534 32.946 93.8534 32.826 94.5014 32.586ZM112.74 34.206H101.958V27.582H103.794V29.454H110.904V27.546H112.74V34.206ZM112.704 19.014C112.704 21.21 112.542 23.106 112.218 24.702H114.594V26.196H100.104V24.702H110.436C110.712 23.454 110.85 22.05 110.85 20.49H101.994V19.014H112.704ZM110.904 32.73V30.894H103.794V32.73H110.904ZM128.926 27.762H127.072V18.402H128.926V27.762ZM118.126 28.608H128.944V34.44H127.09V30.066H118.126V28.608ZM125.416 25.404L124.336 26.826C123.628 26.538 122.92 26.082 122.212 25.458C121.504 24.822 120.988 24.144 120.664 23.424C120.424 24.216 119.95 24.966 119.242 25.674C118.534 26.37 117.748 26.898 116.884 27.258L115.75 25.8C116.938 25.332 117.892 24.636 118.612 23.712C119.332 22.776 119.692 21.702 119.692 20.49V19.05H121.582V20.418C121.582 21.594 121.966 22.638 122.734 23.55C123.502 24.45 124.396 25.068 125.416 25.404ZM139.406 20.058C139.394 25.29 137.024 29.148 132.296 31.632L131.108 30.3C133.604 29.16 135.392 27.498 136.472 25.314L131.774 25.818L131.486 24.216L137.084 23.802C137.3 23.022 137.432 22.272 137.48 21.552H132.296V20.058H139.406ZM143.744 18.384V24.648H146.228V26.178H143.744V34.422H141.89V18.384H143.744ZM161.352 30.822V32.28H146.862V30.822H161.352ZM159.66 27.186H148.716V19.824H159.498V21.282H150.57V25.71H159.66V27.186ZM175.522 28.23H170.572V30.912H176.926V32.388H162.436V30.912H168.736V28.23H164.29V23.046H173.218V20.976H164.236V19.5H175.054V24.54H166.144V26.736H175.522V28.23ZM30.104 44.302C30.104 47.122 29.924 49.402 29.564 51.142H32.03V52.636H25.676V59.422H23.84V52.636H17.54V51.142H27.8C28.076 49.846 28.226 48.07 28.25 45.814H19.376V44.302H30.104ZM40.0442 45.328V55.174H33.6362V45.328H40.0442ZM46.6322 59.422H44.8502V51.304H43.3382V58.666H41.5922V43.708H43.3382V49.756H44.8502V43.384H46.6322V59.422ZM38.3162 53.734V46.786H35.3822V53.734H38.3162ZM57.8684 47.038H48.5624V45.616H57.8684V47.038ZM56.9864 50.008C56.9864 50.776 56.6324 51.382 55.9244 51.826C55.2284 52.258 54.3284 52.474 53.2244 52.474C52.1324 52.474 51.2324 52.258 50.5244 51.826C49.8164 51.382 49.4624 50.776 49.4624 50.008C49.4624 49.276 49.8104 48.688 50.5064 48.244C51.2144 47.8 52.1204 47.578 53.2244 47.578C54.3164 47.578 55.2164 47.8 55.9244 48.244C56.6324 48.688 56.9864 49.276 56.9864 50.008ZM55.2044 50.008C55.2044 49.672 55.0064 49.408 54.6104 49.216C54.2264 49.012 53.7644 48.91 53.2244 48.91C52.6724 48.91 52.1984 49.012 51.8024 49.216C51.4184 49.42 51.2264 49.684 51.2264 50.008C51.2264 50.368 51.4184 50.65 51.8024 50.854C52.1984 51.046 52.6724 51.142 53.2244 51.142C53.7764 51.142 54.2444 51.046 54.6284 50.854C55.0124 50.65 55.2044 50.368 55.2044 50.008ZM50.8844 44.788V43.366H55.5824V44.788H50.8844ZM63.5024 48.676H61.1444V52.438H59.2904V43.384H61.1444V47.128H63.5024V48.676ZM61.6844 59.368H50.8304V55.678H59.2904V54.688H50.7584V53.266H61.1444V56.992H52.6664V57.964H61.6844V59.368ZM77.1272 59.44H75.2912V53.608H68.9912V52.15H83.4812V53.608H77.1272V59.44ZM82.8692 49.072L82.0232 50.566C80.8112 50.362 79.6412 49.906 78.5132 49.198C77.3972 48.49 76.6412 47.698 76.2452 46.822C75.9092 47.686 75.1832 48.472 74.0672 49.18C72.9512 49.888 71.7632 50.356 70.5032 50.584L69.6932 49.072C71.1692 48.904 72.4712 48.388 73.5992 47.524C74.7272 46.66 75.2912 45.67 75.2912 44.554V43.744H77.2352V44.554C77.2352 45.286 77.5232 45.994 78.0992 46.678C78.6872 47.35 79.4072 47.896 80.2592 48.316C81.1232 48.736 81.9932 48.988 82.8692 49.072ZM100.634 43.384H102.488V52.348H100.634V43.384ZM96.7279 45.346C97.5319 46.066 97.9339 46.978 97.9339 48.082C97.9339 49.186 97.5379 50.08 96.7459 50.764C95.9659 51.436 94.9879 51.772 93.8119 51.772C92.6479 51.772 91.6699 51.436 90.8779 50.764C90.0859 50.08 89.6899 49.186 89.6899 48.082C89.6899 46.99 90.0859 46.084 90.8779 45.364C91.6819 44.632 92.6599 44.266 93.8119 44.266C94.9639 44.266 95.9359 44.626 96.7279 45.346ZM96.1339 48.064C96.1339 47.416 95.9179 46.876 95.4859 46.444C95.0659 46 94.5079 45.778 93.8119 45.778C93.1279 45.778 92.5699 46 92.1379 46.444C91.7059 46.888 91.4899 47.428 91.4899 48.064C91.4899 48.736 91.7059 49.288 92.1379 49.72C92.5699 50.152 93.1279 50.368 93.8119 50.368C94.4959 50.368 95.0539 50.152 95.4859 49.72C95.9179 49.276 96.1339 48.724 96.1339 48.064ZM104.036 58.036L103.028 59.368C102.464 59.116 101.888 58.708 101.3 58.144C100.724 57.592 100.34 57.034 100.148 56.47C99.9919 57.046 99.6199 57.634 99.0319 58.234C98.4439 58.846 97.8259 59.314 97.1779 59.638L96.1339 58.396C97.0819 57.964 97.8319 57.352 98.3839 56.56C98.9479 55.768 99.2299 54.868 99.2299 53.86V53.122H101.012V53.842C101.012 54.826 101.288 55.69 101.84 56.434C102.392 57.178 103.124 57.712 104.036 58.036ZM95.9539 58.054C95.6299 57.886 95.3059 57.652 94.9819 57.352C94.6579 57.04 94.4179 56.722 94.2619 56.398C94.0699 57.034 93.6859 57.634 93.1099 58.198C92.5459 58.762 91.8919 59.206 91.1479 59.53L90.1399 58.288C91.0399 57.904 91.7899 57.334 92.3899 56.578C92.9899 55.81 93.2899 54.94 93.2899 53.968V53.212H95.0899V53.878C95.0899 54.622 95.2999 55.246 95.7199 55.75C96.1399 56.254 96.6139 56.59 97.1419 56.758L95.9539 58.054ZM119.358 51.628H104.868V50.152H119.358V51.628ZM118.026 59.314H106.722V55.354H115.578V54.238H106.632V52.78H117.432V56.704H108.558V57.856H118.026V59.314ZM112.14 43.474C113.892 43.474 115.26 43.738 116.244 44.266C117.228 44.782 117.72 45.472 117.72 46.336C117.72 47.2 117.228 47.89 116.244 48.406C115.26 48.922 113.892 49.18 112.14 49.18C110.4 49.18 109.038 48.922 108.054 48.406C107.082 47.89 106.596 47.2 106.596 46.336C106.596 45.472 107.082 44.782 108.054 44.266C109.038 43.738 110.4 43.474 112.14 43.474ZM114.84 45.292C114.192 45.028 113.292 44.896 112.14 44.896C110.988 44.896 110.088 45.028 109.44 45.292C108.792 45.544 108.468 45.892 108.468 46.336C108.468 46.768 108.792 47.11 109.44 47.362C110.088 47.614 110.988 47.74 112.14 47.74C113.292 47.74 114.192 47.614 114.84 47.362C115.5 47.11 115.83 46.768 115.83 46.336C115.83 45.892 115.5 45.544 114.84 45.292ZM133.006 43.384V49.846H135.382V51.376H133.006V59.422H131.242V43.384H133.006ZM125.248 45.094C125.248 47.446 124.93 49.48 124.294 51.196C123.67 52.912 122.698 54.466 121.378 55.858L119.956 54.886C121.06 53.866 121.924 52.6 122.548 51.088C123.172 49.576 123.49 48.076 123.502 46.588H120.946V45.094H125.248ZM129.658 45.094C129.658 47.746 129.388 49.954 128.848 51.718C128.32 53.47 127.36 55.168 125.968 56.812L124.492 55.858C125.656 54.658 126.52 53.254 127.084 51.646C127.648 50.026 127.93 48.34 127.93 46.588H125.932V45.094H129.658ZM137.871 53.68V52.816C137.871 52.252 137.997 51.802 138.249 51.466C138.513 51.13 138.999 50.68 139.707 50.116C140.415 49.528 140.769 48.724 140.769 47.704C140.769 46.588 140.061 46.03 138.645 46.03C137.949 46.03 137.151 46.18 136.251 46.48V45.094C137.055 44.734 138.009 44.554 139.113 44.554C140.169 44.554 141.027 44.806 141.687 45.31C142.359 45.802 142.695 46.57 142.695 47.614C142.695 48.358 142.557 48.982 142.281 49.486C142.017 49.978 141.549 50.506 140.877 51.07C140.517 51.346 140.259 51.556 140.103 51.7C139.959 51.832 139.827 52.006 139.707 52.222C139.587 52.438 139.527 52.684 139.527 52.96V53.68H137.871ZM137.727 57.442V55.498H139.707V57.442H137.727Z" fill="#121212"/>
<path d="M27.224 74.62H25.616V79.84H24.56V69.352H25.616V73.744H27.224V74.62ZM23.996 77.272C23.164 77.392 21.96 77.496 20.384 77.584C19.328 77.632 18.324 77.656 17.372 77.656L17.216 76.768C18.208 76.768 18.96 76.76 19.472 76.744V73.42H20.504V76.708C22.016 76.636 23.136 76.548 23.864 76.444L23.996 77.272ZM23.312 70.408C23.312 72.616 23.196 74.22 22.964 75.22L21.944 75.088C22.144 74.208 22.244 72.936 22.244 71.272H17.84V70.408H23.312ZM33.9228 76.612L33.2988 77.392C32.7708 77.088 32.2548 76.644 31.7508 76.06C31.2468 75.476 30.9148 74.904 30.7548 74.344C30.5948 74.944 30.2708 75.552 29.7828 76.168C29.3028 76.776 28.7508 77.272 28.1268 77.656L27.4428 76.876C28.2668 76.404 28.9308 75.748 29.4348 74.908C29.9468 74.068 30.2028 73.16 30.2028 72.184V71.32H27.8388V70.444H33.6108V71.32H31.2948V72.172C31.2948 73.148 31.5348 74.024 32.0148 74.8C32.5028 75.576 33.1388 76.18 33.9228 76.612ZM37.4868 74.428H35.8428V79.84H34.7868V69.352H35.8428V73.54H37.4868V74.428ZM44.3536 76.648C43.2336 76.936 41.5576 77.1 39.3256 77.14C39.1016 77.148 38.7776 77.152 38.3536 77.152V70.384H39.4096V76.24C40.1376 76.24 40.9736 76.2 41.9176 76.12C42.8696 76.04 43.6296 75.924 44.1976 75.772C44.2536 76.14 44.3056 76.432 44.3536 76.648ZM46.1296 69.352V73.456H47.7976V74.356H46.1296V79.84H45.0616V69.352H46.1296ZM61.1528 74.392H59.4728V79.84H58.4048V69.352H59.4728V73.516H61.1528V74.392ZM52.2008 76.492C51.7528 75.804 51.5288 74.908 51.5288 73.804C51.5288 72.7 51.7528 71.808 52.2008 71.128C52.6488 70.44 53.3128 70.096 54.1928 70.096C55.0728 70.096 55.7328 70.44 56.1728 71.128C56.6208 71.808 56.8448 72.704 56.8448 73.816C56.8448 74.912 56.6208 75.804 56.1728 76.492C55.7328 77.172 55.0728 77.512 54.1928 77.512C53.3128 77.512 52.6488 77.172 52.2008 76.492ZM55.8008 73.816C55.8008 72.976 55.6608 72.3 55.3808 71.788C55.1008 71.268 54.7048 71.008 54.1928 71.008C53.6808 71.008 53.2848 71.264 53.0048 71.776C52.7328 72.288 52.5968 72.968 52.5968 73.816C52.5968 74.648 52.7328 75.32 53.0048 75.832C53.2848 76.344 53.6808 76.6 54.1928 76.6C54.7048 76.6 55.1008 76.344 55.3808 75.832C55.6608 75.32 55.8008 74.648 55.8008 73.816ZM70.3116 79.84H69.2436V69.352H70.3116V79.84ZM62.0316 73.84C62.0316 72.744 62.2596 71.856 62.7156 71.176C63.1716 70.488 63.8436 70.144 64.7316 70.144C65.6196 70.144 66.2876 70.488 66.7356 71.176C67.1916 71.856 67.4196 72.748 67.4196 73.852C67.4196 74.956 67.1916 75.852 66.7356 76.54C66.2876 77.22 65.6196 77.56 64.7316 77.56C63.8436 77.56 63.1716 77.216 62.7156 76.528C62.2596 75.84 62.0316 74.944 62.0316 73.84ZM65.9436 75.88C66.2236 75.368 66.3636 74.692 66.3636 73.852C66.3636 73.012 66.2236 72.336 65.9436 71.824C65.6636 71.312 65.2596 71.056 64.7316 71.056C64.2116 71.056 63.8116 71.312 63.5316 71.824C63.2516 72.336 63.1116 73.012 63.1116 73.852C63.1116 74.692 63.2516 75.368 63.5316 75.88C63.8116 76.384 64.2116 76.636 64.7316 76.636C65.2596 76.636 65.6636 76.384 65.9436 75.88ZM81.1264 74.668L80.5504 75.508C79.7264 75.276 78.9344 74.868 78.1744 74.284C77.4224 73.7 76.9224 73.116 76.6744 72.532C76.4664 73.124 75.9824 73.712 75.2224 74.296C74.4624 74.872 73.6544 75.272 72.7984 75.496L72.2584 74.632C72.8504 74.528 73.4384 74.308 74.0224 73.972C74.6064 73.636 75.1024 73.204 75.5104 72.676C75.9264 72.148 76.1344 71.604 76.1344 71.044V70.228H77.2264V71.044C77.2264 71.596 77.4424 72.14 77.8744 72.676C78.3064 73.212 78.8144 73.652 79.3984 73.996C79.9904 74.332 80.5664 74.556 81.1264 74.668ZM81.4144 78.424H71.9464V77.56H81.4144V78.424ZM90.4772 70.468V71.968C90.4692 72.8 90.4172 73.696 90.3212 74.656C90.2252 75.608 90.1052 76.38 89.9612 76.972L88.9532 76.852C89.0892 76.196 89.2012 75.332 89.2892 74.26L83.2292 74.548L83.0732 73.672L89.3612 73.432C89.3772 73.192 89.3852 72.864 89.3852 72.448V71.332H83.3732V70.468H90.4772ZM91.7012 78.364H82.2332V77.5H91.7012V78.364ZM101.124 79.696H94.152V76.156H101.124V79.696ZM100.056 78.844V77.008H95.208V78.844H100.056ZM101.124 75.604H100.056V69.352H101.124V75.604ZM98.88 73.996L99.012 74.848C98.036 75.032 96.584 75.14 94.656 75.172C94.488 75.172 94.224 75.176 93.864 75.184C93.504 75.184 93.232 75.184 93.048 75.184V72.076H96.852V70.804H93V69.928H97.92V72.892H94.104V74.308C96.456 74.308 98.048 74.204 98.88 73.996ZM112.275 75.556H102.807V74.692H112.275V75.556ZM111.147 79.528H104.031V76.48H105.087V78.676H111.147V79.528ZM110.235 70.228C110.883 70.588 111.207 71.092 111.207 71.74C111.207 72.388 110.879 72.896 110.223 73.264C109.575 73.632 108.679 73.816 107.535 73.816C106.391 73.816 105.495 73.632 104.847 73.264C104.207 72.896 103.887 72.388 103.887 71.74C103.887 71.092 104.207 70.588 104.847 70.228C105.495 69.86 106.391 69.676 107.535 69.676C108.687 69.676 109.587 69.86 110.235 70.228ZM107.535 70.54C106.767 70.54 106.155 70.648 105.699 70.864C105.251 71.08 105.027 71.372 105.027 71.74C105.027 72.108 105.251 72.4 105.699 72.616C106.155 72.832 106.767 72.94 107.535 72.94C108.311 72.94 108.931 72.832 109.395 72.616C109.859 72.4 110.091 72.108 110.091 71.74C110.091 71.372 109.859 71.08 109.395 70.864C108.931 70.648 108.311 70.54 107.535 70.54ZM124.418 70.12C124.418 71.928 124.29 73.46 124.034 74.716H125.618V75.568H121.406V79.84H120.338V75.568H116.15V74.716H122.99C123.222 73.78 123.338 72.54 123.338 70.996H117.242V70.12H124.418ZM130.937 77.068H126.809V70.48H130.937V77.068ZM135.293 79.84H134.273V74.368H133.121V79.324H132.101V69.58H133.121V73.492H134.273V69.352H135.293V79.84ZM129.917 76.228V71.332H127.817V76.228H129.917ZM144.824 69.352V73.648H146.504V74.536H144.824V79.84H143.768V69.352H144.824ZM142.064 70.468C142.032 72.1 141.612 73.532 140.804 74.764C139.996 75.996 138.856 77.012 137.384 77.812L136.736 77.008C137.952 76.424 138.928 75.624 139.664 74.608C140.408 73.592 140.828 72.512 140.924 71.368H137.192V70.468H142.064ZM25.556 86.352V90.648H27.236V91.536H25.556V96.84H24.5V86.352H25.556ZM22.796 87.468C22.764 89.1 22.344 90.532 21.536 91.764C20.728 92.996 19.588 94.012 18.116 94.812L17.468 94.008C18.684 93.424 19.66 92.624 20.396 91.608C21.14 90.592 21.56 89.512 21.656 88.368H17.924V87.468H22.796ZM37.2108 92.04H27.7428V91.188H37.2108V92.04ZM36.1308 94.812C36.1308 95.42 35.8148 95.892 35.1828 96.228C34.5508 96.572 33.6508 96.744 32.4828 96.744C31.3148 96.744 30.4148 96.572 29.7828 96.228C29.1588 95.892 28.8468 95.42 28.8468 94.812C28.8468 94.212 29.1628 93.744 29.7948 93.408C30.4268 93.064 31.3228 92.892 32.4828 92.892C33.6508 92.892 34.5508 93.064 35.1828 93.408C35.8148 93.744 36.1308 94.212 36.1308 94.812ZM32.4828 93.756C31.6908 93.756 31.0668 93.848 30.6108 94.032C30.1628 94.216 29.9388 94.48 29.9388 94.824C29.9388 95.16 30.1628 95.424 30.6108 95.616C31.0668 95.8 31.6908 95.892 32.4828 95.892C33.2828 95.892 33.9108 95.8 34.3668 95.616C34.8228 95.424 35.0508 95.16 35.0508 94.824C35.0508 94.48 34.8228 94.216 34.3668 94.032C33.9108 93.848 33.2828 93.756 32.4828 93.756ZM36.0588 90.156H29.0388V86.628H30.0948V89.292H36.0588V90.156ZM47.7016 90.768H46.1296V94.08H45.0736V86.352H46.1296V89.868H47.7016V90.768ZM46.4896 96.528H39.4936V93.78H40.5496V95.676H46.4896V96.528ZM42.5176 87.54H39.4696V86.676H42.5176V87.54ZM44.1256 89.112H37.9696V88.26H44.1256V89.112ZM43.5376 91.488C43.5376 92.056 43.3056 92.512 42.8416 92.856C42.3776 93.192 41.7816 93.36 41.0536 93.36C40.3336 93.36 39.7416 93.192 39.2776 92.856C38.8136 92.512 38.5816 92.056 38.5816 91.488C38.5816 90.904 38.8096 90.444 39.2656 90.108C39.7296 89.772 40.3256 89.604 41.0536 89.604C41.7816 89.604 42.3776 89.772 42.8416 90.108C43.3056 90.444 43.5376 90.904 43.5376 91.488ZM42.4816 91.488C42.4816 91.168 42.3416 90.916 42.0616 90.732C41.7896 90.548 41.4536 90.456 41.0536 90.456C40.6536 90.456 40.3176 90.548 40.0456 90.732C39.7736 90.916 39.6376 91.168 39.6376 91.488C39.6376 91.792 39.7736 92.04 40.0456 92.232C40.3256 92.416 40.6616 92.508 41.0536 92.508C41.4536 92.508 41.7896 92.416 42.0616 92.232C42.3416 92.048 42.4816 91.8 42.4816 91.488ZM54.7724 93.552L54.1484 94.344C53.6124 94.032 53.0884 93.584 52.5764 93C52.0644 92.408 51.7284 91.832 51.5684 91.272C51.4164 91.888 51.0964 92.504 50.6084 93.12C50.1204 93.728 49.5644 94.216 48.9404 94.584L48.2684 93.816C49.0924 93.328 49.7564 92.672 50.2604 91.848C50.7644 91.016 51.0164 90.104 51.0164 89.112V88.272H48.6404V87.408H54.4604V88.272H52.1084V89.112C52.1084 90.088 52.3564 90.968 52.8524 91.752C53.3484 92.528 53.9884 93.128 54.7724 93.552ZM55.9004 86.352H56.9684V96.84H55.9004V86.352ZM71.3196 89.688H69.7596V91.776H68.6916V86.352H69.7596V88.812H71.3196V89.688ZM70.1316 96.768H63.0396V94.092H68.6916V93.192H63.0156V92.316H69.7596V94.896H64.1076V95.892H70.1316V96.768ZM67.6236 90.66L67.0116 91.464C66.5236 91.264 66.0556 90.972 65.6076 90.588C65.1676 90.204 64.8356 89.76 64.6116 89.256C64.4516 89.776 64.1396 90.26 63.6756 90.708C63.2196 91.156 62.6876 91.516 62.0796 91.788L61.4436 90.996C62.2036 90.692 62.8276 90.248 63.3156 89.664C63.8036 89.072 64.0476 88.384 64.0476 87.6V86.736H65.1276V87.552C65.1276 88.312 65.3796 88.968 65.8836 89.52C66.3876 90.064 66.9676 90.444 67.6236 90.66ZM78.0304 93.096L78.1264 93.936C77.2704 94.072 76.3344 94.164 75.3184 94.212C74.1424 94.276 73.0224 94.308 71.9584 94.308L71.8024 93.396H73.2664L72.9064 89.088L73.9624 88.944L74.2264 93.372C74.6904 93.356 75.0344 93.34 75.2584 93.324C75.4024 93.324 75.5104 93.32 75.5824 93.312L75.8584 88.932L76.8904 89.052L76.5184 93.264C77.0544 93.232 77.5584 93.176 78.0304 93.096ZM80.5384 96.84H79.4824V92.328H77.7664V91.476H79.4824V89.844H77.7664V88.968H79.4824V86.352H80.5384V96.84ZM77.8144 88.2H72.1144V87.348H77.8144V88.2ZM90.4892 90.228H87.4772V91.056H91.7012V91.932H82.2332V91.056H86.4092V90.228H83.4572V86.652H84.5132V87.648H89.4212V86.64H90.4892V90.228ZM90.8972 96.684H83.4212V94.248H89.4452V93.492H83.3732V92.64H90.5132V95.04H84.4892V95.808H90.8972V96.684ZM89.4212 89.376V88.488H84.5132V89.376H89.4212ZM100.752 86.352V90.66H102.312V91.548H100.752V96.84H99.696V86.352H100.752ZM95.544 87.48C95.544 90.32 94.68 92.652 92.952 94.476L92.136 93.852C92.864 93.188 93.436 92.348 93.852 91.332C94.276 90.308 94.496 89.32 94.512 88.368H92.724V87.48H95.544ZM98.412 87.48C98.404 89.104 98.22 90.516 97.86 91.716C97.5 92.908 96.868 94.044 95.964 95.124L95.1 94.524C95.868 93.748 96.44 92.792 96.816 91.656C97.2 90.52 97.392 89.424 97.392 88.368H95.952V87.48H98.412ZM110.367 87.804C111.087 88.3 111.447 88.956 111.447 89.772C111.447 90.588 111.087 91.244 110.367 91.74C109.655 92.236 108.711 92.484 107.535 92.484C106.367 92.484 105.423 92.236 104.703 91.74C103.991 91.244 103.635 90.588 103.635 89.772C103.635 88.956 103.991 88.3 104.703 87.804C105.423 87.3 106.367 87.048 107.535 87.048C108.711 87.048 109.655 87.3 110.367 87.804ZM110.355 89.772C110.355 89.22 110.095 88.776 109.575 88.44C109.063 88.096 108.383 87.924 107.535 87.924C106.687 87.924 106.007 88.096 105.495 88.44C104.983 88.776 104.727 89.22 104.727 89.772C104.727 90.316 104.983 90.76 105.495 91.104C106.015 91.44 106.695 91.608 107.535 91.608C108.383 91.608 109.063 91.44 109.575 91.104C110.095 90.76 110.355 90.316 110.355 89.772ZM112.275 95.508H102.807V94.644H105.075V92.784L106.143 92.748V94.644H108.915V92.748L109.971 92.784V94.644H112.275V95.508ZM114.414 93.816V92.808C114.414 92.544 114.466 92.308 114.57 92.1C114.682 91.884 114.798 91.716 114.918 91.596C115.046 91.476 115.278 91.28 115.614 91.008C115.862 90.808 116.058 90.548 116.202 90.228C116.346 89.908 116.418 89.576 116.418 89.232C116.418 88.832 116.282 88.536 116.01 88.344C115.738 88.144 115.37 88.044 114.906 88.044C114.426 88.044 113.894 88.144 113.31 88.344L113.202 87.528C113.746 87.288 114.398 87.168 115.158 87.168C115.83 87.168 116.39 87.34 116.838 87.684C117.294 88.028 117.522 88.536 117.522 89.208C117.522 89.696 117.418 90.128 117.21 90.504C117.01 90.88 116.686 91.252 116.238 91.62C115.846 91.948 115.606 92.18 115.518 92.316C115.414 92.484 115.362 92.672 115.362 92.88V93.816H114.414ZM114.318 95.784V94.608H115.482V95.784H114.318Z" fill="#484C52"/>
</svg>
