<svg width="358" height="130" viewBox="0 0 358 130" fill="none" xmlns="http://www.w3.org/2000/svg">
<rect width="358" height="130" rx="12" fill="#80EEAF"/>
<path d="M30.14 34.206H19.358V27.582H21.194V29.454H28.304V27.546H30.14V34.206ZM30.104 19.014C30.104 21.21 29.942 23.106 29.618 24.702H31.994V26.196H17.504V24.702H27.836C28.112 23.454 28.25 22.05 28.25 20.49H19.394V19.014H30.104ZM28.304 32.73V30.894H21.194V32.73H28.304ZM46.3262 27.762H44.4722V18.402H46.3262V27.762ZM35.5262 28.608H46.3442V34.44H44.4902V30.066H35.5262V28.608ZM42.8162 25.404L41.7362 26.826C41.0282 26.538 40.3202 26.082 39.6122 25.458C38.9042 24.822 38.3882 24.144 38.0642 23.424C37.8242 24.216 37.3502 24.966 36.6422 25.674C35.9342 26.37 35.1482 26.898 34.2842 27.258L33.1502 25.8C34.3382 25.332 35.2922 24.636 36.0122 23.712C36.7322 22.776 37.0922 21.702 37.0922 20.49V19.05H38.9822V20.418C38.9822 21.594 39.3662 22.638 40.1342 23.55C40.9022 24.45 41.7962 25.068 42.8162 25.404ZM56.8064 20.058C56.7944 25.29 54.4244 29.148 49.6964 31.632L48.5084 30.3C51.0044 29.16 52.7924 27.498 53.8724 25.314L49.1744 25.818L48.8864 24.216L54.4844 23.802C54.7004 23.022 54.8324 22.272 54.8804 21.552H49.6964V20.058H56.8064ZM61.1444 18.384V24.648H63.6284V26.178H61.1444V34.422H59.2904V18.384H61.1444ZM78.7527 30.822V32.28H64.2627V30.822H78.7527ZM77.0607 27.186H66.1167V19.824H76.8987V21.282H67.9707V25.71H77.0607V27.186ZM92.9229 28.23H87.9729V30.912H94.3269V32.388H79.8369V30.912H86.1369V28.23H81.6909V23.046H90.6189V20.976H81.6369V19.5H92.4549V24.54H83.5449V26.736H92.9229V28.23ZM114.972 24.594H112.596V30.102H110.742V18.384H112.596V23.046H114.972V24.594ZM108.114 19.626C108.078 21.774 107.388 23.592 106.044 25.08C104.7 26.568 102.978 27.6 100.878 28.176L99.9596 26.7C101.484 26.376 102.828 25.716 103.992 24.72C105.168 23.724 105.87 22.542 106.098 21.174H100.752V19.626H108.114ZM113.028 33.954H102.39V28.878H104.244V32.478H113.028V33.954ZM128.926 27.762H127.072V18.402H128.926V27.762ZM118.126 28.608H128.944V34.44H127.09V30.066H118.126V28.608ZM125.416 25.404L124.336 26.826C123.628 26.538 122.92 26.082 122.212 25.458C121.504 24.822 120.988 24.144 120.664 23.424C120.424 24.216 119.95 24.966 119.242 25.674C118.534 26.37 117.748 26.898 116.884 27.258L115.75 25.8C116.938 25.332 117.892 24.636 118.612 23.712C119.332 22.776 119.692 21.702 119.692 20.49V19.05H121.582V20.418C121.582 21.594 121.966 22.638 122.734 23.55C123.502 24.45 124.396 25.068 125.416 25.404ZM145.778 26.628H131.288V25.152H145.778V26.628ZM144.446 34.314H133.142V30.354H141.998V29.238H133.052V27.78H143.852V31.704H134.978V32.856H144.446V34.314ZM138.56 18.474C140.312 18.474 141.68 18.738 142.664 19.266C143.648 19.782 144.14 20.472 144.14 21.336C144.14 22.2 143.648 22.89 142.664 23.406C141.68 23.922 140.312 24.18 138.56 24.18C136.82 24.18 135.458 23.922 134.474 23.406C133.502 22.89 133.016 22.2 133.016 21.336C133.016 20.472 133.502 19.782 134.474 19.266C135.458 18.738 136.82 18.474 138.56 18.474ZM141.26 20.292C140.612 20.028 139.712 19.896 138.56 19.896C137.408 19.896 136.508 20.028 135.86 20.292C135.212 20.544 134.888 20.892 134.888 21.336C134.888 21.768 135.212 22.11 135.86 22.362C136.508 22.614 137.408 22.74 138.56 22.74C139.712 22.74 140.612 22.614 141.26 22.362C141.92 22.11 142.25 21.768 142.25 21.336C142.25 20.892 141.92 20.544 141.26 20.292ZM32.354 48.262H29.996V51.52H28.142V43.384H29.996V46.768H32.354V48.262ZM30.536 59.296H19.682V55.12H28.142V53.86H19.61V52.366H29.996V56.488H21.518V57.838H30.536V59.296ZM26.828 49.918L25.802 51.304C25.07 51.016 24.356 50.578 23.66 49.99C22.964 49.39 22.448 48.718 22.112 47.974C21.884 48.778 21.41 49.516 20.69 50.188C19.97 50.86 19.172 51.37 18.296 51.718L17.216 50.332C18.38 49.9 19.322 49.234 20.042 48.334C20.762 47.434 21.122 46.384 21.122 45.184V43.906H23.03V45.112C23.03 46.276 23.408 47.29 24.164 48.154C24.932 49.018 25.82 49.606 26.828 49.918ZM45.9787 59.44H44.1427V53.608H37.8427V52.15H52.3327V53.608H45.9787V59.44ZM51.7207 49.072L50.8747 50.566C49.6627 50.362 48.4927 49.906 47.3647 49.198C46.2487 48.49 45.4927 47.698 45.0967 46.822C44.7607 47.686 44.0347 48.472 42.9187 49.18C41.8027 49.888 40.6147 50.356 39.3547 50.584L38.5447 49.072C40.0207 48.904 41.3227 48.388 42.4507 47.524C43.5787 46.66 44.1427 45.67 44.1427 44.554V43.744H46.0867V44.554C46.0867 45.286 46.3747 45.994 46.9507 46.678C47.5387 47.35 48.2587 47.896 49.1107 48.316C49.9747 48.736 50.8447 48.988 51.7207 49.072ZM69.4855 43.384H71.3395V52.348H69.4855V43.384ZM65.5795 45.346C66.3835 46.066 66.7855 46.978 66.7855 48.082C66.7855 49.186 66.3895 50.08 65.5975 50.764C64.8175 51.436 63.8395 51.772 62.6635 51.772C61.4995 51.772 60.5215 51.436 59.7295 50.764C58.9375 50.08 58.5415 49.186 58.5415 48.082C58.5415 46.99 58.9375 46.084 59.7295 45.364C60.5335 44.632 61.5115 44.266 62.6635 44.266C63.8155 44.266 64.7875 44.626 65.5795 45.346ZM64.9855 48.064C64.9855 47.416 64.7695 46.876 64.3375 46.444C63.9175 46 63.3595 45.778 62.6635 45.778C61.9795 45.778 61.4215 46 60.9895 46.444C60.5575 46.888 60.3415 47.428 60.3415 48.064C60.3415 48.736 60.5575 49.288 60.9895 49.72C61.4215 50.152 61.9795 50.368 62.6635 50.368C63.3475 50.368 63.9055 50.152 64.3375 49.72C64.7695 49.276 64.9855 48.724 64.9855 48.064ZM72.8875 58.036L71.8795 59.368C71.3155 59.116 70.7395 58.708 70.1515 58.144C69.5755 57.592 69.1915 57.034 68.9995 56.47C68.8435 57.046 68.4715 57.634 67.8835 58.234C67.2955 58.846 66.6775 59.314 66.0295 59.638L64.9855 58.396C65.9335 57.964 66.6835 57.352 67.2355 56.56C67.7995 55.768 68.0815 54.868 68.0815 53.86V53.122H69.8635V53.842C69.8635 54.826 70.1395 55.69 70.6915 56.434C71.2435 57.178 71.9755 57.712 72.8875 58.036ZM64.8055 58.054C64.4815 57.886 64.1575 57.652 63.8335 57.352C63.5095 57.04 63.2695 56.722 63.1135 56.398C62.9215 57.034 62.5375 57.634 61.9615 58.198C61.3975 58.762 60.7435 59.206 59.9995 59.53L58.9915 58.288C59.8915 57.904 60.6415 57.334 61.2415 56.578C61.8415 55.81 62.1415 54.94 62.1415 53.968V53.212H63.9415V53.878C63.9415 54.622 64.1515 55.246 64.5715 55.75C64.9915 56.254 65.4655 56.59 65.9935 56.758L64.8055 58.054ZM88.2097 51.628H73.7197V50.152H88.2097V51.628ZM86.8777 59.314H75.5737V55.354H84.4297V54.238H75.4837V52.78H86.2837V56.704H77.4097V57.856H86.8777V59.314ZM80.9917 43.474C82.7437 43.474 84.1117 43.738 85.0957 44.266C86.0797 44.782 86.5717 45.472 86.5717 46.336C86.5717 47.2 86.0797 47.89 85.0957 48.406C84.1117 48.922 82.7437 49.18 80.9917 49.18C79.2517 49.18 77.8897 48.922 76.9057 48.406C75.9337 47.89 75.4477 47.2 75.4477 46.336C75.4477 45.472 75.9337 44.782 76.9057 44.266C77.8897 43.738 79.2517 43.474 80.9917 43.474ZM83.6917 45.292C83.0437 45.028 82.1437 44.896 80.9917 44.896C79.8397 44.896 78.9397 45.028 78.2917 45.292C77.6437 45.544 77.3197 45.892 77.3197 46.336C77.3197 46.768 77.6437 47.11 78.2917 47.362C78.9397 47.614 79.8397 47.74 80.9917 47.74C82.1437 47.74 83.0437 47.614 83.6917 47.362C84.3517 47.11 84.6817 46.768 84.6817 46.336C84.6817 45.892 84.3517 45.544 83.6917 45.292ZM101.858 43.384V49.846H104.234V51.376H101.858V59.422H100.094V43.384H101.858ZM94.0999 45.094C94.0999 47.446 93.7819 49.48 93.1459 51.196C92.5219 52.912 91.5499 54.466 90.2299 55.858L88.8079 54.886C89.9119 53.866 90.7759 52.6 91.3999 51.088C92.0239 49.576 92.3419 48.076 92.3539 46.588H89.7979V45.094H94.0999ZM98.5099 45.094C98.5099 47.746 98.2399 49.954 97.6999 51.718C97.1719 53.47 96.2119 55.168 94.8199 56.812L93.3439 55.858C94.5079 54.658 95.3719 53.254 95.9359 51.646C96.4999 50.026 96.7819 48.34 96.7819 46.588H94.7839V45.094H98.5099ZM106.722 53.68V52.816C106.722 52.252 106.848 51.802 107.1 51.466C107.364 51.13 107.85 50.68 108.558 50.116C109.266 49.528 109.62 48.724 109.62 47.704C109.62 46.588 108.912 46.03 107.496 46.03C106.8 46.03 106.002 46.18 105.102 46.48V45.094C105.906 44.734 106.86 44.554 107.964 44.554C109.02 44.554 109.878 44.806 110.538 45.31C111.21 45.802 111.546 46.57 111.546 47.614C111.546 48.358 111.408 48.982 111.132 49.486C110.868 49.978 110.4 50.506 109.728 51.07C109.368 51.346 109.11 51.556 108.954 51.7C108.81 51.832 108.678 52.006 108.558 52.222C108.438 52.438 108.378 52.684 108.378 52.96V53.68H106.722ZM106.578 57.442V55.498H108.558V57.442H106.578Z" fill="#121212"/>
<path d="M27.224 76.62H25.616V81.84H24.56V71.352H25.616V75.744H27.224V76.62ZM23.996 79.272C23.164 79.392 21.96 79.496 20.384 79.584C19.328 79.632 18.324 79.656 17.372 79.656L17.216 78.768C18.208 78.768 18.96 78.76 19.472 78.744V75.42H20.504V78.708C22.016 78.636 23.136 78.548 23.864 78.444L23.996 79.272ZM23.312 72.408C23.312 74.616 23.196 76.22 22.964 77.22L21.944 77.088C22.144 76.208 22.244 74.936 22.244 73.272H17.84V72.408H23.312ZM33.9228 78.612L33.2988 79.392C32.7708 79.088 32.2548 78.644 31.7508 78.06C31.2468 77.476 30.9148 76.904 30.7548 76.344C30.5948 76.944 30.2708 77.552 29.7828 78.168C29.3028 78.776 28.7508 79.272 28.1268 79.656L27.4428 78.876C28.2668 78.404 28.9308 77.748 29.4348 76.908C29.9468 76.068 30.2028 75.16 30.2028 74.184V73.32H27.8388V72.444H33.6108V73.32H31.2948V74.172C31.2948 75.148 31.5348 76.024 32.0148 76.8C32.5028 77.576 33.1388 78.18 33.9228 78.612ZM37.4868 76.428H35.8428V81.84H34.7868V71.352H35.8428V75.54H37.4868V76.428ZM44.3536 78.648C43.2336 78.936 41.5576 79.1 39.3256 79.14C39.1016 79.148 38.7776 79.152 38.3536 79.152V72.384H39.4096V78.24C40.1376 78.24 40.9736 78.2 41.9176 78.12C42.8696 78.04 43.6296 77.924 44.1976 77.772C44.2536 78.14 44.3056 78.432 44.3536 78.648ZM46.1296 71.352V75.456H47.7976V76.356H46.1296V81.84H45.0616V71.352H46.1296ZM61.1528 76.392H59.4728V81.84H58.4048V71.352H59.4728V75.516H61.1528V76.392ZM52.2008 78.492C51.7528 77.804 51.5288 76.908 51.5288 75.804C51.5288 74.7 51.7528 73.808 52.2008 73.128C52.6488 72.44 53.3128 72.096 54.1928 72.096C55.0728 72.096 55.7328 72.44 56.1728 73.128C56.6208 73.808 56.8448 74.704 56.8448 75.816C56.8448 76.912 56.6208 77.804 56.1728 78.492C55.7328 79.172 55.0728 79.512 54.1928 79.512C53.3128 79.512 52.6488 79.172 52.2008 78.492ZM55.8008 75.816C55.8008 74.976 55.6608 74.3 55.3808 73.788C55.1008 73.268 54.7048 73.008 54.1928 73.008C53.6808 73.008 53.2848 73.264 53.0048 73.776C52.7328 74.288 52.5968 74.968 52.5968 75.816C52.5968 76.648 52.7328 77.32 53.0048 77.832C53.2848 78.344 53.6808 78.6 54.1928 78.6C54.7048 78.6 55.1008 78.344 55.3808 77.832C55.6608 77.32 55.8008 76.648 55.8008 75.816ZM70.3116 81.84H69.2436V71.352H70.3116V81.84ZM62.0316 75.84C62.0316 74.744 62.2596 73.856 62.7156 73.176C63.1716 72.488 63.8436 72.144 64.7316 72.144C65.6196 72.144 66.2876 72.488 66.7356 73.176C67.1916 73.856 67.4196 74.748 67.4196 75.852C67.4196 76.956 67.1916 77.852 66.7356 78.54C66.2876 79.22 65.6196 79.56 64.7316 79.56C63.8436 79.56 63.1716 79.216 62.7156 78.528C62.2596 77.84 62.0316 76.944 62.0316 75.84ZM65.9436 77.88C66.2236 77.368 66.3636 76.692 66.3636 75.852C66.3636 75.012 66.2236 74.336 65.9436 73.824C65.6636 73.312 65.2596 73.056 64.7316 73.056C64.2116 73.056 63.8116 73.312 63.5316 73.824C63.2516 74.336 63.1116 75.012 63.1116 75.852C63.1116 76.692 63.2516 77.368 63.5316 77.88C63.8116 78.384 64.2116 78.636 64.7316 78.636C65.2596 78.636 65.6636 78.384 65.9436 77.88ZM81.1264 76.668L80.5504 77.508C79.7264 77.276 78.9344 76.868 78.1744 76.284C77.4224 75.7 76.9224 75.116 76.6744 74.532C76.4664 75.124 75.9824 75.712 75.2224 76.296C74.4624 76.872 73.6544 77.272 72.7984 77.496L72.2584 76.632C72.8504 76.528 73.4384 76.308 74.0224 75.972C74.6064 75.636 75.1024 75.204 75.5104 74.676C75.9264 74.148 76.1344 73.604 76.1344 73.044V72.228H77.2264V73.044C77.2264 73.596 77.4424 74.14 77.8744 74.676C78.3064 75.212 78.8144 75.652 79.3984 75.996C79.9904 76.332 80.5664 76.556 81.1264 76.668ZM81.4144 80.424H71.9464V79.56H81.4144V80.424ZM90.4772 72.468V73.968C90.4692 74.8 90.4172 75.696 90.3212 76.656C90.2252 77.608 90.1052 78.38 89.9612 78.972L88.9532 78.852C89.0892 78.196 89.2012 77.332 89.2892 76.26L83.2292 76.548L83.0732 75.672L89.3612 75.432C89.3772 75.192 89.3852 74.864 89.3852 74.448V73.332H83.3732V72.468H90.4772ZM91.7012 80.364H82.2332V79.5H91.7012V80.364ZM101.124 81.696H94.152V78.156H101.124V81.696ZM100.056 80.844V79.008H95.208V80.844H100.056ZM101.124 77.604H100.056V71.352H101.124V77.604ZM98.88 75.996L99.012 76.848C98.036 77.032 96.584 77.14 94.656 77.172C94.488 77.172 94.224 77.176 93.864 77.184C93.504 77.184 93.232 77.184 93.048 77.184V74.076H96.852V72.804H93V71.928H97.92V74.892H94.104V76.308C96.456 76.308 98.048 76.204 98.88 75.996ZM112.275 77.556H102.807V76.692H112.275V77.556ZM111.147 81.528H104.031V78.48H105.087V80.676H111.147V81.528ZM110.235 72.228C110.883 72.588 111.207 73.092 111.207 73.74C111.207 74.388 110.879 74.896 110.223 75.264C109.575 75.632 108.679 75.816 107.535 75.816C106.391 75.816 105.495 75.632 104.847 75.264C104.207 74.896 103.887 74.388 103.887 73.74C103.887 73.092 104.207 72.588 104.847 72.228C105.495 71.86 106.391 71.676 107.535 71.676C108.687 71.676 109.587 71.86 110.235 72.228ZM107.535 72.54C106.767 72.54 106.155 72.648 105.699 72.864C105.251 73.08 105.027 73.372 105.027 73.74C105.027 74.108 105.251 74.4 105.699 74.616C106.155 74.832 106.767 74.94 107.535 74.94C108.311 74.94 108.931 74.832 109.395 74.616C109.859 74.4 110.091 74.108 110.091 73.74C110.091 73.372 109.859 73.08 109.395 72.864C108.931 72.648 108.311 72.54 107.535 72.54ZM124.418 72.12C124.418 73.928 124.29 75.46 124.034 76.716H125.618V77.568H121.406V81.84H120.338V77.568H116.15V76.716H122.99C123.222 75.78 123.338 74.54 123.338 72.996H117.242V72.12H124.418ZM130.937 79.068H126.809V72.48H130.937V79.068ZM135.293 81.84H134.273V76.368H133.121V81.324H132.101V71.58H133.121V75.492H134.273V71.352H135.293V81.84ZM129.917 78.228V73.332H127.817V78.228H129.917ZM144.824 71.352V75.648H146.504V76.536H144.824V81.84H143.768V71.352H144.824ZM142.064 72.468C142.032 74.1 141.612 75.532 140.804 76.764C139.996 77.996 138.856 79.012 137.384 79.812L136.736 79.008C137.952 78.424 138.928 77.624 139.664 76.608C140.408 75.592 140.828 74.512 140.924 73.368H137.192V72.468H142.064ZM158.167 71.352V75.648H159.847V76.536H158.167V81.84H157.111V71.352H158.167ZM155.407 72.468C155.375 74.1 154.955 75.532 154.147 76.764C153.339 77.996 152.199 79.012 150.727 79.812L150.079 79.008C151.295 78.424 152.271 77.624 153.007 76.608C153.751 75.592 154.171 74.512 154.267 73.368H150.535V72.468H155.407ZM169.822 77.04H160.354V76.188H169.822V77.04ZM168.742 79.812C168.742 80.42 168.426 80.892 167.794 81.228C167.162 81.572 166.262 81.744 165.094 81.744C163.926 81.744 163.026 81.572 162.394 81.228C161.77 80.892 161.458 80.42 161.458 79.812C161.458 79.212 161.774 78.744 162.406 78.408C163.038 78.064 163.934 77.892 165.094 77.892C166.262 77.892 167.162 78.064 167.794 78.408C168.426 78.744 168.742 79.212 168.742 79.812ZM165.094 78.756C164.302 78.756 163.678 78.848 163.222 79.032C162.774 79.216 162.55 79.48 162.55 79.824C162.55 80.16 162.774 80.424 163.222 80.616C163.678 80.8 164.302 80.892 165.094 80.892C165.894 80.892 166.522 80.8 166.978 80.616C167.434 80.424 167.662 80.16 167.662 79.824C167.662 79.48 167.434 79.216 166.978 79.032C166.522 78.848 165.894 78.756 165.094 78.756ZM168.67 75.156H161.65V71.628H162.706V74.292H168.67V75.156ZM180.312 75.768H178.74V79.08H177.684V71.352H178.74V74.868H180.312V75.768ZM179.1 81.528H172.104V78.78H173.16V80.676H179.1V81.528ZM175.128 72.54H172.08V71.676H175.128V72.54ZM176.736 74.112H170.58V73.26H176.736V74.112ZM176.148 76.488C176.148 77.056 175.916 77.512 175.452 77.856C174.988 78.192 174.392 78.36 173.664 78.36C172.944 78.36 172.352 78.192 171.888 77.856C171.424 77.512 171.192 77.056 171.192 76.488C171.192 75.904 171.42 75.444 171.876 75.108C172.34 74.772 172.936 74.604 173.664 74.604C174.392 74.604 174.988 74.772 175.452 75.108C175.916 75.444 176.148 75.904 176.148 76.488ZM175.092 76.488C175.092 76.168 174.952 75.916 174.672 75.732C174.4 75.548 174.064 75.456 173.664 75.456C173.264 75.456 172.928 75.548 172.656 75.732C172.384 75.916 172.248 76.168 172.248 76.488C172.248 76.792 172.384 77.04 172.656 77.232C172.936 77.416 173.272 77.508 173.664 77.508C174.064 77.508 174.4 77.416 174.672 77.232C174.952 77.048 175.092 76.8 175.092 76.488ZM187.383 78.552L186.759 79.344C186.223 79.032 185.699 78.584 185.187 78C184.675 77.408 184.339 76.832 184.179 76.272C184.027 76.888 183.707 77.504 183.219 78.12C182.731 78.728 182.175 79.216 181.551 79.584L180.879 78.816C181.703 78.328 182.367 77.672 182.871 76.848C183.375 76.016 183.627 75.104 183.627 74.112V73.272H181.251V72.408H187.071V73.272H184.719V74.112C184.719 75.088 184.967 75.968 185.463 76.752C185.959 77.528 186.599 78.128 187.383 78.552ZM188.511 71.352H189.579V81.84H188.511V71.352ZM23.984 94.952C23.088 95.08 21.98 95.176 20.66 95.24C19.076 95.32 17.984 95.36 17.384 95.36L17.228 94.484C18.044 94.484 19.004 94.464 20.108 94.424V93.764C19.548 93.708 19.096 93.564 18.752 93.332C18.416 93.092 18.248 92.776 18.248 92.384C18.248 91.92 18.472 91.564 18.92 91.316C19.376 91.06 19.956 90.932 20.66 90.932C21.364 90.932 21.944 91.06 22.4 91.316C22.856 91.564 23.084 91.916 23.084 92.372C23.084 92.764 22.908 93.08 22.556 93.32C22.204 93.56 21.744 93.708 21.176 93.764V94.364C22.488 94.3 23.388 94.224 23.876 94.136L23.984 94.952ZM27.164 92.66H25.604V95.348H24.56V88.352H25.604V91.784H27.164V92.66ZM18.668 95.888H25.604V98.888H24.56V96.752H18.668V95.888ZM23.648 90.656H17.612V89.828H23.648V90.656ZM22.052 92.372C22.052 92.164 21.924 92.004 21.668 91.892C21.412 91.78 21.076 91.724 20.66 91.724C20.244 91.724 19.908 91.78 19.652 91.892C19.404 92.004 19.28 92.164 19.28 92.372C19.28 92.572 19.408 92.732 19.664 92.852C19.92 92.964 20.252 93.02 20.66 93.02C21.068 93.02 21.4 92.964 21.656 92.852C21.92 92.732 22.052 92.572 22.052 92.372ZM22.1 89.312H19.172V88.484H22.1V89.312ZM36.3468 95.972H35.2788V88.352H36.3468V95.972ZM36.5868 98.516H29.4468V95.252H30.5148V97.664H36.5868V98.516ZM28.7748 89.816C29.3028 89.312 29.9708 89.06 30.7788 89.06C31.5868 89.06 32.2548 89.308 32.7828 89.804C33.3188 90.3 33.5868 90.924 33.5868 91.676C33.5868 92.428 33.3228 93.044 32.7948 93.524C32.2668 93.996 31.5948 94.232 30.7788 94.232C29.9708 94.232 29.3028 93.996 28.7748 93.524C28.2468 93.044 27.9828 92.432 27.9828 91.688C27.9828 90.936 28.2468 90.312 28.7748 89.816ZM30.7788 89.972C30.2908 89.972 29.8868 90.132 29.5668 90.452C29.2548 90.772 29.0988 91.176 29.0988 91.664C29.0988 92.144 29.2548 92.544 29.5668 92.864C29.8868 93.184 30.2908 93.344 30.7788 93.344C31.2908 93.344 31.6988 93.188 32.0028 92.876C32.3068 92.564 32.4588 92.164 32.4588 91.676C32.4588 91.172 32.3068 90.764 32.0028 90.452C31.6988 90.132 31.2908 89.972 30.7788 89.972ZM46.8856 98.84H45.8656V93.56H44.7856V98.324H43.7656V88.58H44.7856V92.684H45.8656V88.352H46.8856V98.84ZM43.0336 94.34C43.0336 94.972 42.8216 95.476 42.3976 95.852C41.9736 96.22 41.4176 96.404 40.7296 96.404C40.0496 96.404 39.4936 96.212 39.0616 95.828C38.6296 95.436 38.4136 94.94 38.4136 94.34C38.4136 93.716 38.6256 93.22 39.0496 92.852C39.4816 92.476 40.0416 92.288 40.7296 92.288C41.4176 92.288 41.9736 92.476 42.3976 92.852C42.8216 93.22 43.0336 93.716 43.0336 94.34ZM41.6416 95.204C41.8896 94.972 42.0136 94.684 42.0136 94.34C42.0136 93.996 41.8896 93.712 41.6416 93.488C41.4016 93.264 41.0976 93.152 40.7296 93.152C40.3536 93.152 40.0416 93.268 39.7936 93.5C39.5536 93.724 39.4336 94.004 39.4336 94.34C39.4336 94.692 39.5536 94.984 39.7936 95.216C40.0336 95.44 40.3456 95.552 40.7296 95.552C41.0976 95.552 41.4016 95.436 41.6416 95.204ZM43.2496 91.808H38.0536V90.932H43.2496V91.808ZM42.0376 90.008H39.2176V89.144H42.0376V90.008ZM54.8564 96.416C54.2004 96.512 52.9964 96.612 51.2444 96.716C50.1884 96.772 49.2004 96.8 48.2804 96.8L48.1124 95.912C49.3124 95.912 50.2524 95.896 50.9324 95.864V93.968H48.8204V89.192H49.8764V90.788H53.1044V89.18H54.1604V93.968H51.9884V95.816C53.2844 95.736 54.2044 95.656 54.7484 95.576L54.8564 96.416ZM58.0844 93.692H56.4644V98.84H55.4204V88.352H56.4644V92.804H58.0844V93.692ZM53.1044 93.116V91.652H49.8764V93.116H53.1044ZM66.1633 89.804C66.8833 90.3 67.2433 90.956 67.2433 91.772C67.2433 92.588 66.8833 93.244 66.1633 93.74C65.4513 94.236 64.5073 94.484 63.3313 94.484C62.1633 94.484 61.2193 94.236 60.4993 93.74C59.7873 93.244 59.4313 92.588 59.4313 91.772C59.4313 90.956 59.7873 90.3 60.4993 89.804C61.2193 89.3 62.1633 89.048 63.3313 89.048C64.5073 89.048 65.4513 89.3 66.1633 89.804ZM66.1513 91.772C66.1513 91.22 65.8913 90.776 65.3713 90.44C64.8593 90.096 64.1793 89.924 63.3313 89.924C62.4833 89.924 61.8033 90.096 61.2913 90.44C60.7793 90.776 60.5233 91.22 60.5233 91.772C60.5233 92.316 60.7793 92.76 61.2913 93.104C61.8113 93.44 62.4913 93.608 63.3313 93.608C64.1793 93.608 64.8593 93.44 65.3713 93.104C65.8913 92.76 66.1513 92.316 66.1513 91.772ZM68.0713 97.508H58.6033V96.644H60.8713V94.784L61.9393 94.748V96.644H64.7113V94.748L65.7673 94.784V96.644H68.0713V97.508ZM69.5981 95.588L69.4661 89.048H70.6301L70.4981 95.588H69.5981ZM69.4781 97.7V96.536H70.6421V97.7H69.4781Z" fill="#484C52"/>
<g clip-path="url(#clip0_1802_2034)">
<mask id="mask0_1802_2034" style="mask-type:luminance" maskUnits="userSpaceOnUse" x="228" y="25" width="114" height="134">
<path d="M341.07 25H228V158.5H341.07V25Z" fill="white"/>
</mask>
<g mask="url(#mask0_1802_2034)">
<path d="M290.58 28.2401L295.89 36.2401C298.65 40.4001 303.65 42.4701 308.54 41.4801L317.95 39.5801C323.04 38.5501 327.53 43.0401 326.5 48.1301L324.6 57.5401C323.61 62.4301 325.68 67.4301 329.84 70.1901L337.84 75.5001C342.17 78.3701 342.17 84.7201 337.84 87.5901L329.84 92.9001C325.68 95.6601 323.61 100.66 324.6 105.55L326.5 114.96C327.53 120.05 323.04 124.54 317.95 123.51L308.54 121.61C303.65 120.62 298.65 122.69 295.89 126.85L290.58 134.85C287.71 139.18 281.36 139.18 278.49 134.85L273.18 126.85C270.42 122.69 265.42 120.62 260.53 121.61L251.12 123.51C246.03 124.54 241.54 120.05 242.57 114.96L244.47 105.55C245.46 100.66 243.39 95.6601 239.23 92.9001L231.23 87.5901C226.9 84.7201 226.9 78.3701 231.23 75.5001L239.23 70.1901C243.39 67.4301 245.46 62.4301 244.47 57.5401L242.57 48.1301C241.54 43.0401 246.03 38.5501 251.12 39.5801L260.53 41.4801C265.42 42.4701 270.42 40.4001 273.18 36.2401L278.49 28.2401C281.36 23.9101 287.71 23.9101 290.58 28.2401Z" fill="#F55F61"/>
<path d="M311.38 128.88L298.21 121.75C296.03 119.03 292.51 116.97 286.33 116.77C286.18 116.77 286.02 116.77 285.87 116.77C285.72 116.77 285.56 116.77 285.41 116.77C285.21 116.77 285.01 116.77 284.82 116.77C284.63 116.77 284.43 116.77 284.23 116.77C284.08 116.77 283.92 116.77 283.77 116.77C283.62 116.77 283.46 116.76 283.31 116.77C277.11 116.97 272.64 117.98 270.87 121.04L259.49 129.97C258.69 129.71 258.44 130.09 258.51 130.47L259.51 135.68C259.58 136.06 259.96 136.31 260.34 136.24L268.41 129.91C267.98 129.57 267.42 131.28 267.13 132.16C266.21 134.92 265.04 142.03 272.45 145.46C273 145.73 273.62 145.97 274.32 146.18C274.99 146.39 275.72 146.58 276.5 146.74V154.07H283.85V147.36C283.98 147.36 284.12 147.36 284.25 147.36C284.45 147.36 284.65 147.36 284.84 147.36C285.04 147.36 285.23 147.36 285.43 147.36C285.59 147.36 285.74 147.36 285.89 147.36C285.91 147.36 285.94 147.36 285.96 147.36V154.07H293.31V146.71C294.04 146.55 294.73 146.38 295.36 146.17C296.06 145.96 296.68 145.72 297.23 145.45C304.64 142.02 303.46 134.92 302.55 132.15C302.25 131.26 302.01 131.05 301.86 130.8L310.15 135.47L311.42 128.87L311.38 128.88Z" fill="#FFDB00"/>
<path d="M284.46 120.83C304.232 120.83 320.26 104.802 320.26 85.03C320.26 65.2582 304.232 49.23 284.46 49.23C264.688 49.23 248.66 65.2582 248.66 85.03C248.66 104.802 264.688 120.83 284.46 120.83Z" fill="#FFDB00"/>
<path d="M286.35 92.6C286 92.48 285.58 92.4 285.15 92.39C284.71 92.4 284.3 92.48 283.95 92.6C283.56 92.74 282.58 93.29 282.58 93.96C282.58 94.72 283.35 95.34 284.29 95.34C284.44 95.34 284.56 95.3 284.68 95.26C284.98 95.15 285.32 95.15 285.62 95.26C285.74 95.3 285.86 95.34 286.01 95.34C286.95 95.34 287.72 94.72 287.72 93.96C287.72 93.29 286.74 92.75 286.35 92.6Z" fill="#F55F61"/>
<path d="M279.86 84.31V88C279.86 92.02 276.62 95.28 272.63 95.28H267.22C263.22 95.28 259.99 92.01 259.98 87.99C259.98 82.04 262.81 77.15 268.06 76.03C268.12 76.02 268.19 76.01 268.25 76C272.63 75.4 275.1 76.8 277.39 78.84C278.95 80.23 279.85 82.22 279.85 84.31H279.86Z" fill="white"/>
<path d="M279.3 88.66L279.28 89.9C279.23 92.7 276.92 94.92 274.12 94.87L272.23 94.83C269.23 94.77 266.91 92.14 267.29 89.17C267.67 86.2 269.4 83.77 272.24 83.23C272.28 83.23 272.32 83.22 272.36 83.21C274.86 82.92 276.31 83.67 277.61 84.8C278.72 85.77 279.32 87.2 279.29 88.67L279.3 88.66Z" fill="#241004"/>
<path d="M275.53 89.5C276.248 89.5 276.83 88.918 276.83 88.2C276.83 87.4821 276.248 86.9 275.53 86.9C274.812 86.9 274.23 87.4821 274.23 88.2C274.23 88.918 274.812 89.5 275.53 89.5Z" fill="white"/>
<path d="M293.41 89.5C294.128 89.5 294.71 88.918 294.71 88.2C294.71 87.4821 294.128 86.9 293.41 86.9C292.692 86.9 292.11 87.4821 292.11 88.2C292.11 88.918 292.692 89.5 293.41 89.5Z" fill="white"/>
<path d="M279.58 84.27C278.1 77.19 268.54 75.92 263.49 79.97C261.77 81.31 260.65 83.36 259.95 85.64C259.89 85.86 259.54 85.8 259.55 85.57C259.47 75.42 274.38 71.94 279.34 80.54C279.95 81.68 280.29 82.98 280.18 84.24C280.17 84.41 280.02 84.53 279.85 84.52C279.71 84.51 279.6 84.4 279.58 84.27Z" fill="#241004"/>
<path d="M289.82 84.31V88C289.82 92.02 293.06 95.28 297.05 95.28H302.46C306.46 95.28 309.69 92.01 309.7 87.99C309.7 82.04 306.87 77.15 301.62 76.03C301.56 76.02 301.49 76.01 301.43 76C297.05 75.4 294.58 76.8 292.29 78.84C290.73 80.23 289.83 82.22 289.83 84.31H289.82Z" fill="white"/>
<path d="M290.38 88.66L290.4 89.9C290.45 92.7 292.76 94.92 295.56 94.87L297.45 94.83C300.45 94.77 302.77 92.14 302.39 89.17C302.01 86.2 300.28 83.77 297.44 83.23C297.4 83.23 297.36 83.22 297.32 83.21C294.82 82.92 293.37 83.67 292.07 84.8C290.96 85.77 290.36 87.2 290.39 88.67L290.38 88.66Z" fill="#241004"/>
<path d="M289.5 84.24C289.18 78.72 295.29 75.11 300.3 75.68C302.9 76 305.38 76.91 307.28 78.74C309.19 80.56 310.08 83.15 310.13 85.56C310.13 85.67 310.05 85.77 309.93 85.77C309.84 85.77 309.76 85.71 309.73 85.63C309.04 83.36 307.91 81.3 306.19 79.96C301.14 75.91 291.57 77.18 290.1 84.26C290.05 84.6 289.51 84.58 289.5 84.23V84.24Z" fill="#241004"/>
<path d="M266.4 100.27C273.635 100.27 279.5 98.6762 279.5 96.71C279.5 94.7439 273.635 93.15 266.4 93.15C259.165 93.15 253.3 94.7439 253.3 96.71C253.3 98.6762 259.165 100.27 266.4 100.27Z" fill="#FFDB00"/>
<path d="M302.5 100.27C309.199 100.27 314.63 98.6762 314.63 96.71C314.63 94.7439 309.199 93.15 302.5 93.15C295.801 93.15 290.37 94.7439 290.37 96.71C290.37 98.6762 295.801 100.27 302.5 100.27Z" fill="#FFDB00"/>
<path d="M291.1 70.4599C293.4 68.1999 296.48 67.3099 300.38 69.6399" stroke="#CC7229" stroke-width="1.5" stroke-miterlimit="10" stroke-linecap="round"/>
<path d="M278.5 70.73C276.2 68.47 273.11 67.59 269.22 69.93" stroke="#CC7229" stroke-width="1.5" stroke-miterlimit="10" stroke-linecap="round"/>
<path d="M314.82 129.76L313.95 129.27C314.58 128.9 314.87 128.11 314.58 127.41C314.27 126.64 313.39 126.26 312.61 126.57L310.58 127.38L305.36 124.45C305.11 124.31 304.78 124.4 304.64 124.65L301.16 130.85C301.02 131.1 301.11 131.43 301.36 131.57L310.8 136.87C312.76 137.97 315.26 137.27 316.36 135.31C317.46 133.35 316.76 130.85 314.8 129.75L314.82 129.76Z" fill="#F55F61"/>
<g opacity="0.5">
<path d="M304.36 125.85L307.01 127.34" stroke="white" stroke-width="0.51" stroke-miterlimit="10"/>
<path d="M303.6 127.22L306.25 128.7" stroke="white" stroke-width="0.51" stroke-miterlimit="10"/>
<path d="M302.84 128.57L305.49 130.05" stroke="white" stroke-width="0.51" stroke-miterlimit="10"/>
<path d="M302.08 129.93L304.73 131.41" stroke="white" stroke-width="0.51" stroke-miterlimit="10"/>
</g>
<path d="M288.66 100.33V101.45C288.66 101.88 288.57 102.29 288.4 102.66C287.94 103.67 286.92 104.37 285.74 104.37H284.62C283.44 104.37 282.42 103.67 281.96 102.66C281.79 102.29 281.7 101.88 281.7 101.45V100.33C281.7 98.72 283.01 97.41 284.62 97.41H285.74C287.35 97.41 288.66 98.72 288.66 100.33Z" fill="#EC7762"/>
<path opacity="0.5" d="M288.4 102.66C287.94 103.67 286.92 104.37 285.74 104.37H284.62C283.44 104.37 282.42 103.67 281.96 102.66C282.42 101.65 283.44 100.94 284.62 100.94H285.74C286.92 100.94 287.94 101.64 288.4 102.66Z" fill="white"/>
<path d="M270.65 118.19C280.14 121.26 288.82 121.44 297.63 118.44L300.55 122.73C290.71 127.23 278.38 125.15 267.5 122.24L270.64 118.18L270.65 118.19Z" fill="#F55F61"/>
<path d="M297.77 130.9L293.54 130.31C290.68 129.91 288.26 128.05 287.11 125.45C286.54 125.47 285.97 125.49 285.39 125.49C284.69 125.49 284 125.47 283.3 125.43C282.14 128.01 279.73 129.85 276.89 130.25L272.66 130.84C271.99 130.93 271.49 130.23 271.8 129.63L273.32 126.65C273.8 125.71 274.43 124.87 275.16 124.15C274.4 123.95 273.65 123.73 272.92 123.48H297.84C297.01 123.76 296.16 124.01 295.3 124.23C296.02 124.94 296.63 125.77 297.11 126.69L298.63 129.67C298.94 130.28 298.44 130.98 297.77 130.88V130.9Z" fill="#F55F61"/>
<path d="M290.25 123.68L291.87 124.02C293.18 124.3 294.3 125.14 294.91 126.3L295.62 127.65C295.76 127.92 295.53 128.24 295.22 128.2L293.26 127.93C291.78 127.73 290.55 126.71 290.11 125.31L289.81 124.36L290.24 123.67L290.25 123.68Z" fill="#BC4C4D"/>
<path d="M280.89 124.23L280.09 125.68C279.44 126.86 278.31 127.68 277.02 127.92L275.52 128.2C275.22 128.26 274.98 127.94 275.11 127.66L275.94 125.86C276.57 124.5 277.9 123.63 279.36 123.62H280.36L280.89 124.23Z" fill="#BC4C4D"/>
<path d="M285.86 119.18H283.67C281.284 119.18 279.35 121.112 279.35 123.495C279.35 125.878 281.284 127.81 283.67 127.81H285.86C288.246 127.81 290.18 125.878 290.18 123.495C290.18 121.112 288.246 119.18 285.86 119.18Z" fill="#F55F61"/>
<path d="M290.16 123.5C290.16 124.68 289.68 125.76 288.9 126.53C288.12 127.31 287.05 127.79 285.87 127.79H283.69C282.93 127.79 282.21 127.59 281.58 127.23C281.82 127.27 282.06 127.3 282.31 127.3H284.5C285.68 127.3 286.75 126.82 287.53 126.04C288.31 125.26 288.79 124.19 288.79 123.01C288.79 121.42 287.91 120.02 286.62 119.28C288.63 119.63 290.16 121.4 290.16 123.51V123.5Z" fill="#BC4C4D"/>
<path d="M293.32 89.22C294.038 89.22 294.62 88.638 294.62 87.92C294.62 87.202 294.038 86.62 293.32 86.62C292.602 86.62 292.02 87.202 292.02 87.92C292.02 88.638 292.602 89.22 293.32 89.22Z" fill="white"/>
<path d="M277.446 115.428L277.438 115.421C275.885 114.076 273.536 114.244 272.191 115.797L262.92 126.5C261.575 128.053 261.743 130.403 263.296 131.748L263.303 131.754C264.856 133.099 267.206 132.931 268.551 131.378L277.822 120.675C279.167 119.122 278.999 116.773 277.446 115.428Z" fill="#FFDB00"/>
<path d="M283.68 109.23C283.46 109.02 283.22 108.84 282.97 108.68L284.63 106.46C285.23 105.66 285.06 104.51 284.26 103.91C283.46 103.31 282.31 103.48 281.71 104.28L277.99 109.26C277.99 109.26 277.94 109.3 277.92 109.33L277.23 110.05C277.03 109.35 276.34 108.87 275.59 108.96C274.76 109.06 274.17 109.82 274.28 110.65L274.55 112.82L270.39 117.12C270.19 117.33 270.19 117.66 270.4 117.87L275.52 122.81C275.73 123.01 276.06 123.01 276.27 122.8L283.79 115.01C285.35 113.39 285.3 110.8 283.69 109.24L283.68 109.23Z" fill="#F55F61"/>
<g opacity="0.5">
<path d="M271.55 118.43L273.68 116.27" stroke="white" stroke-width="0.51" stroke-miterlimit="10"/>
<path d="M272.66 119.53L274.79 117.37" stroke="white" stroke-width="0.51" stroke-miterlimit="10"/>
<path d="M273.76 120.61L275.89 118.45" stroke="white" stroke-width="0.51" stroke-miterlimit="10"/>
<path d="M274.88 121.71L277.01 119.55" stroke="white" stroke-width="0.51" stroke-miterlimit="10"/>
</g>
</g>
</g>
<defs>
<clipPath id="clip0_1802_2034">
<rect width="114" height="105" fill="white" transform="translate(227 25)"/>
</clipPath>
</defs>
</svg>
