<svg width="358" height="130" viewBox="0 0 358 130" fill="none" xmlns="http://www.w3.org/2000/svg">
<rect x="0.5" y="0.5" width="357" height="129" rx="7.5" fill="url(#paint0_linear_87_176)"/>
<rect x="0.5" y="0.5" width="357" height="129" rx="7.5" stroke="#FDD835"/>
<path d="M331 36L337 28L331 20" stroke="#74787E" stroke-width="1.5" stroke-linecap="round" stroke-linejoin="round"/>
<path d="M14.208 33.328L18.128 22.576H19.488L23.376 33.328H21.904L20.816 30.304H16.624L15.552 33.328H14.208ZM18.672 24.464L17.04 29.104H20.384L18.72 24.464H18.672ZM24.8101 33.328V22.576H26.2181V33.328H24.8101ZM40.6791 33.344H28.0551V32.192H33.6231V29.984H29.5751V25.488H37.7031V23.44H29.5431V22.288H39.1111V26.64H30.9831V28.832H39.4951V29.984H35.0471V32.192H40.6791V33.344ZM54.278 30.864C52.7847 31.248 50.55 31.4667 47.574 31.52C47.2753 31.5307 46.8433 31.536 46.278 31.536V22.512H47.686V30.32C48.6567 30.32 49.7713 30.2667 51.03 30.16C52.2993 30.0533 53.3127 29.8987 54.07 29.696C54.1447 30.1867 54.214 30.576 54.278 30.864ZM56.646 21.136V26.608H58.87V27.808H56.646V35.12H55.222V21.136H56.646ZM66.6658 28.848H60.0578V22.336H66.6658V28.848ZM65.2578 27.728V23.472H61.4498V27.728H65.2578ZM72.4578 26.496H70.3618V31.296H68.9378V21.136H70.3618V25.328H72.4578V26.496ZM70.8418 34.672H61.5138V30.304H62.9218V33.52H70.8418V34.672ZM83.4535 21.136H84.8455V35.12H83.4535V21.136ZM81.4375 25.552C81.4375 26.5013 81.0855 27.2693 80.3815 27.856C79.6775 28.4427 78.8082 28.736 77.7735 28.736C76.7282 28.736 75.8588 28.4427 75.1655 27.856C74.4722 27.2587 74.1255 26.4907 74.1255 25.552C74.1255 24.592 74.4722 23.8027 75.1655 23.184C75.8695 22.5653 76.7388 22.256 77.7735 22.256C78.8295 22.256 79.7042 22.56 80.3975 23.168C81.0908 23.776 81.4375 24.5707 81.4375 25.552ZM80.0455 25.536C80.0455 24.9067 79.8268 24.4 79.3895 24.016C78.9628 23.632 78.4242 23.44 77.7735 23.44C77.1548 23.44 76.6268 23.6427 76.1895 24.048C75.7522 24.4427 75.5335 24.9387 75.5335 25.536C75.5335 26.1227 75.7468 26.608 76.1735 26.992C76.6108 27.3653 77.1442 27.552 77.7735 27.552C78.4028 27.552 78.9362 27.3653 79.3735 26.992C79.8215 26.6187 80.0455 26.1333 80.0455 25.536ZM82.7015 31.584C81.6988 31.712 79.9922 31.84 77.5815 31.968C76.3228 32.032 74.9308 32.0747 73.4055 32.096L73.1815 30.88C74.9415 30.88 76.4828 30.848 77.8055 30.784C79.8215 30.6987 81.4055 30.592 82.5575 30.464L82.7015 31.584ZM102.86 34.768H93.4044V30.352H94.8284V33.616H102.86V34.768ZM101.116 26.608H98.2044V25.44H101.116V21.136H102.54V31.296H101.116V26.608ZM91.8204 22.24H98.0924C98.0284 24.1067 97.4417 25.6853 96.3324 26.976C95.2337 28.2667 93.7457 29.184 91.8684 29.728L91.1484 28.576C92.599 28.2133 93.8097 27.568 94.7804 26.64C95.751 25.712 96.3377 24.6347 96.5404 23.408H91.8204V22.24ZM117.664 25.824H115.584V29.52H114.16V21.136H115.584V24.656H117.664V25.824ZM115.776 32.368C115.776 33.2107 115.355 33.8773 114.512 34.368C113.68 34.8587 112.528 35.104 111.056 35.104C109.584 35.104 108.427 34.8587 107.584 34.368C106.752 33.8773 106.336 33.2107 106.336 32.368C106.336 31.5147 106.752 30.848 107.584 30.368C108.427 29.8773 109.584 29.632 111.056 29.632C112.528 29.632 113.68 29.8773 114.512 30.368C115.355 30.848 115.776 31.5147 115.776 32.368ZM113.44 31.2C112.864 30.9227 112.069 30.784 111.056 30.784C110.043 30.784 109.248 30.9227 108.672 31.2C108.096 31.4773 107.808 31.8667 107.808 32.368C107.808 32.8587 108.096 33.248 108.672 33.536C109.248 33.8133 110.043 33.952 111.056 33.952C112.069 33.952 112.864 33.8133 113.44 33.536C114.027 33.248 114.32 32.8587 114.32 32.368C114.32 31.8667 114.027 31.4773 113.44 31.2ZM105.376 22.192H111.696C111.632 23.984 111.035 25.4987 109.904 26.736C108.784 27.9627 107.28 28.8587 105.392 29.424L104.656 28.272C106.021 27.984 107.227 27.392 108.272 26.496C109.328 25.5893 109.947 24.544 110.128 23.36H105.376V22.192ZM131.396 27.024H129.3V31.44H127.892V21.136H129.3V25.824H131.396V27.024ZM129.78 34.704H120.452V31.04H121.86V33.568H129.78V34.704ZM124.484 22.72H120.42V21.568H124.484V22.72ZM126.628 24.816H118.42V23.68H126.628V24.816ZM125.844 27.984C125.844 28.7413 125.535 29.3493 124.916 29.808C124.297 30.256 123.503 30.48 122.532 30.48C121.572 30.48 120.783 30.256 120.164 29.808C119.545 29.3493 119.236 28.7413 119.236 27.984C119.236 27.2053 119.54 26.592 120.148 26.144C120.767 25.696 121.561 25.472 122.532 25.472C123.503 25.472 124.297 25.696 124.916 26.144C125.535 26.592 125.844 27.2053 125.844 27.984ZM124.436 27.984C124.436 27.5573 124.249 27.2213 123.876 26.976C123.513 26.7307 123.065 26.608 122.532 26.608C121.999 26.608 121.551 26.7307 121.188 26.976C120.825 27.2213 120.644 27.5573 120.644 27.984C120.644 28.3893 120.825 28.72 121.188 28.976C121.561 29.2213 122.009 29.344 122.532 29.344C123.065 29.344 123.513 29.2213 123.876 28.976C124.249 28.7307 124.436 28.4 124.436 27.984ZM21.136 46.256L20.72 50.416C21.616 50.3627 22.2613 50.2987 22.656 50.224L22.784 51.328C21.7813 51.4773 20.528 51.5893 19.024 51.664C17.36 51.7387 15.9573 51.776 14.816 51.776L14.576 50.56H16.368L15.984 46.288L17.376 46.112L17.632 50.528L19.184 50.48H19.472L19.76 46.096L21.136 46.256ZM22.384 46.96V45.84H24.656V43.136H26.08V53.296H24.656V49.664H22.384V48.544H24.656V46.96H22.384ZM26.368 56.688H16.88V52.544H18.304V55.536H26.368V56.688ZM22.336 45.44H14.976V44.304H22.336V45.44ZM38.4998 43.136H39.8918V57.12H38.4998V43.136ZM36.4838 47.552C36.4838 48.5013 36.1318 49.2693 35.4278 49.856C34.7237 50.4427 33.8544 50.736 32.8197 50.736C31.7744 50.736 30.9051 50.4427 30.2117 49.856C29.5184 49.2587 29.1717 48.4907 29.1717 47.552C29.1717 46.592 29.5184 45.8027 30.2117 45.184C30.9157 44.5653 31.7851 44.256 32.8197 44.256C33.8757 44.256 34.7504 44.56 35.4437 45.168C36.1371 45.776 36.4838 46.5707 36.4838 47.552ZM35.0918 47.536C35.0918 46.9067 34.8731 46.4 34.4358 46.016C34.0091 45.632 33.4704 45.44 32.8197 45.44C32.2011 45.44 31.6731 45.6427 31.2357 46.048C30.7984 46.4427 30.5797 46.9387 30.5797 47.536C30.5797 48.1227 30.7931 48.608 31.2197 48.992C31.6571 49.3653 32.1904 49.552 32.8197 49.552C33.4491 49.552 33.9824 49.3653 34.4198 48.992C34.8678 48.6187 35.0918 48.1333 35.0918 47.536ZM37.7478 53.584C36.7451 53.712 35.0384 53.84 32.6277 53.968C31.3691 54.032 29.9771 54.0747 28.4517 54.096L28.2277 52.88C29.9877 52.88 31.5291 52.848 32.8517 52.784C34.8678 52.6987 36.4518 52.592 37.6038 52.464L37.7478 53.584ZM53.5115 56.928H44.5035V52.032H53.5115V56.928ZM42.3595 45.312V44.144H50.0075V45.312H46.9515V45.856C46.9515 46.784 47.2928 47.6267 47.9755 48.384C48.6582 49.1307 49.4315 49.6373 50.2955 49.904L49.5115 51.04C48.8608 50.784 48.2208 50.3787 47.5915 49.824C46.9728 49.2587 46.5248 48.6667 46.2475 48.048C46.0342 48.6987 45.5808 49.3493 44.8875 50C44.1942 50.6507 43.4742 51.1307 42.7275 51.44L41.9275 50.336C42.8875 49.984 43.7248 49.392 44.4395 48.56C45.1542 47.7173 45.5115 46.8267 45.5115 45.888V45.312H42.3595ZM52.0875 55.792V53.152H45.9115V55.792H52.0875ZM53.5115 51.328H52.0875V47.84H49.4795V46.688H52.0875V43.136H53.5115V51.328ZM71.6384 57.12H70.2784V43.136H71.6384V57.12ZM68.9984 56.432H67.6384V49.584H65.9584V48.432H67.6384V43.456H68.9984V56.432ZM66.3744 53.328C65.2437 53.5627 63.5744 53.6907 61.3664 53.712H60.1984V48.416H63.9904V45.872H60.1664V44.72H65.3984V49.584H61.6064V52.544C63.4517 52.544 64.9877 52.416 66.2144 52.16C66.2677 52.4907 66.321 52.88 66.3744 53.328ZM85.1141 57.12H83.7061V43.136H85.1141V57.12ZM82.0421 52.704L81.1941 53.76C80.4901 53.2693 79.8075 52.6453 79.1461 51.888C78.4955 51.12 78.0528 50.3573 77.8181 49.6C77.5728 50.4533 77.1355 51.2907 76.5061 52.112C75.8768 52.9333 75.1621 53.6053 74.3621 54.128L73.4821 53.088C74.5488 52.4053 75.4128 51.4987 76.0741 50.368C76.7355 49.2267 77.0661 48.0213 77.0661 46.752V44.368H78.5381V46.688C78.5381 47.9467 78.8688 49.12 79.5301 50.208C80.1915 51.2853 81.0288 52.1173 82.0421 52.704ZM96.1099 52.096L96.2219 53.232C95.1125 53.392 93.6885 53.5147 91.9499 53.6C90.0512 53.696 88.5365 53.744 87.4059 53.744L87.2139 52.544C88.0992 52.544 88.7659 52.5387 89.2139 52.528L88.7499 46.832L90.1579 46.672L90.5259 52.496L91.9659 52.432C92.0619 52.432 92.2379 52.4213 92.4939 52.4L92.8619 46.656L94.2539 46.816L93.7419 52.336C94.7765 52.272 95.5659 52.192 96.1099 52.096ZM98.7019 57.12H97.2939V43.136H98.7019V57.12ZM95.4539 45.68H87.6139V44.528H95.4539V45.68ZM113.602 50.688H100.978V49.6H113.602V50.688ZM112.594 56.864H102.418V53.776H110.738V52.736H102.418V51.664H112.146V54.768H103.826V55.792H112.594V56.864ZM112.354 48.608H102.562V45.648H110.658V44.672H102.578V43.616H112.066V46.608H103.986V47.552H112.354V48.608ZM125.872 50.848H119.264V44.336H125.872V50.848ZM124.464 49.728V45.472H120.656V49.728H124.464ZM131.665 48.496H129.569V53.296H128.144V43.136H129.569V47.328H131.665V48.496ZM130.049 56.672H120.72V52.304H122.128V55.52H130.049V56.672ZM145.108 50.208H132.484V49.072H145.108V50.208ZM143.924 57.008H133.876V53.52H142.02V52.432H133.828V51.296H143.428V54.592H135.284V55.856H143.924V57.008ZM143.604 48H134.004V43.76H143.476V44.896H135.412V46.848H143.604V48ZM147.176 52.64C146.568 51.7227 146.264 50.5333 146.264 49.072C146.264 47.6107 146.568 46.4213 147.176 45.504C147.784 44.5867 148.68 44.128 149.864 44.128C150.952 44.128 151.789 44.5227 152.376 45.312C152.973 46.0907 153.32 47.1307 153.416 48.432H156.248V43.136H157.672V57.12H156.248V49.632H153.416C153.331 50.9547 152.989 52.016 152.392 52.816C151.805 53.616 150.963 54.016 149.864 54.016C148.68 54.016 147.784 53.5573 147.176 52.64ZM152.024 49.088C152.024 47.968 151.832 47.0667 151.448 46.384C151.075 45.6907 150.547 45.344 149.864 45.344C149.171 45.344 148.637 45.6853 148.264 46.368C147.901 47.0507 147.72 47.9573 147.72 49.088C147.72 50.1973 147.901 51.0933 148.264 51.776C148.637 52.4587 149.171 52.8 149.864 52.8C150.547 52.8 151.075 52.4587 151.448 51.776C151.832 51.0933 152.024 50.1973 152.024 49.088ZM171.004 51.504H166.908V54.256H172.54V55.408H159.916V54.256H165.484V51.504H161.436V44.112H162.86V46.656H169.596V44.112H171.004V51.504ZM169.596 50.336V47.808H162.86V50.336H169.596ZM185.439 57.12H184.079V43.136H185.439V57.12ZM182.671 56.432H181.327V49.264H179.119V48.096H181.327V43.456H182.671V56.432ZM180.591 52.64L179.727 53.632C179.183 53.2587 178.65 52.7147 178.127 52C177.605 51.2853 177.242 50.5653 177.039 49.84C176.869 50.608 176.517 51.376 175.983 52.144C175.461 52.912 174.853 53.5307 174.159 54L173.279 53.008C174.154 52.4427 174.885 51.6107 175.471 50.512C176.058 49.4133 176.351 48.192 176.351 46.848V44.464H177.711V46.832C177.711 48.1227 177.978 49.2853 178.511 50.32C179.055 51.344 179.749 52.1173 180.591 52.64ZM197.427 45.072C198.387 45.7333 198.867 46.608 198.867 47.696C198.867 48.784 198.387 49.6587 197.427 50.32C196.478 50.9813 195.219 51.312 193.651 51.312C192.094 51.312 190.835 50.9813 189.875 50.32C188.926 49.6587 188.451 48.784 188.451 47.696C188.451 46.608 188.926 45.7333 189.875 45.072C190.835 44.4 192.094 44.064 193.651 44.064C195.219 44.064 196.478 44.4 197.427 45.072ZM197.411 47.696C197.411 46.96 197.065 46.368 196.371 45.92C195.689 45.4613 194.782 45.232 193.651 45.232C192.521 45.232 191.614 45.4613 190.931 45.92C190.249 46.368 189.907 46.96 189.907 47.696C189.907 48.4213 190.249 49.0133 190.931 49.472C191.625 49.92 192.531 50.144 193.651 50.144C194.782 50.144 195.689 49.92 196.371 49.472C197.065 49.0133 197.411 48.4213 197.411 47.696ZM199.971 55.344H187.347V54.192H190.371V51.712L191.795 51.664V54.192H195.491V51.664L196.899 51.712V54.192H199.971V55.344ZM202.007 52.784L201.831 44.064H203.383L203.207 52.784H202.007ZM201.847 55.6V54.048H203.399V55.6H201.847Z" fill="black"/>
<path d="M308.461 55.1821L263.285 40.1179C261.158 39.4087 258.936 40.3283 258.321 42.1719L241.039 93.999C240.424 95.8426 241.65 97.9121 243.777 98.6213L288.953 113.686C291.08 114.395 293.302 113.475 293.917 111.632L311.199 59.8045C311.814 57.9609 310.588 55.8914 308.461 55.1821Z" fill="#E59E10"/>
<path d="M306.211 54.4318L261.035 39.3676C258.908 38.6583 256.685 39.5779 256.07 41.4215L238.788 93.2486C238.174 95.0922 239.399 97.1617 241.526 97.871L286.702 112.935C288.829 113.644 291.052 112.725 291.666 110.881L308.949 59.0541C309.563 57.2105 308.337 55.141 306.211 54.4318Z" fill="url(#paint1_linear_87_176)"/>
<path d="M299.646 52.2429L259.161 38.7428C257.137 38.0678 255.023 38.9386 254.44 40.6877L237.043 92.8569C236.46 94.6061 237.628 96.5712 239.652 97.2462L280.137 110.746C282.162 111.421 284.275 110.55 284.859 108.801L302.255 56.6321C302.838 54.883 301.67 52.9178 299.646 52.2429Z" fill="#E59E10"/>
<path d="M298.001 51.6944L257.993 38.3531C255.992 37.6861 253.898 38.5633 253.315 40.3125L235.918 92.4817C235.335 94.2308 236.484 96.1895 238.484 96.8566L278.493 110.198C280.493 110.865 282.588 109.988 283.171 108.238L300.567 56.0693C301.151 54.3201 300.002 52.3614 298.001 51.6944Z" fill="#FFC82E"/>
<path d="M280.602 82.2343L280.427 81.7141C280.246 81.1685 279.703 80.8603 279.221 81.02L273.715 82.8681C273.47 82.9515 273.193 82.7931 273.101 82.5175L273.077 82.4483C272.985 82.1726 273.107 81.8787 273.354 81.801L278.861 79.9528C279.36 79.7847 279.603 79.1826 279.386 78.6201C279.184 78.0957 278.624 77.8384 278.152 77.9966L272.693 79.8278C272.449 79.9111 272.171 79.7528 272.08 79.4772C271.988 79.2016 272.109 78.9076 272.357 78.8299L277.864 76.9818C278.347 76.8179 278.589 76.2483 278.408 75.7027L278.233 75.1826C278.052 74.637 277.509 74.3288 277.027 74.4885L269.553 76.995C269.462 77.0119 269.38 77.0458 269.301 77.0854C269.301 77.0854 268.128 77.6365 268.047 79.1644C267.999 80.0435 267.502 80.7869 266.748 81.0398L263.183 82.2351L263.219 78.8501C263.229 77.8593 263.689 76.9194 264.493 76.2312C265.823 75.0964 266.707 73.2237 266.728 71.0966C266.767 67.5899 264.467 64.7219 261.59 64.6905C258.712 64.6591 256.354 67.4771 256.316 70.9838C256.294 73.1109 257.134 75.0021 258.437 76.1669C259.225 76.868 259.66 77.8235 259.65 78.8143L259.602 83.439L252.012 85.9822C251.137 86.2747 250.718 87.3601 251.141 88.3397C251.511 89.1934 252.424 89.6062 253.208 89.3448L259.558 87.217L259.489 93.3567C259.48 94.2302 260.269 94.9455 261.254 94.9583C262.239 94.9711 263.048 94.2702 263.056 93.3967L263.138 86.0174L267.838 84.442C268.585 84.1919 269.454 84.4393 269.993 85.1277C270.704 86.0338 271.588 86.1498 272.035 86.1385C272.106 86.1527 272.193 86.1442 272.311 86.1173L272.321 86.1159C272.321 86.1159 272.342 86.1089 272.356 86.1089L280.052 83.5303C280.536 83.3664 280.777 82.7968 280.596 82.2512L280.602 82.2343Z" fill="white"/>
<path d="M287.725 49.2365L282.889 63.7386C282.634 64.5037 283.414 65.2013 284.145 64.8639L287.875 63.1448C288.31 62.9461 288.83 63.113 289.064 63.5349L291.126 67.248C291.513 67.9456 292.544 67.852 292.803 67.0944L297.708 52.5717C297.869 52.088 297.612 51.5648 297.129 51.4034L288.888 48.6554C288.404 48.4941 287.886 48.7528 287.725 49.2365Z" fill="#E56251"/>
<path d="M287.258 49.0808L282.422 63.5829C282.167 64.3479 282.925 65.0383 283.643 64.6965L287.306 62.9548C287.733 62.7534 288.24 62.9162 288.466 63.3355L290.458 67.025C290.831 67.7182 291.841 67.6174 292.099 66.8598L297.003 52.3366C297.165 51.8528 296.917 51.3327 296.445 51.1752L288.4 48.4927C287.928 48.3352 287.419 48.597 287.258 49.0808Z" fill="#FC7B65"/>
<path d="M304.854 56.8234L306.339 57.3186C306.795 57.4705 307.042 57.9656 306.89 58.4212L304.928 64.3053C304.776 64.761 304.281 65.0085 303.826 64.8565L302.34 64.3613L304.854 56.8234Z" fill="#9DF769"/>
<path d="M303.752 66.2763L305.237 66.7715C305.692 66.9234 305.94 67.4185 305.788 67.8741L303.826 73.7582C303.674 74.2139 303.179 74.4613 302.723 74.3094L301.238 73.8142L303.753 66.2706L303.752 66.2763Z" fill="#67A2F9"/>
<path d="M298.913 74.2826L300.398 74.7778C300.853 74.9298 301.101 75.4248 300.949 75.8805L298.987 81.7646C298.835 82.2202 298.34 82.4677 297.884 82.3158L296.399 81.8205L298.915 74.277L298.913 74.2826Z" fill="#8069F4"/>
<path d="M299.146 73.5475L296.118 82.6268" stroke="#EFA13A" stroke-width="0.296492" stroke-miterlimit="10" stroke-linecap="round"/>
<path d="M304.937 56.182L301.909 65.2613" stroke="#EFA13A" stroke-width="0.296492" stroke-miterlimit="10" stroke-linecap="round"/>
<path d="M258.684 39.2086L239.55 96.587" stroke="#EFA13A" stroke-width="1.17411" stroke-miterlimit="10" stroke-linecap="square"/>
<path d="M303.936 65.6874L301.134 74.0916" stroke="#EFA13A" stroke-width="0.320211" stroke-miterlimit="10" stroke-linecap="round"/>
<defs>
<linearGradient id="paint0_linear_87_176" x1="179" y1="0" x2="179" y2="130" gradientUnits="userSpaceOnUse">
<stop offset="0.45" stop-color="#FFF59D"/>
<stop offset="0.920057" stop-color="#FFF59D"/>
</linearGradient>
<linearGradient id="paint1_linear_87_176" x1="283.623" y1="46.8997" x2="264.114" y2="105.403" gradientUnits="userSpaceOnUse">
<stop stop-color="#F3DFA5"/>
<stop offset="0.48004" stop-color="#FFE499"/>
<stop offset="1" stop-color="#F3DFA5"/>
</linearGradient>
</defs>
</svg>
