<svg width="31" height="29" viewBox="0 0 31 29" fill="none" xmlns="http://www.w3.org/2000/svg">
<path d="M0.263385 12.6684C1.26794 8.09051 7.48184 5.44996 11.7871 3.94313C16.121 2.40759 21.316 3.38345 20.6128 8.56409C20.1967 11.6639 17.6996 12.1231 14.2698 16.8302C10.8399 21.5372 6.7356 20.6188 3.44927 19.0402C1.44015 18.0069 -0.152789 15.3664 0.234683 12.8263L0.263385 12.6684Z" fill="#EAEBED"/>
<path d="M1.65514 9.21019C2.50183 5.45028 8.32826 3.03934 12.0738 1.90563C15.8481 0.74321 20.4116 2.4079 20.67 6.7275C20.8852 9.18149 17.3262 8.83707 14.37 12.64C11.4137 16.443 7.81163 15.5819 4.91277 14.2043C3.14762 13.3002 1.29637 11.4489 1.61208 9.3537V9.22454L1.65514 9.21019Z" fill="#D5762F"/>
<path d="M1.55504 8.07615C2.38739 4.31624 8.22817 1.90531 11.9737 0.771592C15.748 -0.390823 20.3115 1.27387 20.5699 5.59346C20.7851 8.04745 17.2261 7.70303 14.2699 11.506C11.3136 15.309 7.71154 14.4479 4.81267 13.0702C3.04752 12.1661 1.19627 10.3149 1.51199 8.21966V8.0905L1.55504 8.07615Z" fill="#FF8931"/>
<path d="M5.50094 4.67517C5.50094 4.67517 4.49638 11.3913 9.03124 13.1421" stroke="#FFD2BB" stroke-width="0.8" stroke-miterlimit="10" stroke-linecap="round"/>
<path d="M9.55976 2.94727C9.55976 2.94727 8.64089 9.08429 12.7889 10.6841" stroke="#FFD2BB" stroke-width="0.8" stroke-miterlimit="10" stroke-linecap="round"/>
<path d="M14.0539 1.84204C14.0539 1.84204 12.8217 6.32171 17.2103 7.36836" stroke="#FFD2BB" stroke-width="0.8" stroke-miterlimit="10" stroke-linecap="round"/>
<path d="M12.0162 23.446C11.5857 18.6815 16.8094 14.1897 20.5262 11.3913C24.2718 8.56419 29.6246 7.90405 30.5431 13.1564C31.0884 16.2993 28.8067 17.5191 26.9267 23.159C25.0467 28.7988 20.7702 29.172 17.082 28.6553C14.8146 28.2678 12.4467 26.2013 12.0449 23.6038L12.0162 23.446Z" fill="#EAEBED"/>
<path d="M12.4607 20.5899C11.901 16.6865 16.6081 12.2952 19.7796 9.85552C22.9655 7.38718 27.9165 7.32978 29.7247 11.3624C30.8154 13.6298 27.2995 14.5769 25.8357 19.2697C24.3719 23.9624 20.6407 24.4359 17.3687 24.1633C15.3596 23.9337 12.9343 22.8287 12.4751 20.7191L12.4464 20.5899H12.4607Z" fill="#DDAB2C"/>
<path d="M11.9446 19.557C11.3849 15.6535 16.092 11.2622 19.2635 8.82256C22.4494 6.35422 27.4004 6.29682 29.2086 10.3294C30.2993 12.5968 26.7833 13.544 25.3196 18.2367C23.8558 22.9294 20.1246 23.403 16.8526 23.1303C14.8435 22.9007 12.4182 21.7957 11.959 19.6861L11.9303 19.557H11.9446Z" fill="#FFC82E"/>
<path d="M12.9487 14.4192C12.9487 14.6488 13.2644 14.7206 13.8241 14.7493C18.7608 15.022 25.1182 13.8595 26.7686 19.8869C27.0412 20.5183 27.6296 21.8673 28.3328 21.4655C31.4039 18.3657 27.4861 13.0415 23.9702 12.3814C21.6166 12.0226 19.0478 11.9796 16.9526 11.9652C15.4314 11.75 13.2501 13.1851 12.9487 14.3331V14.4192Z" fill="#1E110D"/>
</svg>
