<svg width="28" height="29" viewBox="0 0 28 29" fill="none" xmlns="http://www.w3.org/2000/svg">
<g clip-path="url(#clip0_2062_46)">
<path d="M14.5826 26.5586C19.6754 26.5586 23.8039 22.4301 23.8039 17.3374C23.8039 12.2446 19.6754 8.11609 14.5826 8.11609C9.48983 8.11609 5.36133 12.2446 5.36133 17.3374C5.36133 22.4301 9.48983 26.5586 14.5826 26.5586Z" fill="#0048FF"/>
<path d="M13.5762 1.86401C6.07053 1.86401 0 7.93455 0 15.4237C0 22.9129 6.07053 29 13.5762 29C21.0819 29 27.1524 22.9294 27.1524 15.4237C27.1524 7.91805 21.0654 1.86401 13.5762 1.86401ZM17.0899 11.3822C19.1354 11.0688 19.7787 13.8731 17.9807 14.5165C15.6877 15.3578 14.8794 11.7286 17.0899 11.3822ZM9.65017 11.3822C12.1081 11.0028 12.2071 14.6649 9.96359 14.6319C7.95108 14.5989 7.81911 11.6626 9.65017 11.3822ZM19.7127 19.5807C17.5023 24.8595 9.5512 24.8595 7.4397 19.5312V19.1683C7.63766 18.7064 8.00057 18.459 8.51194 18.6405C8.89135 18.7559 9.30375 19.8117 9.61718 20.1911C11.7617 22.781 16.0341 22.5335 17.8652 19.6962C18.2116 19.1518 18.3931 18.327 19.2673 18.6735C19.5313 18.7889 19.5643 18.9704 19.7292 19.1848V19.5972L19.7127 19.5807Z" fill="#FFC82E"/>
<path d="M13.741 15.2092C13.741 15.2092 11.3821 16.5784 13.4936 18.5249" stroke="#0048FF" stroke-width="1.6496" stroke-linecap="round" stroke-linejoin="round"/>
<path d="M1.73218 7.47273C8.82547 9.63371 11.6628 9.51824 13.8732 7.14281L15.0115 4.83337C15.3414 4.17353 14.6321 3.49719 13.6423 3.49719C12.5041 3.49719 12.0422 4.3055 12.3391 4.88286L13.8568 7.45624C16.3806 10.1121 20.2242 8.41301 25.404 7.09333" stroke="#0048FF" stroke-width="1.35267" stroke-linecap="round" stroke-linejoin="round"/>
<path d="M22.5994 2.40833H26.08" stroke="#0048FF" stroke-width="1.35267" stroke-linecap="round" stroke-linejoin="round"/>
<path d="M24.3315 0.676392V4.15705" stroke="#0048FF" stroke-width="1.35267" stroke-linecap="round" stroke-linejoin="round"/>
</g>
<defs>
<clipPath id="clip0_2062_46">
<rect width="27.1524" height="29" fill="white"/>
</clipPath>
</defs>
</svg>
