<svg width="26" height="29" viewBox="0 0 26 29" fill="none" xmlns="http://www.w3.org/2000/svg">
<path d="M22.0982 6.61603L22.0064 6.98332L22.368 7.09518C23.6659 7.49657 24.6132 8.69846 24.6165 10.1243C24.615 10.7317 24.4298 11.3044 24.1196 11.8035L23.9883 12.0147L24.1196 12.2258C24.4311 12.727 24.6165 13.3023 24.6165 13.9124C24.6165 15.6796 23.1841 17.1121 21.4169 17.1121C20.5335 17.1121 19.7303 16.7508 19.1543 16.1749L18.8715 15.8921L18.5887 16.1749C18.0127 16.7508 17.2095 17.1121 16.3261 17.1121C15.2145 17.1121 14.2372 16.5502 13.6609 15.6925L13.3289 15.1983L12.9969 15.6925C12.4221 16.5479 11.4009 17.1121 10.3317 17.1121C9.26313 17.1121 8.31311 16.5781 7.73671 15.7604L7.40977 15.2966L7.08283 15.7604C6.50643 16.5781 5.55641 17.1121 4.48786 17.1121C2.72067 17.1121 1.28818 15.6796 1.28818 13.9124C1.28818 13.3023 1.47365 12.727 1.78517 12.2258L1.91644 12.0147L1.78517 11.8035C1.47365 11.3023 1.28818 10.727 1.28818 10.1169C1.28818 8.68771 2.23653 7.48223 3.53669 7.08012L3.89838 6.96826L3.80656 6.60097C3.75471 6.39358 3.72813 6.17024 3.72813 5.94491C3.72813 4.17772 5.16061 2.74523 6.92781 2.74523C7.13793 2.74523 7.3333 2.75944 7.5067 2.7966L7.83265 2.86645L7.96011 2.55842C8.44292 1.39165 9.58114 0.576392 10.9191 0.576392C11.5869 0.576392 12.2167 0.790307 12.7265 1.13909L12.9537 1.29455L13.18 1.13785C13.7016 0.776763 14.3152 0.576392 14.9857 0.576392C16.3236 0.576392 17.4618 1.39165 17.9446 2.55842L18.0634 2.84538L18.3708 2.80146C18.5824 2.77122 18.7827 2.74523 18.9769 2.74523C20.7441 2.74523 22.1766 4.17772 22.1766 5.94491C22.1766 6.18626 22.1498 6.40951 22.0982 6.61603Z" fill="#F8F8F8" stroke="#D0D0D0" stroke-width="0.8"/>
<path d="M16.3161 13.8948C15.7014 11.9456 14.2499 10.579 12.5424 10.579C11.6886 10.579 10.9031 10.915 10.2372 11.5199C9.58827 10.9374 8.78572 10.579 7.93193 10.579C6.22436 10.579 4.77293 11.9456 4.1582 13.8948" stroke="#D0D0D0" stroke-width="0.8" stroke-linecap="round" stroke-linejoin="round"/>
<path d="M17.4212 7.26314C16.9741 5.96371 15.9185 5.05261 14.6767 5.05261C14.0557 5.05261 13.4845 5.27665 13.0002 5.67992C12.5282 5.29159 11.9446 5.05261 11.3236 5.05261C10.0818 5.05261 9.02617 5.96371 8.5791 7.26314" stroke="#D0D0D0" stroke-width="0.8" stroke-linecap="round" stroke-linejoin="round"/>
<path fill-rule="evenodd" clip-rule="evenodd" d="M0.767464 13.0389C0.692157 13.6263 0.646973 14.2288 0.646973 14.8312C0.646973 19.8253 3.61851 24.1274 7.89163 26.0555V28.6424H17.9828V26.0554C22.2558 24.1272 25.2272 19.8252 25.2272 14.8312C25.2272 14.2288 25.1971 13.6263 25.1067 13.0389H0.767464Z" fill="#67A2F9"/>
</svg>
