<svg width="358" height="132" viewBox="0 0 358 132" fill="none" xmlns="http://www.w3.org/2000/svg">
<rect width="358" height="130" rx="12" fill="#FFCCCC"/>
<path fill-rule="evenodd" clip-rule="evenodd" d="M0 100.786V120C0 126.624 5.36736 131.995 11.9903 132C11.9936 132 11.9968 132 12 132H346C346.003 132 346.006 132 346.01 132C352.633 131.995 358 126.624 358 120V95.4205C350.617 113.466 276.998 139.804 179 100.786C72.4549 58.3644 19.9389 89.3678 4.49877 98.4831C2.187 99.8479 0.70638 100.722 0 100.786Z" fill="#FFAFAF"/>
<path d="M20.888 21.912L21.122 26.484L22.4 26.448H22.904L23.174 21.912L24.956 22.056L24.524 26.358C25.448 26.322 26.27 26.244 26.99 26.124L27.134 27.546C26.21 27.702 24.608 27.846 22.328 27.978C20.264 28.05 18.722 28.086 17.702 28.086L17.396 26.52H19.466L19.088 22.074L20.888 21.912ZM26.684 22.65V21.156H28.898V18.384H30.752V30.012H28.898V25.584H26.684V24.108H28.898V22.65H26.684ZM31.094 33.954H20.276V29.166H22.148V32.478H31.094V33.954ZM26.324 21.084H17.9V19.608H26.324V21.084ZM42.3662 23.478C42.3662 24.57 41.9642 25.452 41.1602 26.124C40.3682 26.796 39.3722 27.132 38.1722 27.132C36.9842 27.132 36.0002 26.796 35.2202 26.124C34.4522 25.44 34.0682 24.558 34.0682 23.478C34.0682 22.374 34.4582 21.462 35.2382 20.742C36.0302 20.01 37.0082 19.644 38.1722 19.644C39.3722 19.644 40.3682 20.004 41.1602 20.724C41.9642 21.444 42.3662 22.362 42.3662 23.478ZM40.5122 23.46C40.5122 22.788 40.2902 22.248 39.8462 21.84C39.4022 21.432 38.8442 21.228 38.1722 21.228C37.5362 21.228 36.9902 21.438 36.5342 21.858C36.0902 22.278 35.8682 22.812 35.8682 23.46C35.8682 24.084 36.0902 24.594 36.5342 24.99C36.9902 25.374 37.5362 25.566 38.1722 25.566C38.8202 25.566 39.3722 25.374 39.8282 24.99C40.2842 24.594 40.5122 24.084 40.5122 23.46ZM46.5242 18.384V34.422H44.6882V18.384H46.5242ZM43.7882 28.842L43.9322 30.318C40.7162 30.666 37.1642 30.852 33.2762 30.876L32.9882 29.292C35.1122 29.316 36.8882 29.286 38.3162 29.202C40.4762 29.118 42.3002 28.998 43.7882 28.842ZM61.9184 34.224H51.4784V28.302H61.9184V34.224ZM49.2464 20.868V19.338H57.6884V20.868H54.4844V20.994C54.4844 22.122 54.8384 23.112 55.5464 23.964C56.2664 24.804 57.1304 25.386 58.1384 25.71L57.1124 27.186C56.4044 26.898 55.7084 26.454 55.0244 25.854C54.3524 25.254 53.8544 24.594 53.5304 23.874C53.3024 24.642 52.8164 25.386 52.0724 26.106C51.3404 26.814 50.5604 27.324 49.7324 27.636L48.6164 26.196C49.7804 25.752 50.7284 25.074 51.4604 24.162C52.2044 23.25 52.5764 22.212 52.5764 21.048V20.868H49.2464ZM61.9004 27.474H60.0644V23.856H57.4544V22.326H60.0644V18.384H61.9004V27.474ZM60.0824 32.748V29.724H53.3324V32.748H60.0824ZM74.6667 33.666H72.9207V26.124H71.3187C71.2347 27.552 70.9047 28.716 70.3287 29.616C69.7527 30.504 68.9427 30.948 67.8987 30.948C67.1307 30.948 66.4767 30.684 65.9367 30.156C65.4087 29.628 65.0247 28.956 64.7847 28.14C64.5567 27.312 64.4427 26.37 64.4427 25.314C64.4427 23.694 64.7307 22.356 65.3067 21.3C65.8947 20.244 66.7587 19.716 67.8987 19.716C68.9427 19.716 69.7527 20.172 70.3287 21.084C70.9167 21.984 71.2467 23.154 71.3187 24.594H72.9207V18.69H74.6667V33.666ZM77.7807 34.422H76.0167V18.384H77.7807V34.422ZM69.1767 28.248C69.4647 27.516 69.6087 26.544 69.6087 25.332C69.6087 24.12 69.4647 23.148 69.1767 22.416C68.8887 21.672 68.4687 21.3 67.9167 21.3C67.3647 21.3 66.9447 21.672 66.6567 22.416C66.3687 23.148 66.2247 24.12 66.2247 25.332C66.2247 26.532 66.3687 27.498 66.6567 28.23C66.9447 28.962 67.3647 29.328 67.9167 29.328C68.4687 29.328 68.8887 28.968 69.1767 28.248ZM93.0489 34.422H91.2129V25.458H88.0809V23.91H91.2129V18.384H93.0489V34.422ZM89.5929 29.4L88.4769 30.768C87.7569 30.312 87.0189 29.628 86.2629 28.716C85.5189 27.804 85.0089 26.928 84.7329 26.088C84.4569 27.036 83.9529 27.972 83.2209 28.896C82.5009 29.808 81.7089 30.528 80.8449 31.056L79.6929 29.724C80.9529 28.896 81.9429 27.846 82.6629 26.574C83.3829 25.302 83.7429 23.91 83.7429 22.398V19.752H85.6329V22.29C85.6329 23.79 85.9869 25.164 86.6949 26.412C87.4149 27.648 88.3809 28.644 89.5929 29.4ZM112.956 31.506C112.956 32.418 112.464 33.132 111.48 33.648C110.508 34.176 109.146 34.44 107.394 34.44C105.642 34.44 104.274 34.176 103.29 33.648C102.318 33.132 101.832 32.418 101.832 31.506C101.832 30.606 102.318 29.892 103.29 29.364C104.274 28.824 105.636 28.554 107.376 28.554C109.128 28.554 110.496 28.824 111.48 29.364C112.464 29.892 112.956 30.606 112.956 31.506ZM114 23.424L113.19 24.9C111.966 24.744 110.802 24.372 109.698 23.784C108.594 23.184 107.826 22.506 107.394 21.75C107.022 22.53 106.29 23.22 105.198 23.82C104.118 24.42 102.918 24.792 101.598 24.936L100.806 23.478C102.15 23.382 103.356 23.052 104.424 22.488C105.492 21.912 106.14 21.186 106.368 20.31H101.49V18.816H113.298V20.31H108.456C108.708 21.162 109.392 21.876 110.508 22.452C111.636 23.028 112.8 23.352 114 23.424ZM114.63 27.672H100.14V26.178H106.44V24.072H108.276V26.178H114.63V27.672ZM111.048 31.506C111.048 31.05 110.718 30.69 110.058 30.426C109.41 30.162 108.516 30.03 107.376 30.03C106.248 30.03 105.354 30.162 104.694 30.426C104.046 30.69 103.722 31.05 103.722 31.506C103.722 31.974 104.046 32.334 104.694 32.586C105.342 32.826 106.236 32.946 107.376 32.946C108.528 32.946 109.428 32.826 110.076 32.586C110.724 32.334 111.048 31.974 111.048 31.506ZM126.91 29.166C127.87 29.718 128.35 30.456 128.35 31.38C128.35 32.304 127.876 33.036 126.928 33.576C125.98 34.128 124.648 34.404 122.932 34.404C121.216 34.404 119.884 34.128 118.936 33.576C117.988 33.036 117.514 32.304 117.514 31.38C117.514 30.456 117.988 29.718 118.936 29.166C119.884 28.602 121.216 28.32 122.932 28.32C124.636 28.32 125.962 28.602 126.91 29.166ZM124.732 25.368L124.966 26.79C123.538 27.138 121.33 27.324 118.342 27.348H116.308V22.524H121.528V20.76H116.236V19.302H123.382V23.928H118.144V25.854C121.18 25.854 123.376 25.692 124.732 25.368ZM130.51 24.126V25.638H128.17V28.068H126.316V18.384H128.17V20.688H130.51V22.182H128.17V24.126H130.51ZM125.524 30.228C124.9 29.94 124.036 29.796 122.932 29.796C121.828 29.796 120.964 29.94 120.34 30.228C119.716 30.516 119.404 30.9 119.404 31.38C119.404 31.848 119.716 32.226 120.34 32.514C120.964 32.79 121.828 32.928 122.932 32.928C124.036 32.928 124.9 32.79 125.524 32.514C126.148 32.226 126.46 31.848 126.46 31.38C126.46 30.9 126.148 30.516 125.524 30.228ZM139.226 29.364L138.146 30.696C137.57 30.336 136.988 29.778 136.4 29.022C135.824 28.254 135.434 27.504 135.23 26.772C135.05 27.552 134.66 28.356 134.06 29.184C133.46 30 132.806 30.624 132.098 31.056L130.946 29.814C133.214 28.314 134.348 26.01 134.348 22.902V21.714H131.522V20.22H138.776V21.714H136.148V22.848C136.148 24.396 136.424 25.734 136.976 26.862C137.54 27.99 138.29 28.824 139.226 29.364ZM141.62 33.666H139.892V25.62H137.696V24.09H139.892V18.708H141.62V33.666ZM144.806 34.422H143.042V18.384H144.806V34.422ZM164.209 24.648H159.727V26.196H166.081V27.672H151.591V26.196H157.891V24.648H153.445V18.672H155.299V20.328H162.373V18.636H164.209V24.648ZM162.931 29.364C163.915 29.88 164.407 30.594 164.407 31.506C164.407 32.418 163.915 33.132 162.931 33.648C161.959 34.176 160.597 34.44 158.845 34.44C157.081 34.44 155.713 34.176 154.741 33.648C153.769 33.132 153.283 32.418 153.283 31.506C153.283 30.606 153.769 29.898 154.741 29.382C155.713 28.854 157.075 28.59 158.827 28.59C160.591 28.59 161.959 28.848 162.931 29.364ZM161.527 32.586C162.175 32.334 162.499 31.98 162.499 31.524C162.499 31.068 162.169 30.714 161.509 30.462C160.861 30.198 159.967 30.066 158.827 30.066C157.699 30.066 156.805 30.198 156.145 30.462C155.497 30.714 155.173 31.068 155.173 31.524C155.173 31.98 155.497 32.334 156.145 32.586C156.793 32.826 157.687 32.946 158.827 32.946C159.979 32.946 160.879 32.826 161.527 32.586ZM162.373 23.172V21.768H155.299V23.172H162.373ZM179.279 23.298H170.873V24.63H179.945V26.088H169.019V19.032H179.783V20.526H170.873V21.84H179.279V23.298ZM175.301 34.368H173.465V29.022H167.165V27.528H181.655V29.022H175.301V34.368ZM197.229 27.132H182.739V25.746H197.229V27.132ZM195.807 34.296H184.593V30.588H193.539V29.508H184.539V28.176H195.375V31.884H186.429V32.982H195.807V34.296ZM195.627 24.774H184.647V21.174H193.431V20.148H184.611V18.798H195.285V22.416H186.501V23.424H195.627V24.774ZM30.104 44.302C30.104 47.122 29.924 49.402 29.564 51.142H32.03V52.636H25.676V59.422H23.84V52.636H17.54V51.142H27.8C28.076 49.846 28.226 48.07 28.25 45.814H19.376V44.302H30.104ZM40.0442 45.328V55.174H33.6362V45.328H40.0442ZM46.6322 59.422H44.8502V51.304H43.3382V58.666H41.5922V43.708H43.3382V49.756H44.8502V43.384H46.6322V59.422ZM38.3162 53.734V46.786H35.3822V53.734H38.3162ZM57.8684 47.038H48.5624V45.616H57.8684V47.038ZM56.9864 50.008C56.9864 50.776 56.6324 51.382 55.9244 51.826C55.2284 52.258 54.3284 52.474 53.2244 52.474C52.1324 52.474 51.2324 52.258 50.5244 51.826C49.8164 51.382 49.4624 50.776 49.4624 50.008C49.4624 49.276 49.8104 48.688 50.5064 48.244C51.2144 47.8 52.1204 47.578 53.2244 47.578C54.3164 47.578 55.2164 47.8 55.9244 48.244C56.6324 48.688 56.9864 49.276 56.9864 50.008ZM55.2044 50.008C55.2044 49.672 55.0064 49.408 54.6104 49.216C54.2264 49.012 53.7644 48.91 53.2244 48.91C52.6724 48.91 52.1984 49.012 51.8024 49.216C51.4184 49.42 51.2264 49.684 51.2264 50.008C51.2264 50.368 51.4184 50.65 51.8024 50.854C52.1984 51.046 52.6724 51.142 53.2244 51.142C53.7764 51.142 54.2444 51.046 54.6284 50.854C55.0124 50.65 55.2044 50.368 55.2044 50.008ZM50.8844 44.788V43.366H55.5824V44.788H50.8844ZM63.5024 48.676H61.1444V52.438H59.2904V43.384H61.1444V47.128H63.5024V48.676ZM61.6844 59.368H50.8304V55.678H59.2904V54.688H50.7584V53.266H61.1444V56.992H52.6664V57.964H61.6844V59.368ZM77.1272 59.44H75.2912V53.608H68.9912V52.15H83.4812V53.608H77.1272V59.44ZM82.8692 49.072L82.0232 50.566C80.8112 50.362 79.6412 49.906 78.5132 49.198C77.3972 48.49 76.6412 47.698 76.2452 46.822C75.9092 47.686 75.1832 48.472 74.0672 49.18C72.9512 49.888 71.7632 50.356 70.5032 50.584L69.6932 49.072C71.1692 48.904 72.4712 48.388 73.5992 47.524C74.7272 46.66 75.2912 45.67 75.2912 44.554V43.744H77.2352V44.554C77.2352 45.286 77.5232 45.994 78.0992 46.678C78.6872 47.35 79.4072 47.896 80.2592 48.316C81.1232 48.736 81.9932 48.988 82.8692 49.072ZM100.634 43.384H102.488V52.348H100.634V43.384ZM96.7279 45.346C97.5319 46.066 97.9339 46.978 97.9339 48.082C97.9339 49.186 97.5379 50.08 96.7459 50.764C95.9659 51.436 94.9879 51.772 93.8119 51.772C92.6479 51.772 91.6699 51.436 90.8779 50.764C90.0859 50.08 89.6899 49.186 89.6899 48.082C89.6899 46.99 90.0859 46.084 90.8779 45.364C91.6819 44.632 92.6599 44.266 93.8119 44.266C94.9639 44.266 95.9359 44.626 96.7279 45.346ZM96.1339 48.064C96.1339 47.416 95.9179 46.876 95.4859 46.444C95.0659 46 94.5079 45.778 93.8119 45.778C93.1279 45.778 92.5699 46 92.1379 46.444C91.7059 46.888 91.4899 47.428 91.4899 48.064C91.4899 48.736 91.7059 49.288 92.1379 49.72C92.5699 50.152 93.1279 50.368 93.8119 50.368C94.4959 50.368 95.0539 50.152 95.4859 49.72C95.9179 49.276 96.1339 48.724 96.1339 48.064ZM104.036 58.036L103.028 59.368C102.464 59.116 101.888 58.708 101.3 58.144C100.724 57.592 100.34 57.034 100.148 56.47C99.9919 57.046 99.6199 57.634 99.0319 58.234C98.4439 58.846 97.8259 59.314 97.1779 59.638L96.1339 58.396C97.0819 57.964 97.8319 57.352 98.3839 56.56C98.9479 55.768 99.2299 54.868 99.2299 53.86V53.122H101.012V53.842C101.012 54.826 101.288 55.69 101.84 56.434C102.392 57.178 103.124 57.712 104.036 58.036ZM95.9539 58.054C95.6299 57.886 95.3059 57.652 94.9819 57.352C94.6579 57.04 94.4179 56.722 94.2619 56.398C94.0699 57.034 93.6859 57.634 93.1099 58.198C92.5459 58.762 91.8919 59.206 91.1479 59.53L90.1399 58.288C91.0399 57.904 91.7899 57.334 92.3899 56.578C92.9899 55.81 93.2899 54.94 93.2899 53.968V53.212H95.0899V53.878C95.0899 54.622 95.2999 55.246 95.7199 55.75C96.1399 56.254 96.6139 56.59 97.1419 56.758L95.9539 58.054ZM106.092 54.346C105.372 53.302 105.012 51.922 105.012 50.206C105.012 48.49 105.372 47.11 106.092 46.066C106.812 45.022 107.808 44.5 109.08 44.5C110.244 44.5 111.18 44.944 111.888 45.832C112.608 46.708 113.028 47.89 113.148 49.378H116.226V43.384H118.08V59.422H116.226V50.89H113.166C113.07 52.426 112.662 53.644 111.942 54.544C111.234 55.444 110.28 55.894 109.08 55.894C107.808 55.894 106.812 55.378 106.092 54.346ZM111.402 50.224C111.402 48.952 111.186 47.932 110.754 47.164C110.322 46.384 109.764 45.994 109.08 45.994C108.42 45.994 107.874 46.384 107.442 47.164C107.022 47.932 106.812 48.952 106.812 50.224C106.812 51.484 107.022 52.504 107.442 53.284C107.874 54.052 108.42 54.436 109.08 54.436C109.764 54.436 110.322 54.052 110.754 53.284C111.186 52.504 111.402 51.484 111.402 50.224ZM133.51 48.586C133.51 49.81 132.976 50.806 131.908 51.574C130.84 52.33 129.43 52.708 127.678 52.708C125.95 52.708 124.552 52.33 123.484 51.574C122.416 50.806 121.882 49.81 121.882 48.586C121.882 47.374 122.416 46.384 123.484 45.616C124.552 44.848 125.95 44.464 127.678 44.464C129.43 44.464 130.84 44.848 131.908 45.616C132.976 46.384 133.51 47.374 133.51 48.586ZM130.54 50.476C131.26 49.996 131.62 49.366 131.62 48.586C131.62 47.806 131.26 47.182 130.54 46.714C129.82 46.234 128.866 45.994 127.678 45.994C126.502 45.994 125.554 46.234 124.834 46.714C124.114 47.182 123.754 47.806 123.754 48.586C123.754 49.366 124.114 49.996 124.834 50.476C125.554 50.944 126.502 51.178 127.678 51.178C128.866 51.178 129.82 50.944 130.54 50.476ZM134.932 57.388H120.442V55.912H123.79V53.122L125.662 53.104V55.912H129.658V53.104L131.512 53.122V55.912H134.932V57.388ZM137.169 53.68L136.935 44.5H139.005L138.771 53.68H137.169ZM136.989 57.442V55.498H138.969V57.442H136.989Z" fill="#121212"/>
<path d="M25.184 76.324C25.808 76.684 26.12 77.18 26.12 77.812C26.12 78.444 25.812 78.94 25.196 79.3C24.58 79.66 23.708 79.84 22.58 79.84C21.468 79.84 20.6 79.66 19.976 79.3C19.36 78.94 19.052 78.444 19.052 77.812C19.052 77.18 19.36 76.684 19.976 76.324C20.6 75.956 21.468 75.772 22.58 75.772C23.7 75.772 24.568 75.956 25.184 76.324ZM17.696 71.068V70.204H23.432V71.068H21.14V71.416C21.14 72.112 21.396 72.744 21.908 73.312C22.42 73.872 23 74.252 23.648 74.452L23.06 75.304C22.58 75.112 22.104 74.808 21.632 74.392C21.16 73.968 20.82 73.524 20.612 73.06C20.452 73.548 20.112 74.036 19.592 74.524C19.072 75.012 18.532 75.372 17.972 75.604L17.372 74.764C18.092 74.508 18.72 74.068 19.256 73.444C19.792 72.812 20.06 72.144 20.06 71.44V71.068H17.696ZM22.58 76.648C21.812 76.648 21.212 76.752 20.78 76.96C20.348 77.16 20.132 77.444 20.132 77.812C20.132 78.18 20.348 78.468 20.78 78.676C21.212 78.876 21.812 78.976 22.58 78.976C23.356 78.976 23.96 78.876 24.392 78.676C24.824 78.468 25.04 78.18 25.04 77.812C25.04 77.444 24.824 77.16 24.392 76.96C23.96 76.752 23.356 76.648 22.58 76.648ZM24.992 72.868H23.036V71.992H24.992V69.352H26.06V75.856H24.992V72.868ZM34.2708 75.952C33.3748 76.08 32.2668 76.176 30.9468 76.24C29.3628 76.32 28.2708 76.36 27.6708 76.36L27.5148 75.484C28.3308 75.484 29.2908 75.464 30.3948 75.424V74.764C29.8348 74.708 29.3828 74.564 29.0388 74.332C28.7028 74.092 28.5348 73.776 28.5348 73.384C28.5348 72.92 28.7588 72.564 29.2068 72.316C29.6628 72.06 30.2428 71.932 30.9468 71.932C31.6508 71.932 32.2308 72.06 32.6868 72.316C33.1428 72.564 33.3708 72.916 33.3708 73.372C33.3708 73.764 33.1948 74.08 32.8428 74.32C32.4908 74.56 32.0308 74.708 31.4628 74.764V75.364C32.7748 75.3 33.6748 75.224 34.1628 75.136L34.2708 75.952ZM37.4508 73.66H35.8908V76.348H34.8468V69.352H35.8908V72.784H37.4508V73.66ZM28.9548 76.888H35.8908V79.888H34.8468V77.752H28.9548V76.888ZM33.9348 71.656H27.8988V70.828H33.9348V71.656ZM32.3388 73.372C32.3388 73.164 32.2108 73.004 31.9548 72.892C31.6988 72.78 31.3628 72.724 30.9468 72.724C30.5308 72.724 30.1948 72.78 29.9388 72.892C29.6908 73.004 29.5668 73.164 29.5668 73.372C29.5668 73.572 29.6948 73.732 29.9508 73.852C30.2068 73.964 30.5388 74.02 30.9468 74.02C31.3548 74.02 31.6868 73.964 31.9428 73.852C32.2068 73.732 32.3388 73.572 32.3388 73.372ZM32.3868 70.312H29.4588V69.484H32.3868V70.312ZM47.7016 73.768H46.1296V77.08H45.0736V69.352H46.1296V72.868H47.7016V73.768ZM46.4896 79.528H39.4936V76.78H40.5496V78.676H46.4896V79.528ZM42.5176 70.54H39.4696V69.676H42.5176V70.54ZM44.1256 72.112H37.9696V71.26H44.1256V72.112ZM43.5376 74.488C43.5376 75.056 43.3056 75.512 42.8416 75.856C42.3776 76.192 41.7816 76.36 41.0536 76.36C40.3336 76.36 39.7416 76.192 39.2776 75.856C38.8136 75.512 38.5816 75.056 38.5816 74.488C38.5816 73.904 38.8096 73.444 39.2656 73.108C39.7296 72.772 40.3256 72.604 41.0536 72.604C41.7816 72.604 42.3776 72.772 42.8416 73.108C43.3056 73.444 43.5376 73.904 43.5376 74.488ZM42.4816 74.488C42.4816 74.168 42.3416 73.916 42.0616 73.732C41.7896 73.548 41.4536 73.456 41.0536 73.456C40.6536 73.456 40.3176 73.548 40.0456 73.732C39.7736 73.916 39.6376 74.168 39.6376 74.488C39.6376 74.792 39.7736 75.04 40.0456 75.232C40.3256 75.416 40.6616 75.508 41.0536 75.508C41.4536 75.508 41.7896 75.416 42.0616 75.232C42.3416 75.048 42.4816 74.8 42.4816 74.488ZM56.6168 79.852H55.5488V76.084H51.3728V75.232H60.8408V76.084H56.6168V79.852ZM60.4808 73.324L59.9768 74.188C59.1768 74.036 58.3968 73.724 57.6368 73.252C56.8848 72.78 56.3728 72.26 56.1008 71.692C55.8768 72.252 55.3848 72.772 54.6248 73.252C53.8648 73.724 53.0688 74.04 52.2368 74.2L51.7568 73.336C52.7408 73.208 53.6168 72.852 54.3848 72.268C55.1608 71.684 55.5488 71.04 55.5488 70.336V69.676H56.6648V70.336C56.6648 70.8 56.8648 71.26 57.2648 71.716C57.6648 72.164 58.1568 72.532 58.7408 72.82C59.3248 73.1 59.9048 73.268 60.4808 73.324ZM68.9676 76.444C69.5756 76.788 69.8796 77.264 69.8796 77.872C69.8796 78.48 69.5756 78.956 68.9676 79.3C68.3596 79.644 67.4956 79.816 66.3756 79.816C65.2476 79.816 64.3796 79.644 63.7716 79.3C63.1716 78.956 62.8716 78.48 62.8716 77.872C62.8716 77.256 63.1716 76.776 63.7716 76.432C64.3796 76.088 65.2476 75.916 66.3756 75.916C67.4956 75.916 68.3596 76.092 68.9676 76.444ZM67.8276 74.872C67.3316 74.968 66.6396 75.052 65.7516 75.124C64.8636 75.188 64.0476 75.22 63.3036 75.22H62.0556V72.112H65.6676V70.864H62.0316V70.012H66.7356V72.952H63.1236V74.356H63.3276C65.1996 74.356 66.6516 74.244 67.6836 74.02L67.8276 74.872ZM71.3196 73.18V74.056H69.7596V75.712H68.6916V69.352H69.7596V70.924H71.3196V71.788H69.7596V73.18H71.3196ZM68.1516 77.068C67.7276 76.876 67.1356 76.78 66.3756 76.78C65.6156 76.78 65.0196 76.88 64.5876 77.08C64.1636 77.272 63.9516 77.536 63.9516 77.872C63.9516 78.208 64.1636 78.472 64.5876 78.664C65.0196 78.856 65.6156 78.952 66.3756 78.952C67.1276 78.952 67.7196 78.856 68.1516 78.664C68.5836 78.472 68.7996 78.208 68.7996 77.872C68.7996 77.528 68.5836 77.26 68.1516 77.068ZM81.4144 74.692H71.9464V73.828H81.4144V74.692ZM80.6224 79.768H73.0264V77.2H79.1704V76.444H73.0024V75.58H80.2264V77.992H74.0824V78.892H80.6224V79.768ZM80.3224 71.356C80.3224 71.94 80.0024 72.396 79.3624 72.724C78.7224 73.044 77.8304 73.204 76.6864 73.204C75.5504 73.204 74.6624 73.044 74.0224 72.724C73.3904 72.396 73.0744 71.94 73.0744 71.356C73.0744 70.764 73.3904 70.308 74.0224 69.988C74.6624 69.66 75.5504 69.496 76.6864 69.496C77.8304 69.496 78.7224 69.66 79.3624 69.988C80.0024 70.308 80.3224 70.764 80.3224 71.356ZM76.6864 70.348C75.9264 70.348 75.3184 70.44 74.8624 70.624C74.4064 70.808 74.1784 71.052 74.1784 71.356C74.1784 71.652 74.4064 71.892 74.8624 72.076C75.3184 72.26 75.9264 72.352 76.6864 72.352C77.4624 72.352 78.0784 72.26 78.5344 72.076C78.9984 71.892 79.2304 71.652 79.2304 71.356C79.2304 71.052 78.9984 70.808 78.5344 70.624C78.0784 70.44 77.4624 70.348 76.6864 70.348ZM91.8176 75.952C90.9216 76.08 89.8136 76.176 88.4936 76.24C86.9096 76.32 85.8176 76.36 85.2176 76.36L85.0616 75.484C85.8776 75.484 86.8376 75.464 87.9416 75.424V74.764C87.3816 74.708 86.9296 74.564 86.5856 74.332C86.2496 74.092 86.0816 73.776 86.0816 73.384C86.0816 72.92 86.3056 72.564 86.7536 72.316C87.2096 72.06 87.7896 71.932 88.4936 71.932C89.1976 71.932 89.7776 72.06 90.2336 72.316C90.6896 72.564 90.9176 72.916 90.9176 73.372C90.9176 73.764 90.7416 74.08 90.3896 74.32C90.0376 74.56 89.5776 74.708 89.0096 74.764V75.364C90.3216 75.3 91.2216 75.224 91.7096 75.136L91.8176 75.952ZM94.9976 73.66H93.4376V76.348H92.3936V69.352H93.4376V72.784H94.9976V73.66ZM86.5016 76.888H93.4376V79.888H92.3936V77.752H86.5016V76.888ZM91.4816 71.656H85.4456V70.828H91.4816V71.656ZM89.8856 73.372C89.8856 73.164 89.7576 73.004 89.5016 72.892C89.2456 72.78 88.9096 72.724 88.4936 72.724C88.0776 72.724 87.7416 72.78 87.4856 72.892C87.2376 73.004 87.1136 73.164 87.1136 73.372C87.1136 73.572 87.2416 73.732 87.4976 73.852C87.7536 73.964 88.0856 74.02 88.4936 74.02C88.9016 74.02 89.2336 73.964 89.4896 73.852C89.7536 73.732 89.8856 73.572 89.8856 73.372ZM89.9336 70.312H87.0056V69.484H89.9336V70.312ZM104.18 76.972H103.112V69.352H104.18V76.972ZM104.42 79.516H97.2804V76.252H98.3484V78.664H104.42V79.516ZM96.6084 70.816C97.1364 70.312 97.8044 70.06 98.6124 70.06C99.4204 70.06 100.088 70.308 100.616 70.804C101.152 71.3 101.42 71.924 101.42 72.676C101.42 73.428 101.156 74.044 100.628 74.524C100.1 74.996 99.4284 75.232 98.6124 75.232C97.8044 75.232 97.1364 74.996 96.6084 74.524C96.0804 74.044 95.8164 73.432 95.8164 72.688C95.8164 71.936 96.0804 71.312 96.6084 70.816ZM98.6124 70.972C98.1244 70.972 97.7204 71.132 97.4004 71.452C97.0884 71.772 96.9324 72.176 96.9324 72.664C96.9324 73.144 97.0884 73.544 97.4004 73.864C97.7204 74.184 98.1244 74.344 98.6124 74.344C99.1244 74.344 99.5324 74.188 99.8364 73.876C100.14 73.564 100.292 73.164 100.292 72.676C100.292 72.172 100.14 71.764 99.8364 71.452C99.5324 71.132 99.1244 70.972 98.6124 70.972ZM114.719 79.84H113.699V74.56H112.619V79.324H111.599V69.58H112.619V73.684H113.699V69.352H114.719V79.84ZM110.867 75.34C110.867 75.972 110.655 76.476 110.231 76.852C109.807 77.22 109.251 77.404 108.563 77.404C107.883 77.404 107.327 77.212 106.895 76.828C106.463 76.436 106.247 75.94 106.247 75.34C106.247 74.716 106.459 74.22 106.883 73.852C107.315 73.476 107.875 73.288 108.563 73.288C109.251 73.288 109.807 73.476 110.231 73.852C110.655 74.22 110.867 74.716 110.867 75.34ZM109.475 76.204C109.723 75.972 109.847 75.684 109.847 75.34C109.847 74.996 109.723 74.712 109.475 74.488C109.235 74.264 108.931 74.152 108.563 74.152C108.187 74.152 107.875 74.268 107.627 74.5C107.387 74.724 107.267 75.004 107.267 75.34C107.267 75.692 107.387 75.984 107.627 76.216C107.867 76.44 108.179 76.552 108.563 76.552C108.931 76.552 109.235 76.436 109.475 76.204ZM111.083 72.808H105.887V71.932H111.083V72.808ZM109.871 71.008H107.051V70.144H109.871V71.008ZM124.406 73.228H121.394V74.056H125.618V74.932H116.15V74.056H120.326V73.228H117.374V69.652H118.43V70.648H123.338V69.64H124.406V73.228ZM124.814 79.684H117.338V77.248H123.362V76.492H117.29V75.64H124.43V78.04H118.406V78.808H124.814V79.684ZM123.338 72.376V71.488H118.43V72.376H123.338ZM134.669 69.352V73.66H136.229V74.548H134.669V79.84H133.613V69.352H134.669ZM129.461 70.48C129.461 73.32 128.597 75.652 126.869 77.476L126.053 76.852C126.781 76.188 127.353 75.348 127.769 74.332C128.193 73.308 128.413 72.32 128.429 71.368H126.641V70.48H129.461ZM132.329 70.48C132.321 72.104 132.137 73.516 131.777 74.716C131.417 75.908 130.785 77.044 129.881 78.124L129.017 77.524C129.785 76.748 130.357 75.792 130.733 74.656C131.117 73.52 131.309 72.424 131.309 71.368H129.869V70.48H132.329ZM144.284 70.804C145.004 71.3 145.364 71.956 145.364 72.772C145.364 73.588 145.004 74.244 144.284 74.74C143.572 75.236 142.628 75.484 141.452 75.484C140.284 75.484 139.34 75.236 138.62 74.74C137.908 74.244 137.552 73.588 137.552 72.772C137.552 71.956 137.908 71.3 138.62 70.804C139.34 70.3 140.284 70.048 141.452 70.048C142.628 70.048 143.572 70.3 144.284 70.804ZM144.272 72.772C144.272 72.22 144.012 71.776 143.492 71.44C142.98 71.096 142.3 70.924 141.452 70.924C140.604 70.924 139.924 71.096 139.412 71.44C138.9 71.776 138.644 72.22 138.644 72.772C138.644 73.316 138.9 73.76 139.412 74.104C139.932 74.44 140.612 74.608 141.452 74.608C142.3 74.608 142.98 74.44 143.492 74.104C144.012 73.76 144.272 73.316 144.272 72.772ZM146.192 78.508H136.724V77.644H138.992V75.784L140.06 75.748V77.644H142.832V75.748L143.888 75.784V77.644H146.192V78.508ZM148.33 76.816V75.808C148.33 75.544 148.382 75.308 148.486 75.1C148.598 74.884 148.714 74.716 148.834 74.596C148.962 74.476 149.194 74.28 149.53 74.008C149.778 73.808 149.974 73.548 150.118 73.228C150.262 72.908 150.334 72.576 150.334 72.232C150.334 71.832 150.198 71.536 149.926 71.344C149.654 71.144 149.286 71.044 148.822 71.044C148.342 71.044 147.81 71.144 147.226 71.344L147.118 70.528C147.662 70.288 148.314 70.168 149.074 70.168C149.746 70.168 150.306 70.34 150.754 70.684C151.21 71.028 151.438 71.536 151.438 72.208C151.438 72.696 151.334 73.128 151.126 73.504C150.926 73.88 150.602 74.252 150.154 74.62C149.762 74.948 149.522 75.18 149.434 75.316C149.33 75.484 149.278 75.672 149.278 75.88V76.816H148.33ZM148.234 78.784V77.608H149.398V78.784H148.234Z" fill="#484C52"/>
</svg>
