<svg width="358" height="130" viewBox="0 0 358 130" fill="none" xmlns="http://www.w3.org/2000/svg">
<rect width="358" height="130" rx="12" fill="#FFC2D1"/>
<path d="M30.14 34.206H19.358V27.582H21.194V29.454H28.304V27.546H30.14V34.206ZM30.104 19.014C30.104 21.21 29.942 23.106 29.618 24.702H31.994V26.196H17.504V24.702H27.836C28.112 23.454 28.25 22.05 28.25 20.49H19.394V19.014H30.104ZM28.304 32.73V30.894H21.194V32.73H28.304ZM46.3262 27.762H44.4722V18.402H46.3262V27.762ZM35.5262 28.608H46.3442V34.44H44.4902V30.066H35.5262V28.608ZM42.8162 25.404L41.7362 26.826C41.0282 26.538 40.3202 26.082 39.6122 25.458C38.9042 24.822 38.3882 24.144 38.0642 23.424C37.8242 24.216 37.3502 24.966 36.6422 25.674C35.9342 26.37 35.1482 26.898 34.2842 27.258L33.1502 25.8C34.3382 25.332 35.2922 24.636 36.0122 23.712C36.7322 22.776 37.0922 21.702 37.0922 20.49V19.05H38.9822V20.418C38.9822 21.594 39.3662 22.638 40.1342 23.55C40.9022 24.45 41.7962 25.068 42.8162 25.404ZM56.8064 20.058C56.7944 25.29 54.4244 29.148 49.6964 31.632L48.5084 30.3C51.0044 29.16 52.7924 27.498 53.8724 25.314L49.1744 25.818L48.8864 24.216L54.4844 23.802C54.7004 23.022 54.8324 22.272 54.8804 21.552H49.6964V20.058H56.8064ZM61.1444 18.384V24.648H63.6284V26.178H61.1444V34.422H59.2904V18.384H61.1444ZM78.7527 30.822V32.28H64.2627V30.822H78.7527ZM77.0607 27.186H66.1167V19.824H76.8987V21.282H67.9707V25.71H77.0607V27.186ZM92.9229 28.23H87.9729V30.912H94.3269V32.388H79.8369V30.912H86.1369V28.23H81.6909V23.046H90.6189V20.976H81.6369V19.5H92.4549V24.54H83.5449V26.736H92.9229V28.23ZM107.574 22.938V24.414H102.534V26.358C105.426 26.358 107.58 26.208 108.996 25.908L109.266 27.33C107.79 27.666 105.462 27.846 102.282 27.87H100.698V19.626H107.862V21.12H102.534V22.938H107.574ZM114.936 24.378H112.596V29.976H110.742V18.384H112.596V22.848H114.936V24.378ZM113.064 33.918H102.444V29.022H104.28V32.424H113.064V33.918ZM128.17 18.384V23.064H130.546V24.612H128.17V30.012H126.316V18.384H128.17ZM128.638 33.936H117.91V28.842H119.764V32.442H128.638V33.936ZM125.002 26.07L123.94 27.51C123.232 27.21 122.524 26.73 121.816 26.07C121.108 25.398 120.586 24.69 120.25 23.946C120.01 24.762 119.518 25.554 118.774 26.322C118.042 27.09 117.268 27.642 116.452 27.978L115.336 26.502C116.488 26.046 117.43 25.32 118.162 24.324C118.906 23.328 119.278 22.218 119.278 20.994V19.284H121.186V20.922C121.186 22.122 121.57 23.196 122.338 24.144C123.106 25.092 123.994 25.734 125.002 26.07ZM145.778 27.294H131.288V25.8H145.778V27.294ZM143.924 34.224H133.142V28.77H143.924V34.224ZM142.088 32.748V30.21H134.978V32.748H142.088ZM144.086 21.624C144.086 22.56 143.6 23.304 142.628 23.856C141.656 24.396 140.294 24.666 138.542 24.666C136.79 24.666 135.428 24.396 134.456 23.856C133.484 23.304 132.998 22.56 132.998 21.624C132.998 20.712 133.484 19.98 134.456 19.428C135.44 18.864 136.796 18.582 138.524 18.582C140.276 18.582 141.638 18.858 142.61 19.41C143.594 19.962 144.086 20.7 144.086 21.624ZM142.196 21.624C142.196 21.132 141.872 20.748 141.224 20.472C140.576 20.184 139.676 20.04 138.524 20.04C137.384 20.04 136.49 20.184 135.842 20.472C135.194 20.748 134.87 21.132 134.87 21.624C134.87 22.128 135.194 22.524 135.842 22.812C136.49 23.1 137.384 23.244 138.524 23.244C139.652 23.244 140.546 23.1 141.206 22.812C141.866 22.524 142.196 22.128 142.196 21.624ZM159.948 28.194H157.554V30.912H161.352V32.388H146.862V30.912H150.624V28.194H148.716V23.01H157.644V20.976H148.68V19.5H159.48V24.504H150.57V26.7H159.948V28.194ZM152.442 28.194V30.912H155.736V28.194H152.442ZM176.926 27.132H162.436V25.746H176.926V27.132ZM175.504 34.296H164.29V30.588H173.236V29.508H164.236V28.176H175.072V31.884H166.126V32.982H175.504V34.296ZM175.324 24.774H164.344V21.174H173.128V20.148H164.308V18.798H174.982V22.416H166.198V23.424H175.324V24.774ZM32.354 48.262H29.996V51.52H28.142V43.384H29.996V46.768H32.354V48.262ZM30.536 59.296H19.682V55.12H28.142V53.86H19.61V52.366H29.996V56.488H21.518V57.838H30.536V59.296ZM26.828 49.918L25.802 51.304C25.07 51.016 24.356 50.578 23.66 49.99C22.964 49.39 22.448 48.718 22.112 47.974C21.884 48.778 21.41 49.516 20.69 50.188C19.97 50.86 19.172 51.37 18.296 51.718L17.216 50.332C18.38 49.9 19.322 49.234 20.042 48.334C20.762 47.434 21.122 46.384 21.122 45.184V43.906H23.03V45.112C23.03 46.276 23.408 47.29 24.164 48.154C24.932 49.018 25.82 49.606 26.828 49.918ZM45.9787 59.44H44.1427V53.608H37.8427V52.15H52.3327V53.608H45.9787V59.44ZM51.7207 49.072L50.8747 50.566C49.6627 50.362 48.4927 49.906 47.3647 49.198C46.2487 48.49 45.4927 47.698 45.0967 46.822C44.7607 47.686 44.0347 48.472 42.9187 49.18C41.8027 49.888 40.6147 50.356 39.3547 50.584L38.5447 49.072C40.0207 48.904 41.3227 48.388 42.4507 47.524C43.5787 46.66 44.1427 45.67 44.1427 44.554V43.744H46.0867V44.554C46.0867 45.286 46.3747 45.994 46.9507 46.678C47.5387 47.35 48.2587 47.896 49.1107 48.316C49.9747 48.736 50.8447 48.988 51.7207 49.072ZM69.4855 43.384H71.3395V52.348H69.4855V43.384ZM65.5795 45.346C66.3835 46.066 66.7855 46.978 66.7855 48.082C66.7855 49.186 66.3895 50.08 65.5975 50.764C64.8175 51.436 63.8395 51.772 62.6635 51.772C61.4995 51.772 60.5215 51.436 59.7295 50.764C58.9375 50.08 58.5415 49.186 58.5415 48.082C58.5415 46.99 58.9375 46.084 59.7295 45.364C60.5335 44.632 61.5115 44.266 62.6635 44.266C63.8155 44.266 64.7875 44.626 65.5795 45.346ZM64.9855 48.064C64.9855 47.416 64.7695 46.876 64.3375 46.444C63.9175 46 63.3595 45.778 62.6635 45.778C61.9795 45.778 61.4215 46 60.9895 46.444C60.5575 46.888 60.3415 47.428 60.3415 48.064C60.3415 48.736 60.5575 49.288 60.9895 49.72C61.4215 50.152 61.9795 50.368 62.6635 50.368C63.3475 50.368 63.9055 50.152 64.3375 49.72C64.7695 49.276 64.9855 48.724 64.9855 48.064ZM72.8875 58.036L71.8795 59.368C71.3155 59.116 70.7395 58.708 70.1515 58.144C69.5755 57.592 69.1915 57.034 68.9995 56.47C68.8435 57.046 68.4715 57.634 67.8835 58.234C67.2955 58.846 66.6775 59.314 66.0295 59.638L64.9855 58.396C65.9335 57.964 66.6835 57.352 67.2355 56.56C67.7995 55.768 68.0815 54.868 68.0815 53.86V53.122H69.8635V53.842C69.8635 54.826 70.1395 55.69 70.6915 56.434C71.2435 57.178 71.9755 57.712 72.8875 58.036ZM64.8055 58.054C64.4815 57.886 64.1575 57.652 63.8335 57.352C63.5095 57.04 63.2695 56.722 63.1135 56.398C62.9215 57.034 62.5375 57.634 61.9615 58.198C61.3975 58.762 60.7435 59.206 59.9995 59.53L58.9915 58.288C59.8915 57.904 60.6415 57.334 61.2415 56.578C61.8415 55.81 62.1415 54.94 62.1415 53.968V53.212H63.9415V53.878C63.9415 54.622 64.1515 55.246 64.5715 55.75C64.9915 56.254 65.4655 56.59 65.9935 56.758L64.8055 58.054ZM88.2097 51.628H73.7197V50.152H88.2097V51.628ZM86.8777 59.314H75.5737V55.354H84.4297V54.238H75.4837V52.78H86.2837V56.704H77.4097V57.856H86.8777V59.314ZM80.9917 43.474C82.7437 43.474 84.1117 43.738 85.0957 44.266C86.0797 44.782 86.5717 45.472 86.5717 46.336C86.5717 47.2 86.0797 47.89 85.0957 48.406C84.1117 48.922 82.7437 49.18 80.9917 49.18C79.2517 49.18 77.8897 48.922 76.9057 48.406C75.9337 47.89 75.4477 47.2 75.4477 46.336C75.4477 45.472 75.9337 44.782 76.9057 44.266C77.8897 43.738 79.2517 43.474 80.9917 43.474ZM83.6917 45.292C83.0437 45.028 82.1437 44.896 80.9917 44.896C79.8397 44.896 78.9397 45.028 78.2917 45.292C77.6437 45.544 77.3197 45.892 77.3197 46.336C77.3197 46.768 77.6437 47.11 78.2917 47.362C78.9397 47.614 79.8397 47.74 80.9917 47.74C82.1437 47.74 83.0437 47.614 83.6917 47.362C84.3517 47.11 84.6817 46.768 84.6817 46.336C84.6817 45.892 84.3517 45.544 83.6917 45.292ZM101.858 43.384V49.846H104.234V51.376H101.858V59.422H100.094V43.384H101.858ZM94.0999 45.094C94.0999 47.446 93.7819 49.48 93.1459 51.196C92.5219 52.912 91.5499 54.466 90.2299 55.858L88.8079 54.886C89.9119 53.866 90.7759 52.6 91.3999 51.088C92.0239 49.576 92.3419 48.076 92.3539 46.588H89.7979V45.094H94.0999ZM98.5099 45.094C98.5099 47.746 98.2399 49.954 97.6999 51.718C97.1719 53.47 96.2119 55.168 94.8199 56.812L93.3439 55.858C94.5079 54.658 95.3719 53.254 95.9359 51.646C96.4999 50.026 96.7819 48.34 96.7819 46.588H94.7839V45.094H98.5099ZM106.722 53.68V52.816C106.722 52.252 106.848 51.802 107.1 51.466C107.364 51.13 107.85 50.68 108.558 50.116C109.266 49.528 109.62 48.724 109.62 47.704C109.62 46.588 108.912 46.03 107.496 46.03C106.8 46.03 106.002 46.18 105.102 46.48V45.094C105.906 44.734 106.86 44.554 107.964 44.554C109.02 44.554 109.878 44.806 110.538 45.31C111.21 45.802 111.546 46.57 111.546 47.614C111.546 48.358 111.408 48.982 111.132 49.486C110.868 49.978 110.4 50.506 109.728 51.07C109.368 51.346 109.11 51.556 108.954 51.7C108.81 51.832 108.678 52.006 108.558 52.222C108.438 52.438 108.378 52.684 108.378 52.96V53.68H106.722ZM106.578 57.442V55.498H108.558V57.442H106.578Z" fill="#121212"/>
<path d="M27.188 74.404H25.556V79.84H24.5V69.352H25.556V73.528H27.188V74.404ZM23.636 76.492L23 77.284C22.488 76.948 21.98 76.484 21.476 75.892C20.972 75.3 20.628 74.72 20.444 74.152C20.268 74.784 19.94 75.408 19.46 76.024C18.988 76.64 18.452 77.148 17.852 77.548L17.192 76.756C18 76.252 18.652 75.572 19.148 74.716C19.644 73.86 19.892 72.956 19.892 72.004V70.252H20.984V71.956C20.984 72.9 21.232 73.772 21.728 74.572C22.224 75.372 22.86 76.012 23.636 76.492ZM36.3948 79.84H35.3268V69.352H36.3948V79.84ZM28.1148 73.84C28.1148 72.744 28.3428 71.856 28.7988 71.176C29.2548 70.488 29.9268 70.144 30.8148 70.144C31.7028 70.144 32.3708 70.488 32.8188 71.176C33.2748 71.856 33.5028 72.748 33.5028 73.852C33.5028 74.956 33.2748 75.852 32.8188 76.54C32.3708 77.22 31.7028 77.56 30.8148 77.56C29.9268 77.56 29.2548 77.216 28.7988 76.528C28.3428 75.84 28.1148 74.944 28.1148 73.84ZM32.0268 75.88C32.3068 75.368 32.4468 74.692 32.4468 73.852C32.4468 73.012 32.3068 72.336 32.0268 71.824C31.7468 71.312 31.3428 71.056 30.8148 71.056C30.2948 71.056 29.8948 71.312 29.6148 71.824C29.3348 72.336 29.1948 73.012 29.1948 73.852C29.1948 74.692 29.3348 75.368 29.6148 75.88C29.8948 76.384 30.2948 76.636 30.8148 76.636C31.3428 76.636 31.7468 76.384 32.0268 75.88ZM39.5296 76.396H39.9616C41.8336 76.396 43.2896 76.284 44.3296 76.06L44.4496 76.924C43.3616 77.148 41.7616 77.268 39.6496 77.284H38.4736V70.456H43.4296V71.332H39.5296V76.396ZM46.1296 69.352V73.444H47.7616V74.332H46.1296V79.84H45.0736V69.352H46.1296ZM48.1364 80.116L48.5564 77.692H49.7684L49.0244 80.116H48.1364ZM59.7901 79.72H52.2421V77.236H58.3261V76.396H52.1821V75.532H59.3941V78.004H53.2981V78.856H59.7901V79.72ZM59.4181 69.712V70.636C59.4181 71.732 59.3221 72.636 59.1301 73.348C58.6821 73.284 58.3421 73.24 58.1101 73.216C58.1981 72.864 58.2621 72.472 58.3021 72.04L52.1581 72.304L52.0021 71.5L58.3381 71.26V70.564H52.3021V69.712H59.4181ZM60.6181 74.764H51.1501V73.9H54.8941V72.58H55.9501V73.9H60.6181V74.764ZM67.6529 76.12L67.7609 77.008C66.4009 77.24 64.8409 77.356 63.0809 77.356H61.8209V73.24H65.5889V71.164H61.7849V70.3H66.6449V74.092H62.8769V76.48C64.7649 76.496 66.3569 76.376 67.6529 76.12ZM69.5369 69.352V73.516H71.1689V74.392H69.5369V79.84H68.4809V69.352H69.5369ZM83.0481 70.12C83.0481 71.928 82.9201 73.46 82.6641 74.716H84.2481V75.568H80.0361V79.84H78.9681V75.568H74.7801V74.716H81.6201C81.8521 73.78 81.9681 72.54 81.9681 70.996H75.8721V70.12H83.0481ZM89.5669 77.068H85.4389V70.48H89.5669V77.068ZM93.9229 79.84H92.9029V74.368H91.7509V79.324H90.7309V69.58H91.7509V73.492H92.9029V69.352H93.9229V79.84ZM88.5469 76.228V71.332H86.4469V76.228H88.5469ZM103.454 69.352V73.648H105.134V74.536H103.454V79.84H102.398V69.352H103.454ZM100.694 70.468C100.662 72.1 100.242 73.532 99.4337 74.764C98.6257 75.996 97.4857 77.012 96.0137 77.812L95.3657 77.008C96.5817 76.424 97.5577 75.624 98.2937 74.608C99.0377 73.592 99.4577 72.512 99.5537 71.368H95.8217V70.468H100.694ZM116.797 69.352V73.648H118.477V74.536H116.797V79.84H115.741V69.352H116.797ZM114.037 70.468C114.005 72.1 113.585 73.532 112.777 74.764C111.969 75.996 110.829 77.012 109.357 77.812L108.709 77.008C109.925 76.424 110.901 75.624 111.637 74.608C112.381 73.592 112.801 72.512 112.897 71.368H109.165V70.468H114.037ZM128.452 75.04H118.984V74.188H128.452V75.04ZM127.372 77.812C127.372 78.42 127.056 78.892 126.424 79.228C125.792 79.572 124.892 79.744 123.724 79.744C122.556 79.744 121.656 79.572 121.024 79.228C120.4 78.892 120.088 78.42 120.088 77.812C120.088 77.212 120.404 76.744 121.036 76.408C121.668 76.064 122.564 75.892 123.724 75.892C124.892 75.892 125.792 76.064 126.424 76.408C127.056 76.744 127.372 77.212 127.372 77.812ZM123.724 76.756C122.932 76.756 122.308 76.848 121.852 77.032C121.404 77.216 121.18 77.48 121.18 77.824C121.18 78.16 121.404 78.424 121.852 78.616C122.308 78.8 122.932 78.892 123.724 78.892C124.524 78.892 125.152 78.8 125.608 78.616C126.064 78.424 126.292 78.16 126.292 77.824C126.292 77.48 126.064 77.216 125.608 77.032C125.152 76.848 124.524 76.756 123.724 76.756ZM127.3 73.156H120.28V69.628H121.336V72.292H127.3V73.156ZM138.942 73.768H137.37V77.08H136.314V69.352H137.37V72.868H138.942V73.768ZM137.73 79.528H130.734V76.78H131.79V78.676H137.73V79.528ZM133.758 70.54H130.71V69.676H133.758V70.54ZM135.366 72.112H129.21V71.26H135.366V72.112ZM134.778 74.488C134.778 75.056 134.546 75.512 134.082 75.856C133.618 76.192 133.022 76.36 132.294 76.36C131.574 76.36 130.982 76.192 130.518 75.856C130.054 75.512 129.822 75.056 129.822 74.488C129.822 73.904 130.05 73.444 130.506 73.108C130.97 72.772 131.566 72.604 132.294 72.604C133.022 72.604 133.618 72.772 134.082 73.108C134.546 73.444 134.778 73.904 134.778 74.488ZM133.722 74.488C133.722 74.168 133.582 73.916 133.302 73.732C133.03 73.548 132.694 73.456 132.294 73.456C131.894 73.456 131.558 73.548 131.286 73.732C131.014 73.916 130.878 74.168 130.878 74.488C130.878 74.792 131.014 75.04 131.286 75.232C131.566 75.416 131.902 75.508 132.294 75.508C132.694 75.508 133.03 75.416 133.302 75.232C133.582 75.048 133.722 74.8 133.722 74.488ZM146.013 76.552L145.389 77.344C144.853 77.032 144.329 76.584 143.817 76C143.305 75.408 142.969 74.832 142.809 74.272C142.657 74.888 142.337 75.504 141.849 76.12C141.361 76.728 140.805 77.216 140.181 77.584L139.509 76.816C140.333 76.328 140.997 75.672 141.501 74.848C142.005 74.016 142.257 73.104 142.257 72.112V71.272H139.881V70.408H145.701V71.272H143.349V72.112C143.349 73.088 143.597 73.968 144.093 74.752C144.589 75.528 145.229 76.128 146.013 76.552ZM147.141 69.352H148.209V79.84H147.141V69.352ZM159.428 75.952C158.532 76.08 157.424 76.176 156.104 76.24C154.52 76.32 153.428 76.36 152.828 76.36L152.672 75.484C153.488 75.484 154.448 75.464 155.552 75.424V74.764C154.992 74.708 154.54 74.564 154.196 74.332C153.86 74.092 153.692 73.776 153.692 73.384C153.692 72.92 153.916 72.564 154.364 72.316C154.82 72.06 155.4 71.932 156.104 71.932C156.808 71.932 157.388 72.06 157.844 72.316C158.3 72.564 158.528 72.916 158.528 73.372C158.528 73.764 158.352 74.08 158 74.32C157.648 74.56 157.188 74.708 156.62 74.764V75.364C157.932 75.3 158.832 75.224 159.32 75.136L159.428 75.952ZM162.608 73.66H161.048V76.348H160.004V69.352H161.048V72.784H162.608V73.66ZM154.112 76.888H161.048V79.888H160.004V77.752H154.112V76.888ZM159.092 71.656H153.056V70.828H159.092V71.656ZM157.496 73.372C157.496 73.164 157.368 73.004 157.112 72.892C156.856 72.78 156.52 72.724 156.104 72.724C155.688 72.724 155.352 72.78 155.096 72.892C154.848 73.004 154.724 73.164 154.724 73.372C154.724 73.572 154.852 73.732 155.108 73.852C155.364 73.964 155.696 74.02 156.104 74.02C156.512 74.02 156.844 73.964 157.1 73.852C157.364 73.732 157.496 73.572 157.496 73.372ZM157.544 70.312H154.616V69.484H157.544V70.312ZM171.791 76.972H170.723V69.352H171.791V76.972ZM172.031 79.516H164.891V76.252H165.959V78.664H172.031V79.516ZM164.219 70.816C164.747 70.312 165.415 70.06 166.223 70.06C167.031 70.06 167.699 70.308 168.227 70.804C168.763 71.3 169.031 71.924 169.031 72.676C169.031 73.428 168.767 74.044 168.239 74.524C167.711 74.996 167.039 75.232 166.223 75.232C165.415 75.232 164.747 74.996 164.219 74.524C163.691 74.044 163.427 73.432 163.427 72.688C163.427 71.936 163.691 71.312 164.219 70.816ZM166.223 70.972C165.735 70.972 165.331 71.132 165.011 71.452C164.699 71.772 164.543 72.176 164.543 72.664C164.543 73.144 164.699 73.544 165.011 73.864C165.331 74.184 165.735 74.344 166.223 74.344C166.735 74.344 167.143 74.188 167.447 73.876C167.751 73.564 167.903 73.164 167.903 72.676C167.903 72.172 167.751 71.764 167.447 71.452C167.143 71.132 166.735 70.972 166.223 70.972ZM182.33 79.84H181.31V74.56H180.23V79.324H179.21V69.58H180.23V73.684H181.31V69.352H182.33V79.84ZM178.478 75.34C178.478 75.972 178.266 76.476 177.842 76.852C177.418 77.22 176.862 77.404 176.174 77.404C175.494 77.404 174.938 77.212 174.506 76.828C174.074 76.436 173.858 75.94 173.858 75.34C173.858 74.716 174.07 74.22 174.494 73.852C174.926 73.476 175.486 73.288 176.174 73.288C176.862 73.288 177.418 73.476 177.842 73.852C178.266 74.22 178.478 74.716 178.478 75.34ZM177.086 76.204C177.334 75.972 177.458 75.684 177.458 75.34C177.458 74.996 177.334 74.712 177.086 74.488C176.846 74.264 176.542 74.152 176.174 74.152C175.798 74.152 175.486 74.268 175.238 74.5C174.998 74.724 174.878 75.004 174.878 75.34C174.878 75.692 174.998 75.984 175.238 76.216C175.478 76.44 175.79 76.552 176.174 76.552C176.542 76.552 176.846 76.436 177.086 76.204ZM178.694 72.808H173.498V71.932H178.694V72.808ZM177.482 71.008H174.662V70.144H177.482V71.008ZM190.301 77.416C189.645 77.512 188.441 77.612 186.689 77.716C185.633 77.772 184.645 77.8 183.725 77.8L183.557 76.912C184.757 76.912 185.697 76.896 186.377 76.864V74.968H184.265V70.192H185.321V71.788H188.549V70.18H189.605V74.968H187.433V76.816C188.729 76.736 189.649 76.656 190.193 76.576L190.301 77.416ZM193.529 74.692H191.909V79.84H190.865V69.352H191.909V73.804H193.529V74.692ZM188.549 74.116V72.652H185.321V74.116H188.549ZM201.608 70.804C202.328 71.3 202.688 71.956 202.688 72.772C202.688 73.588 202.328 74.244 201.608 74.74C200.896 75.236 199.952 75.484 198.776 75.484C197.608 75.484 196.664 75.236 195.944 74.74C195.232 74.244 194.876 73.588 194.876 72.772C194.876 71.956 195.232 71.3 195.944 70.804C196.664 70.3 197.608 70.048 198.776 70.048C199.952 70.048 200.896 70.3 201.608 70.804ZM201.596 72.772C201.596 72.22 201.336 71.776 200.816 71.44C200.304 71.096 199.624 70.924 198.776 70.924C197.928 70.924 197.248 71.096 196.736 71.44C196.224 71.776 195.968 72.22 195.968 72.772C195.968 73.316 196.224 73.76 196.736 74.104C197.256 74.44 197.936 74.608 198.776 74.608C199.624 74.608 200.304 74.44 200.816 74.104C201.336 73.76 201.596 73.316 201.596 72.772ZM203.516 78.508H194.048V77.644H196.316V75.784L197.384 75.748V77.644H200.156V75.748L201.212 75.784V77.644H203.516V78.508ZM205.043 76.588L204.911 70.048H206.075L205.943 76.588H205.043ZM204.923 78.7V77.536H206.087V78.7H204.923Z" fill="#484C52"/>
<g clip-path="url(#clip0_1802_2035)">
<mask id="mask0_1802_2035" style="mask-type:luminance" maskUnits="userSpaceOnUse" x="234" y="29" width="98" height="121">
<path d="M331.999 29H234V149.313H331.999V29Z" fill="white"/>
</mask>
<g mask="url(#mask0_1802_2035)">
<path d="M298.259 37.1931L299.272 38.7179L301.07 38.3538C313.917 35.7479 325.262 47.0817 322.645 59.929L322.281 61.7269L323.806 62.7397C334.73 69.9769 334.73 86.0217 323.806 93.259L322.281 94.2717L322.645 96.0696C325.251 108.917 313.917 120.262 301.07 117.645L299.272 117.281L298.259 118.806C291.022 129.73 274.977 129.73 267.74 118.806L266.727 117.281L264.929 117.645C252.082 120.251 240.737 108.917 243.354 96.0696L243.718 94.2717L242.193 93.259C231.269 86.0217 231.269 69.9769 242.193 62.7397L243.718 61.7269L243.354 59.929C240.748 47.0931 252.093 35.7479 264.94 38.3538L266.738 38.7179L267.751 37.1931C274.988 26.269 291.033 26.269 298.27 37.1931H298.259Z" fill="#FF7551"/>
<path d="M304.381 120.012L294.231 118.066C292.376 115.756 289.383 114.003 284.126 113.833C283.989 113.833 283.864 113.833 283.727 113.833C283.602 113.833 283.466 113.833 283.329 113.833C283.158 113.833 282.988 113.833 282.828 113.833C282.658 113.833 282.498 113.833 282.328 113.833C282.191 113.833 282.066 113.833 281.93 113.833C281.804 113.833 281.668 113.833 281.531 113.833C276.263 114.003 273.258 115.767 271.415 118.089L265.316 123.721C264.986 123.778 264.781 124.097 264.838 124.427L261.765 125.144C261.822 125.474 262.141 125.679 262.471 125.622L268.502 124.461C268.252 125.326 268.024 126.157 267.774 126.919C266.988 129.274 265.998 135.317 272.291 138.23C272.758 138.458 273.281 138.662 273.873 138.844C274.442 139.027 275.056 139.186 275.728 139.322V145.558H281.975V139.857C282.089 139.857 282.203 139.857 282.316 139.857C282.487 139.857 282.658 139.857 282.817 139.857C282.988 139.857 283.147 139.857 283.318 139.857C283.454 139.857 283.58 139.857 283.716 139.857C283.739 139.857 283.75 139.857 283.773 139.857V145.558H290.02V139.3C290.646 139.163 291.226 139.015 291.761 138.844C292.353 138.662 292.876 138.458 293.343 138.23C299.647 135.317 298.646 129.274 297.861 126.919C297.61 126.157 297.383 125.314 297.121 124.438L303.266 125.622C303.596 125.679 303.903 125.474 303.971 125.144L304.825 120.717C304.882 120.387 304.677 120.08 304.347 120.012H304.381Z" fill="#FEDE57"/>
<path d="M282.897 115.665C301.487 115.665 316.557 100.595 316.557 82.0049C316.557 63.4149 301.487 48.3448 282.897 48.3448C264.307 48.3448 249.237 63.4149 249.237 82.0049C249.237 100.595 264.307 115.665 282.897 115.665Z" fill="#FEDE57"/>
<path d="M284.888 89.6177C284.638 89.5266 284.331 89.4811 284.024 89.4697C283.705 89.4697 283.409 89.538 283.159 89.6177C282.874 89.7201 282.169 90.1183 282.169 90.5963C282.169 91.1539 282.726 91.5977 283.409 91.5977C283.523 91.5977 283.602 91.5635 283.694 91.5408C283.91 91.4611 284.149 91.4611 284.376 91.5408C284.467 91.5749 284.547 91.5977 284.661 91.5977C285.344 91.5977 285.901 91.1539 285.901 90.5963C285.901 90.1183 285.196 89.7201 284.911 89.6177H284.888Z" fill="#EC7762"/>
<path d="M288.541 80.958V84.4059C288.541 88.1611 291.568 91.1994 295.289 91.1994H300.341C304.074 91.1994 307.101 88.1497 307.101 84.3946C307.101 78.8415 304.461 74.267 299.556 73.2313C299.499 73.22 299.442 73.2087 299.374 73.1973C295.278 72.6397 292.979 73.9482 290.84 75.8486C289.383 77.1458 288.541 79.0008 288.541 80.958Z" fill="white"/>
<path d="M288.575 83.9848L288.598 85.3731C288.655 88.5138 291.249 91.0172 294.401 90.9603L296.529 90.9148C299.898 90.8465 302.515 87.8879 302.082 84.5424C301.65 81.1969 299.716 78.4772 296.518 77.8627C296.472 77.8627 296.427 77.8513 296.393 77.84C293.582 77.51 291.943 78.352 290.487 79.6265C289.235 80.7076 288.564 82.3234 288.598 83.9734L288.575 83.9848Z" fill="#241004"/>
<path d="M292.228 83.4614C292.85 83.4614 293.354 82.957 293.354 82.3348C293.354 81.7126 292.85 81.2083 292.228 81.2083C291.606 81.2083 291.101 81.7126 291.101 82.3348C291.101 82.957 291.606 83.4614 292.228 83.4614Z" fill="white"/>
<path d="M272.61 84.8155C272.905 84.8155 273.145 84.5761 273.145 84.2807C273.145 83.9853 272.905 83.7458 272.61 83.7458C272.315 83.7458 272.075 83.9853 272.075 84.2807C272.075 84.5761 272.315 84.8155 272.61 84.8155Z" fill="white"/>
<path d="M272.405 84.918C272.751 84.918 273.031 84.6378 273.031 84.2921C273.031 83.9465 272.751 83.6663 272.405 83.6663C272.059 83.6663 271.779 83.9465 271.779 84.2921C271.779 84.6378 272.059 84.918 272.405 84.918Z" fill="white"/>
<path d="M288.257 80.9011C288.052 78.5115 289.486 76.1332 291.443 74.7563C297.428 70.2728 307.67 74.2897 307.51 82.1415C307.51 82.3577 307.203 82.4146 307.135 82.1984C306.486 80.0818 305.439 78.1587 303.835 76.907C299.135 73.129 290.18 74.3125 288.814 80.9239C288.769 81.2425 288.268 81.2197 288.257 80.9011Z" fill="#241004"/>
<path d="M290.123 67.758C292.399 65.7894 295.335 65.1521 298.817 67.5645" stroke="#CC7229" stroke-width="1.7069" stroke-miterlimit="10" stroke-linecap="round"/>
<path d="M277.56 67.758C275.284 65.7894 272.348 65.1521 268.866 67.5645" stroke="#CC7229" stroke-width="1.7069" stroke-miterlimit="10" stroke-linecap="round"/>
<path d="M310.697 120.49L309.866 120.33C310.275 119.864 310.287 119.147 309.877 118.658C309.422 118.123 308.603 118.055 308.068 118.51L306.657 119.716L301.661 118.76C301.422 118.715 301.183 118.874 301.138 119.113L300 125.053C299.954 125.292 300.114 125.531 300.353 125.576L309.399 127.317C311.277 127.681 313.098 126.441 313.462 124.564C313.826 122.686 312.585 120.865 310.708 120.501L310.697 120.49Z" fill="#FF7551"/>
<g opacity="0.5">
<path d="M301.217 120.16L303.743 120.638" stroke="white" stroke-width="0.432414" stroke-miterlimit="10"/>
<path d="M300.967 121.457L303.493 121.946" stroke="white" stroke-width="0.432414" stroke-miterlimit="10"/>
<path d="M300.717 122.754L303.254 123.232" stroke="white" stroke-width="0.432414" stroke-miterlimit="10"/>
<path d="M300.467 124.051L303.004 124.541" stroke="white" stroke-width="0.432414" stroke-miterlimit="10"/>
</g>
<path d="M278.493 80.958V84.4059C278.493 88.1611 275.466 91.1994 271.745 91.1994H266.693C262.96 91.1994 259.934 88.1497 259.934 84.3946C259.934 78.8415 262.574 74.267 267.478 73.2313C267.535 73.22 267.592 73.2087 267.66 73.1973C271.757 72.6397 274.055 73.9482 276.195 75.8486C277.651 77.1458 278.493 79.0008 278.493 80.958Z" fill="white"/>
<path d="M278.459 83.9848L278.436 85.3731C278.379 88.5138 275.785 91.0172 272.633 90.9603L270.505 90.9148C267.137 90.8465 264.519 87.8879 264.952 84.5424C265.396 81.1286 267.319 78.4772 270.516 77.8627C270.562 77.8627 270.607 77.8513 270.642 77.84C273.452 77.51 275.091 78.352 276.547 79.6265C277.799 80.7076 278.47 82.3234 278.436 83.9734L278.459 83.9848Z" fill="#241004"/>
<path d="M274.578 83.5069C275.201 83.5069 275.705 83.0026 275.705 82.3803C275.705 81.7582 275.201 81.2538 274.578 81.2538C273.956 81.2538 273.452 81.7582 273.452 82.3803C273.452 83.0026 273.956 83.5069 274.578 83.5069Z" fill="white"/>
<path d="M278.231 80.9239C276.866 74.3125 267.899 73.129 263.211 76.907C261.606 78.1587 260.559 80.0704 259.911 82.1984C259.854 82.4032 259.524 82.3463 259.535 82.1415C259.376 74.2897 269.617 70.2728 275.603 74.7563C277.571 76.1446 278.994 78.5115 278.789 80.9011C278.766 81.2311 278.277 81.2425 278.231 80.9239Z" fill="#241004"/>
<path d="M267.091 95.7169C273.847 95.7169 279.324 94.2293 279.324 92.3942C279.324 90.5591 273.847 89.0714 267.091 89.0714C260.335 89.0714 254.858 90.5591 254.858 92.3942C254.858 94.2293 260.335 95.7169 267.091 95.7169Z" fill="#FEDE57"/>
<path d="M301.695 95.7169C308.451 95.7169 313.928 94.2293 313.928 92.3942C313.928 90.5591 308.451 89.0714 301.695 89.0714C294.939 89.0714 289.463 90.5591 289.463 92.3942C289.463 94.2293 294.939 95.7169 301.695 95.7169Z" fill="#FEDE57"/>
<path d="M272.246 113.947C279.506 116.291 286.14 116.427 292.877 114.14L295.107 117.417C287.585 120.854 278.152 119.272 269.833 117.042L272.235 113.947H272.246Z" fill="#FF7551"/>
<path d="M292.99 123.664L289.759 123.221C287.574 122.913 285.719 121.491 284.843 119.511C284.41 119.534 283.967 119.545 283.534 119.545C282.999 119.545 282.465 119.534 281.941 119.5C281.054 121.468 279.21 122.879 277.037 123.186L273.805 123.63C273.293 123.699 272.906 123.164 273.145 122.709L274.306 120.433C274.67 119.716 275.148 119.067 275.705 118.521C275.125 118.373 274.556 118.191 273.987 118.009H293.047C292.41 118.225 291.761 118.419 291.113 118.578C291.659 119.124 292.126 119.75 292.49 120.455L293.65 122.731C293.889 123.198 293.502 123.733 292.99 123.653V123.664Z" fill="#FF7551"/>
<path d="M286.675 118.1L287.915 118.362C288.916 118.578 289.77 119.215 290.248 120.103L290.783 121.138C290.896 121.343 290.714 121.594 290.475 121.559L288.973 121.355C287.835 121.195 286.902 120.421 286.572 119.352L286.345 118.624L286.675 118.1Z" fill="#C65E43"/>
<path d="M280.075 118.567L279.46 119.682C278.96 120.581 278.095 121.207 277.105 121.4L275.955 121.616C275.728 121.662 275.546 121.423 275.648 121.207L276.285 119.83C276.763 118.794 277.787 118.123 278.903 118.111H279.665L280.075 118.578V118.567Z" fill="#C65E43"/>
<path d="M283.602 114.709H281.918C280.096 114.709 278.618 116.186 278.618 118.009C278.618 119.831 280.096 121.309 281.918 121.309H283.602C285.425 121.309 286.902 119.831 286.902 118.009C286.902 116.186 285.425 114.709 283.602 114.709Z" fill="#FF7551"/>
<path d="M286.879 118.009C286.879 118.919 286.515 119.739 285.912 120.33C285.321 120.922 284.501 121.298 283.591 121.298H281.918C281.338 121.298 280.78 121.15 280.302 120.865C280.484 120.899 280.666 120.911 280.86 120.911H282.533C283.432 120.911 284.251 120.547 284.854 119.943C285.446 119.352 285.821 118.532 285.821 117.622C285.821 116.404 285.15 115.335 284.16 114.766C285.696 115.039 286.868 116.382 286.868 117.998L286.879 118.009Z" fill="#C65E43"/>
<path d="M287.847 96.9118V98.1862C287.847 98.6755 287.745 99.1421 287.551 99.5631C287.028 100.712 285.867 101.509 284.524 101.509H283.25C281.907 101.509 280.746 100.712 280.223 99.5631C280.029 99.1421 279.927 98.6755 279.927 98.1862V96.9118C279.927 95.0797 281.418 93.589 283.25 93.589H284.524C286.356 93.589 287.847 95.0797 287.847 96.9118Z" fill="#EC7762"/>
<path opacity="0.5" d="M287.551 99.5632C287.028 100.713 285.867 101.509 284.524 101.509H283.25C281.907 101.509 280.746 100.713 280.223 99.5632C280.746 98.4139 281.907 97.606 283.25 97.606H284.524C285.867 97.606 287.028 98.4025 287.551 99.5632Z" fill="white"/>
<path d="M276.259 117.132C277.469 115.736 277.318 113.623 275.921 112.413C274.525 111.204 272.412 111.355 271.202 112.752L262.872 122.368C261.663 123.764 261.814 125.877 263.211 127.087C264.607 128.297 266.72 128.145 267.93 126.748L276.259 117.132Z" fill="#FEDE57"/>
<path d="M281.531 106.835C281.338 106.641 281.122 106.482 280.894 106.345L282.385 104.342C282.919 103.626 282.772 102.59 282.055 102.044C281.338 101.509 280.302 101.657 279.756 102.374L276.41 106.857C276.41 106.857 276.365 106.903 276.342 106.914L275.716 107.563C275.534 106.937 274.92 106.505 274.248 106.584C273.509 106.675 272.974 107.358 273.065 108.098L273.315 110.043L269.583 113.912C269.401 114.095 269.412 114.402 269.594 114.584L274.192 119.022C274.374 119.204 274.681 119.192 274.863 119.01L281.622 112.012C283.022 110.556 282.988 108.223 281.531 106.823V106.835Z" fill="#FF7551"/>
<g opacity="0.54">
<path d="M270.619 115.107L272.53 113.173" stroke="white" stroke-width="0.432414" stroke-miterlimit="10"/>
<path d="M271.62 116.097L273.532 114.151" stroke="white" stroke-width="0.432414" stroke-miterlimit="10"/>
<path d="M272.61 117.076L274.522 115.13" stroke="white" stroke-width="0.432414" stroke-miterlimit="10"/>
<path d="M273.611 118.054L275.523 116.108" stroke="white" stroke-width="0.432414" stroke-miterlimit="10"/>
</g>
</g>
</g>
<defs>
<clipPath id="clip0_1802_2035">
<rect width="99" height="101" fill="white" transform="translate(234 29)"/>
</clipPath>
</defs>
</svg>
