<svg width="27" height="27" viewBox="0 0 27 27" fill="none" xmlns="http://www.w3.org/2000/svg">
<path d="M24.0929 20.5549L2.80059 26.1128C1.52274 26.4515 0.368053 25.2506 0.70676 23.942L6.41859 1.95682C6.66492 1.01768 7.58867 0.478829 8.49702 0.69437C16.9801 2.66503 23.6465 9.62392 25.3554 18.4457C25.5401 19.3848 25.0013 20.3086 24.0929 20.5549Z" fill="#F0C958"/>
<path d="M24.585 17.3372C24.5542 17.1832 24.5234 17.0446 24.4773 16.9061H24.4157C22.4758 16.9061 20.89 15.3357 20.89 13.3804C20.89 12.3951 21.3057 11.4868 21.9831 10.8247C19.0118 5.91349 14.0543 2.31088 8.21932 1.07922C7.32636 0.879074 6.4488 1.40253 6.21787 2.26469L3.35425 13.2265C3.81613 12.9956 4.33958 12.857 4.90923 12.857C6.86449 12.857 8.43486 14.4428 8.43486 16.3826C8.43486 18.3225 6.86449 19.9083 4.90923 19.9083C3.70835 19.9083 2.64605 19.3078 1.99942 18.3841L0.906324 22.6025C0.583012 23.8034 1.7069 24.8965 2.92317 24.5886L13.4077 21.8635C12.9304 21.2785 12.6687 20.5087 12.6687 19.6927C12.6687 17.7374 14.2391 16.1671 16.1943 16.1671C18.1496 16.1671 19.72 17.7374 19.72 19.6927C19.72 19.8775 19.72 20.0622 19.6738 20.2316L23.3688 19.2616C24.2463 19.0461 24.7544 18.1839 24.5696 17.3218L24.585 17.3372ZM11.9759 12.3797C10.036 12.3797 8.45025 10.8094 8.45025 8.85409C8.45025 6.89882 10.036 5.32845 11.9759 5.32845C13.9158 5.32845 15.5015 6.91422 15.5015 8.85409C15.5015 10.794 13.9311 12.3797 11.9759 12.3797Z" fill="#FCE292"/>
<path d="M19.7363 19.7081C19.7363 19.8929 19.7363 20.0776 19.6901 20.247L13.4241 21.8789C12.9468 21.2939 12.6851 20.5241 12.6851 19.7081C12.6851 17.7529 14.2554 16.1825 16.2107 16.1825C18.166 16.1825 19.7363 17.7529 19.7363 19.7081Z" fill="#E96A6A"/>
<path d="M8.45008 16.3978C8.45008 18.3377 6.87971 19.9235 4.92445 19.9235C3.72358 19.9235 2.66127 19.323 2.01465 18.3993L3.36948 13.2417C3.83135 13.0108 4.35481 12.8722 4.92445 12.8722C6.87971 12.8722 8.45008 14.458 8.45008 16.3978Z" fill="#E96A6A"/>
<path d="M11.9763 12.3799C13.9235 12.3799 15.5019 10.8014 15.5019 8.85425C15.5019 6.90709 13.9235 5.32861 11.9763 5.32861C10.0292 5.32861 8.45068 6.90709 8.45068 8.85425C8.45068 10.8014 10.0292 12.3799 11.9763 12.3799Z" fill="#E96A6A"/>
<path d="M24.4783 16.906H24.4167C22.4769 16.906 20.8911 15.3357 20.8911 13.3804C20.8911 12.3951 21.3068 11.4867 21.9842 10.8247C23.1235 12.6722 23.9703 14.7198 24.4783 16.906Z" fill="#E96A6A"/>
<path d="M7.11133 1.5719C16.4412 2.52644 24.1083 9.65468 25.6478 18.9691" stroke="#DDA345" stroke-width="2.35555" stroke-miterlimit="10" stroke-linecap="round"/>
</svg>
