<svg width="358" height="130" viewBox="0 0 358 130" fill="none" xmlns="http://www.w3.org/2000/svg">
<rect width="358" height="130" rx="12" fill="#FFF59D"/>
<path d="M20.888 21.912L21.122 26.484L22.4 26.448H22.904L23.174 21.912L24.956 22.056L24.524 26.358C25.448 26.322 26.27 26.244 26.99 26.124L27.134 27.546C26.21 27.702 24.608 27.846 22.328 27.978C20.264 28.05 18.722 28.086 17.702 28.086L17.396 26.52H19.466L19.088 22.074L20.888 21.912ZM26.684 22.65V21.156H28.898V18.384H30.752V30.012H28.898V25.584H26.684V24.108H28.898V22.65H26.684ZM31.094 33.954H20.276V29.166H22.148V32.478H31.094V33.954ZM26.324 21.084H17.9V19.608H26.324V21.084ZM42.3662 23.478C42.3662 24.57 41.9642 25.452 41.1602 26.124C40.3682 26.796 39.3722 27.132 38.1722 27.132C36.9842 27.132 36.0002 26.796 35.2202 26.124C34.4522 25.44 34.0682 24.558 34.0682 23.478C34.0682 22.374 34.4582 21.462 35.2382 20.742C36.0302 20.01 37.0082 19.644 38.1722 19.644C39.3722 19.644 40.3682 20.004 41.1602 20.724C41.9642 21.444 42.3662 22.362 42.3662 23.478ZM40.5122 23.46C40.5122 22.788 40.2902 22.248 39.8462 21.84C39.4022 21.432 38.8442 21.228 38.1722 21.228C37.5362 21.228 36.9902 21.438 36.5342 21.858C36.0902 22.278 35.8682 22.812 35.8682 23.46C35.8682 24.084 36.0902 24.594 36.5342 24.99C36.9902 25.374 37.5362 25.566 38.1722 25.566C38.8202 25.566 39.3722 25.374 39.8282 24.99C40.2842 24.594 40.5122 24.084 40.5122 23.46ZM46.5242 18.384V34.422H44.6882V18.384H46.5242ZM43.7882 28.842L43.9322 30.318C40.7162 30.666 37.1642 30.852 33.2762 30.876L32.9882 29.292C35.1122 29.316 36.8882 29.286 38.3162 29.202C40.4762 29.118 42.3002 28.998 43.7882 28.842ZM61.9184 34.224H51.4784V28.302H61.9184V34.224ZM49.2464 20.868V19.338H57.6884V20.868H54.4844V20.994C54.4844 22.122 54.8384 23.112 55.5464 23.964C56.2664 24.804 57.1304 25.386 58.1384 25.71L57.1124 27.186C56.4044 26.898 55.7084 26.454 55.0244 25.854C54.3524 25.254 53.8544 24.594 53.5304 23.874C53.3024 24.642 52.8164 25.386 52.0724 26.106C51.3404 26.814 50.5604 27.324 49.7324 27.636L48.6164 26.196C49.7804 25.752 50.7284 25.074 51.4604 24.162C52.2044 23.25 52.5764 22.212 52.5764 21.048V20.868H49.2464ZM61.9004 27.474H60.0644V23.856H57.4544V22.326H60.0644V18.384H61.9004V27.474ZM60.0824 32.748V29.724H53.3324V32.748H60.0824ZM74.6667 33.666H72.9207V26.124H71.3187C71.2347 27.552 70.9047 28.716 70.3287 29.616C69.7527 30.504 68.9427 30.948 67.8987 30.948C67.1307 30.948 66.4767 30.684 65.9367 30.156C65.4087 29.628 65.0247 28.956 64.7847 28.14C64.5567 27.312 64.4427 26.37 64.4427 25.314C64.4427 23.694 64.7307 22.356 65.3067 21.3C65.8947 20.244 66.7587 19.716 67.8987 19.716C68.9427 19.716 69.7527 20.172 70.3287 21.084C70.9167 21.984 71.2467 23.154 71.3187 24.594H72.9207V18.69H74.6667V33.666ZM77.7807 34.422H76.0167V18.384H77.7807V34.422ZM69.1767 28.248C69.4647 27.516 69.6087 26.544 69.6087 25.332C69.6087 24.12 69.4647 23.148 69.1767 22.416C68.8887 21.672 68.4687 21.3 67.9167 21.3C67.3647 21.3 66.9447 21.672 66.6567 22.416C66.3687 23.148 66.2247 24.12 66.2247 25.332C66.2247 26.532 66.3687 27.498 66.6567 28.23C66.9447 28.962 67.3647 29.328 67.9167 29.328C68.4687 29.328 68.8887 28.968 69.1767 28.248ZM93.0489 34.422H91.2129V25.458H88.0809V23.91H91.2129V18.384H93.0489V34.422ZM89.5929 29.4L88.4769 30.768C87.7569 30.312 87.0189 29.628 86.2629 28.716C85.5189 27.804 85.0089 26.928 84.7329 26.088C84.4569 27.036 83.9529 27.972 83.2209 28.896C82.5009 29.808 81.7089 30.528 80.8449 31.056L79.6929 29.724C80.9529 28.896 81.9429 27.846 82.6629 26.574C83.3829 25.302 83.7429 23.91 83.7429 22.398V19.752H85.6329V22.29C85.6329 23.79 85.9869 25.164 86.6949 26.412C87.4149 27.648 88.3809 28.644 89.5929 29.4ZM112.956 31.506C112.956 32.418 112.464 33.132 111.48 33.648C110.508 34.176 109.146 34.44 107.394 34.44C105.642 34.44 104.274 34.176 103.29 33.648C102.318 33.132 101.832 32.418 101.832 31.506C101.832 30.606 102.318 29.892 103.29 29.364C104.274 28.824 105.636 28.554 107.376 28.554C109.128 28.554 110.496 28.824 111.48 29.364C112.464 29.892 112.956 30.606 112.956 31.506ZM114 23.424L113.19 24.9C111.966 24.744 110.802 24.372 109.698 23.784C108.594 23.184 107.826 22.506 107.394 21.75C107.022 22.53 106.29 23.22 105.198 23.82C104.118 24.42 102.918 24.792 101.598 24.936L100.806 23.478C102.15 23.382 103.356 23.052 104.424 22.488C105.492 21.912 106.14 21.186 106.368 20.31H101.49V18.816H113.298V20.31H108.456C108.708 21.162 109.392 21.876 110.508 22.452C111.636 23.028 112.8 23.352 114 23.424ZM114.63 27.672H100.14V26.178H106.44V24.072H108.276V26.178H114.63V27.672ZM111.048 31.506C111.048 31.05 110.718 30.69 110.058 30.426C109.41 30.162 108.516 30.03 107.376 30.03C106.248 30.03 105.354 30.162 104.694 30.426C104.046 30.69 103.722 31.05 103.722 31.506C103.722 31.974 104.046 32.334 104.694 32.586C105.342 32.826 106.236 32.946 107.376 32.946C108.528 32.946 109.428 32.826 110.076 32.586C110.724 32.334 111.048 31.974 111.048 31.506ZM126.91 29.166C127.87 29.718 128.35 30.456 128.35 31.38C128.35 32.304 127.876 33.036 126.928 33.576C125.98 34.128 124.648 34.404 122.932 34.404C121.216 34.404 119.884 34.128 118.936 33.576C117.988 33.036 117.514 32.304 117.514 31.38C117.514 30.456 117.988 29.718 118.936 29.166C119.884 28.602 121.216 28.32 122.932 28.32C124.636 28.32 125.962 28.602 126.91 29.166ZM124.732 25.368L124.966 26.79C123.538 27.138 121.33 27.324 118.342 27.348H116.308V22.524H121.528V20.76H116.236V19.302H123.382V23.928H118.144V25.854C121.18 25.854 123.376 25.692 124.732 25.368ZM130.51 24.126V25.638H128.17V28.068H126.316V18.384H128.17V20.688H130.51V22.182H128.17V24.126H130.51ZM125.524 30.228C124.9 29.94 124.036 29.796 122.932 29.796C121.828 29.796 120.964 29.94 120.34 30.228C119.716 30.516 119.404 30.9 119.404 31.38C119.404 31.848 119.716 32.226 120.34 32.514C120.964 32.79 121.828 32.928 122.932 32.928C124.036 32.928 124.9 32.79 125.524 32.514C126.148 32.226 126.46 31.848 126.46 31.38C126.46 30.9 126.148 30.516 125.524 30.228ZM139.226 29.364L138.146 30.696C137.57 30.336 136.988 29.778 136.4 29.022C135.824 28.254 135.434 27.504 135.23 26.772C135.05 27.552 134.66 28.356 134.06 29.184C133.46 30 132.806 30.624 132.098 31.056L130.946 29.814C133.214 28.314 134.348 26.01 134.348 22.902V21.714H131.522V20.22H138.776V21.714H136.148V22.848C136.148 24.396 136.424 25.734 136.976 26.862C137.54 27.99 138.29 28.824 139.226 29.364ZM141.62 33.666H139.892V25.62H137.696V24.09H139.892V18.708H141.62V33.666ZM144.806 34.422H143.042V18.384H144.806V34.422ZM164.209 24.648H159.727V26.196H166.081V27.672H151.591V26.196H157.891V24.648H153.445V18.672H155.299V20.328H162.373V18.636H164.209V24.648ZM162.931 29.364C163.915 29.88 164.407 30.594 164.407 31.506C164.407 32.418 163.915 33.132 162.931 33.648C161.959 34.176 160.597 34.44 158.845 34.44C157.081 34.44 155.713 34.176 154.741 33.648C153.769 33.132 153.283 32.418 153.283 31.506C153.283 30.606 153.769 29.898 154.741 29.382C155.713 28.854 157.075 28.59 158.827 28.59C160.591 28.59 161.959 28.848 162.931 29.364ZM161.527 32.586C162.175 32.334 162.499 31.98 162.499 31.524C162.499 31.068 162.169 30.714 161.509 30.462C160.861 30.198 159.967 30.066 158.827 30.066C157.699 30.066 156.805 30.198 156.145 30.462C155.497 30.714 155.173 31.068 155.173 31.524C155.173 31.98 155.497 32.334 156.145 32.586C156.793 32.826 157.687 32.946 158.827 32.946C159.979 32.946 160.879 32.826 161.527 32.586ZM162.373 23.172V21.768H155.299V23.172H162.373ZM179.279 23.298H170.873V24.63H179.945V26.088H169.019V19.032H179.783V20.526H170.873V21.84H179.279V23.298ZM175.301 34.368H173.465V29.022H167.165V27.528H181.655V29.022H175.301V34.368ZM197.229 27.132H182.739V25.746H197.229V27.132ZM195.807 34.296H184.593V30.588H193.539V29.508H184.539V28.176H195.375V31.884H186.429V32.982H195.807V34.296ZM195.627 24.774H184.647V21.174H193.431V20.148H184.611V18.798H195.285V22.416H186.501V23.424H195.627V24.774ZM32.354 48.262H29.996V51.52H28.142V43.384H29.996V46.768H32.354V48.262ZM30.536 59.296H19.682V55.12H28.142V53.86H19.61V52.366H29.996V56.488H21.518V57.838H30.536V59.296ZM26.828 49.918L25.802 51.304C25.07 51.016 24.356 50.578 23.66 49.99C22.964 49.39 22.448 48.718 22.112 47.974C21.884 48.778 21.41 49.516 20.69 50.188C19.97 50.86 19.172 51.37 18.296 51.718L17.216 50.332C18.38 49.9 19.322 49.234 20.042 48.334C20.762 47.434 21.122 46.384 21.122 45.184V43.906H23.03V45.112C23.03 46.276 23.408 47.29 24.164 48.154C24.932 49.018 25.82 49.606 26.828 49.918ZM45.9787 59.44H44.1427V53.608H37.8427V52.15H52.3327V53.608H45.9787V59.44ZM51.7207 49.072L50.8747 50.566C49.6627 50.362 48.4927 49.906 47.3647 49.198C46.2487 48.49 45.4927 47.698 45.0967 46.822C44.7607 47.686 44.0347 48.472 42.9187 49.18C41.8027 49.888 40.6147 50.356 39.3547 50.584L38.5447 49.072C40.0207 48.904 41.3227 48.388 42.4507 47.524C43.5787 46.66 44.1427 45.67 44.1427 44.554V43.744H46.0867V44.554C46.0867 45.286 46.3747 45.994 46.9507 46.678C47.5387 47.35 48.2587 47.896 49.1107 48.316C49.9747 48.736 50.8447 48.988 51.7207 49.072ZM69.4855 43.384H71.3395V52.348H69.4855V43.384ZM65.5795 45.346C66.3835 46.066 66.7855 46.978 66.7855 48.082C66.7855 49.186 66.3895 50.08 65.5975 50.764C64.8175 51.436 63.8395 51.772 62.6635 51.772C61.4995 51.772 60.5215 51.436 59.7295 50.764C58.9375 50.08 58.5415 49.186 58.5415 48.082C58.5415 46.99 58.9375 46.084 59.7295 45.364C60.5335 44.632 61.5115 44.266 62.6635 44.266C63.8155 44.266 64.7875 44.626 65.5795 45.346ZM64.9855 48.064C64.9855 47.416 64.7695 46.876 64.3375 46.444C63.9175 46 63.3595 45.778 62.6635 45.778C61.9795 45.778 61.4215 46 60.9895 46.444C60.5575 46.888 60.3415 47.428 60.3415 48.064C60.3415 48.736 60.5575 49.288 60.9895 49.72C61.4215 50.152 61.9795 50.368 62.6635 50.368C63.3475 50.368 63.9055 50.152 64.3375 49.72C64.7695 49.276 64.9855 48.724 64.9855 48.064ZM72.8875 58.036L71.8795 59.368C71.3155 59.116 70.7395 58.708 70.1515 58.144C69.5755 57.592 69.1915 57.034 68.9995 56.47C68.8435 57.046 68.4715 57.634 67.8835 58.234C67.2955 58.846 66.6775 59.314 66.0295 59.638L64.9855 58.396C65.9335 57.964 66.6835 57.352 67.2355 56.56C67.7995 55.768 68.0815 54.868 68.0815 53.86V53.122H69.8635V53.842C69.8635 54.826 70.1395 55.69 70.6915 56.434C71.2435 57.178 71.9755 57.712 72.8875 58.036ZM64.8055 58.054C64.4815 57.886 64.1575 57.652 63.8335 57.352C63.5095 57.04 63.2695 56.722 63.1135 56.398C62.9215 57.034 62.5375 57.634 61.9615 58.198C61.3975 58.762 60.7435 59.206 59.9995 59.53L58.9915 58.288C59.8915 57.904 60.6415 57.334 61.2415 56.578C61.8415 55.81 62.1415 54.94 62.1415 53.968V53.212H63.9415V53.878C63.9415 54.622 64.1515 55.246 64.5715 55.75C64.9915 56.254 65.4655 56.59 65.9935 56.758L64.8055 58.054ZM74.9437 54.346C74.2237 53.302 73.8637 51.922 73.8637 50.206C73.8637 48.49 74.2237 47.11 74.9437 46.066C75.6637 45.022 76.6597 44.5 77.9317 44.5C79.0957 44.5 80.0317 44.944 80.7397 45.832C81.4597 46.708 81.8797 47.89 81.9997 49.378H85.0777V43.384H86.9317V59.422H85.0777V50.89H82.0177C81.9217 52.426 81.5137 53.644 80.7937 54.544C80.0857 55.444 79.1317 55.894 77.9317 55.894C76.6597 55.894 75.6637 55.378 74.9437 54.346ZM80.2537 50.224C80.2537 48.952 80.0377 47.932 79.6057 47.164C79.1737 46.384 78.6157 45.994 77.9317 45.994C77.2717 45.994 76.7257 46.384 76.2937 47.164C75.8737 47.932 75.6637 48.952 75.6637 50.224C75.6637 51.484 75.8737 52.504 76.2937 53.284C76.7257 54.052 77.2717 54.436 77.9317 54.436C78.6157 54.436 79.1737 54.052 79.6057 53.284C80.0377 52.504 80.2537 51.484 80.2537 50.224ZM102.362 48.586C102.362 49.81 101.828 50.806 100.76 51.574C99.6919 52.33 98.2819 52.708 96.5299 52.708C94.8019 52.708 93.4039 52.33 92.3359 51.574C91.2679 50.806 90.7339 49.81 90.7339 48.586C90.7339 47.374 91.2679 46.384 92.3359 45.616C93.4039 44.848 94.8019 44.464 96.5299 44.464C98.2819 44.464 99.6919 44.848 100.76 45.616C101.828 46.384 102.362 47.374 102.362 48.586ZM99.3919 50.476C100.112 49.996 100.472 49.366 100.472 48.586C100.472 47.806 100.112 47.182 99.3919 46.714C98.6719 46.234 97.7179 45.994 96.5299 45.994C95.3539 45.994 94.4059 46.234 93.6859 46.714C92.9659 47.182 92.6059 47.806 92.6059 48.586C92.6059 49.366 92.9659 49.996 93.6859 50.476C94.4059 50.944 95.3539 51.178 96.5299 51.178C97.7179 51.178 98.6719 50.944 99.3919 50.476ZM103.784 57.388H89.2939V55.912H92.6419V53.122L94.5139 53.104V55.912H98.5099V53.104L100.364 53.122V55.912H103.784V57.388ZM106.02 53.68L105.786 44.5H107.856L107.622 53.68H106.02ZM105.84 57.442V55.498H107.82V57.442H105.84Z" fill="#121212"/>
<path d="M22.664 74.368H17.888V70.084H22.664V74.368ZM26.684 79.192L26.156 80.02C25.412 79.9 24.716 79.652 24.068 79.276C23.42 78.908 22.972 78.508 22.724 78.076C22.508 78.5 22.056 78.904 21.368 79.288C20.688 79.672 19.98 79.912 19.244 80.008L18.716 79.18C19.452 79.14 20.152 78.944 20.816 78.592C21.48 78.24 21.908 77.828 22.1 77.356H19.16V76.504H26.276V77.356H23.384C23.584 77.812 24.016 78.22 24.68 78.58C25.344 78.94 26.012 79.144 26.684 79.192ZM23.216 71.668V70.816H24.992V69.352H26.06V74.98H24.992V73.636H23.216V72.808H24.992V71.668H23.216ZM21.608 73.504V70.936H18.944V73.504H21.608ZM24.344 75.88H21.092V75.016H24.344V75.88ZM39.6552 79.84H38.6352V74.26H37.3992V79.324H36.4032V69.592H37.3992V73.396H38.6352V69.352H39.6552V79.84ZM35.2272 70.636C35.2112 72.18 34.8832 73.528 34.2432 74.68C33.6112 75.832 32.6512 76.84 31.3632 77.704L30.6312 76.924C31.6952 76.308 32.5272 75.528 33.1272 74.584C33.7272 73.632 34.0752 72.608 34.1712 71.512H31.0992V70.636H35.2272ZM53.8023 72.688H52.2423V74.776H51.1743V69.352H52.2423V71.812H53.8023V72.688ZM52.6143 79.768H45.5223V77.092H51.1743V76.192H45.4983V75.316H52.2423V77.896H46.5903V78.892H52.6143V79.768ZM50.1063 73.66L49.4943 74.464C49.0063 74.264 48.5383 73.972 48.0903 73.588C47.6503 73.204 47.3183 72.76 47.0943 72.256C46.9343 72.776 46.6223 73.26 46.1583 73.708C45.7023 74.156 45.1703 74.516 44.5623 74.788L43.9263 73.996C44.6863 73.692 45.3103 73.248 45.7983 72.664C46.2863 72.072 46.5303 71.384 46.5303 70.6V69.736H47.6103V70.552C47.6103 71.312 47.8623 71.968 48.3663 72.52C48.8703 73.064 49.4503 73.444 50.1063 73.66ZM62.7295 79.852H61.6615V76.084H57.4855V75.232H66.9535V76.084H62.7295V79.852ZM66.5935 73.324L66.0895 74.188C65.2895 74.036 64.5095 73.724 63.7495 73.252C62.9975 72.78 62.4855 72.26 62.2135 71.692C61.9895 72.252 61.4975 72.772 60.7375 73.252C59.9775 73.724 59.1815 74.04 58.3495 74.2L57.8695 73.336C58.8535 73.208 59.7295 72.852 60.4975 72.268C61.2735 71.684 61.6615 71.04 61.6615 70.336V69.676H62.7775V70.336C62.7775 70.8 62.9775 71.26 63.3775 71.716C63.7775 72.164 64.2695 72.532 64.8535 72.82C65.4375 73.1 66.0175 73.268 66.5935 73.324ZM79.4326 75.352H78.3646V69.352H79.4326V75.352ZM71.8726 70.648C72.4006 70.168 73.0486 69.928 73.8166 69.928C74.5846 69.928 75.2286 70.168 75.7486 70.648C76.2766 71.12 76.5406 71.728 76.5406 72.472C76.5406 73.208 76.2806 73.804 75.7606 74.26C75.2406 74.716 74.5926 74.944 73.8166 74.944C73.0486 74.944 72.4006 74.716 71.8726 74.26C71.3526 73.804 71.0926 73.208 71.0926 72.472C71.0926 71.736 71.3526 71.128 71.8726 70.648ZM73.8166 70.84C73.3366 70.84 72.9406 70.996 72.6286 71.308C72.3166 71.612 72.1606 71.992 72.1606 72.448C72.1606 72.92 72.3166 73.308 72.6286 73.612C72.9406 73.916 73.3366 74.068 73.8166 74.068C74.3046 74.068 74.7006 73.92 75.0046 73.624C75.3166 73.32 75.4726 72.936 75.4726 72.472C75.4726 71.992 75.3206 71.6 75.0166 71.296C74.7206 70.992 74.3206 70.84 73.8166 70.84ZM79.7566 79.888C79.3966 79.712 79.0246 79.428 78.6406 79.036C78.2646 78.644 78.0126 78.268 77.8846 77.908C77.7646 78.3 77.5246 78.7 77.1646 79.108C76.8046 79.524 76.4126 79.828 75.9886 80.02L75.3046 79.312C75.9126 79.024 76.4046 78.612 76.7806 78.076C77.1646 77.54 77.3566 76.96 77.3566 76.336V75.808H78.4006V76.3C78.4006 76.924 78.6006 77.504 79.0006 78.04C79.4086 78.576 79.8806 78.94 80.4166 79.132L79.7566 79.888ZM76.0006 78.244L75.2806 78.952C75.0486 78.832 74.8166 78.656 74.5846 78.424C74.3526 78.192 74.1806 77.952 74.0686 77.704C73.9486 78.104 73.6886 78.52 73.2886 78.952C72.8886 79.384 72.4686 79.7 72.0286 79.9L71.4046 79.156C71.9886 78.892 72.4806 78.496 72.8806 77.968C73.2806 77.44 73.4806 76.868 73.4806 76.252V75.808H74.5246V76.192C74.5246 76.68 74.6646 77.104 74.9446 77.464C75.2246 77.824 75.5766 78.084 76.0006 78.244ZM90.5834 75.556H81.1154V74.692H90.5834V75.556ZM89.5874 79.612H82.3754V76.504H83.4314V78.736H89.5874V79.612ZM89.5394 73.456H82.4114V69.784H83.4674V72.592H89.5394V73.456ZM97.8583 76.552L97.2343 77.344C96.6983 77.032 96.1743 76.584 95.6623 76C95.1503 75.408 94.8143 74.832 94.6543 74.272C94.5023 74.888 94.1823 75.504 93.6943 76.12C93.2063 76.728 92.6503 77.216 92.0263 77.584L91.3543 76.816C92.1783 76.328 92.8423 75.672 93.3463 74.848C93.8503 74.016 94.1023 73.104 94.1023 72.112V71.272H91.7263V70.408H97.5463V71.272H95.1943V72.112C95.1943 73.088 95.4423 73.968 95.9383 74.752C96.4343 75.528 97.0743 76.128 97.8583 76.552ZM98.9863 69.352H100.054V79.84H98.9863V69.352ZM111.273 75.952C110.377 76.08 109.269 76.176 107.949 76.24C106.365 76.32 105.273 76.36 104.673 76.36L104.517 75.484C105.333 75.484 106.293 75.464 107.397 75.424V74.764C106.837 74.708 106.385 74.564 106.041 74.332C105.705 74.092 105.537 73.776 105.537 73.384C105.537 72.92 105.761 72.564 106.209 72.316C106.665 72.06 107.245 71.932 107.949 71.932C108.653 71.932 109.233 72.06 109.689 72.316C110.145 72.564 110.373 72.916 110.373 73.372C110.373 73.764 110.197 74.08 109.845 74.32C109.493 74.56 109.033 74.708 108.465 74.764V75.364C109.777 75.3 110.677 75.224 111.165 75.136L111.273 75.952ZM114.453 73.66H112.893V76.348H111.849V69.352H112.893V72.784H114.453V73.66ZM105.957 76.888H112.893V79.888H111.849V77.752H105.957V76.888ZM110.937 71.656H104.901V70.828H110.937V71.656ZM109.341 73.372C109.341 73.164 109.213 73.004 108.957 72.892C108.701 72.78 108.365 72.724 107.949 72.724C107.533 72.724 107.197 72.78 106.941 72.892C106.693 73.004 106.569 73.164 106.569 73.372C106.569 73.572 106.697 73.732 106.953 73.852C107.209 73.964 107.541 74.02 107.949 74.02C108.357 74.02 108.689 73.964 108.945 73.852C109.209 73.732 109.341 73.572 109.341 73.372ZM109.389 70.312H106.461V69.484H109.389V70.312ZM123.636 76.972H122.568V69.352H123.636V76.972ZM123.876 79.516H116.736V76.252H117.804V78.664H123.876V79.516ZM116.064 70.816C116.592 70.312 117.26 70.06 118.068 70.06C118.876 70.06 119.544 70.308 120.072 70.804C120.608 71.3 120.876 71.924 120.876 72.676C120.876 73.428 120.612 74.044 120.084 74.524C119.556 74.996 118.884 75.232 118.068 75.232C117.26 75.232 116.592 74.996 116.064 74.524C115.536 74.044 115.272 73.432 115.272 72.688C115.272 71.936 115.536 71.312 116.064 70.816ZM118.068 70.972C117.58 70.972 117.176 71.132 116.856 71.452C116.544 71.772 116.388 72.176 116.388 72.664C116.388 73.144 116.544 73.544 116.856 73.864C117.176 74.184 117.58 74.344 118.068 74.344C118.58 74.344 118.988 74.188 119.292 73.876C119.596 73.564 119.748 73.164 119.748 72.676C119.748 72.172 119.596 71.764 119.292 71.452C118.988 71.132 118.58 70.972 118.068 70.972ZM134.175 79.84H133.155V74.56H132.075V79.324H131.055V69.58H132.075V73.684H133.155V69.352H134.175V79.84ZM130.323 75.34C130.323 75.972 130.111 76.476 129.687 76.852C129.263 77.22 128.707 77.404 128.019 77.404C127.339 77.404 126.783 77.212 126.351 76.828C125.919 76.436 125.703 75.94 125.703 75.34C125.703 74.716 125.915 74.22 126.339 73.852C126.771 73.476 127.331 73.288 128.019 73.288C128.707 73.288 129.263 73.476 129.687 73.852C130.111 74.22 130.323 74.716 130.323 75.34ZM128.931 76.204C129.179 75.972 129.303 75.684 129.303 75.34C129.303 74.996 129.179 74.712 128.931 74.488C128.691 74.264 128.387 74.152 128.019 74.152C127.643 74.152 127.331 74.268 127.083 74.5C126.843 74.724 126.723 75.004 126.723 75.34C126.723 75.692 126.843 75.984 127.083 76.216C127.323 76.44 127.635 76.552 128.019 76.552C128.387 76.552 128.691 76.436 128.931 76.204ZM130.539 72.808H125.343V71.932H130.539V72.808ZM129.327 71.008H126.507V70.144H129.327V71.008ZM142.146 77.416C141.49 77.512 140.286 77.612 138.534 77.716C137.478 77.772 136.49 77.8 135.57 77.8L135.402 76.912C136.602 76.912 137.542 76.896 138.222 76.864V74.968H136.11V70.192H137.166V71.788H140.394V70.18H141.45V74.968H139.278V76.816C140.574 76.736 141.494 76.656 142.038 76.576L142.146 77.416ZM145.374 74.692H143.754V79.84H142.71V69.352H143.754V73.804H145.374V74.692ZM140.394 74.116V72.652H137.166V74.116H140.394ZM153.453 70.804C154.173 71.3 154.533 71.956 154.533 72.772C154.533 73.588 154.173 74.244 153.453 74.74C152.741 75.236 151.797 75.484 150.621 75.484C149.453 75.484 148.509 75.236 147.789 74.74C147.077 74.244 146.721 73.588 146.721 72.772C146.721 71.956 147.077 71.3 147.789 70.804C148.509 70.3 149.453 70.048 150.621 70.048C151.797 70.048 152.741 70.3 153.453 70.804ZM153.441 72.772C153.441 72.22 153.181 71.776 152.661 71.44C152.149 71.096 151.469 70.924 150.621 70.924C149.773 70.924 149.093 71.096 148.581 71.44C148.069 71.776 147.813 72.22 147.813 72.772C147.813 73.316 148.069 73.76 148.581 74.104C149.101 74.44 149.781 74.608 150.621 74.608C151.469 74.608 152.149 74.44 152.661 74.104C153.181 73.76 153.441 73.316 153.441 72.772ZM155.361 78.508H145.893V77.644H148.161V75.784L149.229 75.748V77.644H152.001V75.748L153.057 75.784V77.644H155.361V78.508ZM156.887 76.588L156.755 70.048H157.919L157.787 76.588H156.887ZM156.767 78.7V77.536H157.931V78.7H156.767Z" fill="#484C52"/>
<g clip-path="url(#clip0_1802_2032)">
<mask id="mask0_1802_2032" style="mask-type:luminance" maskUnits="userSpaceOnUse" x="227" y="19" width="114" height="134">
<path d="M340.07 19H227V152.5H340.07V19Z" fill="white"/>
</mask>
<g mask="url(#mask0_1802_2032)">
<path d="M289.58 22.2401L294.89 30.2401C297.65 34.4001 302.65 36.4701 307.54 35.4801L316.95 33.5801C322.04 32.5501 326.53 37.0401 325.5 42.1301L323.6 51.5401C322.61 56.4301 324.68 61.4301 328.84 64.1901L336.84 69.5001C341.17 72.3701 341.17 78.7201 336.84 81.5901L328.84 86.9001C324.68 89.6601 322.61 94.6601 323.6 99.5501L325.5 108.96C326.53 114.05 322.04 118.54 316.95 117.51L307.54 115.61C302.65 114.62 297.65 116.69 294.89 120.85L289.58 128.85C286.71 133.18 280.36 133.18 277.49 128.85L272.18 120.85C269.42 116.69 264.42 114.62 259.53 115.61L250.12 117.51C245.03 118.54 240.54 114.05 241.57 108.96L243.47 99.5501C244.46 94.6601 242.39 89.6601 238.23 86.9001L230.23 81.5901C225.9 78.7201 225.9 72.3701 230.23 69.5001L238.23 64.1901C242.39 61.4301 244.46 56.4301 243.47 51.5401L241.57 42.1301C240.54 37.0401 245.03 32.5501 250.12 33.5801L259.53 35.4801C264.42 36.4701 269.42 34.4001 272.18 30.2401L277.49 22.2401C280.36 17.9101 286.71 17.9101 289.58 22.2401Z" fill="#F55F61"/>
<path d="M310.38 122.88L297.21 115.75C295.03 113.03 291.51 110.97 285.33 110.77C285.18 110.77 285.02 110.77 284.87 110.77C284.72 110.77 284.56 110.77 284.41 110.77C284.21 110.77 284.01 110.77 283.82 110.77C283.63 110.77 283.43 110.77 283.23 110.77C283.08 110.77 282.92 110.77 282.77 110.77C282.62 110.77 282.46 110.76 282.31 110.77C276.11 110.97 271.64 111.98 269.87 115.04L258.49 123.97C257.69 123.71 257.44 124.09 257.51 124.47L258.51 129.68C258.58 130.06 258.96 130.31 259.34 130.24L267.41 123.91C266.98 123.57 266.42 125.28 266.13 126.16C265.21 128.92 264.04 136.03 271.45 139.46C272 139.73 272.62 139.97 273.32 140.18C273.99 140.39 274.72 140.58 275.5 140.74V148.07H282.85V141.36C282.98 141.36 283.12 141.36 283.25 141.36C283.45 141.36 283.65 141.36 283.84 141.36C284.04 141.36 284.23 141.36 284.43 141.36C284.59 141.36 284.74 141.36 284.89 141.36C284.91 141.36 284.94 141.36 284.96 141.36V148.07H292.31V140.71C293.04 140.55 293.73 140.38 294.36 140.17C295.06 139.96 295.68 139.72 296.23 139.45C303.64 136.02 302.46 128.92 301.55 126.15C301.25 125.26 301.01 125.05 300.86 124.8L309.15 129.47L310.42 122.87L310.38 122.88Z" fill="#FFDB00"/>
<path d="M283.46 114.83C303.232 114.83 319.26 98.8018 319.26 79.03C319.26 59.2582 303.232 43.23 283.46 43.23C263.688 43.23 247.66 59.2582 247.66 79.03C247.66 98.8018 263.688 114.83 283.46 114.83Z" fill="#FFDB00"/>
<path d="M285.35 86.6C285 86.48 284.58 86.4 284.15 86.39C283.71 86.4 283.3 86.48 282.95 86.6C282.56 86.74 281.58 87.29 281.58 87.96C281.58 88.72 282.35 89.34 283.29 89.34C283.44 89.34 283.56 89.3 283.68 89.26C283.98 89.15 284.32 89.15 284.62 89.26C284.74 89.3 284.86 89.34 285.01 89.34C285.95 89.34 286.72 88.72 286.72 87.96C286.72 87.29 285.74 86.75 285.35 86.6Z" fill="#F55F61"/>
<path d="M278.86 78.31V82C278.86 86.02 275.62 89.28 271.63 89.28H266.22C262.22 89.28 258.99 86.01 258.98 81.99C258.98 76.04 261.81 71.15 267.06 70.03C267.12 70.02 267.19 70.01 267.25 70C271.63 69.4 274.1 70.8 276.39 72.84C277.95 74.23 278.85 76.22 278.85 78.31H278.86Z" fill="white"/>
<path d="M278.3 82.66L278.28 83.9C278.23 86.7 275.92 88.92 273.12 88.87L271.23 88.83C268.23 88.77 265.91 86.14 266.29 83.17C266.67 80.2 268.4 77.77 271.24 77.23C271.28 77.23 271.32 77.22 271.36 77.21C273.86 76.92 275.31 77.67 276.61 78.8C277.72 79.77 278.32 81.2 278.29 82.67L278.3 82.66Z" fill="#241004"/>
<path d="M274.53 83.5C275.248 83.5 275.83 82.918 275.83 82.2C275.83 81.4821 275.248 80.9 274.53 80.9C273.812 80.9 273.23 81.4821 273.23 82.2C273.23 82.918 273.812 83.5 274.53 83.5Z" fill="white"/>
<path d="M292.41 83.5C293.128 83.5 293.71 82.918 293.71 82.2C293.71 81.4821 293.128 80.9 292.41 80.9C291.692 80.9 291.11 81.4821 291.11 82.2C291.11 82.918 291.692 83.5 292.41 83.5Z" fill="white"/>
<path d="M278.58 78.27C277.1 71.19 267.54 69.92 262.49 73.97C260.77 75.31 259.65 77.36 258.95 79.64C258.89 79.86 258.54 79.8 258.55 79.57C258.47 69.42 273.38 65.94 278.34 74.54C278.95 75.68 279.29 76.98 279.18 78.24C279.17 78.41 279.02 78.53 278.85 78.52C278.71 78.51 278.6 78.4 278.58 78.27Z" fill="#241004"/>
<path d="M288.82 78.31V82C288.82 86.02 292.06 89.28 296.05 89.28H301.46C305.46 89.28 308.69 86.01 308.7 81.99C308.7 76.04 305.87 71.15 300.62 70.03C300.56 70.02 300.49 70.01 300.43 70C296.05 69.4 293.58 70.8 291.29 72.84C289.73 74.23 288.83 76.22 288.83 78.31H288.82Z" fill="white"/>
<path d="M289.38 82.66L289.4 83.9C289.45 86.7 291.76 88.92 294.56 88.87L296.45 88.83C299.45 88.77 301.77 86.14 301.39 83.17C301.01 80.2 299.28 77.77 296.44 77.23C296.4 77.23 296.36 77.22 296.32 77.21C293.82 76.92 292.37 77.67 291.07 78.8C289.96 79.77 289.36 81.2 289.39 82.67L289.38 82.66Z" fill="#241004"/>
<path d="M288.5 78.24C288.18 72.72 294.29 69.11 299.3 69.68C301.9 70 304.38 70.91 306.28 72.74C308.19 74.56 309.08 77.15 309.13 79.56C309.13 79.67 309.05 79.77 308.93 79.77C308.84 79.77 308.76 79.71 308.73 79.63C308.04 77.36 306.91 75.3 305.19 73.96C300.14 69.91 290.57 71.18 289.1 78.26C289.05 78.6 288.51 78.58 288.5 78.23V78.24Z" fill="#241004"/>
<path d="M265.4 94.27C272.635 94.27 278.5 92.6762 278.5 90.71C278.5 88.7439 272.635 87.15 265.4 87.15C258.165 87.15 252.3 88.7439 252.3 90.71C252.3 92.6762 258.165 94.27 265.4 94.27Z" fill="#FFDB00"/>
<path d="M301.5 94.27C308.199 94.27 313.63 92.6762 313.63 90.71C313.63 88.7439 308.199 87.15 301.5 87.15C294.801 87.15 289.37 88.7439 289.37 90.71C289.37 92.6762 294.801 94.27 301.5 94.27Z" fill="#FFDB00"/>
<path d="M290.1 64.4599C292.4 62.1999 295.48 61.3099 299.38 63.6399" stroke="#CC7229" stroke-width="1.5" stroke-miterlimit="10" stroke-linecap="round"/>
<path d="M277.5 64.73C275.2 62.47 272.11 61.59 268.22 63.93" stroke="#CC7229" stroke-width="1.5" stroke-miterlimit="10" stroke-linecap="round"/>
<path d="M313.82 123.76L312.95 123.27C313.58 122.9 313.87 122.11 313.58 121.41C313.27 120.64 312.39 120.26 311.61 120.57L309.58 121.38L304.36 118.45C304.11 118.31 303.78 118.4 303.64 118.65L300.16 124.85C300.02 125.1 300.11 125.43 300.36 125.57L309.8 130.87C311.76 131.97 314.26 131.27 315.36 129.31C316.46 127.35 315.76 124.85 313.8 123.75L313.82 123.76Z" fill="#F55F61"/>
<g opacity="0.5">
<path d="M303.36 119.85L306.01 121.34" stroke="white" stroke-width="0.51" stroke-miterlimit="10"/>
<path d="M302.6 121.22L305.25 122.7" stroke="white" stroke-width="0.51" stroke-miterlimit="10"/>
<path d="M301.84 122.57L304.49 124.05" stroke="white" stroke-width="0.51" stroke-miterlimit="10"/>
<path d="M301.08 123.93L303.73 125.41" stroke="white" stroke-width="0.51" stroke-miterlimit="10"/>
</g>
<path d="M254 125.44L254.79 124.83C254.11 124.55 253.72 123.81 253.89 123.08C254.08 122.27 254.91 121.77 255.71 121.96L257.83 122.47L262.57 118.81C262.8 118.63 263.13 118.68 263.31 118.91L267.66 124.54C267.84 124.77 267.79 125.1 267.56 125.28L258.99 131.9C257.21 133.27 254.64 132.94 253.26 131.16C251.89 129.38 252.22 126.81 254 125.43V125.44Z" fill="#F55F61"/>
<g opacity="0.5">
<path d="M263.77 120.06L261.37 121.92" stroke="white" stroke-width="0.51" stroke-miterlimit="10"/>
<path d="M264.73 121.3L262.32 123.15" stroke="white" stroke-width="0.51" stroke-miterlimit="10"/>
<path d="M265.67 122.53L263.27 124.38" stroke="white" stroke-width="0.51" stroke-miterlimit="10"/>
<path d="M266.62 123.76L264.22 125.62" stroke="white" stroke-width="0.51" stroke-miterlimit="10"/>
</g>
<path d="M269.65 112.19C279.14 115.26 287.82 115.44 296.63 112.44L299.55 116.73C289.71 121.23 277.38 119.15 266.5 116.24L269.64 112.18L269.65 112.19Z" fill="#F55F61"/>
<path d="M296.77 124.9L292.54 124.31C289.68 123.91 287.26 122.05 286.11 119.45C285.54 119.47 284.97 119.49 284.39 119.49C283.69 119.49 283 119.47 282.3 119.43C281.14 122.01 278.73 123.85 275.89 124.25L271.66 124.84C270.99 124.93 270.49 124.23 270.8 123.63L272.32 120.65C272.8 119.71 273.43 118.87 274.16 118.15C273.4 117.95 272.65 117.73 271.92 117.48H296.84C296.01 117.76 295.16 118.01 294.3 118.23C295.02 118.94 295.63 119.77 296.11 120.69L297.63 123.67C297.94 124.28 297.44 124.98 296.77 124.88V124.9Z" fill="#F55F61"/>
<path d="M289.25 117.68L290.87 118.02C292.18 118.3 293.3 119.14 293.91 120.3L294.62 121.65C294.76 121.92 294.53 122.24 294.22 122.2L292.26 121.93C290.78 121.73 289.55 120.71 289.11 119.31L288.81 118.36L289.24 117.67L289.25 117.68Z" fill="#BC4C4D"/>
<path d="M279.89 118.23L279.09 119.68C278.44 120.86 277.31 121.68 276.02 121.92L274.52 122.2C274.22 122.26 273.98 121.94 274.11 121.66L274.94 119.86C275.57 118.5 276.9 117.63 278.36 117.62H279.36L279.89 118.23Z" fill="#BC4C4D"/>
<path d="M284.86 113.18H282.67C280.284 113.18 278.35 115.112 278.35 117.495C278.35 119.878 280.284 121.81 282.67 121.81H284.86C287.246 121.81 289.18 119.878 289.18 117.495C289.18 115.112 287.246 113.18 284.86 113.18Z" fill="#F55F61"/>
<path d="M289.16 117.5C289.16 118.68 288.68 119.76 287.9 120.53C287.12 121.31 286.05 121.79 284.87 121.79H282.69C281.93 121.79 281.21 121.59 280.58 121.23C280.82 121.27 281.06 121.3 281.31 121.3H283.5C284.68 121.3 285.75 120.82 286.53 120.04C287.31 119.26 287.79 118.19 287.79 117.01C287.79 115.42 286.91 114.02 285.62 113.28C287.63 113.63 289.16 115.4 289.16 117.51V117.5Z" fill="#BC4C4D"/>
<path d="M292.32 83.22C293.038 83.22 293.62 82.638 293.62 81.92C293.62 81.202 293.038 80.62 292.32 80.62C291.602 80.62 291.02 81.202 291.02 81.92C291.02 82.638 291.602 83.22 292.32 83.22Z" fill="white"/>
<path d="M290.23 92.78C289.32 99.41 278.89 99.37 277.99 92.78C277.91 92.19 278.38 91.66 278.98 91.66C281.32 91.66 286.94 91.59 289.26 91.65C289.86 91.66 290.31 92.19 290.23 92.78Z" fill="#EC7762"/>
<path opacity="0.5" d="M288.9 95.74C286.52 98.4 281.72 98.39 279.34 95.74C280.68 95.2 282.33 94.89 284.12 94.89C285.91 94.89 287.56 95.21 288.9 95.74Z" fill="white"/>
</g>
</g>
<defs>
<clipPath id="clip0_1802_2032">
<rect width="114" height="111" fill="white" transform="translate(227 19)"/>
</clipPath>
</defs>
</svg>
