<svg width="358" height="133" viewBox="0 0 358 133" fill="none" xmlns="http://www.w3.org/2000/svg">
<rect width="358" height="130" rx="12" fill="#FFF59D"/>
<path fill-rule="evenodd" clip-rule="evenodd" d="M0 100.786V120C0 126.624 5.36736 131.995 11.9903 132C11.9936 132 11.9968 132 12 132H346C346.003 132 346.006 132 346.01 132C352.633 131.995 358 126.624 358 120V95.4205C350.617 113.466 276.998 139.804 179 100.786C72.4549 58.3644 19.9389 89.3678 4.49877 98.4831C2.187 99.8479 0.70638 100.722 0 100.786Z" fill="#FFE05A"/>
<path d="M24.974 22.938V24.414H19.934V26.358C22.826 26.358 24.98 26.208 26.396 25.908L26.666 27.33C25.19 27.666 22.862 27.846 19.682 27.87H18.098V19.626H25.262V21.12H19.934V22.938H24.974ZM32.336 24.378H29.996V29.976H28.142V18.384H29.996V22.848H32.336V24.378ZM30.464 33.918H19.844V29.022H21.68V32.424H30.464V33.918ZM45.5702 18.384V23.064H47.9462V24.612H45.5702V30.012H43.7162V18.384H45.5702ZM46.0382 33.936H35.3102V28.842H37.1642V32.442H46.0382V33.936ZM42.4022 26.07L41.3402 27.51C40.6322 27.21 39.9242 26.73 39.2162 26.07C38.5082 25.398 37.9862 24.69 37.6502 23.946C37.4102 24.762 36.9182 25.554 36.1742 26.322C35.4422 27.09 34.6682 27.642 33.8522 27.978L32.7362 26.502C33.8882 26.046 34.8302 25.32 35.5622 24.324C36.3062 23.328 36.6782 22.218 36.6782 20.994V19.284H38.5862V20.922C38.5862 22.122 38.9702 23.196 39.7382 24.144C40.5062 25.092 41.3942 25.734 42.4022 26.07ZM63.1784 27.294H48.6884V25.8H63.1784V27.294ZM61.3244 34.224H50.5424V28.77H61.3244V34.224ZM59.4884 32.748V30.21H52.3784V32.748H59.4884ZM61.4864 21.624C61.4864 22.56 61.0004 23.304 60.0284 23.856C59.0564 24.396 57.6944 24.666 55.9424 24.666C54.1904 24.666 52.8284 24.396 51.8564 23.856C50.8844 23.304 50.3984 22.56 50.3984 21.624C50.3984 20.712 50.8844 19.98 51.8564 19.428C52.8404 18.864 54.1964 18.582 55.9244 18.582C57.6764 18.582 59.0384 18.858 60.0104 19.41C60.9944 19.962 61.4864 20.7 61.4864 21.624ZM59.5964 21.624C59.5964 21.132 59.2724 20.748 58.6244 20.472C57.9764 20.184 57.0764 20.04 55.9244 20.04C54.7844 20.04 53.8904 20.184 53.2424 20.472C52.5944 20.748 52.2704 21.132 52.2704 21.624C52.2704 22.128 52.5944 22.524 53.2424 22.812C53.8904 23.1 54.7844 23.244 55.9244 23.244C57.0524 23.244 57.9464 23.1 58.6064 22.812C59.2664 22.524 59.5964 22.128 59.5964 21.624ZM77.3487 28.194H74.9547V30.912H78.7527V32.388H64.2627V30.912H68.0247V28.194H66.1167V23.01H75.0447V20.976H66.0807V19.5H76.8807V24.504H67.9707V26.7H77.3487V28.194ZM69.8427 28.194V30.912H73.1367V28.194H69.8427ZM94.3269 27.132H79.8369V25.746H94.3269V27.132ZM92.9049 34.296H81.6909V30.588H90.6369V29.508H81.6369V28.176H92.4729V31.884H83.5269V32.982H92.9049V34.296ZM92.7249 24.774H81.7449V21.174H90.5289V20.148H81.7089V18.798H92.3829V22.416H83.5989V23.424H92.7249V24.774ZM112.596 18.384V24.648H115.08V26.178H112.596V34.422H110.742V18.384H112.596ZM101.418 29.328C100.686 28.308 100.32 26.946 100.32 25.242C100.32 23.538 100.686 22.176 101.418 21.156C102.15 20.136 103.152 19.626 104.424 19.626C105.696 19.626 106.692 20.136 107.412 21.156C108.132 22.176 108.492 23.544 108.492 25.26C108.492 26.964 108.132 28.326 107.412 29.346C106.692 30.354 105.696 30.858 104.424 30.858C103.152 30.858 102.15 30.348 101.418 29.328ZM106.098 28.266C106.53 27.522 106.746 26.514 106.746 25.242C106.746 23.97 106.53 22.968 106.098 22.236C105.678 21.504 105.12 21.138 104.424 21.138C103.74 21.138 103.188 21.504 102.768 22.236C102.348 22.968 102.138 23.97 102.138 25.242C102.138 26.514 102.348 27.522 102.768 28.266C103.188 28.998 103.74 29.364 104.424 29.364C105.12 29.364 105.678 28.998 106.098 28.266ZM128.476 24.306H123.85V25.98H130.204V27.474H115.714V25.98H122.014V24.306H117.622V18.816H128.35V20.328H119.476V22.812H128.476V24.306ZM128.53 31.506C128.53 32.418 128.038 33.132 127.054 33.648C126.082 34.176 124.72 34.44 122.968 34.44C121.216 34.44 119.848 34.176 118.864 33.648C117.892 33.132 117.406 32.418 117.406 31.506C117.406 30.618 117.892 29.91 118.864 29.382C119.848 28.854 121.21 28.59 122.95 28.59C124.702 28.59 126.07 28.854 127.054 29.382C128.038 29.91 128.53 30.618 128.53 31.506ZM125.65 32.586C126.298 32.334 126.622 31.98 126.622 31.524C126.622 31.068 126.292 30.714 125.632 30.462C124.984 30.198 124.09 30.066 122.95 30.066C121.822 30.066 120.928 30.198 120.268 30.462C119.62 30.714 119.296 31.068 119.296 31.524C119.296 31.98 119.62 32.334 120.268 32.586C120.916 32.826 121.81 32.946 122.95 32.946C124.102 32.946 125.002 32.826 125.65 32.586ZM143.888 34.206H133.106V27.582H134.942V29.454H142.052V27.546H143.888V34.206ZM143.852 19.014C143.852 21.21 143.69 23.106 143.366 24.702H145.742V26.196H131.252V24.702H141.584C141.86 23.454 141.998 22.05 141.998 20.49H133.142V19.014H143.852ZM142.052 32.73V30.894H134.942V32.73H142.052ZM160.074 27.762H158.22V18.402H160.074V27.762ZM149.274 28.608H160.092V34.44H158.238V30.066H149.274V28.608ZM156.564 25.404L155.484 26.826C154.776 26.538 154.068 26.082 153.36 25.458C152.652 24.822 152.136 24.144 151.812 23.424C151.572 24.216 151.098 24.966 150.39 25.674C149.682 26.37 148.896 26.898 148.032 27.258L146.898 25.8C148.086 25.332 149.04 24.636 149.76 23.712C150.48 22.776 150.84 21.702 150.84 20.49V19.05H152.73V20.418C152.73 21.594 153.114 22.638 153.882 23.55C154.65 24.45 155.544 25.068 156.564 25.404ZM170.554 20.058C170.542 25.29 168.172 29.148 163.444 31.632L162.256 30.3C164.752 29.16 166.54 27.498 167.62 25.314L162.922 25.818L162.634 24.216L168.232 23.802C168.448 23.022 168.58 22.272 168.628 21.552H163.444V20.058H170.554ZM174.892 18.384V24.648H177.376V26.178H174.892V34.422H173.038V18.384H174.892ZM192.501 30.822V32.28H178.011V30.822H192.501ZM190.809 27.186H179.865V19.824H190.647V21.282H181.719V25.71H190.809V27.186ZM206.671 28.23H201.721V30.912H208.075V32.388H193.585V30.912H199.885V28.23H195.439V23.046H204.367V20.976H195.385V19.5H206.203V24.54H197.293V26.736H206.671V28.23ZM30.104 44.302C30.104 47.122 29.924 49.402 29.564 51.142H32.03V52.636H25.676V59.422H23.84V52.636H17.54V51.142H27.8C28.076 49.846 28.226 48.07 28.25 45.814H19.376V44.302H30.104ZM40.0442 45.328V55.174H33.6362V45.328H40.0442ZM46.6322 59.422H44.8502V51.304H43.3382V58.666H41.5922V43.708H43.3382V49.756H44.8502V43.384H46.6322V59.422ZM38.3162 53.734V46.786H35.3822V53.734H38.3162ZM57.8684 47.038H48.5624V45.616H57.8684V47.038ZM56.9864 50.008C56.9864 50.776 56.6324 51.382 55.9244 51.826C55.2284 52.258 54.3284 52.474 53.2244 52.474C52.1324 52.474 51.2324 52.258 50.5244 51.826C49.8164 51.382 49.4624 50.776 49.4624 50.008C49.4624 49.276 49.8104 48.688 50.5064 48.244C51.2144 47.8 52.1204 47.578 53.2244 47.578C54.3164 47.578 55.2164 47.8 55.9244 48.244C56.6324 48.688 56.9864 49.276 56.9864 50.008ZM55.2044 50.008C55.2044 49.672 55.0064 49.408 54.6104 49.216C54.2264 49.012 53.7644 48.91 53.2244 48.91C52.6724 48.91 52.1984 49.012 51.8024 49.216C51.4184 49.42 51.2264 49.684 51.2264 50.008C51.2264 50.368 51.4184 50.65 51.8024 50.854C52.1984 51.046 52.6724 51.142 53.2244 51.142C53.7764 51.142 54.2444 51.046 54.6284 50.854C55.0124 50.65 55.2044 50.368 55.2044 50.008ZM50.8844 44.788V43.366H55.5824V44.788H50.8844ZM63.5024 48.676H61.1444V52.438H59.2904V43.384H61.1444V47.128H63.5024V48.676ZM61.6844 59.368H50.8304V55.678H59.2904V54.688H50.7584V53.266H61.1444V56.992H52.6664V57.964H61.6844V59.368ZM77.1272 59.44H75.2912V53.608H68.9912V52.15H83.4812V53.608H77.1272V59.44ZM82.8692 49.072L82.0232 50.566C80.8112 50.362 79.6412 49.906 78.5132 49.198C77.3972 48.49 76.6412 47.698 76.2452 46.822C75.9092 47.686 75.1832 48.472 74.0672 49.18C72.9512 49.888 71.7632 50.356 70.5032 50.584L69.6932 49.072C71.1692 48.904 72.4712 48.388 73.5992 47.524C74.7272 46.66 75.2912 45.67 75.2912 44.554V43.744H77.2352V44.554C77.2352 45.286 77.5232 45.994 78.0992 46.678C78.6872 47.35 79.4072 47.896 80.2592 48.316C81.1232 48.736 81.9932 48.988 82.8692 49.072ZM100.634 43.384H102.488V52.348H100.634V43.384ZM96.7279 45.346C97.5319 46.066 97.9339 46.978 97.9339 48.082C97.9339 49.186 97.5379 50.08 96.7459 50.764C95.9659 51.436 94.9879 51.772 93.8119 51.772C92.6479 51.772 91.6699 51.436 90.8779 50.764C90.0859 50.08 89.6899 49.186 89.6899 48.082C89.6899 46.99 90.0859 46.084 90.8779 45.364C91.6819 44.632 92.6599 44.266 93.8119 44.266C94.9639 44.266 95.9359 44.626 96.7279 45.346ZM96.1339 48.064C96.1339 47.416 95.9179 46.876 95.4859 46.444C95.0659 46 94.5079 45.778 93.8119 45.778C93.1279 45.778 92.5699 46 92.1379 46.444C91.7059 46.888 91.4899 47.428 91.4899 48.064C91.4899 48.736 91.7059 49.288 92.1379 49.72C92.5699 50.152 93.1279 50.368 93.8119 50.368C94.4959 50.368 95.0539 50.152 95.4859 49.72C95.9179 49.276 96.1339 48.724 96.1339 48.064ZM104.036 58.036L103.028 59.368C102.464 59.116 101.888 58.708 101.3 58.144C100.724 57.592 100.34 57.034 100.148 56.47C99.9919 57.046 99.6199 57.634 99.0319 58.234C98.4439 58.846 97.8259 59.314 97.1779 59.638L96.1339 58.396C97.0819 57.964 97.8319 57.352 98.3839 56.56C98.9479 55.768 99.2299 54.868 99.2299 53.86V53.122H101.012V53.842C101.012 54.826 101.288 55.69 101.84 56.434C102.392 57.178 103.124 57.712 104.036 58.036ZM95.9539 58.054C95.6299 57.886 95.3059 57.652 94.9819 57.352C94.6579 57.04 94.4179 56.722 94.2619 56.398C94.0699 57.034 93.6859 57.634 93.1099 58.198C92.5459 58.762 91.8919 59.206 91.1479 59.53L90.1399 58.288C91.0399 57.904 91.7899 57.334 92.3899 56.578C92.9899 55.81 93.2899 54.94 93.2899 53.968V53.212H95.0899V53.878C95.0899 54.622 95.2999 55.246 95.7199 55.75C96.1399 56.254 96.6139 56.59 97.1419 56.758L95.9539 58.054ZM119.358 51.628H104.868V50.152H119.358V51.628ZM118.026 59.314H106.722V55.354H115.578V54.238H106.632V52.78H117.432V56.704H108.558V57.856H118.026V59.314ZM112.14 43.474C113.892 43.474 115.26 43.738 116.244 44.266C117.228 44.782 117.72 45.472 117.72 46.336C117.72 47.2 117.228 47.89 116.244 48.406C115.26 48.922 113.892 49.18 112.14 49.18C110.4 49.18 109.038 48.922 108.054 48.406C107.082 47.89 106.596 47.2 106.596 46.336C106.596 45.472 107.082 44.782 108.054 44.266C109.038 43.738 110.4 43.474 112.14 43.474ZM114.84 45.292C114.192 45.028 113.292 44.896 112.14 44.896C110.988 44.896 110.088 45.028 109.44 45.292C108.792 45.544 108.468 45.892 108.468 46.336C108.468 46.768 108.792 47.11 109.44 47.362C110.088 47.614 110.988 47.74 112.14 47.74C113.292 47.74 114.192 47.614 114.84 47.362C115.5 47.11 115.83 46.768 115.83 46.336C115.83 45.892 115.5 45.544 114.84 45.292ZM133.006 43.384V49.846H135.382V51.376H133.006V59.422H131.242V43.384H133.006ZM125.248 45.094C125.248 47.446 124.93 49.48 124.294 51.196C123.67 52.912 122.698 54.466 121.378 55.858L119.956 54.886C121.06 53.866 121.924 52.6 122.548 51.088C123.172 49.576 123.49 48.076 123.502 46.588H120.946V45.094H125.248ZM129.658 45.094C129.658 47.746 129.388 49.954 128.848 51.718C128.32 53.47 127.36 55.168 125.968 56.812L124.492 55.858C125.656 54.658 126.52 53.254 127.084 51.646C127.648 50.026 127.93 48.34 127.93 46.588H125.932V45.094H129.658ZM137.871 53.68V52.816C137.871 52.252 137.997 51.802 138.249 51.466C138.513 51.13 138.999 50.68 139.707 50.116C140.415 49.528 140.769 48.724 140.769 47.704C140.769 46.588 140.061 46.03 138.645 46.03C137.949 46.03 137.151 46.18 136.251 46.48V45.094C137.055 44.734 138.009 44.554 139.113 44.554C140.169 44.554 141.027 44.806 141.687 45.31C142.359 45.802 142.695 46.57 142.695 47.614C142.695 48.358 142.557 48.982 142.281 49.486C142.017 49.978 141.549 50.506 140.877 51.07C140.517 51.346 140.259 51.556 140.103 51.7C139.959 51.832 139.827 52.006 139.707 52.222C139.587 52.438 139.527 52.684 139.527 52.96V53.68H137.871ZM137.727 57.442V55.498H139.707V57.442H137.727Z" fill="#121212"/>
<path d="M27.188 74.404H25.556V79.84H24.5V69.352H25.556V73.528H27.188V74.404ZM23.636 76.492L23 77.284C22.488 76.948 21.98 76.484 21.476 75.892C20.972 75.3 20.628 74.72 20.444 74.152C20.268 74.784 19.94 75.408 19.46 76.024C18.988 76.64 18.452 77.148 17.852 77.548L17.192 76.756C18 76.252 18.652 75.572 19.148 74.716C19.644 73.86 19.892 72.956 19.892 72.004V70.252H20.984V71.956C20.984 72.9 21.232 73.772 21.728 74.572C22.224 75.372 22.86 76.012 23.636 76.492ZM36.3948 79.84H35.3268V69.352H36.3948V79.84ZM28.1148 73.84C28.1148 72.744 28.3428 71.856 28.7988 71.176C29.2548 70.488 29.9268 70.144 30.8148 70.144C31.7028 70.144 32.3708 70.488 32.8188 71.176C33.2748 71.856 33.5028 72.748 33.5028 73.852C33.5028 74.956 33.2748 75.852 32.8188 76.54C32.3708 77.22 31.7028 77.56 30.8148 77.56C29.9268 77.56 29.2548 77.216 28.7988 76.528C28.3428 75.84 28.1148 74.944 28.1148 73.84ZM32.0268 75.88C32.3068 75.368 32.4468 74.692 32.4468 73.852C32.4468 73.012 32.3068 72.336 32.0268 71.824C31.7468 71.312 31.3428 71.056 30.8148 71.056C30.2948 71.056 29.8948 71.312 29.6148 71.824C29.3348 72.336 29.1948 73.012 29.1948 73.852C29.1948 74.692 29.3348 75.368 29.6148 75.88C29.8948 76.384 30.2948 76.636 30.8148 76.636C31.3428 76.636 31.7468 76.384 32.0268 75.88ZM39.5296 76.396H39.9616C41.8336 76.396 43.2896 76.284 44.3296 76.06L44.4496 76.924C43.3616 77.148 41.7616 77.268 39.6496 77.284H38.4736V70.456H43.4296V71.332H39.5296V76.396ZM46.1296 69.352V73.444H47.7616V74.332H46.1296V79.84H45.0736V69.352H46.1296ZM48.1364 80.116L48.5564 77.692H49.7684L49.0244 80.116H48.1364ZM59.7901 79.72H52.2421V77.236H58.3261V76.396H52.1821V75.532H59.3941V78.004H53.2981V78.856H59.7901V79.72ZM59.4181 69.712V70.636C59.4181 71.732 59.3221 72.636 59.1301 73.348C58.6821 73.284 58.3421 73.24 58.1101 73.216C58.1981 72.864 58.2621 72.472 58.3021 72.04L52.1581 72.304L52.0021 71.5L58.3381 71.26V70.564H52.3021V69.712H59.4181ZM60.6181 74.764H51.1501V73.9H54.8941V72.58H55.9501V73.9H60.6181V74.764ZM67.6529 76.12L67.7609 77.008C66.4009 77.24 64.8409 77.356 63.0809 77.356H61.8209V73.24H65.5889V71.164H61.7849V70.3H66.6449V74.092H62.8769V76.48C64.7649 76.496 66.3569 76.376 67.6529 76.12ZM69.5369 69.352V73.516H71.1689V74.392H69.5369V79.84H68.4809V69.352H69.5369ZM83.0481 70.12C83.0481 71.928 82.9201 73.46 82.6641 74.716H84.2481V75.568H80.0361V79.84H78.9681V75.568H74.7801V74.716H81.6201C81.8521 73.78 81.9681 72.54 81.9681 70.996H75.8721V70.12H83.0481ZM89.5669 77.068H85.4389V70.48H89.5669V77.068ZM93.9229 79.84H92.9029V74.368H91.7509V79.324H90.7309V69.58H91.7509V73.492H92.9029V69.352H93.9229V79.84ZM88.5469 76.228V71.332H86.4469V76.228H88.5469ZM103.454 69.352V73.648H105.134V74.536H103.454V79.84H102.398V69.352H103.454ZM100.694 70.468C100.662 72.1 100.242 73.532 99.4337 74.764C98.6257 75.996 97.4857 77.012 96.0137 77.812L95.3657 77.008C96.5817 76.424 97.5577 75.624 98.2937 74.608C99.0377 73.592 99.4577 72.512 99.5537 71.368H95.8217V70.468H100.694ZM116.797 69.352V73.648H118.477V74.536H116.797V79.84H115.741V69.352H116.797ZM114.037 70.468C114.005 72.1 113.585 73.532 112.777 74.764C111.969 75.996 110.829 77.012 109.357 77.812L108.709 77.008C109.925 76.424 110.901 75.624 111.637 74.608C112.381 73.592 112.801 72.512 112.897 71.368H109.165V70.468H114.037ZM128.452 75.04H118.984V74.188H128.452V75.04ZM127.372 77.812C127.372 78.42 127.056 78.892 126.424 79.228C125.792 79.572 124.892 79.744 123.724 79.744C122.556 79.744 121.656 79.572 121.024 79.228C120.4 78.892 120.088 78.42 120.088 77.812C120.088 77.212 120.404 76.744 121.036 76.408C121.668 76.064 122.564 75.892 123.724 75.892C124.892 75.892 125.792 76.064 126.424 76.408C127.056 76.744 127.372 77.212 127.372 77.812ZM123.724 76.756C122.932 76.756 122.308 76.848 121.852 77.032C121.404 77.216 121.18 77.48 121.18 77.824C121.18 78.16 121.404 78.424 121.852 78.616C122.308 78.8 122.932 78.892 123.724 78.892C124.524 78.892 125.152 78.8 125.608 78.616C126.064 78.424 126.292 78.16 126.292 77.824C126.292 77.48 126.064 77.216 125.608 77.032C125.152 76.848 124.524 76.756 123.724 76.756ZM127.3 73.156H120.28V69.628H121.336V72.292H127.3V73.156ZM138.942 73.768H137.37V77.08H136.314V69.352H137.37V72.868H138.942V73.768ZM137.73 79.528H130.734V76.78H131.79V78.676H137.73V79.528ZM133.758 70.54H130.71V69.676H133.758V70.54ZM135.366 72.112H129.21V71.26H135.366V72.112ZM134.778 74.488C134.778 75.056 134.546 75.512 134.082 75.856C133.618 76.192 133.022 76.36 132.294 76.36C131.574 76.36 130.982 76.192 130.518 75.856C130.054 75.512 129.822 75.056 129.822 74.488C129.822 73.904 130.05 73.444 130.506 73.108C130.97 72.772 131.566 72.604 132.294 72.604C133.022 72.604 133.618 72.772 134.082 73.108C134.546 73.444 134.778 73.904 134.778 74.488ZM133.722 74.488C133.722 74.168 133.582 73.916 133.302 73.732C133.03 73.548 132.694 73.456 132.294 73.456C131.894 73.456 131.558 73.548 131.286 73.732C131.014 73.916 130.878 74.168 130.878 74.488C130.878 74.792 131.014 75.04 131.286 75.232C131.566 75.416 131.902 75.508 132.294 75.508C132.694 75.508 133.03 75.416 133.302 75.232C133.582 75.048 133.722 74.8 133.722 74.488ZM146.013 76.552L145.389 77.344C144.853 77.032 144.329 76.584 143.817 76C143.305 75.408 142.969 74.832 142.809 74.272C142.657 74.888 142.337 75.504 141.849 76.12C141.361 76.728 140.805 77.216 140.181 77.584L139.509 76.816C140.333 76.328 140.997 75.672 141.501 74.848C142.005 74.016 142.257 73.104 142.257 72.112V71.272H139.881V70.408H145.701V71.272H143.349V72.112C143.349 73.088 143.597 73.968 144.093 74.752C144.589 75.528 145.229 76.128 146.013 76.552ZM147.141 69.352H148.209V79.84H147.141V69.352ZM162.56 72.688H161V74.776H159.932V69.352H161V71.812H162.56V72.688ZM161.372 79.768H154.28V77.092H159.932V76.192H154.256V75.316H161V77.896H155.348V78.892H161.372V79.768ZM158.864 73.66L158.252 74.464C157.764 74.264 157.296 73.972 156.848 73.588C156.408 73.204 156.076 72.76 155.852 72.256C155.692 72.776 155.38 73.26 154.916 73.708C154.46 74.156 153.928 74.516 153.32 74.788L152.684 73.996C153.444 73.692 154.068 73.248 154.556 72.664C155.044 72.072 155.288 71.384 155.288 70.6V69.736H156.368V70.552C156.368 71.312 156.62 71.968 157.124 72.52C157.628 73.064 158.208 73.444 158.864 73.66ZM169.271 76.096L169.367 76.936C168.511 77.072 167.575 77.164 166.559 77.212C165.383 77.276 164.263 77.308 163.199 77.308L163.043 76.396H164.507L164.147 72.088L165.203 71.944L165.467 76.372C165.931 76.356 166.275 76.34 166.499 76.324C166.643 76.324 166.751 76.32 166.823 76.312L167.099 71.932L168.131 72.052L167.759 76.264C168.295 76.232 168.799 76.176 169.271 76.096ZM171.779 79.84H170.723V75.328H169.007V74.476H170.723V72.844H169.007V71.968H170.723V69.352H171.779V79.84ZM169.055 71.2H163.355V70.348H169.055V71.2ZM181.73 73.228H178.718V74.056H182.942V74.932H173.474V74.056H177.65V73.228H174.698V69.652H175.754V70.648H180.662V69.64H181.73V73.228ZM182.138 79.684H174.662V77.248H180.686V76.492H174.614V75.64H181.754V78.04H175.73V78.808H182.138V79.684ZM180.662 72.376V71.488H175.754V72.376H180.662ZM191.993 69.352V73.66H193.553V74.548H191.993V79.84H190.937V69.352H191.993ZM186.785 70.48C186.785 73.32 185.921 75.652 184.193 77.476L183.377 76.852C184.105 76.188 184.677 75.348 185.093 74.332C185.517 73.308 185.737 72.32 185.753 71.368H183.965V70.48H186.785ZM189.653 70.48C189.645 72.104 189.461 73.516 189.101 74.716C188.741 75.908 188.109 77.044 187.205 78.124L186.341 77.524C187.109 76.748 187.681 75.792 188.057 74.656C188.441 73.52 188.633 72.424 188.633 71.368H187.193V70.48H189.653ZM201.608 70.804C202.328 71.3 202.688 71.956 202.688 72.772C202.688 73.588 202.328 74.244 201.608 74.74C200.896 75.236 199.952 75.484 198.776 75.484C197.608 75.484 196.664 75.236 195.944 74.74C195.232 74.244 194.876 73.588 194.876 72.772C194.876 71.956 195.232 71.3 195.944 70.804C196.664 70.3 197.608 70.048 198.776 70.048C199.952 70.048 200.896 70.3 201.608 70.804ZM201.596 72.772C201.596 72.22 201.336 71.776 200.816 71.44C200.304 71.096 199.624 70.924 198.776 70.924C197.928 70.924 197.248 71.096 196.736 71.44C196.224 71.776 195.968 72.22 195.968 72.772C195.968 73.316 196.224 73.76 196.736 74.104C197.256 74.44 197.936 74.608 198.776 74.608C199.624 74.608 200.304 74.44 200.816 74.104C201.336 73.76 201.596 73.316 201.596 72.772ZM203.516 78.508H194.048V77.644H196.316V75.784L197.384 75.748V77.644H200.156V75.748L201.212 75.784V77.644H203.516V78.508ZM205.655 76.816V75.808C205.655 75.544 205.707 75.308 205.811 75.1C205.923 74.884 206.039 74.716 206.159 74.596C206.287 74.476 206.519 74.28 206.855 74.008C207.103 73.808 207.299 73.548 207.443 73.228C207.587 72.908 207.659 72.576 207.659 72.232C207.659 71.832 207.523 71.536 207.251 71.344C206.979 71.144 206.611 71.044 206.147 71.044C205.667 71.044 205.135 71.144 204.551 71.344L204.443 70.528C204.987 70.288 205.639 70.168 206.399 70.168C207.071 70.168 207.631 70.34 208.079 70.684C208.535 71.028 208.763 71.536 208.763 72.208C208.763 72.696 208.659 73.128 208.451 73.504C208.251 73.88 207.927 74.252 207.479 74.62C207.087 74.948 206.847 75.18 206.759 75.316C206.655 75.484 206.603 75.672 206.603 75.88V76.816H205.655ZM205.559 78.784V77.608H206.723V78.784H205.559Z" fill="#484C52"/>
<path d="M323.315 94.1612C320.945 95.6307 318.383 97.0438 315.929 98.4144C312.429 100.298 308.708 102.347 308.934 106.591C308.958 108.296 309.575 110.369 310.197 112.54C311.191 116.068 312.509 120.623 312.853 123.176C313.475 127.603 311.878 128.286 306.32 127.033C304.446 126.605 302.552 126.091 300.668 125.564C299.872 125.342 299.086 125.116 298.299 124.895C298.125 124.848 297.955 124.796 297.781 124.749C294.752 123.934 292.039 122.888 289.298 123.981L289.251 124C288.832 124.184 288.455 124.4 288.102 124.655C286.924 125.484 286.071 126.656 285.29 127.961C284.852 128.686 284.437 129.459 283.999 130.231C283.914 130.382 283.825 130.533 283.74 130.684C283.467 131.169 283.194 131.659 282.92 132.153H267.236C266.925 131.597 266.623 131.051 266.331 130.533C266.275 130.429 266.218 130.326 266.162 130.227C265.771 129.52 265.385 128.828 264.994 128.182C264.381 127.165 263.755 126.256 263.081 125.564C262.709 125.159 262.318 124.824 261.908 124.556C259.101 122.69 255.522 123.83 252.201 124.801C251.994 124.857 251.786 124.918 251.579 124.98C250.764 125.206 249.94 125.441 249.12 125.667C247.43 126.138 245.729 126.59 244.057 126.981C237.317 128.522 236.219 127.358 237.783 120.613C238.113 119.191 238.485 117.787 238.89 116.327C239.465 114.207 240.101 112.097 240.666 109.987C241.292 107.797 241.532 105.084 240.473 103.337C239.168 100.967 236.54 99.7709 234.062 98.3438C232.041 97.218 229.941 96.0452 227.972 94.8677C222.032 91.3351 219.809 89.2767 226.827 85.1836C229.197 83.7141 231.754 82.3057 234.208 80.9351C236.818 79.4561 238.885 78.4623 240.275 76.3568C242.088 73.4601 240.859 70.1442 239.945 66.8047C239.535 65.3634 239.111 63.8797 238.72 62.4337C238.372 61.1478 238.052 59.9185 237.764 58.6608C236.224 51.9206 237.388 50.8232 244.132 52.3869C248.39 53.2819 253.157 55.133 257.344 55.7688C262.196 56.4235 264.334 52.5141 266.402 48.6659C267.132 47.3565 267.886 46.0094 268.63 44.7094C269.289 43.5554 269.939 42.458 270.618 41.3652C274.296 35.5105 275.898 35.5576 279.557 41.4312C281.917 45.058 283.961 49.6551 286.439 53.0699C289.42 57.0688 293.683 55.8301 297.936 54.5489C300.621 53.7906 303.381 52.9946 306.08 52.3681C314.125 50.2862 313.663 53.5833 311.987 60.2529C311.426 62.4431 310.767 64.7652 310.14 66.9601C309.405 69.6731 308.407 72.4474 309.227 74.9815C310.197 77.996 313.254 79.3902 316.08 81.0057C317.389 81.7358 318.736 82.4894 320.032 83.2336C321.19 83.8931 322.288 84.543 323.376 85.226C329.235 88.8999 329.188 90.5014 323.315 94.1612Z" fill="#FC7B65" stroke="#A34646" stroke-width="0.428623" stroke-miterlimit="10"/>
<path d="M295.619 126.685L294.813 130.891C294.752 131.197 294.451 131.399 294.14 131.343L290.998 130.74L288.299 130.222C288.492 130.895 288.676 131.545 288.865 132.153H260.524C260.717 131.55 260.896 130.905 261.089 130.241L258.771 130.688L255.352 131.343C255.046 131.399 254.744 131.197 254.683 130.891L253.878 126.685C253.816 126.374 254.019 126.072 254.33 126.011L257.745 125.356L261.908 124.556L263.854 124.183C264.136 123.835 264.442 123.496 264.782 123.175C264.956 123.011 265.144 122.846 265.337 122.69C267.118 121.258 269.671 120.265 273.472 120.137C273.594 120.137 273.721 120.142 273.844 120.142C273.966 120.142 274.094 120.137 274.216 120.137C274.381 120.137 274.541 120.142 274.696 120.142C274.852 120.142 275.012 120.137 275.177 120.137C275.299 120.137 275.426 120.142 275.549 120.142C275.671 120.142 275.799 120.137 275.921 120.137C279.92 120.269 282.539 121.367 284.329 122.921C284.498 123.067 284.658 123.213 284.814 123.369C285.068 123.623 285.304 123.887 285.52 124.16L288.101 124.654L292.025 125.408L295.167 126.011C295.473 126.072 295.675 126.374 295.619 126.685Z" fill="#FECF2B" stroke="#D1904A" stroke-width="0.471014" stroke-miterlimit="10"/>
<path d="M275.205 124.212C293.183 124.212 307.757 109.638 307.757 91.6599C307.757 73.6821 293.183 59.1082 275.205 59.1082C257.227 59.1082 242.653 73.6821 242.653 91.6599C242.653 109.638 257.227 124.212 275.205 124.212Z" fill="#FECF2B"/>
<path d="M275.101 124.81C293.409 124.81 308.251 109.968 308.251 91.66C308.251 73.3517 293.409 58.51 275.101 58.51C256.793 58.51 241.951 73.3517 241.951 91.66C241.951 109.968 256.793 124.81 275.101 124.81Z" stroke="#FC7B65" stroke-width="3.16521" stroke-miterlimit="10"/>
<path d="M276.882 98.3766C276.571 98.2683 276.204 98.2024 275.813 98.1882C275.422 98.2024 275.059 98.2683 274.744 98.3766C274.395 98.5038 273.528 98.989 273.528 99.5777C273.528 100.256 274.211 100.807 275.05 100.807C275.186 100.807 275.29 100.769 275.398 100.732C275.667 100.633 275.963 100.633 276.232 100.732C276.34 100.769 276.449 100.807 276.58 100.807C277.419 100.807 278.102 100.256 278.102 99.5777C278.102 98.9843 277.235 98.4991 276.887 98.3766H276.882Z" fill="#FC7B65"/>
<path d="M271.131 91.0194V94.2929C271.131 97.8585 268.258 100.751 264.716 100.751H259.916C256.37 100.751 253.496 97.8538 253.492 94.2835C253.487 89.0034 255.998 84.6654 260.665 83.6763C260.722 83.6668 260.778 83.6527 260.835 83.648C264.721 83.1158 266.911 84.3592 268.946 86.1679C270.33 87.3973 271.131 89.1636 271.131 91.0241V91.0194Z" fill="white"/>
<path d="M270.632 94.8817L270.613 95.9792C270.566 98.4614 268.517 100.435 266.039 100.388L264.362 100.355C261.706 100.303 259.643 97.9669 259.982 95.3292C260.33 92.635 261.852 90.539 264.376 90.0585C264.409 90.0538 264.447 90.0491 264.48 90.0444C266.699 89.7854 267.989 90.4495 269.143 91.4527C270.132 92.31 270.66 93.577 270.636 94.8864L270.632 94.8817Z" fill="#250F00"/>
<path d="M263.576 94.0573C264.065 94.0573 264.462 93.6608 264.462 93.1718C264.462 92.6827 264.065 92.2863 263.576 92.2863C263.087 92.2863 262.691 92.6827 262.691 93.1718C262.691 93.6608 263.087 94.0573 263.576 94.0573Z" fill="white"/>
<path d="M270.876 90.9818C269.849 85.8242 263.58 83.9873 259.134 85.7913C256.19 86.7521 254.334 89.159 253.458 92.1923C253.406 92.3902 253.091 92.3383 253.105 92.1311C253.129 91.0478 253.34 89.9597 253.746 88.9094C256.336 82.2163 267.165 81.3119 270.664 87.6706C271.211 88.6833 271.503 89.8373 271.409 90.9583C271.394 91.1043 271.263 91.2173 271.117 91.2032C270.994 91.1938 270.895 91.0996 270.876 90.9818Z" fill="#250F00"/>
<path d="M279.962 91.0194V94.2929C279.962 97.8585 282.836 100.751 286.378 100.751H291.177C294.724 100.751 297.597 97.8538 297.602 94.2835C297.607 89.0034 295.096 84.6654 290.428 83.6763C290.372 83.6668 290.315 83.6527 290.259 83.648C286.373 83.1158 284.183 84.3592 282.148 86.1679C280.763 87.3973 279.962 89.1636 279.962 91.0241V91.0194Z" fill="white"/>
<path d="M280.462 94.8817L280.481 95.9792C280.528 98.4614 282.577 100.435 285.054 100.388L286.731 100.355C289.388 100.303 291.451 97.9669 291.112 95.3292C290.763 92.635 289.242 90.539 286.717 90.0585C286.684 90.0538 286.646 90.0491 286.613 90.0444C284.395 89.7854 283.104 90.4495 281.95 91.4527C280.961 92.31 280.434 93.577 280.457 94.8864L280.462 94.8817Z" fill="#250F00"/>
<path d="M283.048 94.3164C283.537 94.3164 283.933 93.92 283.933 93.4309C283.933 92.9419 283.537 92.5454 283.048 92.5454C282.559 92.5454 282.162 92.9419 282.162 93.4309C282.162 93.92 282.559 94.3164 283.048 94.3164Z" fill="white"/>
<path d="M279.68 90.9628C279.411 87.402 282.558 84.4581 285.831 83.6574C290.207 82.527 295.656 84.5288 297.343 88.9187C297.748 89.969 297.955 91.0571 297.983 92.1404C297.983 92.2393 297.908 92.3241 297.809 92.3241C297.729 92.3241 297.653 92.2723 297.63 92.1969C297.013 90.1857 296.028 88.3487 294.498 87.1665C292.995 85.9937 290.984 85.3295 289.114 85.1458C285.299 84.7926 280.975 86.931 280.217 90.9864C280.179 91.2926 279.698 91.269 279.684 90.9628H279.68Z" fill="#250F00"/>
<path d="M259.186 105.178C265.606 105.178 270.811 103.765 270.811 102.022C270.811 100.279 265.606 98.8666 259.186 98.8666C252.766 98.8666 247.562 100.279 247.562 102.022C247.562 103.765 252.766 105.178 259.186 105.178Z" fill="#FECF2B"/>
<path d="M291.215 105.178C297.159 105.178 301.978 103.765 301.978 102.022C301.978 100.279 297.159 98.8666 291.215 98.8666C285.271 98.8666 280.453 100.279 280.453 102.022C280.453 103.765 285.271 105.178 291.215 105.178Z" fill="#FECF2B"/>
<path d="M281.621 74.5338C283.783 72.6686 286.571 72.061 289.887 74.3454" stroke="#E89128" stroke-width="1.54493" stroke-miterlimit="10" stroke-linecap="round"/>
<path d="M269.675 75.0048C267.514 73.1396 264.725 72.532 261.409 74.8164" stroke="#E89128" stroke-width="1.54493" stroke-miterlimit="10" stroke-linecap="round"/>
<path d="M303.781 130.325C303.64 131.06 303.263 131.691 302.74 132.153H295.793L291.328 131.296C291.097 131.249 290.946 131.027 290.989 130.797L290.998 130.74L292.025 125.408L292.072 125.154C292.114 124.923 292.34 124.772 292.571 124.815L297.319 125.728L298.299 124.895L298.661 124.584C299.175 124.151 299.952 124.212 300.385 124.725C300.593 124.97 300.687 125.267 300.668 125.564C300.658 125.832 300.56 126.101 300.376 126.312L301.162 126.463C302.948 126.807 304.125 128.545 303.781 130.325Z" fill="#FC7B65" stroke="#A34646" stroke-width="0.518115" stroke-miterlimit="10"/>
<g opacity="0.5">
<path d="M292.152 126.143L294.563 126.604" stroke="white" stroke-width="0.414492" stroke-miterlimit="10"/>
<path d="M291.917 127.386L294.323 127.843" stroke="white" stroke-width="0.414492" stroke-miterlimit="10"/>
<path d="M291.681 128.611L294.092 129.073" stroke="white" stroke-width="0.414492" stroke-miterlimit="10"/>
<path d="M291.445 129.854L293.852 130.311" stroke="white" stroke-width="0.414492" stroke-miterlimit="10"/>
</g>
<path d="M258.79 130.797C258.833 131.027 258.682 131.249 258.451 131.296L253.981 132.153H247.034C246.511 131.691 246.134 131.06 245.993 130.325C245.654 128.545 246.831 126.807 248.612 126.463L249.403 126.312C249.243 126.129 249.144 125.898 249.12 125.667C249.073 125.337 249.163 124.998 249.394 124.725C249.827 124.212 250.604 124.151 251.113 124.584L251.579 124.979L252.46 125.728L257.208 124.815C257.438 124.772 257.66 124.923 257.707 125.154L257.745 125.356L258.771 130.688L258.79 130.797Z" fill="#FC7B65" stroke="#A34646" stroke-width="0.518115" stroke-miterlimit="10"/>
<g opacity="0.5">
<path d="M257.623 126.143L255.216 126.604" stroke="white" stroke-width="0.414492" stroke-miterlimit="10"/>
<path d="M257.863 127.386L255.451 127.843" stroke="white" stroke-width="0.414492" stroke-miterlimit="10"/>
<path d="M258.093 128.611L255.687 129.073" stroke="white" stroke-width="0.414492" stroke-miterlimit="10"/>
<path d="M258.334 129.854L255.922 130.311" stroke="white" stroke-width="0.414492" stroke-miterlimit="10"/>
</g>
<path d="M285.351 130.415L281.931 129.939C279.618 129.614 277.664 128.116 276.736 126.016C276.274 126.035 275.813 126.053 275.346 126.053C274.781 126.053 274.221 126.039 273.66 126.006C272.727 128.093 270.777 129.581 268.479 129.902L265.059 130.377C264.518 130.453 264.117 129.887 264.362 129.402L265.596 126.995C265.987 126.232 266.491 125.554 267.08 124.975C266.468 124.815 265.865 124.631 265.267 124.433H285.402C284.729 124.659 284.046 124.862 283.353 125.041C283.933 125.615 284.427 126.284 284.814 127.028L286.038 129.435C286.293 129.925 285.888 130.49 285.346 130.415H285.351Z" fill="#FC7B65"/>
<path d="M279.27 124.589L280.58 124.867C281.64 125.093 282.544 125.766 283.039 126.713L283.608 127.801C283.722 128.022 283.538 128.277 283.288 128.244L281.706 128.027C280.509 127.862 279.515 127.038 279.162 125.912L278.922 125.144L279.27 124.589Z" fill="#E86352"/>
<path d="M271.71 125.027L271.06 126.2C270.533 127.151 269.624 127.815 268.578 128.008L267.368 128.234C267.123 128.281 266.934 128.027 267.038 127.796L267.707 126.346C268.211 125.248 269.289 124.542 270.472 124.532H271.277L271.706 125.022L271.71 125.027Z" fill="#E86352"/>
<path d="M275.732 120.948H273.952C272.027 120.948 270.466 122.508 270.466 124.433V124.438C270.466 126.363 272.027 127.923 273.952 127.923H275.732C277.657 127.923 279.218 126.363 279.218 124.438V124.433C279.218 122.508 277.657 120.948 275.732 120.948Z" fill="#FC7B65" stroke="#A34646" stroke-width="0.447463" stroke-miterlimit="10"/>
<path d="M278.978 124.438C278.978 125.333 278.615 126.143 278.026 126.732C277.438 127.32 276.623 127.683 275.733 127.683H274.079C273.5 127.683 272.958 127.532 272.487 127.259C272.666 127.292 272.85 127.311 273.038 127.311H274.696C275.587 127.311 276.397 126.948 276.99 126.36C277.579 125.771 277.942 124.956 277.942 124.066C277.942 122.86 277.278 121.805 276.298 121.244C277.814 121.513 278.978 122.846 278.978 124.443V124.438Z" fill="#E86352"/>
<path d="M278.936 105.235V106.228C278.936 106.61 278.851 106.977 278.705 107.302C278.295 108.197 277.396 108.819 276.345 108.819H275.351C274.301 108.819 273.401 108.197 272.992 107.302C272.846 106.977 272.761 106.615 272.761 106.228V105.235C272.761 103.803 273.924 102.644 275.351 102.644H276.345C277.777 102.644 278.936 103.807 278.936 105.235Z" fill="#FC7B65"/>
<path opacity="0.5" d="M278.705 107.302C278.295 108.197 277.396 108.819 276.345 108.819H275.351C274.301 108.819 273.401 108.197 272.992 107.302C273.401 106.403 274.301 105.781 275.351 105.781H276.345C277.396 105.781 278.3 106.407 278.705 107.302Z" fill="white"/>
</svg>
