<svg width="21" height="29" viewBox="0 0 21 29" fill="none" xmlns="http://www.w3.org/2000/svg">
<path d="M20.0451 11.0336C20.0451 5.77064 15.7808 1.50317 10.5241 1.50317C5.26746 1.50317 1 5.76747 1 11.0336C1 11.0685 1 11.1034 1 11.1383C1 11.1731 1 11.208 1 11.2429C1 11.4426 1.00951 11.6424 1.02219 11.8389C1.02536 11.9119 1.0317 11.9816 1.03805 12.0514C1.04122 12.0894 1.04439 12.1274 1.04756 12.1655C1.10146 12.9169 1.21242 13.6524 1.40582 14.3626C2.72157 19.3625 7.87676 25.5544 8.58695 26.4073L9.06252 26.9399C9.89319 27.9386 11.377 27.9164 12.1823 26.8955C14.5157 23.928 18.6596 18.3067 19.6424 14.5719C19.9341 13.5066 20.0451 12.3938 20.0451 11.2429C20.0451 11.208 20.0451 11.1763 20.0451 11.1446C20.0451 11.1097 20.0451 11.0717 20.0451 11.0368V11.0336Z" stroke="current" stroke-width="1.5" stroke-miterlimit="10"/>
<path d="M10.6448 15.672C13.189 15.672 15.2515 13.6095 15.2515 11.0653C15.2515 8.52111 13.189 6.45862 10.6448 6.45862C8.10058 6.45862 6.03809 8.52111 6.03809 11.0653C6.03809 13.6095 8.10058 15.672 10.6448 15.672Z" stroke="current" stroke-width="1.5" stroke-miterlimit="10"/>
</svg>
