<svg width="24" height="28" viewBox="0 0 24 28" fill="none" xmlns="http://www.w3.org/2000/svg">
<path d="M19.4492 1.50317H4.03436C2.47071 1.50317 1.20312 2.77076 1.20312 4.33441V23.7219C1.20312 25.2855 2.47071 26.5531 4.03436 26.5531H19.4492C21.0129 26.5531 22.2805 25.2855 22.2805 23.7219V4.33441C22.2805 2.77076 21.0129 1.50317 19.4492 1.50317Z" stroke="current" stroke-width="1.5" stroke-miterlimit="10"/>
<path d="M13.5078 1.53149V9.40379C13.5078 9.854 14.0531 10.0728 14.367 9.74937L15.7557 8.30997C15.9522 8.10706 16.2756 8.10706 16.4722 8.30997L17.8894 9.76205C18.2033 10.0823 18.7454 9.86034 18.7454 9.4133V1.53149H13.5078Z" stroke="current" stroke-width="1.5" stroke-miterlimit="10"/>
<path d="M1 21.7053H22.6036" stroke="current" stroke-width="1.5" stroke-miterlimit="10"/>
</svg>
