<svg width="28" height="28" viewBox="0 0 28 28" fill="none" xmlns="http://www.w3.org/2000/svg">
<path d="M28 14C28 17.8949 26.4053 21.4217 23.8445 23.9671C22.0811 20.3176 18.3395 17.8028 14.0153 17.8028C9.69113 17.8028 5.93428 20.3176 4.17087 23.9671C1.59474 21.437 0 17.8949 0 14C0 6.27163 6.27163 0 14 0C21.7284 0 28 6.27163 28 14Z" fill="#F4635E"/>
<path d="M13.8772 15.7021C16.8836 15.7021 19.3208 13.2649 19.3208 10.2585C19.3208 7.25212 16.8836 4.81494 13.8772 4.81494C10.8708 4.81494 8.43359 7.25212 8.43359 10.2585C8.43359 13.2649 10.8708 15.7021 13.8772 15.7021Z" fill="#FFDBDB"/>
<path d="M23.845 23.967C21.2995 26.4665 17.834 27.9999 14.0005 27.9999C10.167 27.9999 6.70151 26.4665 4.17139 23.967C5.9348 20.3175 9.69165 17.8027 14.0159 17.8027C18.3401 17.8027 22.0816 20.3175 23.845 23.967Z" fill="#FFDBDB"/>
</svg>
