<svg width="26" height="26" viewBox="0 0 26 26" fill="none" xmlns="http://www.w3.org/2000/svg">
<path d="M19.6299 11.3757C19.724 11.4037 19.8299 11.5083 19.83 11.7262C19.83 11.9441 19.7241 12.0487 19.63 12.0767C17.5635 12.6919 16.0301 13.4378 14.8567 14.5988C13.6827 15.7603 12.9284 17.2786 12.3044 19.3219C12.2755 19.4166 12.1711 19.5198 11.9592 19.5198C11.7473 19.5198 11.643 19.4167 11.6141 19.3221C10.9893 17.2774 10.2346 15.7584 9.06104 14.5966C7.88783 13.4352 6.35532 12.6896 4.29012 12.0753C4.19604 12.0473 4.09006 11.9426 4.09002 11.7247C4.08999 11.5068 4.19593 11.4022 4.28996 11.3742C6.35652 10.7591 7.88985 10.0132 9.06332 8.85217C10.2373 7.69065 10.9916 6.17242 11.6156 4.12909C11.6445 4.03437 11.7489 3.93122 11.9608 3.93118C12.1727 3.93114 12.277 4.03425 12.3059 4.12891C12.9307 6.17356 13.6854 7.69262 14.859 8.85439C16.0322 10.0158 17.5647 10.7614 19.6299 11.3757Z" fill="white" stroke="black" stroke-width="1.3" stroke-linejoin="round"/>
<path d="M23.2134 19.851C23.2154 19.86 23.2167 19.8709 23.2167 19.8828C23.2167 19.8947 23.2154 19.9055 23.2134 19.9144C22.3279 20.2187 21.6177 20.5997 21.0482 21.1649C20.4784 21.7303 20.094 22.4358 19.7863 23.3144C19.7786 23.3159 19.7695 23.3169 19.7595 23.3169C19.7496 23.3169 19.7405 23.3159 19.7329 23.3144C19.4249 22.4354 19.0405 21.7296 18.471 21.164C17.9016 20.5986 17.1918 20.2175 16.3066 19.9136C16.3047 19.9046 16.3034 19.8937 16.3034 19.8818C16.3034 19.8699 16.3047 19.8591 16.3066 19.8502C17.1922 19.5459 17.9023 19.1649 18.4719 18.5997C19.0416 18.0342 19.426 17.3288 19.7338 16.4502C19.7415 16.4487 19.7506 16.4477 19.7605 16.4477C19.7704 16.4477 19.7795 16.4487 19.7872 16.4502C20.0952 17.3292 20.4796 18.035 21.0491 18.6006C21.6185 19.166 22.3283 19.5471 23.2134 19.851Z" fill="white" stroke="black" stroke-width="1.3" stroke-linejoin="round"/>
</svg>
