<svg width="24" height="24" viewBox="0 0 24 24" fill="none" xmlns="http://www.w3.org/2000/svg">
<path d="M12.0975 5.88991C13.0265 5.88991 13.7796 5.13685 13.7796 4.20789C13.7796 3.27894 13.0265 2.52588 12.0975 2.52588C11.1686 2.52588 10.4155 3.27894 10.4155 4.20789C10.4155 5.13685 11.1686 5.88991 12.0975 5.88991Z" fill="white" stroke="#808591" stroke-width="1.05787" stroke-linecap="round" stroke-linejoin="round"/>
<path d="M5.92969 8.60871C9.92844 5.5303 14.033 5.26583 18.275 8.60871" stroke="#808591" stroke-width="1.05787" stroke-linecap="round" stroke-linejoin="round"/>
<path d="M4.04688 14.3424L5.92989 8.69336L7.71769 14.3424" stroke="#808591" stroke-width="1.05787" stroke-linecap="round" stroke-linejoin="round"/>
<path d="M16.4771 14.3424L18.3601 8.69336L20.1584 14.3424" stroke="#808591" stroke-width="1.05787" stroke-linecap="round" stroke-linejoin="round"/>
<path d="M21.2799 14.6914C21.2799 16.2994 19.9787 17.6111 18.3602 17.6111C16.7416 17.6111 15.4404 16.3099 15.4404 14.6914C15.4404 14.6279 15.4404 14.575 15.4404 14.501H21.2587C21.2587 14.5644 21.2587 14.6173 21.2587 14.6914H21.2799Z" fill="#D9D9D9" stroke="#808591" stroke-width="1.05787" stroke-linecap="round" stroke-linejoin="round"/>
<path d="M8.53271 20.108C8.53271 18.1404 10.1301 16.543 12.0977 16.543C14.0654 16.543 15.6628 18.1404 15.6628 20.108C15.6628 20.182 15.6628 20.2561 15.6628 20.3301H8.54329C8.54329 20.2561 8.54329 20.182 8.54329 20.108H8.53271Z" fill="#D9D9D9" stroke="#808591" stroke-width="1.05787" stroke-linecap="round" stroke-linejoin="round"/>
<path d="M8.83945 14.6914C8.83945 16.2994 7.53827 17.6111 5.91972 17.6111C4.30118 17.6111 3 16.3099 3 14.6914C3 14.6279 3 14.575 3 14.501H8.81829C8.81829 14.5644 8.81829 14.6173 8.81829 14.6914H8.83945Z" fill="#D9D9D9" stroke="#808591" stroke-width="1.05787" stroke-linecap="round" stroke-linejoin="round"/>
<path d="M18.3705 10.4393C19.0366 10.4393 19.5765 9.89936 19.5765 9.23332C19.5765 8.56728 19.0366 8.02734 18.3705 8.02734C17.7045 8.02734 17.1646 8.56728 17.1646 9.23332C17.1646 9.89936 17.7045 10.4393 18.3705 10.4393Z" fill="white" stroke="#808591" stroke-width="1.05787" stroke-linecap="round" stroke-linejoin="round"/>
<path d="M5.85588 10.4393C6.52192 10.4393 7.06185 9.89936 7.06185 9.23332C7.06185 8.56728 6.52192 8.02734 5.85588 8.02734C5.18984 8.02734 4.6499 8.56728 4.6499 9.23332C4.6499 9.89936 5.18984 10.4393 5.85588 10.4393Z" fill="white" stroke="#808591" stroke-width="1.05787" stroke-linecap="round" stroke-linejoin="round"/>
<path d="M12.0972 6.47168V16.5849" stroke="#808591" stroke-width="1.05787" stroke-linecap="round" stroke-linejoin="round"/>
</svg>
