<svg width="26" height="26" viewBox="0 0 26 26" fill="none" xmlns="http://www.w3.org/2000/svg">
<path d="M23.7977 10.5892C23.7977 8.17255 21.8194 6.21792 19.3909 6.21792C18.6446 6.21792 17.9575 6.41931 17.3534 6.73915C17.3534 6.66808 17.3771 6.60885 17.3771 6.53777C17.3771 4.12113 15.3988 2.1665 12.9703 2.1665C10.5418 2.1665 8.56348 4.12113 8.56348 6.53777C8.56348 6.597 8.57532 6.65623 8.58717 6.71546C7.98301 6.40746 7.30777 6.21792 6.57331 6.21792C4.13298 6.21792 2.1665 8.17255 2.1665 10.5892C2.1665 13.0058 4.14483 14.9604 6.57331 14.9604C6.69177 14.9604 6.79839 14.9368 6.905 14.9249L6.30084 21.6536H19.6516L18.9408 14.9131C19.0948 14.9249 19.2488 14.9604 19.4146 14.9604C21.855 14.9604 23.8214 13.0058 23.8214 10.5892H23.7977Z" fill="white"/>
<path d="M19.2139 20.4097H6.76351C6.07001 20.4097 5.50781 20.9719 5.50781 21.6654V22.5775C5.50781 23.271 6.07001 23.8332 6.76351 23.8332H19.2139C19.9074 23.8332 20.4696 23.271 20.4696 22.5775V21.6654C20.4696 20.9719 19.9074 20.4097 19.2139 20.4097Z" fill="#B2B2B2"/>
<path d="M13.0415 14.2969H12.9349C12.719 14.2969 12.5439 14.4719 12.5439 14.6878V19.0354C12.5439 19.2513 12.719 19.4263 12.9349 19.4263H13.0415C13.2574 19.4263 13.4324 19.2513 13.4324 19.0354V14.6878C13.4324 14.4719 13.2574 14.2969 13.0415 14.2969Z" fill="#B2B2B2"/>
<path d="M15.1621 19.4028C14.9251 19.3791 14.7593 19.2014 14.7948 19.0119L15.6596 14.6051C15.6952 14.4156 15.9202 14.2853 16.1572 14.3208C16.3941 14.3445 16.5599 14.5222 16.5244 14.7117L15.6596 19.1185C15.6241 19.3081 15.399 19.4384 15.1621 19.4028Z" fill="#B2B2B2"/>
<path d="M10.8027 19.4028C11.0396 19.3791 11.2054 19.2014 11.1699 19.0119L10.3051 14.6051C10.2696 14.4156 10.0445 14.2853 9.80758 14.3208C9.57065 14.3445 9.40481 14.5222 9.44034 14.7117L10.3051 19.1185C10.3407 19.3081 10.5657 19.4384 10.8027 19.4028Z" fill="#B2B2B2"/>
<path d="M20.3974 21.5749L19.7777 15.698C22.4574 15.5136 24.5714 13.3038 24.5714 10.5892C24.5714 10.519 24.5618 10.4511 24.5438 10.3867C24.4365 7.64391 22.1593 5.46792 19.3909 5.46792C18.9206 5.46792 18.4723 5.53556 18.0507 5.65442C17.6283 3.24094 15.5051 1.4165 12.9703 1.4165C10.4388 1.4165 8.31794 3.23609 7.89156 5.64479C7.47565 5.53162 7.03527 5.46792 6.57331 5.46792C3.72405 5.46792 1.4165 7.75307 1.4165 10.5892C1.4165 13.2614 3.47484 15.4426 6.08351 15.6876L5.55385 21.5865C5.53502 21.7962 5.60522 22.0042 5.74731 22.1596C5.88939 22.3151 6.09027 22.4036 6.30084 22.4036H19.6516C19.8642 22.4036 20.0668 22.3133 20.209 22.1553C20.3512 21.9973 20.4197 21.7864 20.3974 21.5749Z" fill="white" stroke="#B2B2B2" stroke-width="1.5" stroke-linejoin="round"/>
<path d="M20.4893 20H5.51069C4.67636 20 4 20.6569 4 21.4671V22.5329C4 23.3431 4.67636 24 5.51069 24H20.4893C21.3236 24 22 23.3431 22 22.5329V21.4671C22 20.6569 21.3236 20 20.4893 20Z" fill="#B2B2B2"/>
<path d="M12.8455 12H12.7318C12.5016 12 12.3149 12.1866 12.3149 12.4169V17.053C12.3149 17.2832 12.5016 17.4699 12.7318 17.4699H12.8455C13.0757 17.4699 13.2624 17.2832 13.2624 17.053V12.4169C13.2624 12.1866 13.0757 12 12.8455 12Z" fill="#B2B2B2"/>
<path d="M15.1067 17.4446C14.854 17.4194 14.6772 17.2299 14.7151 17.0278L15.6372 12.3285C15.6751 12.1263 15.9152 11.9874 16.1678 12.0253C16.4205 12.0505 16.5973 12.24 16.5594 12.4422L15.6372 17.1414C15.5994 17.3436 15.3593 17.4825 15.1067 17.4446Z" fill="#B2B2B2"/>
<path d="M10.4579 17.4446C10.7105 17.4194 10.8874 17.2299 10.8495 17.0278L9.92729 12.3285C9.88939 12.1263 9.64937 11.9874 9.39672 12.0253C9.14407 12.0505 8.96722 12.24 9.00512 12.4422L9.92729 17.1414C9.96519 17.3436 10.2052 17.4825 10.4579 17.4446Z" fill="#B2B2B2"/>
</svg>
