<svg width="38" height="23" viewBox="0 0 38 23" fill="none" xmlns="http://www.w3.org/2000/svg">
<path d="M28.6334 6.24707C27.7787 6.24707 27.0835 6.94225 27.0835 7.79702V11.3771C27.0835 12.8567 26.1259 13.959 24.8573 13.959C23.5887 13.959 22.6311 12.8567 22.6311 11.3771V7.79702C22.6311 6.92737 21.9684 6.24707 21.1217 6.24707C20.2751 6.24707 19.5718 6.94225 19.5718 7.79702V11.4447C19.5718 14.6217 21.844 16.9493 24.8559 16.9493C26.3166 16.9493 27.6664 16.3758 28.6564 15.3344C29.6397 14.2984 30.182 12.8932 30.182 11.3771V7.79702C30.182 6.94225 29.4869 6.24707 28.6321 6.24707" fill="#652D8D"/>
<path d="M36.6038 22.5472C36.4739 22.5472 36.3414 22.5269 36.2143 22.4836L32.0337 21.4246C30.3296 22.3889 28.4037 22.8961 26.429 22.8961H12.2198C5.93613 22.8961 0.82373 17.7837 0.82373 11.5014C0.82373 5.21911 5.93613 0.105356 12.2198 0.105356H17.1266C17.8015 0.105356 18.3479 0.651761 18.3479 1.32665C18.3479 2.00154 17.8015 2.54795 17.1266 2.54795H12.2198C7.28321 2.54795 3.26632 6.56484 3.26632 11.5014C3.26632 16.438 7.28321 20.4549 12.2198 20.4549H26.429C28.1372 20.4549 29.7994 19.972 31.2317 19.0578C31.5428 18.8589 31.9269 18.813 32.2772 18.9306L35.0146 19.7381L33.8582 17.3496C33.7406 16.9993 33.7866 16.6152 33.9854 16.3041C34.8997 14.8705 35.3811 13.2096 35.3811 11.5001C35.3811 6.56348 31.3643 2.5466 26.4277 2.5466H21.5208C20.846 2.5466 20.2996 2.00019 20.2996 1.3253C20.2996 0.650409 20.846 0.104004 21.5208 0.104004H26.4277C32.7113 0.104004 37.8237 5.21641 37.8237 11.5001C37.8237 13.4747 37.3165 15.3993 36.3522 17.1048L37.7602 20.9364C37.9089 21.3759 37.794 21.8615 37.4667 22.1888C37.234 22.4214 36.9216 22.5458 36.6038 22.5458" fill="#AACE37"/>
<path d="M16.4571 12.7962C16.0432 12.7962 15.6537 12.9571 15.3616 13.2506C14.895 13.7172 14.2742 13.9728 13.6142 13.9728C12.9542 13.9728 12.332 13.7158 11.8668 13.2492C11.3812 12.765 11.1026 12.1267 11.1026 11.5018C11.1026 10.877 11.3812 10.2386 11.8668 9.75306C12.3334 9.28645 12.9542 9.02948 13.6142 9.02948C14.2742 9.02948 14.895 9.28645 15.3616 9.75306C15.6537 10.0465 16.0432 10.2075 16.4571 10.2075C16.871 10.2075 17.2605 10.0465 17.5526 9.75306C18.1572 9.1485 18.1572 8.16524 17.5526 7.56067C16.5004 6.50844 15.1019 5.92822 13.6128 5.92822C12.1237 5.92822 10.7253 6.50844 9.67302 7.56067C7.50092 9.73277 7.50092 13.2682 9.67302 15.4416C10.7239 16.4925 12.1237 17.07 13.6128 17.07C15.1019 17.07 16.5017 16.4911 17.5526 15.4403C18.1572 14.8357 18.1572 13.8524 17.5526 13.2479C17.2591 12.9557 16.871 12.7948 16.4571 12.7948" fill="#652D8D"/>
</svg>
