<svg width="24" height="24" viewBox="0 0 24 24" fill="none" xmlns="http://www.w3.org/2000/svg">
<path d="M21.6874 10.0833C21.6874 7.93301 19.5652 6.17624 16.9511 6.17624C14.337 6.17624 12.2149 7.91896 12.2149 10.0833C12.2149 10.4487 12.2149 10.6033 12.3273 10.9406C12.1867 10.9406 12.1305 11.1093 11.99 11.1093C9.9943 11.1093 8.23753 11.6855 7.07103 12.5709L4.97696 9.70383V8.49518C5.04723 8.43896 5.11751 8.38274 5.18778 8.32653L5.91859 7.59571L7.26779 7.35679C7.84401 7.25841 7.90023 6.86489 8.19537 6.35894L8.42023 5.96543C8.72942 5.41732 9.20727 4.79893 8.94024 4.22271C8.63105 3.53406 7.94239 3.07027 7.18347 3.05622L4.90669 3C4.90669 3 4.86453 3 4.83642 3H4.68183V3.01405C4.14777 3.05622 3.61371 3.26703 3.20614 3.6746L2.18019 4.70055C1.61802 5.0238 1.21045 5.61407 1.21045 6.30273V6.54165C1.21045 6.54165 1.21045 6.68219 1.21045 6.75246V13.4422C1.21045 17.7147 4.72399 21.172 9.05267 21.172H13.2268C17.8927 21.172 21.6874 17.4336 21.6874 12.8379V10.6174H21.6311C21.6593 10.4347 21.6874 10.2519 21.6874 10.0692V10.0833Z" fill="#FFD5CA"/>
<path d="M10.8662 18.572C10.8662 18.572 16.1506 19.8369 19.3409 14.3276" stroke="#C79486" stroke-width="1.5" stroke-miterlimit="10" stroke-linecap="round"/>
<path d="M6.14404 13.3862C6.14404 13.3862 8.1819 10.8565 13.0868 11.2921" stroke="#C79486" stroke-width="1.5" stroke-miterlimit="10" stroke-linecap="round"/>
<path d="M12.2574 10.6594C12.7774 6.42915 18.4834 4.58805 21.3926 9.1416C22.3061 11.1232 22.6153 14.3276 21.3364 16.4638C19.7342 19.4574 15.9255 21.3968 11.3579 21.6357C8.91249 21.692 7.26815 21.186 5.35679 20.132C3.44542 19.0779 1.19676 17.3914 1 13.4703V6.97726C1 6.37293 1.25297 5.81076 1.68865 5.40319L3.47353 3.75886C3.93732 3.33723 4.5557 3.14047 5.17409 3.21074L8.57519 3.98372L8.16762 5.61401L7.91465 6.58374C7.64762 7.03348 7.24005 7.38483 6.7341 7.55348C4.96327 7.83456 5.35679 8.53727 5.28652 9.38052V10.4205L6.74815 12.1211" stroke="#C79486" stroke-width="1.5" stroke-linecap="round" stroke-linejoin="round"/>
</svg>
