<svg width="54" height="17" viewBox="0 0 54 17" fill="none" xmlns="http://www.w3.org/2000/svg">
<path fill-rule="evenodd" clip-rule="evenodd" d="M14.0578 15.2661V7.29019H7.19318L7.67493 10.3042H10.5191V13.2211C9.85658 13.5816 9.21278 13.747 8.30991 13.747C5.48335 13.747 4.06235 11.5829 4.06235 8.50173C4.06235 5.42051 5.43595 3.348 8.26361 3.348C9.95249 3.348 11.3977 3.96534 12.6302 4.74805L13.1781 1.21264C11.8718 0.472931 10.1862 0 8.1677 0C3.10988 0 0 3.43839 0 8.52157C0 13.6048 2.87396 16.9991 8.0729 16.9991C10.3295 16.9991 12.348 16.3828 14.0578 15.265V15.2661Z" fill="#007CFF"/>
<path fill-rule="evenodd" clip-rule="evenodd" d="M27.4068 11.7502C27.4068 9.14084 25.9858 7.90505 22.425 6.5976C20.3812 5.816 19.927 5.41252 19.927 4.57689C19.927 3.81734 20.5212 3.30252 21.7603 3.30252C22.9994 3.30252 24.5593 3.77214 26.0299 4.6265L26.6472 1.21016C25.2196 0.522258 23.8449 0.117676 21.7085 0.117676C18.5755 0.117676 16.1072 1.79884 16.1072 4.95943C16.1072 7.66473 17.5293 8.73626 20.8067 9.9919C23.1107 10.8738 23.5848 11.3027 23.5848 12.2254C23.5848 13.1977 22.7778 13.6971 21.6126 13.6971C19.9755 13.6971 18.1025 13.0786 16.4147 12.1802L15.8228 15.6439C17.4863 16.4035 19.3372 16.8753 21.542 16.8753C24.7974 16.8753 27.4079 15.3121 27.4079 11.7491L27.4068 11.7502Z" fill="#007CFF"/>
<path d="M35.6894 10.981C37.58 9.73857 40.1475 8.12134 40.1475 5.04343C40.1475 1.66457 37.2845 0.124512 34.6233 0.124512C30.6547 0.124512 29.054 3.27959 28.8291 3.77236L31.8916 5.20549C32.0823 4.86374 32.9345 3.50117 34.3588 3.50117C35.2793 3.50117 36.1777 4.25742 36.1777 5.43258C36.1777 6.37844 35.1117 7.0928 33.7844 7.99787C31.681 9.431 29.0628 11.2158 29.0628 14.8824C29.0628 15.363 29.1168 15.8977 29.2337 16.5591H40.153V13.2751H33.4173C33.4173 12.5552 34.4613 11.7901 35.6916 10.9821L35.6894 10.981Z" fill="#00D4EA"/>
<path d="M48.6713 8.40798C47.8037 8.40798 47.0981 7.70244 47.0981 6.83485C47.0981 5.96726 47.8037 5.26172 48.6713 5.26172C49.5389 5.26172 50.2444 5.96726 50.2444 6.83485C50.2444 7.70244 49.5389 8.40798 48.6713 8.40798Z" fill="white"/>
<path d="M49.6291 5.11606C49.4186 5.04771 49.0471 4.94629 48.6711 4.94629C47.6283 4.94629 46.7816 5.79183 46.7816 6.83581C46.7816 7.54465 47.1575 8.15097 47.7506 8.485C48.0119 8.63272 48.6755 8.83226 48.863 8.93258C49.6567 9.357 50.1969 10.1937 50.1969 11.1572C50.1969 12.5507 49.068 13.6795 47.6746 13.6795C46.3528 13.6795 45.2691 12.6631 45.1622 11.3689L41.7822 12.1042C42.3334 14.8944 44.7929 17 47.7451 17C51.1019 17 53.8238 14.2781 53.8238 10.9213C53.8238 8.22043 52.0643 5.90979 49.628 5.11716L49.6291 5.11606ZM48.6711 8.09144C47.9788 8.09144 47.4144 7.52812 47.4144 6.83471C47.4144 6.14129 47.9777 5.57797 48.6711 5.57797C49.3646 5.57797 49.9279 6.14129 49.9279 6.83471C49.9279 7.52812 49.3646 8.09144 48.6711 8.09144Z" fill="#00D4EA"/>
<path d="M42.8382 0.350586L42.1724 7.93843H45.5722L46.0054 3.62693H49.9101C52.2197 3.62693 53.0597 1.75394 53.0597 0.350586H42.8382Z" fill="#00D4EA"/>
</svg>
