<svg width="24" height="24" viewBox="0 0 24 24" fill="none" xmlns="http://www.w3.org/2000/svg">
<path d="M16.4096 7.7136C16.5515 5.84484 15.1443 4.19033 13.2377 4.03758C13.1661 4.02301 13.0888 4.03669 13.0144 4.03625C12.5171 2.96414 11.4728 2.16315 10.1816 2.06213C8.89046 1.96112 7.72179 2.57643 7.05957 3.55962C6.93076 3.5334 6.81625 3.51009 6.68744 3.48387C4.78077 3.33112 3.1247 4.72984 2.98279 6.59859C2.91334 7.45237 3.18177 8.25724 3.67653 8.90223C3.10057 9.46167 2.69623 10.2031 2.62678 11.0569C2.51676 12.4761 3.31157 13.7706 4.53072 14.3719C4.40734 14.6851 4.3097 15.0183 4.28363 15.366C4.14173 17.2347 5.54893 18.8893 7.4556 19.042C7.4556 19.042 7.48423 19.0478 7.49854 19.0508L7.37689 20.6736C7.31613 21.4114 7.87101 22.0539 8.61821 22.1178C9.36542 22.1816 10.0129 21.6368 10.0737 20.8989L10.1982 19.262C10.1982 19.262 10.3127 19.2853 10.37 19.2969C12.2623 19.4468 13.9299 18.0651 14.0746 16.1822C14.1122 15.778 14.0581 15.3845 13.9525 15.0247C15.1067 14.5535 15.978 13.4952 16.0851 12.1636C16.1546 11.3099 15.8861 10.505 15.3914 9.85999C15.9673 9.30055 16.3717 8.55908 16.4411 7.7053L16.4096 7.7136Z" fill="#52A834"/>
<path d="M8.69976 13.9021C8.11543 15.6134 8.91502 17.4632 10.5043 18.2401L10.191 19.1714L10.1905 19.1728C9.89917 20.0468 10.3511 21.0257 11.2607 21.3236C12.1336 21.6137 13.1107 21.1627 13.4093 20.2552L13.7267 19.3287C15.4889 19.7471 17.3147 18.7595 17.9105 17.0004L17.9113 16.9981C18.0001 16.7315 18.0497 16.4682 18.0738 16.2142C19.1829 15.9217 20.1398 15.0997 20.5319 13.9234C20.7705 13.2076 20.7681 12.4806 20.5788 11.8153C21.1359 11.4039 21.5881 10.8327 21.8292 10.1093L21.8221 10.1049C22.4355 8.2723 21.4665 6.2867 19.6436 5.63294C19.3368 4.54958 18.522 3.62379 17.3762 3.23725C16.2345 2.85209 15.0231 3.0924 14.1225 3.75965C14.0965 3.74937 14.0697 3.73948 14.0422 3.73028C12.1839 3.09668 10.1627 4.09477 9.52965 5.96364L9.52965 5.96364L9.52888 5.96593C9.29026 6.68181 9.29265 7.4088 9.48198 8.07404C8.92525 8.4852 8.47332 9.05587 8.23206 9.77857C7.80009 11.0493 8.13063 12.3901 8.97041 13.3162C8.86529 13.4973 8.77293 13.6917 8.70068 13.8994L8.70068 13.8994L8.69976 13.9021Z" fill="#9FE46E" stroke="#52A834"/>
<path d="M12.0269 18.9801L15.8021 7.875" stroke="#52A834" stroke-width="0.908131" stroke-miterlimit="10" stroke-linecap="round"/>
<path d="M13.9604 14.1155L17.2946 13.7393" stroke="#52A834" stroke-width="0.908131" stroke-miterlimit="10" stroke-linecap="round"/>
<path d="M13.3505 13.9082L10.9375 11.5859" stroke="#52A834" stroke-width="0.908131" stroke-miterlimit="10" stroke-linecap="round"/>
<path d="M14.9717 11.1445L18.3058 10.7812" stroke="#52A834" stroke-width="0.908131" stroke-miterlimit="10" stroke-linecap="round"/>
<path d="M14.3623 10.9504L11.9492 8.61523" stroke="#52A834" stroke-width="0.908131" stroke-miterlimit="10" stroke-linecap="round"/>
<path d="M13.2983 16.334L14.9849 16.2173" stroke="#52A834" stroke-width="0.908131" stroke-miterlimit="10" stroke-linecap="round"/>
<path d="M12.6887 16.1267L11.2876 15.0239" stroke="#52A834" stroke-width="0.908131" stroke-miterlimit="10" stroke-linecap="round"/>
</svg>
