<svg width="26" height="26" viewBox="0 0 26 26" fill="none" xmlns="http://www.w3.org/2000/svg">
<path d="M17.5544 22.1684C14.4944 25.2654 9.43554 24.8336 6.89377 21.3171C4.78387 18.3928 5.73394 15.5796 7.05418 12.606C8.48546 9.37325 10.0401 5.93077 11.6195 2.77208C11.8046 2.40192 11.9033 2.05643 12.3475 1.92071C12.7053 1.80966 13.1248 1.97006 13.2975 2.30321C14.8645 5.78271 16.592 9.20051 18.1343 12.6923C19.6766 16.1842 20.4293 19.2442 17.542 22.1561L17.5544 22.1684Z" fill="#F5CFFF" stroke="#B339B5" stroke-width="1.2" stroke-miterlimit="10"/>
<path d="M13.9521 9.8667C13.9521 9.8667 16.6296 14.3826 16.642 17.2082C16.642 18.9726 15.6055 19.9721 15.6055 19.9721" fill="#F5CFFF"/>
<path d="M13.9521 9.8667C13.9521 9.8667 16.6296 14.3826 16.642 17.2082C16.642 18.9726 15.6055 19.9721 15.6055 19.9721" stroke="#B339B5" stroke-width="1.2" stroke-miterlimit="10" stroke-linecap="round"/>
<path d="M14.0748 22.4645C14.5586 22.4645 14.9508 22.0723 14.9508 21.5884C14.9508 21.1046 14.5586 20.7124 14.0748 20.7124C13.5909 20.7124 13.1987 21.1046 13.1987 21.5884C13.1987 22.0723 13.5909 22.4645 14.0748 22.4645Z" fill="#B339B5"/>
</svg>
