<svg width="23" height="23" viewBox="0 0 23 23" fill="none" xmlns="http://www.w3.org/2000/svg">
<path d="M22.5 11.5C22.5 17.5751 17.5751 22.5 11.5 22.5C5.42487 22.5 0.5 17.5751 0.5 11.5C0.5 5.42487 5.42487 0.5 11.5 0.5C17.5751 0.5 22.5 5.42487 22.5 11.5Z" fill="#F9A359" stroke="#FF8F2D"/>
<path d="M11.662 21.3241C16.9982 21.3241 21.3241 16.9982 21.3241 11.662C21.3241 6.32584 16.9982 2 11.662 2C6.32584 2 2 6.32584 2 11.662C2 16.9982 6.32584 21.3241 11.662 21.3241Z" fill="white"/>
<path d="M9.31336 13.155L5.45876 17.0096C4.34833 15.7204 3.63356 14.0867 3.49316 12.2998H8.95598C9.40271 12.2998 9.63245 12.8486 9.31336 13.1677V13.155Z" fill="#FFE15F"/>
<path d="M8.94322 11.0497H3.49316C3.63356 9.25001 4.33556 7.61627 5.44599 6.32715L9.3006 10.1818C9.61969 10.5008 9.38995 11.0497 8.94322 11.0497Z" fill="#FFE15F"/>
<path d="M11.0497 3.48096V8.94378C11.0497 9.3905 10.5008 9.62025 10.1818 9.30116L6.32715 5.44655C7.61627 4.33612 9.26278 3.63412 11.0497 3.49372V3.48096Z" fill="#FFE15F"/>
<path d="M11.0497 14.3804V19.8432C9.25001 19.7028 7.61627 19.0009 6.32715 17.8904L10.1818 14.0358C10.5008 13.7167 11.0497 13.9465 11.0497 14.3932V14.3804Z" fill="#FFE15F"/>
<path d="M17.0101 17.891C15.721 18.9886 14.0745 19.7034 12.2876 19.8438V14.381C12.2876 13.9343 12.8364 13.7045 13.1555 14.0236L17.0101 17.8782V17.891Z" fill="#FFE15F"/>
<path d="M17.0101 5.44655L13.1555 9.30116C12.8364 9.62025 12.2876 9.3905 12.2876 8.94378V3.48096C14.0873 3.62136 15.721 4.32335 17.0101 5.43379V5.44655Z" fill="#FFE15F"/>
<path d="M19.8438 12.2877C19.7034 14.0873 18.9886 15.7083 17.8782 16.9974L14.0236 13.1428C13.7045 12.8237 13.9343 12.2749 14.381 12.2749H19.8438V12.2877Z" fill="#FFE15F"/>
<path d="M19.8438 11.0497H14.381C13.9343 11.0497 13.7045 10.5008 14.0236 10.1818L17.8782 6.32715C18.9886 7.61627 19.6906 9.26278 19.831 11.0497H19.8438Z" fill="#FFE15F"/>
</svg>
