<svg width="24" height="24" viewBox="0 0 24 24" fill="none" xmlns="http://www.w3.org/2000/svg">
<path d="M12 24C18.6274 24 24 18.6274 24 12C24 5.37258 18.6274 0 12 0C5.37258 0 0 5.37258 0 12C0 18.6274 5.37258 24 12 24Z" fill="#B2B2B2"/>
<path d="M12.919 7.21721C13.7063 7.3776 14.4937 7.71296 15.0915 8.25245C15.354 8.48574 15.5143 8.64613 15.2665 8.96691C15.0769 9.2002 14.7853 9.5064 14.5666 9.72511C14.4354 9.85634 14.1583 10.2063 13.9688 10.1771C13.8376 10.1625 13.4439 9.76885 13.2835 9.66679C12.8752 9.38975 12.4815 9.24394 11.9712 9.28769C11.5046 9.33143 11.0235 9.62304 11.213 10.1625C11.3734 10.6145 12.6565 10.9207 13.0939 11.0957C14.6687 11.6789 15.908 12.3351 15.7331 14.2743C15.6018 15.7324 14.275 16.7531 12.919 16.9863C12.8752 17.0447 12.919 17.7883 12.919 17.9487C12.9044 18.0799 12.8315 18.1528 12.7002 18.1674C12.2774 18.2111 11.7525 18.1237 11.3151 18.1674C11.213 18.1674 11.1401 18.0507 11.1255 17.9487C11.0964 17.7883 11.1547 17.0155 11.1255 16.9718C10.1778 16.7239 9.11337 16.1698 8.4864 15.397C8.31143 15.1783 8.2531 15.12 8.44265 14.8721C8.63221 14.6243 9.34666 13.9681 9.57996 13.7932C9.65286 13.7348 9.74035 13.6911 9.84241 13.7057C9.97364 13.7202 10.4985 14.216 10.6589 14.3326C11.2567 14.7555 12.015 15.0325 12.7294 14.7263C13.0793 14.5659 13.2689 14.2014 13.1814 13.8077C13.0648 13.2828 11.6796 12.9183 11.213 12.7288C9.81325 12.1455 8.61762 11.2853 8.73427 9.59388C8.82176 8.28161 9.91532 7.49425 11.1109 7.24637C11.1547 7.18805 11.1109 6.47359 11.1255 6.3132C11.1547 6.10907 11.3151 6.07991 11.49 6.06533C11.7671 6.03617 12.2774 6.03617 12.5544 6.06533C12.6857 6.06533 12.8898 6.15281 12.919 6.28404C12.9481 6.44443 12.8898 7.14431 12.919 7.21721Z" fill="white"/>
</svg>
