<svg width="62" height="62" viewBox="0 0 62 62" fill="none" xmlns="http://www.w3.org/2000/svg">
<rect x="2" y="2" width="58" height="58" rx="10" stroke="#FDD835" stroke-width="4"/>
<mask id="mask0_1615_315" style="mask-type:alpha" maskUnits="userSpaceOnUse" x="17" y="17" width="28" height="28">
<rect x="17" y="17" width="28" height="28" fill="#D9D9D9"/>
</mask>
<g mask="url(#mask0_1615_315)">
<path d="M28.4628 41.1496C26.46 40.5857 24.8267 39.4823 23.5628 37.8392C22.2989 36.1961 21.667 34.3052 21.667 32.1663C21.667 31.0579 21.8517 30.0031 22.2212 29.0017C22.5906 28.0003 23.1156 27.0816 23.7962 26.2454C24.01 26.0121 24.2725 25.8906 24.5837 25.8809C24.8948 25.8711 25.1767 25.9927 25.4295 26.2454C25.6434 26.4593 25.7552 26.7218 25.7649 27.0329C25.7746 27.3441 25.6725 27.6357 25.4587 27.9079C24.992 28.5107 24.6323 29.1718 24.3795 29.8913C24.1267 30.6107 24.0003 31.3691 24.0003 32.1663C24.0003 33.7413 24.4621 35.1461 25.3857 36.3809C26.3094 37.6156 27.5003 38.4566 28.9587 38.9038C29.2114 38.9816 29.4205 39.1274 29.5857 39.3413C29.751 39.5552 29.8337 39.7885 29.8337 40.0413C29.8337 40.4302 29.6975 40.7364 29.4253 40.96C29.1531 41.1836 28.8323 41.2468 28.4628 41.1496ZM33.5378 41.1496C33.1684 41.2468 32.8475 41.1788 32.5753 40.9454C32.3031 40.7121 32.167 40.401 32.167 40.0121C32.167 39.7788 32.2496 39.5552 32.4149 39.3413C32.5802 39.1274 32.7892 38.9816 33.042 38.9038C34.5003 38.4371 35.6913 37.5913 36.6149 36.3663C37.5385 35.1413 38.0003 33.7413 38.0003 32.1663C38.0003 30.2218 37.3198 28.5691 35.9587 27.2079C34.5975 25.8468 32.9448 25.1663 31.0003 25.1663H30.9128L31.3795 25.6329C31.5934 25.8468 31.7003 26.1191 31.7003 26.4496C31.7003 26.7802 31.5934 27.0524 31.3795 27.2663C31.1656 27.4802 30.8934 27.5871 30.5628 27.5871C30.2323 27.5871 29.96 27.4802 29.7462 27.2663L27.2962 24.8163C27.1795 24.6996 27.0969 24.5732 27.0482 24.4371C26.9996 24.301 26.9753 24.1552 26.9753 23.9996C26.9753 23.8441 26.9996 23.6982 27.0482 23.5621C27.0969 23.426 27.1795 23.2996 27.2962 23.1829L29.7462 20.7329C29.96 20.5191 30.2323 20.4121 30.5628 20.4121C30.8934 20.4121 31.1656 20.5191 31.3795 20.7329C31.5934 20.9468 31.7003 21.2191 31.7003 21.5496C31.7003 21.8802 31.5934 22.1524 31.3795 22.3663L30.9128 22.8329H31.0003C33.6059 22.8329 35.8128 23.7371 37.6212 25.5454C39.4295 27.3538 40.3337 29.5607 40.3337 32.1663C40.3337 34.2857 39.7017 36.1718 38.4378 37.8246C37.1739 39.4774 35.5406 40.5857 33.5378 41.1496Z" fill="#121212"/>
</g>
</svg>
