<svg width="108" height="15" viewBox="0 0 108 15" fill="none" xmlns="http://www.w3.org/2000/svg">
<path d="M7.66256 3.70853H0.824219V0.351074H13.1735C13.1735 0.351074 9.77236 1.71836 7.75941 3.70853H7.66256Z" fill="#F08300"/>
<path d="M15.1318 0.0849609V3.8507C15.1318 3.8507 11.5084 4.79641 11.0356 7.4968C11.0356 7.4968 10.276 10.7631 10.4621 14.9998H5.04611C5.04611 14.9998 4.85811 9.34454 6.49506 6.12382C6.49506 6.12382 8.07313 2.38277 15.1318 0.08686V0.0849609Z" fill="#E60012"/>
<path d="M22.2089 6.23145H15.6592V8.88436H22.2089V6.23145Z" fill="#00903B"/>
<path d="M25.7295 0.299316V14.9407H36.4798V12.0409H31.7873V8.63218H36.4912V6.23183H31.7873V2.95034H36.4912V0.299316H25.7295Z" fill="#00903B"/>
<path d="M50.7798 0.299316V14.9407H61.5358V12.0409H56.8376V8.63218H61.5453V6.23183H56.8376V2.95034H61.5453V0.299316H50.7798Z" fill="#00903B"/>
<path d="M79.77 0.299316V14.9407H90.5184V12.0409H85.8241V8.63218H90.5336V6.23183H85.8241V2.95034H90.5336V0.299316H79.77Z" fill="#00903B"/>
<path d="M38.8389 0.299316V14.9407H49.2549V12.0409H44.7277V0.299316H38.8389Z" fill="#00903B"/>
<path d="M63.0327 0.299316L65.7198 14.9407H74.4724L78.1602 0.299316H73.5419L70.8946 10.8065L68.762 0.299316H63.0327Z" fill="#00903B"/>
<path d="M107.896 14.9408V3.65879C107.896 3.65879 108.711 -0.268365 102.849 0.0145874C102.849 0.0145874 100.074 0.48934 98.4393 1.62685V0.299439H92.7783V14.9408H98.4943V5.50273C98.4943 5.50273 98.4393 3.70817 100.072 3.56574C101.715 3.42711 102.095 4.03669 102.032 4.88935V14.9408H107.894H107.896Z" fill="#00903B"/>
</svg>
