<svg width="76" height="76" viewBox="0 0 76 76" fill="none" xmlns="http://www.w3.org/2000/svg">
<g filter="url(#filter0_d_987_300)">
<circle cx="36" cy="36" r="36" fill="url(#paint0_linear_987_300)"/>
</g>
<path d="M46.964 31.781C47.3895 31.9197 47.7017 32.3696 47.7018 33.0015C47.7019 33.6334 47.3899 34.0833 46.9645 34.222C43.4651 35.3629 40.8331 36.7453 38.7869 38.7909C36.7406 40.8365 35.3585 43.467 34.219 46.964C34.0803 47.3895 33.6304 47.7017 32.9985 47.7018C32.3666 47.7019 31.9167 47.3899 31.778 46.9645C30.6371 43.4651 29.2547 40.8331 27.2091 38.7869C25.1635 36.7406 22.533 35.3585 19.036 34.219C18.6105 34.0803 18.2983 33.6304 18.2982 32.9985C18.2981 32.3666 18.6101 31.9167 19.0355 31.778C22.5349 30.6371 25.1669 29.2547 27.2131 27.2091C29.2594 25.1635 30.6415 22.533 31.781 19.036C31.9197 18.6105 32.3696 18.2983 33.0015 18.2982C33.6334 18.2981 34.0833 18.6101 34.222 19.0355C35.3629 22.5349 36.7453 25.1669 38.7909 27.2131C40.8365 29.2594 43.467 30.6415 46.964 31.781Z" stroke="black" stroke-width="2" stroke-linejoin="round"/>
<path d="M54.3494 48.2441C54.566 48.327 54.7578 48.5925 54.7579 49.0009C54.7579 49.4094 54.5663 49.6747 54.3498 49.7574C52.9277 50.3012 51.7962 50.9644 50.8793 51.8809C49.9625 52.7974 49.2993 53.9282 48.7559 55.3494C48.673 55.566 48.4075 55.7578 47.9991 55.7579C47.5906 55.7579 47.3253 55.5663 47.2426 55.3498C46.6988 53.9277 46.0356 52.7962 45.1191 51.8793C44.2026 50.9625 43.0718 50.2993 41.6506 49.7559C41.434 49.673 41.2422 49.4075 41.2421 48.9991C41.2421 48.5906 41.4337 48.3253 41.6502 48.2426C43.0723 47.6988 44.2038 47.0356 45.1207 46.1191C46.0375 45.2026 46.7007 44.0718 47.2441 42.6506C47.327 42.434 47.5925 42.2422 48.0009 42.2421C48.4094 42.2421 48.6747 42.4337 48.7574 42.6502C49.3012 44.0723 49.9644 45.2038 50.8809 46.1207C51.7974 47.0375 52.9282 47.7007 54.3494 48.2441Z" stroke="black" stroke-width="1.44" stroke-linejoin="round"/>
<defs>
<filter id="filter0_d_987_300" x="0" y="0" width="76" height="76" filterUnits="userSpaceOnUse" color-interpolation-filters="sRGB">
<feFlood flood-opacity="0" result="BackgroundImageFix"/>
<feColorMatrix in="SourceAlpha" type="matrix" values="0 0 0 0 0 0 0 0 0 0 0 0 0 0 0 0 0 0 127 0" result="hardAlpha"/>
<feOffset dx="2" dy="2"/>
<feGaussianBlur stdDeviation="1"/>
<feComposite in2="hardAlpha" operator="out"/>
<feColorMatrix type="matrix" values="0 0 0 0 0 0 0 0 0 0 0 0 0 0 0 0 0 0 0.15 0"/>
<feBlend mode="normal" in2="BackgroundImageFix" result="effect1_dropShadow_987_300"/>
<feBlend mode="normal" in="SourceGraphic" in2="effect1_dropShadow_987_300" result="shape"/>
</filter>
<linearGradient id="paint0_linear_987_300" x1="36" y1="0" x2="87" y2="70.5" gradientUnits="userSpaceOnUse">
<stop stop-color="#FDD835"/>
<stop offset="0.380023" stop-color="#FFF3BE"/>
<stop offset="0.64504" stop-color="#FDD835"/>
</linearGradient>
</defs>
</svg>
