<svg width="296" height="490" viewBox="0 0 296 490" fill="none" xmlns="http://www.w3.org/2000/svg">
<path d="M161.394 477.424C155.032 491.805 144.173 495.9 135.535 477.424C99.8241 401.042 59.8149 325.323 28.4027 246.958C5.25692 187.77 -15.905 139.164 16.8298 77.6625C71.7184 -25.8323 223.489 -25.8323 278.708 77.3318C307.806 131.559 295.571 170.576 275.732 224.142C243.328 311.766 204.793 376.78 168.091 462.75L161.394 477.424ZM136.196 89.8967C62.4601 101.47 80.3155 223.15 161.656 204.634C232.416 188.762 214.23 77.3318 136.196 89.8967Z" fill="#F4635E"/>
<circle cx="148" cy="150" r="117" fill="white"/>
<path d="M215.943 102.061L213.628 100.427C211.216 98.7052 208.017 99.0541 206.493 101.204L189.091 125.686C188.307 126.785 186.695 126.948 185.454 126.078L185.144 125.86C183.926 124.988 183.555 123.384 184.317 122.31L201.719 97.8272C203.287 95.6063 202.472 92.3334 199.855 90.6668C197.404 89.0856 194.286 89.7086 192.806 91.8099L175.556 116.077C174.772 117.176 173.161 117.34 171.92 116.469C170.702 115.597 170.331 113.993 171.093 112.919L188.495 88.4362C190.019 86.2867 189.303 83.1482 186.869 81.4274L184.554 79.7938C182.142 78.072 178.943 78.4209 177.419 80.5705L153.81 113.795C153.478 114.133 153.242 114.537 153.028 114.94C153.028 114.94 149.795 120.82 154.11 127.456C156.591 131.281 156.771 135.901 154.374 139.245L143.113 155.082L132.959 140.812C130 136.639 129.026 131.313 130.295 125.982C132.406 117.189 130.395 106.68 124.011 97.7054C113.533 82.9181 95.2057 77.9166 83.097 86.5477C70.9884 95.1789 69.6939 114.14 80.1942 128.903C86.5781 137.878 95.8314 143.209 104.821 144.109C110.256 144.657 114.974 147.295 117.956 151.468L131.809 170.966L107.829 204.692C105.064 208.586 106.614 214.395 111.362 217.194C115.517 219.649 120.58 218.57 123.064 215.106L143.123 186.873L163.311 215.881C165.924 219.561 171.408 220.153 175.556 217.194C179.705 214.235 180.948 208.858 178.335 205.178L154.425 170.943L169.279 150.043C171.653 146.723 176.022 145.096 180.378 146.339C186.115 147.961 190.157 145.747 191.993 144.37C192.333 144.216 192.691 143.923 193.063 143.444L193.107 143.396C193.107 143.396 193.172 143.3 193.216 143.252L217.522 109.048C219.046 106.899 218.33 103.76 215.895 102.04L215.943 102.061Z" fill="#FDD835"/>
<path d="M215.943 102.061L213.628 100.427C211.216 98.7052 208.017 99.0541 206.493 101.204L189.091 125.686C188.307 126.785 186.695 126.948 185.454 126.078L185.144 125.86C183.926 124.988 183.555 123.384 184.317 122.31L201.719 97.8272C203.287 95.6063 202.472 92.3334 199.855 90.6668C197.404 89.0856 194.286 89.7086 192.806 91.8099L175.556 116.077C174.772 117.176 173.161 117.34 171.92 116.469C170.702 115.597 170.331 113.993 171.093 112.919L188.495 88.4362C190.019 86.2867 189.303 83.1482 186.869 81.4274L184.554 79.7938C182.142 78.072 178.943 78.4209 177.419 80.5705L153.81 113.795C153.478 114.133 153.242 114.537 153.028 114.94C153.028 114.94 149.795 120.82 154.11 127.456C156.591 131.281 156.771 135.901 154.374 139.245L143.113 155.082L132.959 140.812C130 136.639 129.026 131.313 130.295 125.982C132.406 117.189 130.395 106.68 124.011 97.7054C113.533 82.9181 95.2057 77.9166 83.097 86.5477C70.9884 95.1789 69.6939 114.14 80.1942 128.903C86.5781 137.878 95.8314 143.209 104.821 144.109C110.256 144.657 114.974 147.295 117.956 151.468L131.809 170.966L107.829 204.692C105.064 208.586 106.614 214.395 111.362 217.194C115.517 219.649 120.58 218.57 123.064 215.106L143.123 186.873L163.311 215.881C165.924 219.561 171.408 220.153 175.556 217.194C179.705 214.235 180.948 208.858 178.335 205.178L154.425 170.943L169.279 150.043C171.653 146.723 176.022 145.096 180.378 146.339C186.115 147.961 190.157 145.747 191.993 144.37C192.333 144.216 192.691 143.923 193.063 143.444L193.107 143.396C193.107 143.396 193.172 143.3 193.216 143.252L217.522 109.048C219.046 106.899 218.33 103.76 215.895 102.04L215.943 102.061Z" fill="#FDD835"/>
</svg>
