<svg width="296" height="490" viewBox="0 0 296 490" fill="none" xmlns="http://www.w3.org/2000/svg">
<path d="M161.394 477.424C155.032 491.805 144.173 495.9 135.535 477.424C99.8241 401.042 59.8149 325.323 28.4027 246.958C5.25692 187.77 -15.905 139.164 16.8298 77.6625C71.7184 -25.8323 223.489 -25.8323 278.708 77.3318C307.806 131.559 295.571 170.576 275.732 224.142C243.328 311.766 204.793 376.78 168.091 462.75L161.394 477.424ZM136.196 89.8967C62.4601 101.47 80.3155 223.15 161.656 204.634C232.416 188.762 214.23 77.3318 136.196 89.8967Z" fill="#F4635E"/>
<circle cx="148" cy="150" r="117" fill="white"/>
<path d="M222.843 125.19C222.843 179.323 189.214 223.12 147.583 223.12C105.952 223.12 72.3223 179.323 72.3223 125.19" fill="#98E5C6"/>
<path d="M223.17 129.195C223.17 158.135 189.324 181.519 147.585 181.519C105.846 181.519 72 158.135 72 129.195C72 100.255 105.846 77 147.585 77C186.729 77 218.953 97.5421 222.737 123.898C222.954 125.061 223.062 126.224 223.062 127.386C223.17 128.032 223.17 128.549 223.17 129.195Z" fill="#44BC88"/>
<path d="M210.951 128.419C210.951 152.708 182.512 172.346 147.585 172.346C112.658 172.346 84.2188 152.708 84.2188 128.419C84.2188 104.13 112.55 84.6217 147.585 84.6217C180.457 84.6217 207.49 101.805 210.626 123.897C210.843 124.931 210.951 125.835 210.951 126.869C210.951 127.385 210.951 127.902 210.951 128.419Z" fill="#E6563C"/>
<path d="M141.603 114.552L99.5463 124.174C94.9126 125.234 91.871 130.553 92.7526 136.054C93.6343 141.555 98.1054 145.156 102.739 144.096L144.796 134.474C149.429 133.414 152.471 128.095 151.589 122.593C150.708 117.092 146.237 113.492 141.603 114.552Z" fill="#FDBE54"/>
<path d="M176.454 129.08L134.398 138.702C129.764 139.762 126.723 145.081 127.604 150.582C128.486 156.083 132.957 159.683 137.591 158.623L179.647 149.002C184.281 147.941 187.323 142.622 186.441 137.121C185.559 131.62 181.088 128.02 176.454 129.08Z" fill="#FDBE54"/>
<path d="M155.586 91.2115H112.765C108.047 91.2115 104.223 95.7522 104.223 101.353C104.223 106.955 108.047 111.495 112.765 111.495H155.586C160.304 111.495 164.128 106.955 164.128 101.353C164.128 95.7522 160.304 91.2115 155.586 91.2115Z" fill="#FDBE54"/>
<path d="M196.568 105.165H168.777C164.836 105.165 161.641 108.983 161.641 113.692V116.922C161.641 121.631 164.836 125.449 168.777 125.449H196.568C200.509 125.449 203.704 121.631 203.704 116.922V113.692C203.704 108.983 200.509 105.165 196.568 105.165Z" fill="#FDBE54"/>
<path d="M154.939 110.85H127.148C123.207 110.85 120.012 114.668 120.012 119.377V122.607C120.012 127.316 123.207 131.134 127.148 131.134H154.939C158.88 131.134 162.075 127.316 162.075 122.607V119.377C162.075 114.668 158.88 110.85 154.939 110.85Z" fill="#FD8A54"/>
<path d="M190.19 133.717H162.399C158.458 133.717 155.263 137.534 155.263 142.243V145.473C155.263 150.183 158.458 154 162.399 154H190.19C194.131 154 197.326 150.183 197.326 145.473V142.243C197.326 137.534 194.131 133.717 190.19 133.717Z" fill="#FD8A54"/>
<path d="M139.454 145.035L113.329 133.717C109.623 132.112 105.53 134.399 104.186 138.826L103.265 141.863C101.921 146.29 103.836 151.18 107.542 152.786L133.667 164.104C137.373 165.709 141.466 163.421 142.809 158.994L143.731 155.958C145.075 151.53 143.16 146.64 139.454 145.035Z" fill="#FFE5C5"/>
<path d="M184.132 97.5449L161.767 87.8563C158.567 86.4699 155.032 88.4457 153.872 92.2692L153.098 94.8198C151.937 98.6433 153.591 102.867 156.791 104.253L179.156 113.942C182.356 115.328 185.891 113.352 187.051 109.529L187.825 106.978C188.985 103.155 187.332 98.9313 184.132 97.5449Z" fill="#FD8A54"/>
<path d="M181.727 124.986L159.363 115.297C156.163 113.911 152.628 115.887 151.467 119.71L150.693 122.261C149.533 126.084 151.187 130.308 154.387 131.694L176.751 141.383C179.951 142.769 183.486 140.793 184.647 136.97L185.421 134.419C186.581 130.596 184.928 126.372 181.727 124.986Z" fill="#FFE5C5"/>
<path d="M151.91 130.229C154.836 130.229 157.208 127.394 157.208 123.898C157.208 120.402 154.836 117.567 151.91 117.567C148.984 117.567 146.611 120.402 146.611 123.898C146.611 127.394 148.984 130.229 151.91 130.229Z" fill="#2C8A54"/>
<path d="M135.148 130.229C138.074 130.229 140.447 127.394 140.447 123.898C140.447 120.402 138.074 117.567 135.148 117.567C132.222 117.567 129.85 120.402 129.85 123.898C129.85 127.394 132.222 130.229 135.148 130.229Z" fill="#2C8A54"/>
<path d="M146.829 116.662C149.755 116.662 152.127 113.828 152.127 110.332C152.127 106.836 149.755 104.001 146.829 104.001C143.903 104.001 141.53 106.836 141.53 110.332C141.53 113.828 143.903 116.662 146.829 116.662Z" fill="#2C8A54"/>
</svg>
