<svg width="296" height="490" viewBox="0 0 296 490" fill="none" xmlns="http://www.w3.org/2000/svg">
<path d="M161.394 477.424C155.032 491.805 144.173 495.9 135.535 477.424C99.8241 401.042 59.8149 325.323 28.4027 246.958C5.25692 187.77 -15.905 139.164 16.8298 77.6625C71.7184 -25.8323 223.489 -25.8323 278.708 77.3318C307.806 131.559 295.571 170.576 275.732 224.142C243.328 311.766 204.793 376.78 168.091 462.75L161.394 477.424ZM136.196 89.8967C62.4601 101.47 80.3155 223.15 161.656 204.634C232.416 188.762 214.23 77.3318 136.196 89.8967Z" fill="#F4635E"/>
<circle cx="148" cy="150" r="117" fill="white"/>
<path d="M202.932 116.976C202.932 116.976 229.222 117.931 221.873 138.714C214.525 159.498 162.152 174.237 162.152 174.237" stroke="#A0A4A8" stroke-width="4.27121" stroke-miterlimit="10"/>
<path d="M139.898 223.12C174.71 223.12 202.931 210.776 202.931 195.55C202.931 180.324 174.71 167.98 139.898 167.98C105.086 167.98 76.8652 180.324 76.8652 195.55C76.8652 210.776 105.086 223.12 139.898 223.12Z" fill="#EDEDED" stroke="#A0A4A8" stroke-width="1.02509" stroke-miterlimit="10"/>
<path d="M139.892 213.047C165.902 213.047 186.986 205.214 186.986 195.551C186.986 185.888 165.902 178.055 139.892 178.055C113.883 178.055 92.7988 185.888 92.7988 195.551C92.7988 205.214 113.883 213.047 139.892 213.047Z" fill="#A0A4A8"/>
<path d="M201.69 145.394C193.617 178.159 168.155 202.124 138.139 202.124C108.124 202.124 82.9726 178.372 74.7959 145.818C115.265 164.799 160.289 163.42 201.69 145.394Z" fill="#EDEDED"/>
<path d="M204.38 123.127C204.38 125.141 204.276 127.156 204.173 129.065C160.598 145.713 113.504 147.303 72.3105 130.231C72.1035 127.898 72 125.565 72 123.127C72 118.779 72.3105 114.537 72.9315 110.402H203.448C204.069 114.537 204.38 118.779 204.38 123.127Z" fill="#EDEDED"/>
<path d="M204.173 129.065C203.862 134.685 203.034 140.199 201.689 145.395C160.288 163.422 115.264 164.8 74.7946 145.819C73.5526 140.836 72.6211 135.64 72.3105 130.232C113.505 147.304 160.598 145.713 204.173 129.065Z" fill="#EFEFEF"/>
<path d="M138.24 133.836C174.424 133.836 203.757 121.113 203.757 105.418C203.757 89.7233 174.424 77 138.24 77C102.056 77 72.7227 89.7233 72.7227 105.418C72.7227 121.113 102.056 133.836 138.24 133.836Z" fill="#A0A4A8"/>
<path d="M138.242 126.838C167.681 126.838 191.546 117.248 191.546 105.418C191.546 93.5886 167.681 83.9987 138.242 83.9987C108.803 83.9987 84.9385 93.5886 84.9385 105.418C84.9385 117.248 108.803 126.838 138.242 126.838Z" fill="#231918"/>
<path d="M204.173 129.065C203.862 134.685 203.034 140.199 201.689 145.395C159.874 170.208 114.85 170.844 74.7946 145.819C73.5526 140.836 72.6211 135.64 72.3105 130.232C113.505 153.878 160.598 153.136 204.173 129.065Z" fill="#FFBBBB"/>
<g opacity="0.46">
<path d="M141.76 96.8285C141.76 96.8285 142.071 96.8285 142.174 96.7224C143.727 95.344 144.658 94.4956 147.142 93.9655C154.491 92.4809 159.666 97.2526 158.838 102.342C157.492 110.083 145.176 114.855 136.585 117.506C135.55 116.87 134.515 116.127 133.583 115.385C127.063 110.507 118.576 101.918 125.2 94.9198C130.064 89.83 140.001 90.7843 141.864 96.8285H141.76Z" stroke="#FFD05C" stroke-width="2.26374" stroke-linecap="round" stroke-linejoin="round"/>
</g>
</svg>
