<svg width="296" height="490" viewBox="0 0 296 490" fill="none" xmlns="http://www.w3.org/2000/svg">
<path d="M161.394 477.424C155.032 491.805 144.173 495.9 135.535 477.424C99.8241 401.042 59.8149 325.323 28.4027 246.958C5.25692 187.77 -15.905 139.164 16.8298 77.6625C71.7184 -25.8323 223.489 -25.8323 278.708 77.3318C307.806 131.559 295.571 170.576 275.732 224.142C243.328 311.766 204.793 376.78 168.091 462.75L161.394 477.424ZM136.196 89.8967C62.4601 101.47 80.3155 223.15 161.656 204.634C232.416 188.762 214.23 77.3318 136.196 89.8967Z" fill="#F4635E"/>
<circle cx="148" cy="150" r="117" fill="white"/>
<path d="M112.192 165.877C133.932 165.877 151.556 150.169 151.556 130.791C151.556 111.413 133.932 95.7045 112.192 95.7045C90.4519 95.7045 72.8281 111.413 72.8281 130.791C72.8281 150.169 90.4519 165.877 112.192 165.877Z" fill="#FFC82E"/>
<path d="M112.19 157.064C128.469 157.064 141.666 145.301 141.666 130.79C141.666 116.28 128.469 104.517 112.19 104.517C95.9101 104.517 82.7129 116.28 82.7129 130.79C82.7129 145.301 95.9101 157.064 112.19 157.064Z" stroke="#C29A2A" stroke-width="1.45611" stroke-miterlimit="10"/>
<path d="M181.038 165.877C202.778 165.877 220.402 150.169 220.402 130.791C220.402 111.413 202.778 95.7045 181.038 95.7045C159.298 95.7045 141.674 111.413 141.674 130.791C141.674 150.169 159.298 165.877 181.038 165.877Z" fill="#FFC82E"/>
<path d="M181.035 157.064C197.315 157.064 210.512 145.301 210.512 130.79C210.512 116.28 197.315 104.517 181.035 104.517C164.756 104.517 151.559 116.28 151.559 130.79C151.559 145.301 164.756 157.064 181.035 157.064Z" stroke="#C29A2A" stroke-width="1.45611" stroke-miterlimit="10"/>
<path d="M144.354 169.616C169.993 169.616 190.777 151.09 190.777 128.238C190.777 105.385 169.993 86.8594 144.354 86.8594C118.716 86.8594 97.9316 105.385 97.9316 128.238C97.9316 151.09 118.716 169.616 144.354 169.616Z" fill="#FFC82E"/>
<path d="M144.343 159.222C163.541 159.222 179.105 145.35 179.105 128.237C179.105 111.124 163.541 97.252 144.343 97.252C125.144 97.252 109.58 111.124 109.58 128.237C109.58 145.35 125.144 159.222 144.343 159.222Z" stroke="#C29A2A" stroke-width="1.71722" stroke-miterlimit="10"/>
<path d="M144.349 146.885C155.904 146.885 165.272 138.536 165.272 128.236C165.272 117.936 155.904 109.587 144.349 109.587C132.793 109.587 123.426 117.936 123.426 128.236C123.426 138.536 132.793 146.885 144.349 146.885Z" stroke="#C29A2A" stroke-width="1.71722" stroke-miterlimit="10"/>
<path d="M72 147.675C72 144.38 72.2772 141.086 72.7392 137.873H222.063C222.618 141.086 222.802 144.38 222.802 147.675C222.802 184.82 189.075 214.965 147.401 214.965C105.727 214.965 72 184.82 72 147.675Z" fill="#1E110D"/>
<path d="M178.352 196.517H116.441V223.12H178.352V196.517Z" fill="#1E110D"/>
<path d="M178.544 210.188H116.264" stroke="#FC7B65" stroke-width="1.45611" stroke-miterlimit="10"/>
<path d="M223.17 149.076H72.0898" stroke="#FC7B65" stroke-width="1.45611" stroke-miterlimit="10"/>
<path d="M87.6122 101.387C92.9716 93.7272 106 87.55 115.333 82.8553C131.504 74.7014 145.826 76.2663 161.443 80.3021C179.092 84.2555 197.11 90.6798 206.443 105.093C211.063 114.73 204.687 123.213 192.49 122.225C178.537 123.213 162.089 105.999 149.522 110.859C144.255 112.259 139.728 115.883 133.629 117.942C126.884 120.495 119.122 118.518 113.3 115.059C104.799 109.211 96.2057 106.988 88.3514 104.023C87.6122 103.528 87.2426 102.869 87.5198 101.963L87.7046 101.387H87.6122Z" fill="#1E110D"/>
<path d="M132.675 94.7221C135.839 94.7221 138.404 92.4359 138.404 89.6156C138.404 86.7954 135.839 84.5092 132.675 84.5092C129.511 84.5092 126.946 86.7954 126.946 89.6156C126.946 92.4359 129.511 94.7221 132.675 94.7221Z" fill="#74C843"/>
<path d="M162.092 93.1513C165.256 93.1513 167.821 90.8651 167.821 88.0448C167.821 85.2246 165.256 82.9384 162.092 82.9384C158.928 82.9384 156.363 85.2246 156.363 88.0448C156.363 90.8651 158.928 93.1513 162.092 93.1513Z" fill="#74C843"/>
<path d="M146.262 101.641C149.426 101.641 151.991 99.3551 151.991 96.5348C151.991 93.7146 149.426 91.4283 146.262 91.4283C143.098 91.4283 140.533 93.7146 140.533 96.5348C140.533 99.3551 143.098 101.641 146.262 101.641Z" fill="#74C843"/>
</svg>
