<svg width="600" height="600" viewBox="0 0 600 600" fill="none" xmlns="http://www.w3.org/2000/svg">
<path d="M313.394 532.424C307.032 546.805 296.173 550.9 287.535 532.424C251.824 456.042 211.815 380.323 180.403 301.958C157.257 242.77 136.095 194.164 168.83 132.662C223.718 29.1677 375.489 29.1677 430.708 132.332C459.806 186.559 447.571 225.576 427.732 279.142C395.328 366.766 356.793 431.78 320.091 517.75L313.394 532.424ZM288.196 144.897C214.46 156.47 232.315 278.15 313.656 259.634C384.416 243.762 366.23 132.332 288.196 144.897Z" fill="#F4635E"/>
<circle cx="300.059" cy="198.981" r="87.0588" fill="white"/>
<circle cx="300" cy="205" r="117" fill="white"/>
</svg>
