<svg width="296" height="490" viewBox="0 0 296 490" fill="none" xmlns="http://www.w3.org/2000/svg">
<path d="M161.394 477.424C155.032 491.805 144.173 495.9 135.535 477.424C99.8241 401.042 59.8149 325.323 28.4027 246.958C5.25692 187.77 -15.905 139.164 16.8298 77.6625C71.7184 -25.8323 223.489 -25.8323 278.708 77.3318C307.806 131.559 295.571 170.576 275.732 224.142C243.328 311.766 204.793 376.78 168.091 462.75L161.394 477.424ZM136.196 89.8967C62.4601 101.47 80.3155 223.15 161.656 204.634C232.416 188.762 214.23 77.3318 136.196 89.8967Z" fill="#F4635E"/>
<circle cx="148" cy="150" r="117" fill="white"/>
<path d="M205.554 126.487H91.1035V223.12H205.554V126.487Z" fill="#B0D4FF"/>
<path d="M102.474 77H132.869V125.398C132.869 135.004 126.052 142.855 117.711 142.855C109.371 142.855 102.554 135.004 102.554 125.398V77H102.474Z" fill="#FDD835"/>
<path d="M162.703 77H193.099V125.398C193.099 135.004 186.282 142.855 177.941 142.855C169.6 142.855 162.783 135.004 162.783 125.398V77H162.703Z" fill="#FDD835"/>
<path d="M132.628 77H163.023V125.398C163.023 135.004 156.206 142.855 147.866 142.855C139.525 142.855 132.708 135.004 132.708 125.398V77H132.628Z" fill="#67A2F9"/>
<path d="M208.012 142.947C199.591 142.947 192.854 135.096 192.854 125.491V77H212.824L223.17 125.398C223.17 135.096 216.353 142.855 208.012 142.855V142.947Z" fill="#67A2F9"/>
<path d="M87.1576 142.947C95.5785 142.947 102.315 135.096 102.315 125.491V77H82.3457L72 125.398C72 135.096 78.8169 142.855 87.1576 142.855V142.947Z" fill="#67A2F9"/>
<path d="M171.041 223.12H129.257V178.641C129.257 164.502 138.641 153.014 150.189 153.014C161.738 153.014 171.121 164.502 171.121 178.641V223.12H171.041Z" fill="#2D7EF6"/>
</svg>
