<svg width="106" height="106" viewBox="0 0 106 106" fill="none" xmlns="http://www.w3.org/2000/svg">
<rect x="0.5" y="0.5" width="105" height="105" rx="11.5" fill="white" stroke="#A0A4A8"/>
<path d="M71.4464 38.4421L71.269 39.1517L71.9678 39.3679C74.4753 40.1434 76.3056 42.4656 76.3121 45.2205C76.3092 46.3939 75.9514 47.5005 75.3519 48.4648L75.0983 48.8728L75.3519 49.2808C75.9538 50.2491 76.3121 51.3607 76.3121 52.5395C76.3121 55.9539 73.5444 58.7216 70.13 58.7216C68.4232 58.7216 66.8713 58.0237 65.7585 56.9109L65.2121 56.3645L64.6656 56.9109C63.5529 58.0237 62.001 58.7216 60.2941 58.7216C58.1463 58.7216 56.2581 57.6361 55.1447 55.9788L54.5032 55.024L53.8617 55.9788C52.7512 57.6316 50.778 58.7216 48.7122 58.7216C46.6476 58.7216 44.8121 57.6899 43.6984 56.11L43.0667 55.2139L42.4351 56.11C41.3214 57.6899 39.4858 58.7216 37.4213 58.7216C34.0069 58.7216 31.2392 55.9539 31.2392 52.5395C31.2392 51.3607 31.5975 50.2491 32.1994 49.2808L32.453 48.8728L32.1994 48.4648C31.5975 47.4966 31.2392 46.385 31.2392 45.2062C31.2392 42.4448 33.0715 40.1157 35.5835 39.3388L36.2823 39.1226L36.1049 38.413C36.0048 38.0123 35.9534 37.5808 35.9534 37.1454C35.9534 33.731 38.7211 30.9633 42.1355 30.9633C42.5415 30.9633 42.919 30.9907 43.254 31.0625L43.8838 31.1975L44.1301 30.6023C45.0629 28.348 47.2621 26.7728 49.8471 26.7728C51.1373 26.7728 52.3543 27.1862 53.3392 27.86L53.7782 28.1604L54.2156 27.8576C55.2233 27.16 56.4089 26.7728 57.7042 26.7728C60.2892 26.7728 62.4884 28.348 63.4212 30.6023L63.6507 31.1568L64.2446 31.0719C64.6536 31.0135 65.0405 30.9633 65.4158 30.9633C68.8302 30.9633 71.5979 33.731 71.5979 37.1454C71.5979 37.6117 71.5461 38.0431 71.4464 38.4421Z" fill="#F8F8F8" stroke="#D0D0D0" stroke-width="1.54569"/>
<path d="M60.2746 52.5051C59.0869 48.7391 56.2825 46.0986 52.9833 46.0986C51.3337 46.0986 49.8161 46.7479 48.5294 47.9167C47.2757 46.7912 45.725 46.0986 44.0754 46.0986C40.7762 46.0986 37.9719 48.7391 36.7842 52.5051" stroke="#D0D0D0" stroke-width="1.54569" stroke-linecap="round" stroke-linejoin="round"/>
<path d="M62.4096 39.6924C61.5458 37.1817 59.5063 35.4214 57.1069 35.4214C55.9072 35.4214 54.8034 35.8543 53.8676 36.6334C52.9559 35.8831 51.8281 35.4214 50.6284 35.4214C48.229 35.4214 46.1895 37.1817 45.3257 39.6924" stroke="#D0D0D0" stroke-width="1.54569" stroke-linecap="round" stroke-linejoin="round"/>
<path fill-rule="evenodd" clip-rule="evenodd" d="M30.2328 50.8525C30.0873 51.9875 30 53.1515 30 54.3155C30 63.9643 35.7411 72.2762 43.9969 76.0017V81.0002H63.4941V76.002C71.7503 72.2766 77.4917 63.9646 77.4917 54.3155C77.4917 53.1515 77.4335 51.9875 77.2589 50.8525H30.2328Z" fill="#67A2F9"/>
</svg>
