<svg width="296" height="490" viewBox="0 0 296 490" fill="none" xmlns="http://www.w3.org/2000/svg">
<path d="M161.394 477.424C155.032 491.805 144.173 495.9 135.535 477.424C99.8241 401.042 59.8149 325.323 28.4027 246.958C5.25692 187.77 -15.905 139.164 16.8298 77.6625C71.7184 -25.8323 223.489 -25.8323 278.708 77.3318C307.806 131.559 295.571 170.576 275.732 224.142C243.328 311.766 204.793 376.78 168.091 462.75L161.394 477.424ZM136.196 89.8967C62.4601 101.47 80.3155 223.15 161.656 204.634C232.416 188.762 214.23 77.3318 136.196 89.8967Z" fill="#F4635E"/>
<circle cx="148" cy="150" r="117" fill="white"/>
<path d="M148.5 114.29C159.27 114.29 168 105.942 168 95.6448C168 85.3475 159.27 77 148.5 77C137.73 77 129 85.3475 129 95.6448C129 105.942 137.73 114.29 148.5 114.29Z" fill="#A0A4A8"/>
<path d="M148.5 170.775C159.27 170.775 168 162.428 168 152.13C168 141.833 159.27 133.486 148.5 133.486C137.73 133.486 129 141.833 129 152.13C129 162.428 137.73 170.775 148.5 170.775Z" fill="#A0A4A8"/>
<path d="M148.5 223.12C159.27 223.12 168 214.772 168 204.475C168 194.178 159.27 185.83 148.5 185.83C137.73 185.83 129 194.178 129 204.475C129 214.772 137.73 223.12 148.5 223.12Z" fill="#A0A4A8"/>
</svg>
