<svg width="296" height="490" viewBox="0 0 296 490" fill="none" xmlns="http://www.w3.org/2000/svg">
<path d="M161.394 477.424C155.032 491.805 144.173 495.9 135.535 477.424C99.8241 401.042 59.8149 325.323 28.4027 246.958C5.25692 187.77 -15.905 139.164 16.8298 77.6625C71.7184 -25.8323 223.489 -25.8323 278.708 77.3318C307.806 131.559 295.571 170.576 275.732 224.142C243.328 311.766 204.793 376.78 168.091 462.75L161.394 477.424ZM136.196 89.8967C62.4601 101.47 80.3155 223.15 161.656 204.634C232.416 188.762 214.23 77.3318 136.196 89.8967Z" fill="#F4635E"/>
<circle cx="148" cy="150" r="117" fill="white"/>
<path d="M215.861 118.345C215.861 95.4504 185.211 77 147.545 77C109.879 77 79.2295 95.585 79.2295 118.345V143.26H215.861V118.345Z" fill="#F0C958"/>
<path d="M132.773 97.4692L134.496 93.025C134.866 91.9476 134.127 90.8702 133.142 91.0048L128.711 91.6782C127.726 91.8129 126.742 92.4863 126.126 93.5637C125.511 94.641 125.388 96.2571 125.88 97.6039C126.988 100.163 129.819 100.701 131.665 99.0853C132.158 98.6813 132.527 98.0079 132.773 97.4692Z" fill="#D3A24F"/>
<path d="M161.086 97.4692L159.362 93.025C158.993 91.9476 159.732 90.8702 160.716 91.0048L165.148 91.6782C166.132 91.8129 167.117 92.4863 167.733 93.5637C168.348 94.641 168.471 96.2571 167.979 97.6039C166.871 100.163 164.04 100.701 162.193 99.0853C161.701 98.6813 161.332 98.0079 161.086 97.4692Z" fill="#D3A24F"/>
<path d="M150.741 95.7185L148.648 91.4089C148.156 90.4662 146.925 90.4662 146.433 91.4089L144.094 95.5839C143.602 96.5266 143.355 97.7386 143.725 98.9507C144.094 100.163 145.202 101.375 146.433 101.644C148.895 102.318 151.11 100.297 151.233 97.7386C151.233 97.0653 151.11 96.3919 150.741 95.7185Z" fill="#D3A24F"/>
<path d="M79.2295 202.919C79.2295 214.097 109.879 223.12 147.545 223.12C185.211 223.12 215.738 214.097 215.861 202.919V190.798H79.2295V202.919Z" fill="#F0C958"/>
<path d="M149.632 130.734C142.123 128.444 122.921 121.98 117.136 125.751C114.305 127.502 112.704 129.926 110.243 131.946C102.488 138.68 82.3007 131.811 74.0535 137.063C70.2377 139.622 72.0841 142.854 76.7616 144.605C88.086 148.107 101.749 149.453 111.597 150.666C122.552 151.608 134.615 146.491 145.939 147.029C157.264 146.76 168.588 158.477 179.297 152.012C188.529 145.952 202.192 148.511 211.301 143.393C214.378 141.508 217.455 139.084 220.04 136.794C231.611 127.232 207.977 126.963 199.73 132.485C196.899 133.966 193.822 135.851 190.498 136.794C185.205 138.41 180.651 132.754 175.481 129.791C167.48 125.616 159.602 134.37 151.109 131.003L149.632 130.599V130.734Z" fill="#74C843"/>
<path d="M212.039 142.989H83.0385C77.9399 142.989 73.8066 147.511 73.8066 153.089C73.8066 158.668 77.9399 163.19 83.0385 163.19H212.039C217.137 163.19 221.271 158.668 221.271 153.089C221.271 147.511 217.137 142.989 212.039 142.989Z" fill="#E96A6A"/>
<path d="M149.632 182.316C142.123 180.026 122.921 173.562 117.136 177.333C114.305 179.084 112.704 181.508 110.243 183.528C102.488 190.262 82.3007 183.393 74.0535 188.645C70.2377 191.204 72.0841 194.436 76.7616 196.187C88.086 199.689 101.749 201.035 111.597 202.248C122.552 203.19 134.615 198.073 145.939 198.611C157.264 198.342 168.588 210.059 179.297 203.594C188.529 197.534 202.192 200.093 211.301 194.975C214.378 193.09 217.455 190.666 220.04 188.376C231.611 178.814 207.977 178.545 199.73 184.067C196.899 185.548 193.822 187.433 190.498 188.376C185.205 189.992 180.651 184.336 175.481 181.373C167.48 177.198 159.602 185.952 151.109 182.585L149.632 182.181V182.316Z" fill="#74C843"/>
<path d="M212.039 163.19H83.0385C77.9399 163.19 73.8066 167.712 73.8066 173.29C73.8066 178.869 77.9399 183.391 83.0385 183.391H212.039C217.137 183.391 221.271 178.869 221.271 173.29C221.271 167.712 217.137 163.19 212.039 163.19Z" fill="#1E110D"/>
<path d="M216.472 182.988H79.9629V188.645H216.472V182.988Z" fill="#FFC82E"/>
</svg>
