<svg width="296" height="490" viewBox="0 0 296 490" fill="none" xmlns="http://www.w3.org/2000/svg">
<path d="M161.394 477.424C155.032 491.805 144.173 495.9 135.535 477.424C99.8241 401.042 59.8149 325.323 28.4027 246.958C5.25692 187.77 -15.905 139.164 16.8298 77.6625C71.7184 -25.8323 223.489 -25.8323 278.708 77.3318C307.806 131.559 295.571 170.576 275.732 224.142C243.328 311.766 204.793 376.78 168.091 462.75L161.394 477.424ZM136.196 89.8967C62.4601 101.47 80.3155 223.15 161.656 204.634C232.416 188.762 214.23 77.3318 136.196 89.8967Z" fill="#F4635E"/>
<circle cx="148" cy="144" r="117" fill="white"/>
<path d="M72.7091 133.915C77.6997 110.372 108.57 96.7915 129.958 89.0419C151.488 81.1448 177.296 86.1635 173.803 112.807C171.735 128.749 159.33 131.111 142.291 155.319C125.252 179.527 104.862 174.803 88.5362 166.685C78.5552 161.371 70.6416 147.791 72.5666 134.727L72.7091 133.915Z" fill="#EAEBED"/>
<path d="M79.6233 116.13C83.8296 96.7928 112.775 84.3936 131.382 78.563C150.132 72.5848 172.803 81.1461 174.087 103.361C175.156 115.982 157.475 114.211 142.789 133.769C128.103 153.327 110.208 148.899 95.8068 141.814C87.0377 137.164 77.8409 127.643 79.4094 116.868V116.203L79.6233 116.13Z" fill="#D5762F"/>
<path d="M79.1262 110.298C83.2612 90.9611 112.278 78.5619 130.885 72.7313C149.635 66.7531 172.306 75.3145 173.59 97.5298C174.659 110.15 156.978 108.379 142.292 127.937C127.606 147.496 109.711 143.067 95.3097 135.982C86.5407 131.332 77.3439 121.812 78.9123 111.036V110.372L79.1262 110.298Z" fill="#FF8931"/>
<path d="M98.7321 92.8068C98.7321 92.8068 93.7416 127.347 116.27 136.352" stroke="#FFD2BB" stroke-width="1.68163" stroke-miterlimit="10" stroke-linecap="round"/>
<path d="M118.891 83.9208C118.891 83.9208 114.326 115.483 134.933 123.711" stroke="#FFD2BB" stroke-width="1.68163" stroke-miterlimit="10" stroke-linecap="round"/>
<path d="M141.216 78.2363C141.216 78.2363 135.095 101.275 156.897 106.658" stroke="#FFD2BB" stroke-width="1.68163" stroke-miterlimit="10" stroke-linecap="round"/>
<path d="M131.097 189.343C128.958 164.84 154.909 141.739 173.374 127.347C191.981 112.807 218.574 109.412 223.136 136.425C225.845 152.588 214.51 158.862 205.17 187.867C195.831 216.872 174.586 218.791 156.263 216.134C144.999 214.142 133.236 203.514 131.239 190.155L131.097 189.343Z" fill="#EAEBED"/>
<path d="M133.306 174.655C130.526 154.58 153.91 131.996 169.666 119.449C185.493 106.755 210.089 106.459 219.072 127.198C224.49 138.86 207.023 143.731 199.751 167.865C192.479 191.999 173.943 194.435 157.688 193.032C147.707 191.852 135.659 186.169 133.377 175.319L133.235 174.655H133.306Z" fill="#DDAB2C"/>
<path d="M130.743 169.342C127.962 149.268 151.346 126.683 167.102 114.136C182.929 101.442 207.525 101.147 216.508 121.886C221.927 133.547 204.46 138.418 197.188 162.552C189.916 186.687 171.38 189.122 155.125 187.72C145.144 186.539 133.095 180.856 130.814 170.007L130.671 169.342H130.743Z" fill="#FFC82E"/>
<path d="M135.732 142.92C135.732 144.101 137.301 144.47 140.081 144.617C164.606 146.019 196.189 140.041 204.388 171.039C205.742 174.287 208.665 181.224 212.159 179.158C227.415 163.216 207.952 135.834 190.486 132.439C178.793 130.594 166.032 130.373 155.623 130.299C148.066 129.192 137.23 136.572 135.732 142.477V142.92Z" fill="#1E110D"/>
</svg>
