<svg width="296" height="490" viewBox="0 0 296 490" fill="none" xmlns="http://www.w3.org/2000/svg">
<path d="M161.394 477.424C155.032 491.805 144.173 495.9 135.535 477.424C99.8241 401.042 59.8149 325.323 28.4027 246.958C5.25692 187.77 -15.905 139.164 16.8298 77.6625C71.7184 -25.8323 223.489 -25.8323 278.708 77.3318C307.806 131.559 295.571 170.576 275.732 224.142C243.328 311.766 204.793 376.78 168.091 462.75L161.394 477.424ZM136.196 89.8967C62.4601 101.47 80.3155 223.15 161.656 204.634C232.416 188.762 214.23 77.3318 136.196 89.8967Z" fill="#F4635E"/>
<circle cx="148" cy="150" r="117" fill="white"/>
<path d="M205.508 110.312L205.258 111.149L206.104 111.368C214.812 113.615 221.014 120.294 221.035 128.064C221.025 131.395 219.808 134.534 217.774 137.265L217.4 137.767L217.774 138.27C219.816 141.011 221.035 144.164 221.035 147.509C221.035 157.114 211.649 165.145 199.737 165.145C193.811 165.145 188.446 163.121 184.622 159.929L184.083 159.479L183.544 159.929C179.72 163.121 174.355 165.145 168.429 165.145C160.969 165.145 154.459 161.994 150.651 157.264L149.996 156.45L149.341 157.264C145.536 161.991 138.749 165.145 131.563 165.145C124.379 165.145 118.045 162.146 114.235 157.635L113.593 156.875L112.95 157.635C109.14 162.146 102.806 165.145 95.6226 165.145C83.7113 165.145 74.3252 157.114 74.3252 147.509C74.3252 144.164 75.5439 141.011 77.586 138.27L77.96 137.767L77.586 137.265C75.5439 134.523 74.3252 131.371 74.3252 128.026C74.3252 120.239 80.5337 113.542 89.2562 111.29L90.1022 111.072L89.8515 110.235C89.5055 109.08 89.331 107.847 89.331 106.611C89.331 97.0056 98.7171 88.9738 110.628 88.9738C111.99 88.9738 113.326 89.0499 114.556 89.2699L115.177 89.381L115.457 88.8157C118.629 82.4184 126.181 77.8408 135.175 77.8408C139.66 77.8408 143.87 79.0394 147.263 80.9773L147.682 81.2168L148.101 80.9751C151.58 78.9644 155.695 77.8408 160.185 77.8408C169.179 77.8408 176.731 82.4184 179.902 88.8157L180.166 89.3474L180.755 89.2771C182.053 89.1223 183.398 88.9738 184.731 88.9738C196.643 88.9738 206.029 97.0056 206.029 106.611C206.029 107.927 205.854 109.159 205.508 110.312Z" fill="#F8F8F8" stroke="#D0D0D0" stroke-width="1.68163"/>
<path d="M168.364 147.418C164.583 137.413 155.657 130.398 145.155 130.398C139.904 130.398 135.073 132.123 130.978 135.228C126.987 132.238 122.051 130.398 116.8 130.398C106.299 130.398 97.3724 137.413 93.5918 147.418" stroke="#D0D0D0" stroke-width="1.68163" stroke-linecap="round" stroke-linejoin="round"/>
<path d="M175.166 113.377C172.416 106.707 165.924 102.03 158.287 102.03C154.468 102.03 150.955 103.18 147.976 105.25C145.074 103.257 141.484 102.03 137.665 102.03C130.028 102.03 123.536 106.707 120.786 113.377" stroke="#D0D0D0" stroke-width="1.68163" stroke-linecap="round" stroke-linejoin="round"/>
<path fill-rule="evenodd" clip-rule="evenodd" d="M72.741 143.025C72.2779 146.04 72 149.133 72 152.225C72 177.862 90.2772 199.946 116.56 209.842V223.12H178.621V209.839C204.898 199.94 223.17 177.859 223.17 152.225C223.17 149.133 222.985 146.04 222.429 143.025H72.741Z" fill="#67A2F9"/>
</svg>
