<svg width="296" height="490" viewBox="0 0 296 490" fill="none" xmlns="http://www.w3.org/2000/svg">
<path d="M161.394 477.424C155.032 491.805 144.173 495.9 135.535 477.424C99.8241 401.042 59.8149 325.323 28.4027 246.958C5.25692 187.77 -15.905 139.164 16.8298 77.6625C71.7184 -25.8323 223.489 -25.8323 278.708 77.3318C307.806 131.559 295.571 170.576 275.732 224.142C243.328 311.766 204.793 376.78 168.091 462.75L161.394 477.424ZM136.196 89.8967C62.4601 101.47 80.3155 223.15 161.656 204.634C232.416 188.762 214.23 77.3318 136.196 89.8967Z" fill="#F4635E"/>
<circle cx="148.059" cy="143.981" r="87.0588" fill="white"/>
<path d="M200.279 111.605L198.506 110.354C196.658 109.035 194.207 109.303 193.039 110.949L179.707 129.695C179.107 130.537 177.872 130.662 176.921 129.995L176.684 129.828C175.751 129.16 175.466 127.933 176.05 127.11L189.382 108.363C190.583 106.663 189.959 104.157 187.954 102.88C186.076 101.67 183.687 102.147 182.553 103.756L169.338 122.338C168.737 123.179 167.503 123.304 166.552 122.637C165.619 121.97 165.335 120.742 165.919 119.919L179.251 101.172C180.418 99.5265 179.87 97.1233 178.005 95.8056L176.231 94.5548C174.384 93.2364 171.933 93.5036 170.765 95.1495L152.678 120.59C152.423 120.849 152.242 121.158 152.078 121.466C152.078 121.466 149.601 125.969 152.907 131.051C154.808 133.979 154.946 137.516 153.109 140.078L144.482 152.204L136.703 141.277C134.436 138.081 133.69 134.004 134.662 129.922C136.279 123.189 134.738 115.142 129.848 108.27C121.82 96.947 107.779 93.1172 98.5018 99.7262C89.225 106.335 88.2333 120.854 96.2779 132.158C101.169 139.03 108.258 143.113 115.145 143.802C119.309 144.221 122.924 146.242 125.208 149.437L135.822 164.366L117.45 190.191C115.331 193.172 116.519 197.62 120.157 199.764C123.34 201.643 127.219 200.817 129.122 198.165L144.49 176.547L159.957 198.759C161.959 201.576 166.16 202.029 169.338 199.764C172.516 197.498 173.469 193.381 171.467 190.563L153.149 164.349L164.528 148.346C166.348 145.803 169.695 144.557 173.032 145.509C177.428 146.751 180.524 145.056 181.931 144.002C182.191 143.884 182.465 143.659 182.75 143.292L182.784 143.255C182.784 143.255 182.834 143.182 182.868 143.145L201.489 116.955C202.657 115.309 202.108 112.906 200.243 111.589L200.279 111.605Z" fill="#F4635E"/>
</svg>
