<svg width="76" height="76" viewBox="0 0 76 76" fill="none" xmlns="http://www.w3.org/2000/svg">
<g filter="url(#filter0_d_948_971)">
<circle cx="36" cy="36" r="36" fill="#FDD835"/>
</g>
<mask id="mask0_948_971" style="mask-type:alpha" maskUnits="userSpaceOnUse" x="18" y="18" width="36" height="36">
<rect x="18" y="18" width="36" height="36" fill="#D9D9D9"/>
</mask>
<g mask="url(#mask0_948_971)">
<path d="M34.8747 50.1747V48.7036C31.7497 48.3823 29.119 47.1535 26.9825 45.017C24.846 42.8805 23.6171 40.2497 23.2958 37.1247H21.8247C21.506 37.1247 21.2388 37.0168 21.0233 36.8011C20.8076 36.5853 20.6997 36.3181 20.6997 35.9993C20.6997 35.6803 20.8076 35.4132 21.0233 35.198C21.2388 34.9825 21.506 34.8747 21.8247 34.8747H23.2958C23.6171 31.7497 24.846 29.119 26.9825 26.9825C29.119 24.846 31.7497 23.6171 34.8747 23.2958V21.8247C34.8747 21.506 34.9826 21.2388 35.1983 21.0233C35.4141 20.8076 35.6813 20.6997 36.0001 20.6997C36.3191 20.6997 36.5862 20.8076 36.8015 21.0233C37.017 21.2388 37.1247 21.506 37.1247 21.8247V23.2958C40.2497 23.6171 42.8805 24.846 45.017 26.9825C47.1535 29.119 48.3823 31.7497 48.7036 34.8747H50.1747C50.4935 34.8747 50.7606 34.9826 50.9761 35.1983C51.1918 35.4141 51.2997 35.6813 51.2997 36.0001C51.2997 36.3191 51.1918 36.5862 50.9761 36.8015C50.7606 37.017 50.4935 37.1247 50.1747 37.1247H48.7036C48.3823 40.2497 47.1535 42.8805 45.017 45.017C42.8805 47.1535 40.2497 48.3823 37.1247 48.7036V50.1747C37.1247 50.4935 37.0168 50.7606 36.8011 50.9761C36.5853 51.1918 36.3181 51.2997 35.9993 51.2997C35.6803 51.2997 35.4132 51.1918 35.198 50.9761C34.9825 50.7606 34.8747 50.4935 34.8747 50.1747ZM35.9997 46.4997C38.8997 46.4997 41.3747 45.4747 43.4247 43.4247C45.4747 41.3747 46.4997 38.8997 46.4997 35.9997C46.4997 33.0997 45.4747 30.6247 43.4247 28.5747C41.3747 26.5247 38.8997 25.4997 35.9997 25.4997C33.0997 25.4997 30.6247 26.5247 28.5747 28.5747C26.5247 30.6247 25.4997 33.0997 25.4997 35.9997C25.4997 38.8997 26.5247 41.3747 28.5747 43.4247C30.6247 45.4747 33.0997 46.4997 35.9997 46.4997ZM35.9997 41.2497C34.556 41.2497 33.3201 40.7356 32.2921 39.7073C31.2638 38.6793 30.7497 37.4435 30.7497 35.9997C30.7497 34.556 31.2638 33.3201 32.2921 32.2921C33.3201 31.2638 34.556 30.7497 35.9997 30.7497C37.4435 30.7497 38.6793 31.2638 39.7073 32.2921C40.7356 33.3201 41.2497 34.556 41.2497 35.9997C41.2497 37.4435 40.7356 38.6793 39.7073 39.7073C38.6793 40.7356 37.4435 41.2497 35.9997 41.2497ZM35.9997 38.9997C36.8247 38.9997 37.531 38.706 38.1185 38.1185C38.706 37.531 38.9997 36.8247 38.9997 35.9997C38.9997 35.1747 38.706 34.4685 38.1185 33.881C37.531 33.2935 36.8247 32.9997 35.9997 32.9997C35.1747 32.9997 34.4685 33.2935 33.881 33.881C33.2935 34.4685 32.9997 35.1747 32.9997 35.9997C32.9997 36.8247 33.2935 37.531 33.881 38.1185C34.4685 38.706 35.1747 38.9997 35.9997 38.9997Z" fill="#1C1B1F"/>
</g>
<defs>
<filter id="filter0_d_948_971" x="0" y="0" width="76" height="76" filterUnits="userSpaceOnUse" color-interpolation-filters="sRGB">
<feFlood flood-opacity="0" result="BackgroundImageFix"/>
<feColorMatrix in="SourceAlpha" type="matrix" values="0 0 0 0 0 0 0 0 0 0 0 0 0 0 0 0 0 0 127 0" result="hardAlpha"/>
<feOffset dx="2" dy="2"/>
<feGaussianBlur stdDeviation="1"/>
<feComposite in2="hardAlpha" operator="out"/>
<feColorMatrix type="matrix" values="0 0 0 0 0 0 0 0 0 0 0 0 0 0 0 0 0 0 0.15 0"/>
<feBlend mode="normal" in2="BackgroundImageFix" result="effect1_dropShadow_948_971"/>
<feBlend mode="normal" in="SourceGraphic" in2="effect1_dropShadow_948_971" result="shape"/>
</filter>
</defs>
</svg>
