<svg width="296" height="490" viewBox="0 0 296 490" fill="none" xmlns="http://www.w3.org/2000/svg">
<path d="M161.394 477.424C155.032 491.805 144.173 495.9 135.535 477.424C99.8241 401.042 59.8149 325.323 28.4027 246.958C5.25692 187.77 -15.905 139.164 16.8298 77.6625C71.7184 -25.8323 223.489 -25.8323 278.708 77.3318C307.806 131.559 295.571 170.576 275.732 224.142C243.328 311.766 204.793 376.78 168.091 462.75L161.394 477.424ZM136.196 89.8967C62.4601 101.47 80.3155 223.15 161.656 204.634C232.416 188.762 214.23 77.3318 136.196 89.8967Z" fill="#F4635E"/>
<circle cx="148" cy="150" r="117" fill="white"/>
<mask id="mask0_1611_674" style="mask-type:alpha" maskUnits="userSpaceOnUse" x="68" y="70" width="160" height="160">
<path d="M68 70H228V230H68V70Z" fill="#D9D9D9"/>
</mask>
<g mask="url(#mask0_1611_674)">
<path d="M118.834 112.667L137.501 88.4999C138.834 86.7221 140.417 85.4166 142.251 84.5833C144.084 83.7499 146.001 83.3333 148.001 83.3333C150.001 83.3333 151.917 83.7499 153.751 84.5833C155.584 85.4166 157.167 86.7221 158.501 88.4999L177.167 112.667L205.501 122.167C208.39 123.055 210.667 124.694 212.334 127.083C214.001 129.472 214.834 132.111 214.834 135C214.834 136.333 214.64 137.667 214.251 139C213.862 140.333 213.223 141.611 212.334 142.833L194.001 168.833L194.667 196.167C194.778 200.055 193.501 203.333 190.834 206C188.167 208.667 185.056 210 181.501 210C181.278 210 180.056 209.833 177.834 209.5L148.001 201.167L118.167 209.5C117.612 209.722 117.001 209.861 116.334 209.917C115.667 209.972 115.056 210 114.501 210C110.945 210 107.834 208.667 105.167 206C102.501 203.333 101.223 200.055 101.334 196.167L102.001 168.667L83.834 142.833C82.9451 141.611 82.3062 140.333 81.9173 139C81.5284 137.667 81.334 136.333 81.334 135C81.334 132.222 82.1395 129.639 83.7507 127.25C85.3618 124.861 87.6118 123.167 90.5007 122.167L118.834 112.667ZM127.001 124.167L94.6673 134.833L115.334 164.667L114.667 196.5L148.001 187.333L181.334 196.667L180.667 164.667L201.334 135.167L169.001 124.167L148.001 96.6666L127.001 124.167Z" fill="#F4635E"/>
<path d="M87.9971 130L111.33 170V203.333L144.664 193.333L184.664 203.333V173.333L204.664 133.333L177.997 123.333L147.997 90L124.664 116.667L87.9971 130Z" fill="#F4635E"/>
</g>
</svg>
