<svg width="296" height="490" viewBox="0 0 296 490" fill="none" xmlns="http://www.w3.org/2000/svg">
<path d="M161.394 477.424C155.032 491.805 144.173 495.9 135.535 477.424C99.8241 401.042 59.8149 325.323 28.4027 246.958C5.25692 187.77 -15.905 139.164 16.8298 77.6625C71.7184 -25.8323 223.489 -25.8323 278.708 77.3318C307.806 131.559 295.571 170.576 275.732 224.142C243.328 311.766 204.793 376.78 168.091 462.75L161.394 477.424ZM136.196 89.8967C62.4601 101.47 80.3155 223.15 161.656 204.634C232.416 188.762 214.23 77.3318 136.196 89.8967Z" fill="#F4635E"/>
<circle cx="148" cy="150" r="117" fill="white"/>
<path d="M213.864 190.97L85.0309 222.788C77.299 224.727 70.3123 217.852 72.3618 210.361L106.922 84.498C108.413 79.1216 114.002 76.0367 119.498 77.2706C170.827 88.5524 211.163 128.391 221.503 178.895C222.621 184.271 219.361 189.56 213.864 190.97Z" fill="#F0C958"/>
<path d="M216.84 172.548C216.654 171.667 216.468 170.874 216.188 170.081H215.816C204.078 170.081 194.483 161.09 194.483 149.897C194.483 144.256 196.998 139.056 201.097 135.266C183.118 107.149 153.122 86.5247 117.816 79.4736C112.413 78.3278 107.104 81.3245 105.706 86.2603L88.3794 149.015C91.1741 147.693 94.3414 146.9 97.7881 146.9C109.619 146.9 119.121 155.978 119.121 167.084C119.121 178.189 109.619 187.268 97.7881 187.268C90.522 187.268 84.0943 183.83 80.1818 178.542L73.5677 202.692C71.6115 209.567 78.4118 215.825 85.7711 214.062L149.21 198.461C146.322 195.112 144.738 190.705 144.738 186.034C144.738 174.84 154.24 165.85 166.071 165.85C177.902 165.85 187.403 174.84 187.403 186.034C187.403 187.091 187.403 188.149 187.124 189.119L209.481 183.566C214.791 182.332 217.865 177.396 216.747 172.46L216.84 172.548ZM140.546 144.168C128.809 144.168 119.214 135.177 119.214 123.984C119.214 112.79 128.809 103.8 140.546 103.8C152.284 103.8 161.879 112.878 161.879 123.984C161.879 135.089 152.377 144.168 140.546 144.168Z" fill="#FCE292"/>
<path d="M187.502 186.122C187.502 187.18 187.502 188.238 187.223 189.207L149.308 198.55C146.421 195.201 144.837 190.794 144.837 186.122C144.837 174.929 154.339 165.938 166.169 165.938C178 165.938 187.502 174.929 187.502 186.122Z" fill="#E96A6A"/>
<path d="M119.213 167.171C119.213 178.276 109.711 187.355 97.8807 187.355C90.6146 187.355 84.1869 183.917 80.2744 178.629L88.4721 149.102C91.2667 147.78 94.434 146.987 97.8807 146.987C109.711 146.987 119.213 156.065 119.213 167.171Z" fill="#E96A6A"/>
<path d="M140.549 144.169C152.331 144.169 161.882 135.132 161.882 123.985C161.882 112.838 152.331 103.801 140.549 103.801C128.768 103.801 119.217 112.838 119.217 123.985C119.217 135.132 128.768 144.169 140.549 144.169Z" fill="#E96A6A"/>
<path d="M216.193 170.081H215.821C204.083 170.081 194.488 161.09 194.488 149.897C194.488 144.256 197.003 139.056 201.102 135.266C207.996 145.842 213.119 157.565 216.193 170.081Z" fill="#E96A6A"/>
<path d="M111.11 82.2944C167.562 87.7591 213.954 128.567 223.269 181.892" stroke="#DDA345" stroke-width="4.95147" stroke-miterlimit="10" stroke-linecap="round"/>
</svg>
