<svg width="25" height="24" viewBox="0 0 25 24" fill="none" xmlns="http://www.w3.org/2000/svg">
<mask id="mask0_437_842" style="mask-type:alpha" maskUnits="userSpaceOnUse" x="0" y="0" width="25" height="24">
<rect x="0.5" width="24" height="24" fill="#D9D9D9"/>
</mask>
<g mask="url(#mask0_437_842)">
<path d="M11.7498 21.45V20.4693C9.66647 20.2551 7.91264 19.4359 6.4883 18.0115C5.06397 16.5872 4.24472 14.8334 4.03055 12.75H3.0498C2.8373 12.75 2.65922 12.6781 2.51555 12.5343C2.37172 12.3905 2.2998 12.2123 2.2998 11.9998C2.2998 11.7871 2.37172 11.609 2.51555 11.4655C2.65922 11.3219 2.8373 11.25 3.0498 11.25H4.03055C4.24472 9.16672 5.06397 7.41288 6.4883 5.98855C7.91264 4.56421 9.66647 3.74496 11.7498 3.5308V2.55005C11.7498 2.33755 11.8217 2.15947 11.9656 2.0158C12.1094 1.87197 12.2876 1.80005 12.5001 1.80005C12.7127 1.80005 12.8908 1.87197 13.0343 2.0158C13.178 2.15947 13.2498 2.33755 13.2498 2.55005V3.5308C15.3331 3.74496 17.087 4.56421 18.5113 5.98855C19.9356 7.41288 20.7549 9.16672 20.9691 11.25H21.9498C22.1623 11.25 22.3404 11.322 22.4841 11.4658C22.6279 11.6096 22.6998 11.7878 22.6998 12.0003C22.6998 12.213 22.6279 12.391 22.4841 12.5345C22.3404 12.6782 22.1623 12.75 21.9498 12.75H20.9691C20.7549 14.8334 19.9356 16.5872 18.5113 18.0115C17.087 19.4359 15.3331 20.2551 13.2498 20.4693V21.45C13.2498 21.6625 13.1779 21.8406 13.0341 21.9843C12.8902 22.1281 12.7121 22.2 12.4996 22.2C12.2869 22.2 12.1088 22.1281 11.9653 21.9843C11.8216 21.8406 11.7498 21.6625 11.7498 21.45ZM12.4998 19C14.4331 19 16.0831 18.3167 17.4498 16.95C18.8165 15.5834 19.4998 13.9334 19.4998 12C19.4998 10.0667 18.8165 8.41672 17.4498 7.05005C16.0831 5.68338 14.4331 5.00005 12.4998 5.00005C10.5665 5.00005 8.91647 5.68338 7.5498 7.05005C6.18314 8.41672 5.4998 10.0667 5.4998 12C5.4998 13.9334 6.18314 15.5834 7.5498 16.95C8.91647 18.3167 10.5665 19 12.4998 19ZM12.4998 15.5C11.5373 15.5 10.7134 15.1573 10.0281 14.4718C9.34255 13.7865 8.9998 12.9625 8.9998 12C8.9998 11.0375 9.34255 10.2136 10.0281 9.5283C10.7134 8.8428 11.5373 8.50005 12.4998 8.50005C13.4623 8.50005 14.2862 8.8428 14.9716 9.5283C15.6571 10.2136 15.9998 11.0375 15.9998 12C15.9998 12.9625 15.6571 13.7865 14.9716 14.4718C14.2862 15.1573 13.4623 15.5 12.4998 15.5ZM12.4998 14C13.0498 14 13.5206 13.8042 13.9123 13.4125C14.304 13.0209 14.4998 12.55 14.4998 12C14.4998 11.45 14.304 10.9792 13.9123 10.5875C13.5206 10.1959 13.0498 10 12.4998 10C11.9498 10 11.479 10.1959 11.0873 10.5875C10.6956 10.9792 10.4998 11.45 10.4998 12C10.4998 12.55 10.6956 13.0209 11.0873 13.4125C11.479 13.8042 11.9498 14 12.4998 14Z" fill="#1C1B1F"/>
</g>
</svg>
