<svg width="254" height="255" viewBox="0 0 254 255" fill="none" xmlns="http://www.w3.org/2000/svg">
<path d="M254 126.995C254 188.901 209.704 240.469 151.086 251.714C143.284 253.219 135.241 254 127.005 254C116.088 254 105.489 252.621 95.3814 250.027C40.5347 235.975 0 186.22 0 126.995C0 56.8624 56.8624 0 127.005 0C197.147 0 254 56.8624 254 126.995Z" fill="#FFF59D"/>
<path d="M156.94 213.23C162.68 210.94 168.35 213.13 174.7 214.83C180.59 216.49 186.64 218.26 192.58 219.61C204.21 222.23 207.56 220.8 206.25 211.53C205.53 206.19 202.77 196.66 200.69 189.27C199.39 184.72 198.1 180.38 198.04 176.81C197.57 167.93 205.37 163.64 212.69 159.69C217.83 156.82 223.19 153.87 228.15 150.79C240.45 143.12 240.55 139.77 228.28 132.08C226 130.65 223.7 129.3 221.28 127.91C218.56 126.35 215.74 124.78 213 123.25C207.09 119.87 200.68 116.95 198.66 110.64C196.94 105.33 199.03 99.52 200.57 93.85C201.88 89.26 203.26 84.39 204.43 79.81C207.94 65.85 208.91 58.94 192.07 63.3C186.42 64.6 180.64 66.27 175.02 67.86C166.11 70.54 157.19 73.14 150.95 64.77C145.77 57.62 141.49 47.99 136.55 40.4C128.88 28.1 125.53 28 117.84 40.27C116.41 42.55 115.06 44.85 113.67 47.27C112.11 49.99 110.54 52.81 109.01 55.55C104.68 63.6101 100.21 71.7901 90.0598 70.41C81.2898 69.09 71.3098 65.21 62.3998 63.33C48.2798 60.05 45.8398 62.36 49.0698 76.47C49.6798 79.09 50.3398 81.67 51.0698 84.37C51.8898 87.4 52.7698 90.5 53.6298 93.52C55.5498 100.5 58.1198 107.44 54.3298 113.51C51.4198 117.92 47.0898 120 41.6298 123.1C36.4898 125.97 31.1298 128.92 26.1698 132C11.4798 140.56 16.1298 144.88 28.5698 152.27C32.6898 154.73 37.0898 157.19 41.3198 159.55C46.5098 162.54 51.9998 165.05 54.7398 170C56.9598 173.66 56.4498 179.34 55.1398 183.92C53.9698 188.34 52.6298 192.76 51.4298 197.2C50.5898 200.26 49.8098 203.2 49.1098 206.17C45.8298 220.29 48.1398 222.73 62.2498 219.5C67.8998 218.19 73.6798 216.53 79.2998 214.94C87.2498 212.61 95.9298 209.82 102.07 216.54C104.51 219.04 106.63 222.9 108.87 226.95C112.55 233.53 117.18 241.94 120.42 246.39C125.71 253.86 129.58 253.77 136.05 243.22C139.3 238.09 142.32 232.59 145.31 227.26C148.63 221.53 151.12 215.78 156.85 213.27L156.95 213.23H156.94Z" fill="#FC7B65" stroke="#A34646" stroke-width="0.9" stroke-miterlimit="10"/>
<path d="M170.78 221.69L169.06 230.62C168.94 231.28 168.3 231.71 167.64 231.59L160.97 230.31L155.24 229.21C155.75 230.97 156.22 232.67 156.72 234.2C157.9 237.74 159.33 245.44 154.66 251.56C146.57 253.12 138.23 253.93 129.69 253.93C118.37 253.93 107.38 252.5 96.8999 249.81C93.6599 244.04 94.9299 237.41 95.9899 234.2C96.4999 232.68 96.9599 231 97.4599 229.25L92.5399 230.2L85.2899 231.59C84.6299 231.71 83.9899 231.28 83.8699 230.62L82.1599 221.69C82.0299 221.04 82.4599 220.4 83.1199 220.27L90.3599 218.88L99.2099 217.18L103.34 216.39C103.94 215.65 104.59 214.93 105.31 214.25C105.69 213.89 106.08 213.55 106.5 213.21C110.28 210.17 115.7 208.07 123.76 207.8C124.02 207.8 124.29 207.81 124.55 207.81C124.81 207.81 125.08 207.8 125.34 207.8C125.68 207.8 126.02 207.81 126.36 207.81C126.7 207.81 127.03 207.8 127.37 207.8C127.64 207.8 127.9 207.81 128.17 207.81C128.44 207.81 128.69 207.79 128.96 207.8C137.44 208.08 143 210.4 146.8 213.7C147.16 214.01 147.51 214.33 147.83 214.66C148.37 215.2 148.88 215.76 149.34 216.34L154.81 217.39L163.15 218.99L169.81 220.27C170.47 220.4 170.9 221.04 170.78 221.69Z" fill="#FECF2B" stroke="#D1904A" stroke-miterlimit="10"/>
<path d="M127.44 215.94C165.608 215.94 196.55 184.999 196.55 146.83C196.55 108.662 165.608 77.7202 127.44 77.7202C89.2717 77.7202 58.3301 108.662 58.3301 146.83C58.3301 184.999 89.2717 215.94 127.44 215.94Z" fill="#FECF2B"/>
<path d="M127.22 217.21C166.09 217.21 197.6 185.7 197.6 146.83C197.6 107.96 166.09 76.4502 127.22 76.4502C88.35 76.4502 56.8398 107.96 56.8398 146.83C56.8398 185.7 88.35 217.21 127.22 217.21Z" stroke="#FC7B65" stroke-width="6.72" stroke-miterlimit="10"/>
<path d="M131 161.09C130.34 160.86 129.56 160.72 128.73 160.69C127.9 160.72 127.13 160.86 126.46 161.09C125.72 161.36 123.88 162.39 123.88 163.64C123.88 165.08 125.33 166.25 127.11 166.25C127.4 166.25 127.62 166.17 127.85 166.09C128.42 165.88 129.05 165.88 129.62 166.09C129.85 166.17 130.08 166.25 130.36 166.25C132.14 166.25 133.59 165.08 133.59 163.64C133.59 162.38 131.75 161.35 131.01 161.09H131Z" fill="#FC7B65"/>
<path d="M118.79 145.46V152.41C118.79 159.98 112.69 166.12 105.17 166.12H94.9799C87.4499 166.12 81.3499 159.97 81.3399 152.39C81.3299 141.18 86.6599 131.97 96.5699 129.87C96.6899 129.85 96.8099 129.82 96.9299 129.81C105.18 128.68 109.83 131.32 114.15 135.16C117.09 137.77 118.79 141.52 118.79 145.47V145.46Z" fill="white"/>
<path d="M117.72 153.66L117.68 155.99C117.58 161.26 113.23 165.45 107.97 165.35L104.41 165.28C98.7699 165.17 94.3899 160.21 95.1099 154.61C95.8499 148.89 99.0799 144.44 104.44 143.42C104.51 143.41 104.59 143.4 104.66 143.39C109.37 142.84 112.11 144.25 114.56 146.38C116.66 148.2 117.78 150.89 117.73 153.67L117.72 153.66Z" fill="#250F00"/>
<path d="M102.75 151.92C103.788 151.92 104.63 151.078 104.63 150.04C104.63 149.002 103.788 148.16 102.75 148.16C101.712 148.16 100.87 149.002 100.87 150.04C100.87 151.078 101.712 151.92 102.75 151.92Z" fill="white"/>
<path d="M118.25 145.39C116.07 134.44 102.76 130.54 93.32 134.37C87.07 136.41 83.13 141.52 81.27 147.96C81.16 148.38 80.49 148.27 80.52 147.84C80.57 145.54 81.02 143.23 81.88 141C87.38 126.79 110.37 124.87 117.8 138.37C118.96 140.52 119.58 142.97 119.38 145.35C119.35 145.66 119.07 145.9 118.76 145.87C118.5 145.85 118.29 145.65 118.25 145.4V145.39Z" fill="#250F00"/>
<path d="M137.53 145.46V152.41C137.53 159.98 143.63 166.12 151.15 166.12H161.34C168.87 166.12 174.97 159.97 174.98 152.39C174.99 141.18 169.66 131.97 159.75 129.87C159.63 129.85 159.51 129.82 159.39 129.81C151.14 128.68 146.49 131.32 142.17 135.16C139.23 137.77 137.53 141.52 137.53 145.47V145.46Z" fill="white"/>
<path d="M138.6 153.66L138.64 155.99C138.74 161.26 143.09 165.45 148.35 165.35L151.91 165.28C157.55 165.17 161.93 160.21 161.21 154.61C160.47 148.89 157.24 144.44 151.88 143.42C151.81 143.41 151.73 143.4 151.66 143.39C146.95 142.84 144.21 144.25 141.76 146.38C139.66 148.2 138.54 150.89 138.59 153.67L138.6 153.66Z" fill="#250F00"/>
<path d="M144.09 152.46C145.128 152.46 145.97 151.618 145.97 150.58C145.97 149.542 145.128 148.7 144.09 148.7C143.052 148.7 142.21 149.542 142.21 150.58C142.21 151.618 143.052 152.46 144.09 152.46Z" fill="white"/>
<path d="M136.94 145.34C136.37 137.78 143.05 131.53 150 129.83C159.29 127.43 170.86 131.68 174.44 141C175.3 143.23 175.74 145.54 175.8 147.84C175.8 148.05 175.64 148.23 175.43 148.23C175.26 148.23 175.1 148.12 175.05 147.96C173.74 143.69 171.65 139.79 168.4 137.28C165.21 134.79 160.94 133.38 156.97 132.99C148.87 132.24 139.69 136.78 138.08 145.39C138 146.04 136.98 145.99 136.95 145.34H136.94Z" fill="#250F00"/>
<path d="M93.43 175.53C107.06 175.53 118.11 172.53 118.11 168.83C118.11 165.13 107.06 162.13 93.43 162.13C79.7996 162.13 68.75 165.13 68.75 168.83C68.75 172.53 79.7996 175.53 93.43 175.53Z" fill="#FECF2B"/>
<path d="M161.43 175.53C174.05 175.53 184.28 172.53 184.28 168.83C184.28 165.13 174.05 162.13 161.43 162.13C148.81 162.13 138.58 165.13 138.58 168.83C138.58 172.53 148.81 175.53 161.43 175.53Z" fill="#FECF2B"/>
<path d="M141.06 120C145.65 116.04 151.57 114.75 158.61 119.6" stroke="#E89128" stroke-width="3.28" stroke-miterlimit="10" stroke-linecap="round"/>
<path d="M115.7 120C111.11 116.04 105.19 114.75 98.1499 119.6" stroke="#E89128" stroke-width="3.28" stroke-miterlimit="10" stroke-linecap="round"/>
<path d="M141.69 172.44C139.79 186.27 118.02 186.19 116.14 172.44C115.97 171.2 116.96 170.1 118.21 170.1C123.09 170.1 134.81 169.96 139.66 170.07C140.9 170.1 141.85 171.2 141.68 172.44H141.69Z" fill="#FC7B65"/>
<path opacity="0.5" d="M138.91 178.62C133.95 184.18 123.92 184.15 118.96 178.62C121.75 177.5 125.2 176.84 128.93 176.84C132.66 176.84 136.11 177.5 138.91 178.62Z" fill="white"/>
<path d="M182.55 220.71L180.87 220.39C181.69 219.44 181.73 218 180.89 217.02C179.97 215.93 178.32 215.8 177.23 216.72L174.38 219.14L164.3 217.21C163.81 217.12 163.34 217.44 163.24 217.93L160.94 229.91C160.85 230.4 161.17 230.87 161.66 230.97L179.9 234.47C183.68 235.2 187.37 232.69 188.1 228.91C188.83 225.13 186.32 221.44 182.54 220.71H182.55Z" fill="#FC7B65" stroke="#A34646" stroke-width="1.1" stroke-miterlimit="10"/>
<g opacity="0.5">
<path d="M163.42 220.04L168.54 221.01" stroke="white" stroke-width="0.88" stroke-miterlimit="10"/>
<path d="M162.92 222.67L168.03 223.65" stroke="white" stroke-width="0.88" stroke-miterlimit="10"/>
<path d="M162.42 225.28L167.53 226.25" stroke="white" stroke-width="0.88" stroke-miterlimit="10"/>
<path d="M161.92 227.91L167.03 228.89" stroke="white" stroke-width="0.88" stroke-miterlimit="10"/>
</g>
<path d="M70.98 220.71L72.66 220.39C71.84 219.44 71.8 218 72.64 217.02C73.56 215.93 75.21 215.8 76.3 216.72L79.15 219.14L89.23 217.21C89.72 217.12 90.19 217.44 90.29 217.93L92.59 229.91C92.68 230.4 92.36 230.87 91.87 230.97L73.63 234.47C69.85 235.2 66.16 232.69 65.43 228.91C64.7 225.13 67.21 221.44 70.99 220.71H70.98Z" fill="#FC7B65" stroke="#A34646" stroke-width="1.1" stroke-miterlimit="10"/>
<g opacity="0.5">
<path d="M90.11 220.04L85 221.01" stroke="white" stroke-width="0.88" stroke-miterlimit="10"/>
<path d="M90.61 222.67L85.5 223.65" stroke="white" stroke-width="0.88" stroke-miterlimit="10"/>
<path d="M91.11 225.28L86 226.25" stroke="white" stroke-width="0.88" stroke-miterlimit="10"/>
<path d="M91.61 227.91L86.5 228.89" stroke="white" stroke-width="0.88" stroke-miterlimit="10"/>
</g>
<path d="M148.98 229.11L141.72 228.1C136.81 227.41 132.66 224.23 130.69 219.77C129.71 219.81 128.73 219.85 127.74 219.85C126.54 219.85 125.35 219.82 124.16 219.75C122.18 224.18 118.04 227.34 113.16 228.02L105.9 229.03C104.75 229.19 103.9 227.99 104.42 226.96L107.04 221.85C107.87 220.23 108.94 218.79 110.19 217.56C108.89 217.22 107.61 216.83 106.34 216.41H149.09C147.66 216.89 146.21 217.32 144.74 217.7C145.97 218.92 147.02 220.34 147.84 221.92L150.44 227.03C150.98 228.07 150.12 229.27 148.97 229.11H148.98Z" fill="#FC7B65"/>
<path d="M136.07 216.73L138.85 217.32C141.1 217.8 143.02 219.23 144.07 221.24L145.28 223.55C145.52 224.02 145.13 224.56 144.6 224.49L141.24 224.03C138.7 223.68 136.59 221.93 135.84 219.54L135.33 217.91L136.07 216.73Z" fill="#E86352"/>
<path d="M120.02 217.66L118.64 220.15C117.52 222.17 115.59 223.58 113.37 223.99L110.8 224.47C110.28 224.57 109.88 224.03 110.1 223.54L111.52 220.46C112.59 218.13 114.88 216.63 117.39 216.61H119.1L120.01 217.65L120.02 217.66Z" fill="#E86352"/>
<path d="M128.56 209H124.78C120.693 209 117.38 212.313 117.38 216.4V216.41C117.38 220.497 120.693 223.81 124.78 223.81H128.56C132.647 223.81 135.96 220.497 135.96 216.41V216.4C135.96 212.313 132.647 209 128.56 209Z" fill="#FC7B65" stroke="#A34646" stroke-width="0.95" stroke-miterlimit="10"/>
<path d="M135.45 216.41C135.45 218.31 134.68 220.03 133.43 221.28C132.18 222.53 130.45 223.3 128.56 223.3H125.05C123.82 223.3 122.67 222.98 121.67 222.4C122.05 222.47 122.44 222.51 122.84 222.51H126.36C128.25 222.51 129.97 221.74 131.23 220.49C132.48 219.24 133.25 217.51 133.25 215.62C133.25 213.06 131.84 210.82 129.76 209.63C132.98 210.2 135.45 213.03 135.45 216.42V216.41Z" fill="#E86352"/>
</svg>
