<svg width="225" height="250" viewBox="0 0 225 250" fill="none" xmlns="http://www.w3.org/2000/svg">
<path d="M142.902 185.349C148.722 183.029 154.472 185.249 160.912 186.969C166.892 188.659 173.022 190.449 179.042 191.819C190.842 194.469 194.232 193.019 192.912 183.619C192.182 178.209 189.382 168.539 187.272 161.049C185.952 156.439 184.642 152.039 184.592 148.419C184.112 139.409 192.022 135.059 199.452 131.059C204.662 128.149 210.102 125.159 215.122 122.039C227.592 114.269 227.692 110.859 215.262 103.059C212.942 101.609 210.622 100.239 208.162 98.8286C205.402 97.2486 202.542 95.6486 199.762 94.0986C193.772 90.6686 187.272 87.7086 185.222 81.3086C183.482 75.9186 185.602 70.0386 187.162 64.2786C188.492 59.6186 189.892 54.6886 191.082 50.0386C194.642 35.8786 195.622 28.8786 178.542 33.2986C172.812 34.6186 166.952 36.3086 161.252 37.9286C152.212 40.6486 143.172 43.2786 136.832 34.7886C131.582 27.5286 127.232 17.7686 122.232 10.0786C114.462 -2.39139 111.062 -2.49138 103.252 9.93862C101.802 12.2586 100.432 14.5786 99.0224 17.0386C97.4424 19.7986 95.8424 22.6586 94.2924 25.4386C89.9024 33.6086 85.3624 41.9086 75.0724 40.5186C66.1724 39.1786 56.0624 35.2486 47.0124 33.3386C32.6924 30.0186 30.2224 32.3486 33.4924 46.6586C34.1024 49.3186 34.7824 51.9386 35.5224 54.6686C36.3524 57.7386 37.2424 60.8886 38.1124 63.9486C40.0524 71.0286 42.6624 78.0686 38.8224 84.2186C35.8724 88.6986 31.4724 90.7986 25.9424 93.9386C20.7324 96.8486 15.2924 99.8386 10.2724 102.959C-4.62762 111.639 0.0923729 116.019 12.7024 123.509C16.8824 126.009 21.3424 128.499 25.6324 130.889C30.8924 133.919 36.4724 136.459 39.2424 141.489C41.5024 145.199 40.9824 150.959 39.6524 155.609C38.4624 160.089 37.1024 164.579 35.8824 169.069C35.0224 172.169 34.2424 175.149 33.5324 178.169C30.2124 192.489 32.5424 194.959 46.8524 191.689C52.5824 190.369 58.4424 188.679 64.1424 187.059C72.2024 184.699 81.0024 181.869 87.2424 188.679C89.7124 191.219 91.8724 195.129 94.1424 199.229C97.8724 205.899 102.572 214.439 105.852 218.939C111.222 226.519 115.142 226.419 121.712 215.729C125.012 210.529 128.072 204.949 131.102 199.549C134.462 193.739 136.992 187.909 142.812 185.369L142.912 185.329L142.902 185.349Z" fill="#F4635E" stroke="#A34646" stroke-width="0.91" stroke-miterlimit="10"/>
<path d="M155.352 189.659L134.872 185.729C131.132 181.069 125.092 177.529 114.492 177.189C114.232 177.189 113.962 177.189 113.702 177.199C113.442 177.199 113.172 177.189 112.912 177.189C112.572 177.189 112.232 177.189 111.892 177.199C111.562 177.199 111.222 177.189 110.872 177.189C110.602 177.189 110.342 177.189 110.082 177.199C109.822 177.199 109.552 177.179 109.292 177.189C98.6524 177.529 92.6124 181.099 88.8724 185.779L68.6524 189.659C67.9924 189.789 67.5624 190.429 67.6924 191.079L69.4024 200.009C69.5324 200.669 70.1724 201.099 70.8224 200.969L82.9924 198.629C82.4824 200.379 82.0224 202.059 81.5224 203.579C79.9524 208.319 77.9324 220.509 90.6424 226.389C91.5824 226.849 92.6424 227.259 93.8424 227.629C94.9924 227.999 96.2424 228.319 97.5724 228.589V241.169H110.172V229.659C110.402 229.659 110.632 229.659 110.862 229.659C111.202 229.659 111.542 229.659 111.882 229.659C112.222 229.659 112.552 229.659 112.902 229.659C113.172 229.659 113.432 229.659 113.692 229.659C113.732 229.659 113.772 229.659 113.812 229.659V241.169H126.412V228.549C127.672 228.279 128.842 227.979 129.932 227.629C131.132 227.259 132.192 226.849 133.132 226.389C145.842 220.509 143.822 208.319 142.252 203.579C141.742 202.049 141.282 200.349 140.762 198.579L153.162 200.959C153.822 201.089 154.452 200.649 154.582 199.999L156.292 191.069C156.422 190.409 155.982 189.779 155.332 189.649L155.352 189.659Z" fill="#FDD835" stroke="#D1904A" stroke-miterlimit="10"/>
<path d="M112.982 185.849C151.151 185.849 182.092 154.907 182.092 116.739C182.092 78.5702 151.151 47.6287 112.982 47.6287C74.814 47.6287 43.8724 78.5702 43.8724 116.739C43.8724 154.907 74.814 185.849 112.982 185.849Z" fill="#FDD835"/>
<path d="M112.762 187.119C151.632 187.119 183.142 155.608 183.142 116.739C183.142 77.8688 151.632 46.3586 112.762 46.3586C73.8927 46.3586 42.3824 77.8688 42.3824 116.739C42.3824 155.608 73.8927 187.119 112.762 187.119Z" stroke="#F4635E" stroke-width="6.72" stroke-miterlimit="10"/>
<path d="M116.542 130.989C115.882 130.759 115.102 130.619 114.272 130.589C113.442 130.619 112.672 130.759 112.002 130.989C111.262 131.259 109.422 132.289 109.422 133.539C109.422 134.979 110.872 136.149 112.652 136.149C112.942 136.149 113.162 136.069 113.392 135.989C113.962 135.779 114.592 135.779 115.162 135.989C115.392 136.069 115.622 136.149 115.902 136.149C117.682 136.149 119.132 134.979 119.132 133.539C119.132 132.279 117.292 131.249 116.552 130.989H116.542Z" fill="#FC7B65"/>
<path d="M104.322 115.369V122.319C104.322 129.889 98.2224 136.029 90.7024 136.029H80.5125C72.9825 136.029 66.8825 129.879 66.8725 122.299C66.8625 111.089 72.1924 101.879 82.1024 99.7786C82.2224 99.7586 82.3424 99.7285 82.4624 99.7185C90.7124 98.5885 95.3624 101.229 99.6824 105.069C102.622 107.679 104.322 111.429 104.322 115.379V115.369Z" fill="white"/>
<path d="M103.262 123.569L103.222 125.899C103.122 131.169 98.7725 135.359 93.5125 135.259L89.9524 135.189C84.3124 135.079 79.9324 130.119 80.6524 124.519C81.3924 118.799 84.6224 114.349 89.9824 113.329C90.0524 113.319 90.1324 113.309 90.2024 113.299C94.9124 112.749 97.6524 114.159 100.102 116.289C102.202 118.109 103.322 120.799 103.272 123.579L103.262 123.569Z" fill="#250F00"/>
<path d="M88.2924 121.819C89.3307 121.819 90.1724 120.977 90.1724 119.939C90.1724 118.9 89.3307 118.059 88.2924 118.059C87.2541 118.059 86.4124 118.9 86.4124 119.939C86.4124 120.977 87.2541 121.819 88.2924 121.819Z" fill="white"/>
<path d="M103.782 115.289C101.602 104.339 88.2924 100.439 78.8524 104.269C72.6024 106.309 68.6624 111.419 66.8024 117.859C66.6924 118.279 66.0224 118.169 66.0524 117.739C66.1024 115.439 66.5524 113.129 67.4124 110.899C72.9124 96.6886 95.9024 94.7686 103.332 108.269C104.492 110.419 105.112 112.869 104.912 115.249C104.882 115.559 104.602 115.799 104.292 115.769C104.032 115.749 103.822 115.549 103.782 115.299V115.289Z" fill="#250F00"/>
<path d="M123.072 115.369V122.319C123.072 129.889 129.172 136.029 136.692 136.029H146.882C154.412 136.029 160.512 129.879 160.522 122.299C160.532 111.089 155.202 101.879 145.292 99.7786C145.172 99.7586 145.052 99.7285 144.932 99.7185C136.682 98.5885 132.032 101.229 127.712 105.069C124.772 107.679 123.072 111.429 123.072 115.379V115.369Z" fill="white"/>
<path d="M124.142 123.569L124.182 125.899C124.282 131.169 128.632 135.359 133.892 135.259L137.452 135.189C143.092 135.079 147.472 130.119 146.752 124.519C146.012 118.799 142.782 114.349 137.422 113.329C137.352 113.319 137.272 113.309 137.202 113.299C132.492 112.749 129.752 114.159 127.302 116.289C125.202 118.109 124.082 120.799 124.132 123.579L124.142 123.569Z" fill="#250F00"/>
<path d="M129.622 122.369C130.661 122.369 131.502 121.527 131.502 120.489C131.502 119.45 130.661 118.609 129.622 118.609C128.584 118.609 127.742 119.45 127.742 120.489C127.742 121.527 128.584 122.369 129.622 122.369Z" fill="white"/>
<path d="M122.482 115.249C121.912 107.689 128.592 101.439 135.542 99.7386C144.832 97.3386 156.402 101.589 159.982 110.909C160.842 113.139 161.282 115.449 161.342 117.749C161.342 117.959 161.182 118.139 160.972 118.139C160.802 118.139 160.642 118.029 160.592 117.869C159.282 113.599 157.192 109.699 153.942 107.189C150.752 104.699 146.482 103.289 142.512 102.899C134.412 102.149 125.232 106.689 123.622 115.299C123.542 115.949 122.522 115.899 122.492 115.249H122.482Z" fill="#250F00"/>
<path d="M78.9624 145.439C92.5928 145.439 103.642 142.439 103.642 138.739C103.642 135.038 92.5928 132.039 78.9624 132.039C65.332 132.039 54.2824 135.038 54.2824 138.739C54.2824 142.439 65.332 145.439 78.9624 145.439Z" fill="#FDD835"/>
<path d="M146.962 145.439C159.582 145.439 169.812 142.439 169.812 138.739C169.812 135.038 159.582 132.039 146.962 132.039C134.343 132.039 124.112 135.038 124.112 138.739C124.112 142.439 134.343 145.439 146.962 145.439Z" fill="#FDD835"/>
<path d="M126.592 89.9086C131.182 85.9486 137.102 84.6587 144.142 89.5087" stroke="#E89128" stroke-width="3.28" stroke-miterlimit="10" stroke-linecap="round"/>
<path d="M101.242 89.9086C96.6524 85.9486 90.7324 84.6587 83.6924 89.5087" stroke="#E89128" stroke-width="3.28" stroke-miterlimit="10" stroke-linecap="round"/>
<path d="M127.222 142.349C125.322 156.179 103.552 156.099 101.672 142.349C101.502 141.109 102.492 140.009 103.742 140.009C108.622 140.009 120.342 139.869 125.192 139.979C126.432 140.009 127.382 141.109 127.212 142.349H127.222Z" fill="#F4635E"/>
<path opacity="0.5" d="M124.452 148.529C119.492 154.089 109.462 154.059 104.502 148.529C107.292 147.409 110.742 146.749 114.472 146.749C118.202 146.749 121.652 147.409 124.452 148.529Z" fill="white"/>
<path d="M168.092 190.619L166.412 190.299C167.232 189.349 167.272 187.909 166.432 186.929C165.512 185.839 163.862 185.709 162.772 186.629L159.922 189.049L149.842 187.119C149.352 187.029 148.882 187.349 148.782 187.839L146.482 199.819C146.392 200.309 146.712 200.779 147.202 200.879L165.442 204.379C169.222 205.109 172.912 202.599 173.642 198.819C174.372 195.039 171.862 191.349 168.082 190.619H168.092Z" fill="#F4635E" stroke="#A34646" stroke-width="1.1" stroke-miterlimit="10"/>
<g opacity="0.5">
<path d="M148.962 189.939L154.072 190.919" stroke="white" stroke-width="0.88" stroke-miterlimit="10"/>
<path d="M148.462 192.579L153.572 193.559" stroke="white" stroke-width="0.88" stroke-miterlimit="10"/>
<path d="M147.962 195.179L153.072 196.159" stroke="white" stroke-width="0.88" stroke-miterlimit="10"/>
<path d="M147.452 197.819L152.572 198.789" stroke="white" stroke-width="0.88" stroke-miterlimit="10"/>
</g>
<path d="M56.5224 190.619L58.2024 190.299C57.3824 189.349 57.3424 187.909 58.1824 186.929C59.1024 185.839 60.7524 185.709 61.8424 186.629L64.6924 189.049L74.7724 187.119C75.2624 187.029 75.7324 187.349 75.8324 187.839L78.1324 199.819C78.2224 200.309 77.9024 200.779 77.4124 200.879L59.1724 204.379C55.3924 205.109 51.7024 202.599 50.9724 198.819C50.2424 195.039 52.7524 191.349 56.5324 190.619H56.5224Z" fill="#F4635E" stroke="#A34646" stroke-width="1.1" stroke-miterlimit="10"/>
<g opacity="0.5">
<path d="M75.6524 189.939L70.5324 190.919" stroke="white" stroke-width="0.88" stroke-miterlimit="10"/>
<path d="M76.1524 192.579L71.0424 193.559" stroke="white" stroke-width="0.88" stroke-miterlimit="10"/>
<path d="M76.6524 195.179L71.5324 196.159" stroke="white" stroke-width="0.88" stroke-miterlimit="10"/>
<path d="M77.1524 197.819L72.0424 198.789" stroke="white" stroke-width="0.88" stroke-miterlimit="10"/>
</g>
<path d="M115.562 233.899L124.952 233.929C125.882 233.659 127.092 234.699 127.292 236.119V238.379H129.072C131.902 238.379 134.202 240.679 134.202 243.509V243.639C134.202 246.469 131.902 248.769 129.072 248.769H115.602C114.342 248.769 113.332 247.749 113.332 246.499V244.479V240.649V236.119C113.332 234.889 114.322 233.899 115.552 233.899H115.562Z" fill="#D7D7D8" stroke="#A8A8A8" stroke-linecap="round" stroke-linejoin="round"/>
<path d="M126.812 232.639H113.872C112.84 232.639 112.002 233.476 112.002 234.509C112.002 235.541 112.84 236.379 113.872 236.379H126.812C127.845 236.379 128.682 235.541 128.682 234.509C128.682 233.476 127.845 232.639 126.812 232.639Z" fill="#A5A5A5"/>
<path d="M108.202 233.899L98.8124 233.929C97.8824 233.659 96.6724 234.699 96.4724 236.119V238.379H94.6924C91.8624 238.379 89.5624 240.679 89.5624 243.509V243.639C89.5624 246.469 91.8624 248.769 94.6924 248.769H108.162C109.422 248.769 110.432 247.749 110.432 246.499V236.119C110.432 234.889 109.442 233.899 108.212 233.899H108.202Z" fill="#D7D7D8" stroke="#A8A8A8" stroke-linecap="round" stroke-linejoin="round"/>
<path d="M96.9525 236.389H109.892C110.925 236.389 111.762 235.551 111.762 234.519C111.762 233.486 110.925 232.649 109.892 232.649H96.9525C95.9197 232.649 95.0824 233.486 95.0824 234.519C95.0824 235.551 95.9197 236.389 96.9525 236.389Z" fill="#A5A5A5"/>
<path d="M134.522 199.009L127.262 197.999C122.352 197.309 118.202 194.129 116.232 189.669C115.252 189.709 114.272 189.749 113.282 189.749C112.082 189.749 110.892 189.719 109.702 189.649C107.722 194.079 103.582 197.239 98.7024 197.919L91.4424 198.929C90.2924 199.089 89.4424 197.889 89.9624 196.859L92.5824 191.749C93.4124 190.129 94.4824 188.689 95.7324 187.459C94.4324 187.119 93.1524 186.729 91.8824 186.309H134.632C133.202 186.789 131.752 187.219 130.282 187.599C131.512 188.819 132.562 190.239 133.382 191.819L135.982 196.929C136.522 197.969 135.662 199.169 134.512 199.009H134.522Z" fill="#F4635E"/>
<path d="M121.612 186.639L124.392 187.229C126.642 187.709 128.562 189.139 129.612 191.149L130.822 193.459C131.062 193.929 130.672 194.469 130.142 194.399L126.782 193.939C124.242 193.589 122.132 191.839 121.382 189.449L120.872 187.819L121.612 186.639Z" fill="#FC7B65"/>
<path d="M105.552 187.569L104.172 190.059C103.052 192.079 101.122 193.489 98.9024 193.899L96.3324 194.379C95.8124 194.479 95.4124 193.939 95.6324 193.449L97.0524 190.369C98.1224 188.039 100.412 186.539 102.922 186.519H104.632L105.542 187.559L105.552 187.569Z" fill="#FC7B65"/>
<path d="M114.102 178.909H110.322C106.236 178.909 102.922 182.222 102.922 186.309V186.319C102.922 190.406 106.236 193.719 110.322 193.719H114.102C118.189 193.719 121.502 190.406 121.502 186.319V186.309C121.502 182.222 118.189 178.909 114.102 178.909Z" fill="#FC7B65" stroke="#A34646" stroke-width="0.95" stroke-miterlimit="10"/>
<path d="M120.982 186.319C120.982 188.219 120.212 189.939 118.962 191.189C117.712 192.439 115.982 193.209 114.092 193.209H110.582C109.352 193.209 108.202 192.889 107.202 192.309C107.582 192.379 107.972 192.419 108.372 192.419H111.892C113.782 192.419 115.502 191.649 116.762 190.399C118.012 189.149 118.782 187.419 118.782 185.529C118.782 182.969 117.372 180.729 115.292 179.539C118.512 180.109 120.982 182.939 120.982 186.329V186.319Z" fill="#F4635E"/>
</svg>
